<svg id="_Layer_" data-name="&lt;Layer&gt;" xmlns="http://www.w3.org/2000/svg" viewBox="0 0 52 52"><defs><style>.cls-1{fill:#fff;}.cls-2{fill:#231f20;}.cls-3{fill:#999;}.cls-4{fill:#333;}</style></defs><rect class="cls-1" x="1" y="1" width="50" height="50" rx="11" ry="11"/><path class="cls-2" d="M1069.71,1467.3c5.51,0,10.29,4,10.29,9.56v28a10.64,10.64,0,0,1-10.29,10.44h-28c-5.51,0-9.71-4.93-9.71-10.44v-28a9.4,9.4,0,0,1,9.71-9.56H1070m-.29-2h-28a11.39,11.39,0,0,0-11.71,11.56v28c0,6.63,5.09,12.44,11.71,12.44h28a12.63,12.63,0,0,0,12.29-12.44v-28c0-6.63-5.66-11.56-12.29-11.56Z" transform="translate(-1030 -1465.3)"/><path id="_Path_" data-name="&lt;Path&gt;" class="cls-2" d="M1064.75,1479.42c-1.37-1.56-3.85-2.12-7-2.12h-9.21a1.23,1.23,0,0,0-1.3,1l-3.83,24.2c-.08.48.3.8.78.8h5.69l1.43-9,0,.2a1.4,1.4,0,0,1,1.3-1.2h2.7c5.31,0,9.46-2,10.68-8.27,0-.18.07-.25.09-.42.36-2.31,0-3.76-1.25-5.18" transform="translate(-1030 -1465.3)"/><path id="_Path_2" data-name="&lt;Path&gt;" class="cls-3" d="M1066,1484.61h0c0,.18-.06.23-.09.42-1.21,6.24-5.37,8.27-10.68,8.27h-2.7a1.43,1.43,0,0,0-1.3,1.23l-1.38,8.83-.39,2.31c-.07.42.26.62.68.62h4.79c.57,0,1.05-.21,1.14-.77l0-.14.9-5.67.06-.38a1.21,1.21,0,0,1,1.14-1h.72c4.64,0,8.28-1.79,9.34-7.25.44-2.28.21-4.14-1-5.47a4.45,4.45,0,0,0-1.31-1" transform="translate(-1030 -1465.3)"/><path id="_Path_3" data-name="&lt;Path&gt;" class="cls-4" d="M1064.73,1484.1l-.57-.15c-.2,0-.4-.26-.61-.3a14.29,14.29,0,0,0-2.38-.36h-7.22c-.18,0-.35.22-.5.3a1.31,1.31,0,0,0-.64,1l-1.53,9.78,0,.19a1.4,1.4,0,0,1,1.3-1.21h2.7c5.31,0,9.46-2,10.68-8.27,0-.18.07-.3.09-.48a6.5,6.5,0,0,0-1-.39c-.09,0-.18,0-.27-.06" transform="translate(-1030 -1465.3)"/></svg>