<svg id="_Layer_" data-name="&lt;Layer&gt;" xmlns="http://www.w3.org/2000/svg" viewBox="0 0 91 89"><defs><style>.cls-1{fill:#fff;}.cls-2{fill:#231f20;}.cls-3{fill:none;stroke:#231f20;stroke-miterlimit:10;stroke-width:2px;}</style></defs><rect class="cls-1" x="1" y="1" width="50" height="50" rx="11" ry="11"/><path class="cls-2" d="M420.46,1448.3c5.51,0,9.54,4.67,9.54,10.19v28a9.47,9.47,0,0,1-9.54,9.81h-28c-5.51,0-10.46-4.3-10.46-9.81v-28c0-5.51,4.95-10.19,10.46-10.19H420m.46-2h-28c-6.63,0-12.46,5.56-12.46,12.19v28c0,6.63,5.84,11.81,12.46,11.81h28A11.45,11.45,0,0,0,432,1486.48v-28c0-6.63-4.91-12.19-11.54-12.19Z" transform="translate(-380 -1446.3)"/><path id="_Compound_Path_" data-name="&lt;Compound Path&gt;" class="cls-2" d="M423.32,1478.41c0-.25-.25-3.13-5.37-3a36.92,36.92,0,0,0-6.37.45s-3.83-3.88-5.22-6.89c0,0,1.69-4.95,1.62-8.06s-.82-4.9-3.21-4.87-2.74,2.11-2.42,5.22a24.17,24.17,0,0,0,1.73,6.07s-1.1,3.43-2.56,6.85-2.45,5.21-2.45,5.21S394.12,1481,392,1483s-3,3.52-1.88,5c1,1.32,4.37,1.62,7.4-2.36a58.54,58.54,0,0,0,4.4-6.47s4.63-1.27,6.07-1.62,3.18-.62,3.18-.62,4.23,4.25,8.31,4.1S423.34,1478.66,423.32,1478.41Zm-32.16,9c-2.54-1.52,5.32-6.19,6.74-6.34C397.9,1481,393.81,1489,391.16,1487.39Zm12.06-27.28c0-2.46.8-3.13,1.42-3.13s1.32.3,1.34,2.44a28,28,0,0,1-1.34,6.32A11.49,11.49,0,0,1,403.22,1460.1ZM406.5,1477a19.58,19.58,0,0,0-3.82,1.27l1-2.34c1-2.34,2.11-5.52,2.11-5.52a36.9,36.9,0,0,0,4.3,5.84A33.88,33.88,0,0,0,406.5,1477Zm6.12-.22s8.27-1.5,8.27,1.33S415.76,1479.75,412.61,1476.75Z" transform="translate(-380 -1446.3)"/><rect class="cls-1" x="40" y="38" width="50" height="50" rx="11" ry="11"/><path class="cls-2" d="M459.43,1485.3a9.6,9.6,0,0,1,9.57,9.93v28c0,5.51-4.06,10.07-9.57,10.07h-28c-5.51,0-10.43-4.55-10.43-10.07v-28c0-5.51,4.91-9.93,10.43-9.93H459m.43-2h-28c-6.63,0-12.43,5.31-12.43,11.93v28c0,6.63,5.8,12.07,12.43,12.07h28c6.63,0,11.57-5.44,11.57-12.07v-28a11.59,11.59,0,0,0-11.57-11.93Z" transform="translate(-380 -1446.3)"/><path class="cls-2" d="M452.39,1493.3c1.43,0,2.61,1.63,2.61,3.06v25.75c0,1.43-1.18,2.19-2.61,2.19H438.46a2.17,2.17,0,0,1-2.46-2.19v-25.75c0-1.43,1-3.06,2.46-3.06H452m.39-2H438.46c-2.53,0-4.46,2.53-4.46,5.06v25.75a4.16,4.16,0,0,0,4.46,4.19h13.93c2.53,0,4.61-1.66,4.61-4.19v-25.75c0-2.53-2.07-5.06-4.61-5.06Z" transform="translate(-380 -1446.3)"/><line class="cls-3" x1="55" y1="52" x2="75" y2="52"/><line class="cls-3" x1="55" y1="74" x2="75" y2="74"/><path d="M440,1509.3l-.17-3.77,4.21-.81v4.58Zm5-4.69,6-.85v5.54h-6Zm5.9,5.69,0,5.26-5.87-.67v-4.59Zm-6.9,4.49-4-.6v-3.89h4Zm.33,0" transform="translate(-380 -1446.3)"/></svg>