<!-- Generator: Adobe Illustrator 20.1.0, SVG Export Plug-In  -->
<svg version="1.1"
	 xmlns="http://www.w3.org/2000/svg" xmlns:xlink="http://www.w3.org/1999/xlink" xmlns:a="http://ns.adobe.com/AdobeSVGViewerExtensions/3.0/"
	 x="0px" y="0px" width="143px" height="180.836px" viewBox="0 0 143 180.836" style="enable-background:new 0 0 143 180.836;"
	 xml:space="preserve">
<style type="text/css">
	.st0{fill:none;stroke:#231F20;stroke-linecap:round;stroke-linejoin:round;stroke-miterlimit:10;}
</style>
<defs>
</defs>
<g>
	<path class="st0" d="M22.132,174.943c2-0.336,3.555-1.09,5.545-1.483c1.827-0.361,3.706-0.304,5.565-0.407
		c1.859-0.103,3.767-0.386,5.364-1.342c0.268-0.161,0.526-0.339,0.804-0.482c0.98-0.503,2.145-0.523,3.228-0.325
		c1.083,0.198,2.118,0.598,3.176,0.904c1.317,0.381,2.932,0.543,3.879-0.448c0.52-0.544,1.148-1.007,1.881-1.18
		c0.539-0.127,1.109-0.121,1.631-0.305c0.523-0.184,1.015-0.648,0.972-1.201c-0.042-0.546-0.602-0.933-1.147-0.986
		c-0.546-0.053-1.081,0.14-1.602,0.309c-0.699,0.226-1.41,0.412-2.13,0.558"/>
	<path class="st0" d="M18.516,169.359c-0.949,1.186-0.664,1.926-0.624,3.445c0.023,0.848,0.049,1.713,0.339,2.51
		c0.324,0.888,0.953,1.626,1.583,2.33c0.896,1.001,1.876,2.012,3.151,2.434c0.746,0.247,1.547,0.274,2.333,0.25
		c1.154-0.035,2.339-0.187,3.347-0.75c0.325-0.182,0.631-0.408,0.865-0.698c0.353-0.436,0.526-0.992,0.629-1.543
		c0.139-0.745,0.155-1.553-0.204-2.22c-0.36-0.667-1.187-1.124-1.898-0.862c-0.106,0.039-0.209,0.095-0.285,0.179
		c-0.507,0.561,0.609,1.5,0.197,2.134c-0.137,0.211-0.4,0.295-0.642,0.364c-1.228,0.351-2.588,0.693-3.74,0.141
		c-0.886-0.424-1.478-1.332-1.69-2.291s-0.082-1.966,0.183-2.912c0.263-0.939,0.093-0.724,0.605-1.553"/>
	<path class="st0" d="M49.326,169.294c-0.116-1.269-0.232-2.537-0.348-3.806c-0.01-0.107-0.019-0.218,0.015-0.319
		c0.047-0.14,0.169-0.24,0.281-0.336c1.087-0.933,1.792-2.298,1.924-3.725c0.018-0.198,0.027-0.402,0.107-0.584
		c0.286-0.655,1.321-0.735,1.552-1.411c-0.686,0.032-1.375-0.001-2.055-0.099c-0.698-1.246-2.106-2.061-3.535-2.044
		c-0.315-0.853-0.76-1.659-1.313-2.381c-0.367,0.298-0.449,0.813-0.566,1.272c-0.426,1.661-2.09,2.512-3.225,3.735
		c-1.044,1.234-2.552,1.94-4.123,2.316c-1.572,0.376-3.195,0.484-4.781,0.792c-2.932,0.57-5.781,1.829-8.765,1.695
		c-1.328-0.06-2.633-0.396-3.962-0.435c-0.87-0.025-1.738,0.078-2.602,0.181c-3.877,0.462-7.755,0.924-11.632,1.387
		c-1.522,0.181-3.087,0.361-4.571-0.023c-0.163-0.042-0.329-0.091-0.496-0.074c-0.361,0.037-0.632,0.396-0.653,0.759
		c-0.02,0.363,0.164,0.711,0.414,0.975c0.716,0.756,1.862,0.882,2.903,0.882c1.905,0.001,3.807-0.261,5.711-0.202
		s3.875,0.474,5.366,1.661c0.124,0.099,0.254,0.22,0.266,0.379c0.015,0.204-0.167,0.363-0.332,0.483
		c-1.838,1.337-3.81,2.49-5.876,3.436c-2.177,0.996-4.612,1.498-6.768,2.538c-0.494,0.238-0.997,0.496-1.355,0.912
		s-0.538,1.031-0.298,1.525c0.286,0.589,1.058,0.79,1.7,0.66c0.642-0.13,1.2-0.509,1.779-0.814c1.689-0.892,3.618-1.187,5.507-1.47
		c2.935-0.439,5.87-0.879,8.806-1.318"/>
	<path class="st0" d="M49.11,165.805c1.135,0.017,2.226,0.427,3.261,0.893c0.439,0.197,0.941,0.512,0.924,0.992"/>
	<path class="st0" d="M49.973,168.327c-0.337-0.106-0.508-0.117-0.773-0.35"/>
</g>
<g>
	<path class="st0" d="M115.438,72.258c-3.738,11.075-5.149,22.686-4.423,34.352c0.267,4.29,2.495,8.286,3.641,12.429
		c1.117,4.037,1.772,5.855,1.758,10.044c-0.008,2.431-0.185,5.915,1.004,8.035c1.41,2.512,1.806,2.234,4.645,2.72
		c1.085,0.186,3.139,0.497,4.018-0.167c0.958-0.724,0.464-2.148,0.502-3.348c0.236-7.428,1.915-12.21,0.872-19.568
		c-0.362-2.557-0.878-5.097-1.052-7.674c-0.362-5.359,0.77-10.726,2.497-15.812c1.194-3.516,2.723-7.01,5.257-9.724"/>
	<path class="st0" d="M140.958,72.21c0.21,3.043,1.384,6.783,0.523,9.709c-2.422,8.23-6.711,15.467-5.357,23.938
		c0.473,2.956,1.611,6.91,2.009,9.876c0.845,6.302,0.039,9.567-0.502,15.903c-0.146,1.711-0.823,4.284-1.507,5.859
		c-0.887,2.044-2.475,1.331-4.185,1.172c-3.599-0.335-3.097-1.674-5.189-3.181"/>
	<path class="st0" d="M113.714,53.252c1.056,5.134,1.46,10.109,1.195,15.344c-0.068,1.354-0.066,2.963,1.044,3.74
		c1.103,0.772,2.606,0.237,3.95,0.311c1.848,0.103,3.402,1.387,5.168,1.944c1.895,0.598,3.941,0.333,5.91,0.062
		c1.922-0.265,3.844-0.529,5.767-0.794c1.047-0.144,2.124-0.298,3.037-0.829c2.02-1.174,2.652-3.863,2.336-6.178
		c-0.316-2.315-1.356-4.467-1.884-6.743c-1.923-8.29,3.108-16.805,2.138-25.26c-0.452-3.94-2.184-7.607-3.988-11.139
		c-0.44-0.862-0.924-1.735-1.686-2.332c-3.004-2.357-7.775-0.599-9.281-0.181c-0.607,0.169-1.465,0.293-2.176,0.67
		c-1.716,0.711-4.722,3.382-7.181,5.113c-0.859,0.605-1.724,1.214-2.458,1.967c-1.866,1.915-2.716,4.568-3.625,7.083
		c-1.254,3.47-2.774,6.93-5.26,9.656s-6.098,4.641-9.772,4.306c-0.992-0.091-2.042-0.331-2.947,0.085
		c-1.598,0.734-1.724,2.919-1.611,4.674c0.048,0.742,0.117,1.539,0.594,2.11c0.533,0.638,1.424,0.817,2.243,0.957
		c2.308,0.392,4.618,0.779,6.928,1.161c1.496,0.247,3.046,0.49,4.51,0.095c1.847-0.498,3.272-1.928,4.603-3.301
		c4.102-4.23,8.204-8.46,12.306-12.689"/>
	<path class="st0" d="M124.276,22.352c-0.408-0.235-0.539-0.424-1.041-0.654c-1.984,0.911-4.753-1.202-4.785-3.385
		c-0.008-0.547,0.087-1.187-0.317-1.556c-0.228-0.209-0.556-0.262-0.827-0.411c-0.845-0.465-0.891-1.69-0.542-2.589
		c0.349-0.899,0.975-1.699,1.129-2.651c0.226-1.402-0.785-2.829-0.664-4.243c0.206-2.402,1.37-4.164,3.362-5.132
		c1.992-0.968,4.274-1.093,6.487-1.193c1.41-0.063,2.876-0.114,4.175,0.439c1.501,0.639,2.568,1.994,3.441,3.372
		c0.966,1.524,1.803,3.23,1.767,5.035c-0.039,1.947-1.075,3.708-1.838,5.5s-1.227,3.727-0.215,5.391"/>
	<path class="st0" d="M118.045,10.252c0.415,0.532,0.791,0.475,1.455,0.597c0.938,0.172,1.915,0.342,2.834,0.086
		c0.722-0.202,1.416-0.664,2.155-0.54c0.643,0.108,1.137,0.649,1.416,1.239c0.279,0.59,0.392,1.242,0.597,1.861
		c1.027,3.109,4.059,5.263,7.238,4.479"/>
	<path class="st0" d="M93.273,50.388c-2.245-0.933-4.718-1.31-7.139-1.09c-0.242,0.022-0.489,0.051-0.711,0.15
		c-0.214,0.096-0.395,0.252-0.569,0.41c-0.622,0.565-1.201,1.178-1.73,1.832c-0.171,0.512-0.609,0.88-0.952,1.296
		c-0.344,0.417-0.607,1.004-0.361,1.485c0.273,0.533,0.995,0.619,1.591,0.565c0.659-0.06,1.311-0.207,1.932-0.436
		c0.362-0.133,0.729-0.297,1.114-0.275c0.523,0.03,0.957,0.391,1.398,0.675c1.416,0.912,3.159,1.104,4.782,1.552"/>
	<path class="st0" d="M100.128,49.481c-1.677,0.274-3.322-0.574-4.749-1.496c-0.258-0.167-0.516-0.338-0.801-0.453
		c-0.837-0.338-1.806-0.145-2.612,0.261c-0.806,0.406-1.493,1.006-2.224,1.536"/>
	<path class="st0" d="M90.351,56.224c-0.011,0.246-0.023,0.492-0.035,0.738c-4.308,0.129-8.205,0.13-12.488,0.124
		c0-0.446,0-0.918,0-1.364"/>
	<path class="st0" d="M88.834,49.109c-0.335-0.628-0.502-1.148-0.963-1.758c-0.254-0.336-0.352-0.687-0.628-1.004
		c-0.235-0.27-0.446-0.782-0.596-1.107c-0.726-1.58-1.517-3.13-2.37-4.645c-0.06-0.107-0.125-0.218-0.228-0.283
		c-0.147-0.093-0.334-0.065-0.508-0.054c-3.12,0.19-5.506,0.273-8.1,0.315c-0.42,0.007-1.341-0.009-1.758,0.042
		c-0.27,0.033-0.673,0.04-0.945,0.06c-1.441,0.107-3.533,0.024-3.718,0.359c-0.067,0.502,0.328,0.977,0.553,1.44
		c0.497,1.024,1.185,1.947,1.665,2.979c0.391,0.841,0.394,0.811,0.98,1.69c0.099,0.149,0.681,0.919,0.782,1.067
		c0.473,0.691,1.195,1.882,1.31,2.072c0.963,1.59,1.609,3.016,3.4,5.2c3.604-0.067,7.219,0.063,10.985-0.063"/>
	<path class="st0" d="M68.902,41.06c-0.462,0.393-0.951,0.753-1.462,1.078c0.819,1.486,1.637,2.972,2.456,4.458
		c0.135,0.245,0.271,0.492,0.458,0.699c0.154,0.17,0.341,0.313,0.463,0.507c0.114,0.182,0.164,0.396,0.235,0.598
		c0.125,0.355,0.321,0.681,0.515,1.004c1.447,2.408,2.894,4.816,4.341,7.224c0.097,0.162,0.203,0.332,0.372,0.418
		c0.116,0.059,0.25,0.072,0.38,0.08c0.39,0.025,0.781,0.024,1.171-0.004"/>
	<path class="st0" d="M81.844,53.575c-0.558,0.014-1.116,0.028-1.674,0.042c-0.451,0.011-0.921,0.019-1.331-0.171
		c-0.493-0.229-0.817-0.705-1.116-1.159c-0.621-0.943-1.242-1.886-1.863-2.828c-0.387-0.588-0.775-1.176-1.117-1.792
		c-0.435-0.781-0.798-1.608-1.33-2.326c-0.605-0.817-1.451-1.55-1.582-2.557c-0.021-0.161,0.074-0.461,0.234-0.491
		c0.16-0.029,0.324,0.01,0.486,0.005c0.192-0.006,0.376-0.075,0.564-0.117c0.244-0.053,0.495-0.06,0.744-0.065
		c0.438-0.01,0.876-0.021,1.313-0.031c0.233-0.006,0.46,0.056,0.693,0.058c2.044,0.02,4.108-0.434,6.156-0.206
		c0.497,0.055,1.022,0.185,1.358,0.555c0.321,0.354,0.406,0.853,0.544,1.31c0.139,0.46,0.344,0.898,0.591,1.31
		c0.19,0.318,0.404,0.622,0.556,0.959c0.117,0.259,0.195,0.534,0.295,0.8c0.301,0.798,0.8,1.504,1.294,2.2"/>
	<path class="st0" d="M72.797,51.859c-2.001,0.491-4.034,0.835-6.065,1.179c-0.896,0.152-1.792,0.303-2.688,0.455
		c-1.134,0.192-2.269,0.384-3.413,0.493c-0.73,0.07-1.463,0.105-2.191,0.191c-0.593,0.07-1.181,0.173-1.768,0.276
		c-3.796,0.665-7.301,1.309-11.386,1.986c-0.609,0.101-1.186,0.338-1.78,0.507c-0.291,0.083-0.582,0.166-0.881,0.211
		c-0.235,0.036-0.474,0.048-0.709,0.083c-0.851,0.124-1.668,0.534-2.525,0.466c6.779,0.818,9.353,1.069,15.693,1.571
		c1.15,0.091,4.932,0.498,6.085,0.539c1.095,0.038,2.927,0.099,4.022,0.152c3.892,0.188,9.717,0.559,14.966,0.653
		c5.091,0.091,10.14-0.82,15.15-1.728c0.841-0.152,1.683-0.305,2.524-0.457"/>
	<path class="st0" d="M39.75,57.628c-0.291,1.056-0.438,2.471,0.534,2.976c0.277,0.143,0.596,0.174,0.906,0.203
		c7.515,0.683,15.04,1.257,22.565,1.832c3.059,0.233,5.615,0.132,8.675,0.365c1.413,0.108,3.604,0.418,5.022,0.418
		c0.921,0,1.861,0.074,2.867,0.063c1.021-0.011,2.368,0.111,3.39,0.126c2.269,0.032,4.418-0.425,6.654-0.816
		c2.572-0.45,4.792-1.01,7.364-1.46c2.23-0.39,5.756-1.239,8.079-2.055"/>
	<path class="st0" d="M108.383,58.5c1.062-0.101,1.564-0.289,2.522-0.392c1.208-0.13,2.368-0.544,3.567-0.737"/>
	<path class="st0" d="M111.417,55.57c0.745-0.334,1.545-0.545,2.357-0.622c-0.035-0.082,0.034-0.19,0.123-0.192"/>
	<path class="st0" d="M48.512,61.496c0.041,6.808,0.081,13.615,0.122,20.423c0.033,5.622,0.492,11.241,0.5,16.863
		c0.002,1.404,0.004,2.808,0.006,4.212c0.006,4.137,0.012,8.275-0.141,12.41c-0.39,10.596,0.43,21.199,0.255,31.801
		c0.368,0.115,0.808,0.24,1.257,0.376c0.524,0.158,1.024,0.383,1.552,0.53c1.504,0.417,3.008,0.833,4.512,1.25
		c0.151,0.042,0.309,0.084,0.462,0.052c0.175-0.036,0.315-0.162,0.451-0.277c0.743-0.631,1.625-1.097,2.565-1.356
		c-0.132-18.888-0.065-37.765,0.222-56.651c0.145-9.547-0.106-19.142-0.337-28.713"/>
	<path class="st0" d="M56.967,62.288c0.036,1.058,0.072,2.118,0.003,3.175c-0.07,1.063-0.246,2.118-0.27,3.183
		c-0.023,1.017,0.092,2.031,0.173,3.045c0.477,5.989-0.252,12.006-0.195,18.013c0.073,7.674,0.207,15.431,0.257,23.105
		c0.013,2.058,0.027,4.117,0.04,6.175c0.029,4.47,0.058,8.943-0.182,13.407c-0.306,5.684-0.175,11.297-0.241,16.988"/>
	<path class="st0" d="M60.29,146.693c1.301,0.427,2.012,0.469,3.07,0.789c2.389,0.721,4.669,1.784,7.117,2.265
		c1.176,0.231,2.363,0.399,3.539,0.631c2.26,0.448,4.464,1.137,6.662,1.825c3.054,0.955,6.09,1.815,9.144,2.77
		c-0.241,0.41-0.745,0.565-1.138,0.832c-0.208,0.141-0.389,0.317-0.569,0.493c-0.561,0.547-1.111,1.094-1.673,1.642
		c-4.363-1.064-8.727-2.128-13.09-3.192c-1.333-0.325-2.665-0.65-3.998-0.975c-5.617-1.37-11.234-2.739-16.85-4.109
		c-0.931-0.227-1.862-0.454-2.793-0.681c-4.471-1.09-8.941-2.18-13.412-3.271c0.949-0.693,1.827-2.041,2.777-2.735
		c0.542,0.125,1.755,0.233,2.302,0.335c0.915,0.17,1.172,0.281,2.092,0.419c0.851,0.127,1.66,0.459,2.511,0.586
		c1.031,0.153,1.979,0.654,3.012,0.794"/>
	<path class="st0" d="M36.282,145.813c-0.016,0.925-0.141,1.649-0.157,2.574c3.763,0.637,7.902,1.32,11.664,1.957
		c0.73,0.124,1.46,0.247,2.189,0.377c1.871,0.332,3.736,0.702,5.595,1.099c8.026,1.713,15.517,3.127,24.18,4.508"/>
	<path class="st0" d="M104.319,59.739c-0.112,5.815-0.167,11.632-0.165,17.449c0.002,5.417-0.173,10.959-0.231,16.376
		c-0.015,1.386-0.03,2.773-0.044,4.159c-0.012,1.125-0.024,2.251-0.036,3.376c-0.059,5.547-0.152,11.22-0.211,16.766
		c2.511,0.439,3.175,0.62,5.671,1.004c0.236,0.036,0.939,0.223,1.172,0.167c0.133-0.032,0.676-0.082,0.799-0.141
		c0.316-0.15,0.62-0.275,0.9-0.495c0.473-0.282,0.433-0.528,0.425-0.881c-0.035-1.46-0.07-2.92-0.105-4.38"/>
	<path class="st0" d="M113.66,57.901c-0.3,6.941-0.35,14.267-0.26,21.215"/>
	<path class="st0" d="M110.945,58.148c-0.01,2.906-0.019,5.812-0.029,8.718c-0.003,0.953-0.006,1.905-0.009,2.858
		c-0.02,6.039-0.04,12.077-0.06,18.116c-0.006,1.947-0.021,3.833,0.135,5.773"/>
	<path class="st0" d="M110.656,119.039c0.124-7.239,0.222-15.107,0.17-22.347"/>
	<path class="st0" d="M103.482,116.403c-3.085-0.672-4.018-0.753-7.106-1.243c-0.286-0.045-0.643-0.124-0.929-0.075
		c-0.251,0.042-0.384,0.128-0.588,0.279c-0.716,0.528-1.646,1.327-2.362,1.855c1.175,0.216,2.152,0.287,3.327,0.502
		c2.155,0.395,4.436,0.86,6.591,1.255c4.271,0.784,8.472,1.33,12.743,2.113"/>
	<path class="st0" d="M92.496,117.407c-0.173,0.682,0.075,1.234,0.287,1.904c4.296,0.418,6.242,0.607,10.573,1.109
		c0.948,0.11,3.507,0.412,4.457,0.502c2.197,0.209,4.729,0.188,7.303,0.377"/>
	<path class="st0" d="M117.208,136.825c-0.962,0.025-3.793,0.709-4.722,0.959c-2.176,0.586-3.015,0.644-5.012,1.265
		c-0.676,0.21-1.353,0.581-1.675,1.211c-0.191,0.374-0.239,0.804-0.254,1.224c-0.015,0.41,0.005,0.847,0.236,1.186
		c0.203,0.298,0.537,0.475,0.866,0.624c2.084,0.944,4.405,1.195,6.68,1.435c0.622,0.066,1.244,0.131,1.866,0.197
		c0.835,0.088,1.672,0.176,2.512,0.175c0.784-0.001,1.566-0.08,2.347-0.159c0.892-0.09,1.784-0.18,2.676-0.271
		c1.015-0.103,2.036-0.207,3.019-0.481c0.292-0.081,0.592-0.185,0.803-0.403c0.238-0.246,0.325-0.599,0.381-0.937
		c0.237-1.434-0.138-2.856-0.221-4.195"/>
	<path class="st0" d="M136.626,136.239c0.017,0.866,0.161,3.225,0.083,4.087c-0.034,0.373-0.079,0.755-0.253,1.087
		c-0.395,0.752-1.327,1.038-2.174,1.104c-1.911,0.149-5.661-1.487-7.449-2.176"/>
	<path class="st0" d="M112.715,117.591c0.576,0.221,1.062,0.319,1.69,0.528"/>
</g>
</svg>