<svg id="_Layer_" data-name="&lt;Layer&gt;" xmlns="http://www.w3.org/2000/svg" viewBox="0 0 91 90"><defs><style>.cls-1{fill:#fff;}.cls-2{fill:#231f20;}.cls-3,.cls-4{fill:none;stroke:#231f20;stroke-width:2px;}.cls-3{stroke-linejoin:round;}.cls-4{stroke-miterlimit:10;}</style></defs><rect class="cls-1" x="1" y="1" width="50" height="50" rx="11" ry="11"/><path class="cls-2" d="M420.52,824.3c5.51,0,10.48,4.09,10.48,9.61v28a10.77,10.77,0,0,1-10.48,10.39h-28c-5.51,0-9.52-4.88-9.52-10.39v-28a9.28,9.28,0,0,1,9.52-9.61H421m-.48-2h-28A11.27,11.27,0,0,0,381,833.9v28c0,6.63,4.9,12.39,11.52,12.39h28A12.76,12.76,0,0,0,433,861.9v-28c0-6.63-5.85-11.61-12.48-11.61Z" transform="translate(-381 -822.3)"/><path d="M399.7,843.7l-3.89,4-3.76-3.8-2.3,2.29,3.94,3.58-3.42,3.55,2.18,2.2,3.5-3.55,3.49,3.54,2.28-2.24-3.64-3.52,3.81-3.84Z" transform="translate(-381 -822.3)"/><path d="M421.37,852.61c-.11,0-.18.2-.28.28a24.28,24.28,0,0,1-2.11,1.56c-.68.41-1,.13-1-.66a1.13,1.13,0,0,1,0-.28c.37-1.4.74-2.81,1.11-4.21a4.76,4.76,0,0,0,.27-1.23,1.09,1.09,0,0,0-.44-.76c-.12-.08-.53.13-.69.31a13,13,0,0,0-.73,1.1c-.92,1.27-1.81,2.56-2.79,3.78a5.32,5.32,0,0,1-2.54,1.81c-1,.32-1.52.08-1.85-.93-.11-.34-.13-.71-.24-1.06a1.59,1.59,0,0,1,.42-1.55,31.07,31.07,0,0,0,5.62-10.65,11.26,11.26,0,0,0,.33-2.77,1.59,1.59,0,0,0-1.13-1.64,1.72,1.72,0,0,0-1.9.64,9.12,9.12,0,0,0-1.29,1.82A30.62,30.62,0,0,0,409,850.59a1.44,1.44,0,0,1-.34.86c-1.39,1.47-2.79,2.92-5,3.17-.16,0-.42.34-.39.44a.78.78,0,0,0,.47.45,1.62,1.62,0,0,0,.73-.05,8.47,8.47,0,0,0,3.93-2.38l.61-.58c.17.56.27,1,.44,1.46a2,2,0,0,0,2.61,1.35,6,6,0,0,0,3.18-2c.87-1,1.65-2,2.5-3.06a9.29,9.29,0,0,0-.28.93A20.12,20.12,0,0,0,417,854a1.41,1.41,0,0,0,2.14,1.4,16,16,0,0,0,2.27-1.53,2.07,2.07,0,0,0,.62-.66c.1-.18,0-.46,0-.7A4.36,4.36,0,0,0,421.37,852.61Zm-10.52-8a22.44,22.44,0,0,1,2-5.77,10.35,10.35,0,0,1,1.32-1.86.93.93,0,0,1,.83-.26,1,1,0,0,1,.45.82,16.09,16.09,0,0,1-.53,3.14,30.8,30.8,0,0,1-4.56,8.7c-.06.09-.14.16-.21.25l-.23-.08C410.23,847.86,410.49,846.21,410.85,844.57Z" transform="translate(-381 -822.3)"/><path d="M422.78,859.3H390.26c-.33,0-.6.17-.6.5s.27.5.6.5h32.52c.33,0,.6-.17.6-.5S423.12,859.3,422.78,859.3Z" transform="translate(-381 -822.3)"/><rect class="cls-1" x="40" y="39" width="50" height="50" rx="11" ry="11"/><path class="cls-2" d="M459.84,862.3c5.51,0,10.16,4,10.16,9.55v28c0,5.51-4.65,10.45-10.16,10.45h-28c-5.51,0-9.84-4.94-9.84-10.45v-28a9.49,9.49,0,0,1,9.84-9.55H460m-.16-2h-28A11.48,11.48,0,0,0,420,871.84v28c0,6.63,5.21,12.45,11.84,12.45h28c6.63,0,12.16-5.83,12.16-12.45v-28c0-6.63-5.54-11.55-12.16-11.55Z" transform="translate(-381 -822.3)"/><polyline class="cls-3" points="52 70 52 64 77.89 64 77.69 70"/><rect class="cls-1" x="60.78" y="50.88" width="8.11" height="7.73" rx="3" ry="3"/><path class="cls-2" d="M446.89,874.18a2,2,0,0,1,2,2v1.73a2,2,0,0,1-2,2h-2.11a2,2,0,0,1-2-2v-1.73a2,2,0,0,1,2-2h2.11m0-2h-2.11a4,4,0,0,0-4,4v1.73a4,4,0,0,0,4,4h2.11a4,4,0,0,0,4-4v-1.73a4,4,0,0,0-4-4Z" transform="translate(-381 -822.3)"/><rect class="cls-1" x="60.78" y="68.48" width="8.11" height="7.73" rx="3" ry="3"/><path class="cls-2" d="M446.89,891.77a2,2,0,0,1,2,2v1.73a2,2,0,0,1-2,2h-2.11a2,2,0,0,1-2-2v-1.73a2,2,0,0,1,2-2h2.11m0-2h-2.11a4,4,0,0,0-4,4v1.73a4,4,0,0,0,4,4h2.11a4,4,0,0,0,4-4v-1.73a4,4,0,0,0-4-4Z" transform="translate(-381 -822.3)"/><rect class="cls-1" x="47.52" y="68.48" width="8.11" height="7.73" rx="3" ry="3"/><path class="cls-2" d="M433.63,891.77a2,2,0,0,1,2,2v1.73a2,2,0,0,1-2,2h-2.11a2,2,0,0,1-2-2v-1.73a2,2,0,0,1,2-2h2.11m0-2h-2.11a4,4,0,0,0-4,4v1.73a4,4,0,0,0,4,4h2.11a4,4,0,0,0,4-4v-1.73a4,4,0,0,0-4-4Z" transform="translate(-381 -822.3)"/><rect class="cls-1" x="74.04" y="68.48" width="8.11" height="7.73" rx="3" ry="3"/><path class="cls-2" d="M460.15,891.77a2,2,0,0,1,2,2v1.73a2,2,0,0,1-2,2H458a2,2,0,0,1-2-2v-1.73a2,2,0,0,1,2-2h2.11m0-2H458a4,4,0,0,0-4,4v1.73a4,4,0,0,0,4,4h2.11a4,4,0,0,0,4-4v-1.73a4,4,0,0,0-4-4Z" transform="translate(-381 -822.3)"/><line class="cls-4" x1="65" y1="58" x2="65" y2="68"/></svg>