<!-- Generator: Adobe Illustrator 20.1.0, SVG Export Plug-In  -->
<svg version="1.1"
	 xmlns="http://www.w3.org/2000/svg" xmlns:xlink="http://www.w3.org/1999/xlink" xmlns:a="http://ns.adobe.com/AdobeSVGViewerExtensions/3.0/"
	 x="0px" y="0px" width="101.5px" height="95.579px" viewBox="0 0 101.5 95.579" style="enable-background:new 0 0 101.5 95.579;"
	 xml:space="preserve">
<style type="text/css">
	.st0{fill:none;stroke:#000000;stroke-width:2;stroke-linecap:round;stroke-linejoin:round;stroke-miterlimit:10;}
	.st1{fill:none;stroke:#000000;stroke-linecap:round;stroke-linejoin:round;stroke-miterlimit:10;}
</style>
<defs>
</defs>
<g>
	<path class="st0" d="M79.268,1.001c-0.096,4.953,0.044,9.882-0.052,14.835c-1.535-0.001-3.077,0.012-4.591,0.262
		c-3.175,0.523-6.171,2.114-8.352,4.48c-2.181,2.366-3.527,5.495-3.704,8.708c3.111,0.152,6.223,0.304,9.334,0.456
		c-0.046,4.313-0.091,8.627-0.137,12.94c-4.647,0.7-9.352,1.008-14.051,0.918c-1.798,4.769-4.029,9.767-6.261,14.348
		c-0.53,1.089-1.07,2.192-1.871,3.101c-0.586,0.665-1.298,1.21-1.88,1.879c-0.596,0.686-1.044,1.492-1.665,2.155
		c-0.936,0.999-2.203,1.612-3.439,2.202c-1.095,0.523-2.189,1.045-3.284,1.568c-1.046,0.5-2.094,1-3.176,1.415
		c-3.376,1.296-7.032,1.742-10.648,1.727c-0.319-4.993-0.367-10.003-0.145-15.001c5.94,0.623,11.948-2.866,14.482-8.275
		c0.486-1.038,0.847-2.131,1.305-3.182c1.148-2.635,2.895-4.993,3.856-7.701c0.716-2.018,0.973-4.17,1.569-6.227
		c0.421-1.454,1.009-2.853,1.595-4.248c0.863-2.052,1.725-4.104,2.588-6.157c0.614-1.461,1.229-2.923,1.959-4.329
		C57.667,7.308,68.488,0.912,79.268,1.001z"/>
	<path class="st0" d="M10.029,79.804c-3.01,0-6.02,0-9.029,0c0.085,4.925,0.201,9.851,0.286,14.775"/>
	<path class="st0" d="M1.365,86.371c2.675,0,5.351,0,8.026,0"/>
	<path class="st0" d="M14.709,80.17c-0.043,4.194-0.086,8.388-0.129,12.581c3.039,0.193,6.086,0.251,9.13,0.176"/>
	<path class="st0" d="M27.238,92.503c0.792-2.401,1.526-4.822,2.201-7.258c0.498-1.8,0.992-3.666,2.148-5.133
		c0.584-0.036,1.169-0.073,1.753-0.109c2.314,3.962,3.022,8.646,4.829,12.863"/>
	<path class="st0" d="M28.639,88.961c2.699-0.21,5.408-0.282,8.114-0.214"/>
	<path class="st0" d="M52.487,81.543c-1.608-2.202-5.094-2.717-7.271-1.074c-0.688,0.52-1.259,1.252-1.393,2.104
		c-0.134,0.852,0.26,1.813,1.045,2.169c0.437,0.198,0.935,0.196,1.414,0.209c1.382,0.038,2.759,0.233,4.098,0.578
		c0.873,0.225,1.796,0.563,2.29,1.318c0.395,0.604,0.44,1.366,0.431,2.088c-0.012,0.86-0.101,1.768-0.603,2.466
		c-0.48,0.668-1.271,1.045-2.065,1.261c-2.724,0.74-6.028-0.438-7.156-3.026"/>
	<path class="st0" d="M58.517,79.256c-0.078,4.409-0.036,8.819,0.125,13.226"/>
	<path class="st0" d="M68.858,79.074c0,4.469,0,8.938,0,13.407"/>
	<path class="st0" d="M58.645,85.434c2.837-0.195,5.674-0.39,8.51-0.585c0.516-0.035,1.074-0.06,1.503,0.228"/>
	<path class="st1" d="M74.086,91.935c0.337-4.232-0.437-8.565,0.543-12.696c2.158,3.843,4.084,8.102,5.624,12.232
		c1.915-4.179,4.025-8.268,6.322-12.249c0.201,3.995,0.46,8.9,0.661,12.895"/>
	<path class="st1" d="M91.721,78.392c3.283,4.579,6.38,9.291,9.279,14.122"/>
	<path class="st1" d="M90.743,92.478c3.373-4.735,6.747-9.47,10.12-14.205"/>
</g>
</svg>