<svg id="_Layer_" data-name="&lt;Layer&gt;" xmlns="http://www.w3.org/2000/svg" viewBox="0 0 68.27 50.24"><defs><style>.cls-1,.cls-2{fill:none;stroke:#231f20;stroke-linecap:round;stroke-linejoin:round;}.cls-2{stroke-dasharray:1.96 2.95;}</style></defs><path class="cls-1" d="M740.59,1991.92l-8.8.29a5.52,5.52,0,0,0-1.44.18,4.17,4.17,0,0,0-2.14,1.82c-.6.92-1,2.19-.34,3.07s1.71,1,1.83,2c-1.11.42-2.35.09-3.53,0a7.6,7.6,0,0,0-3.57.71c-1.14.54-2.25,1.67-1.93,2.89s1.68,1.6,2.86,1.66a18,18,0,0,0,5.45-.82q3.21-.85,6.39-1.83c.73-.23,1.56-.55,1.8-1.28.32-1-.6-1.86-1.41-2.46" transform="translate(-714.75 -1989.22)"/><path class="cls-1" d="M736.15,2001.8l4,3.77a1.29,1.29,0,1,0,.29,2.44,1.89,1.89,0,0,0,1.66,2,3.12,3.12,0,0,1,.88.08c.5.19.69.79.8,1.32,1.62,7.9-1.21,16-1.37,24.07a3.8,3.8,0,0,0,.46,2.27c.67,1,2,1.14,3.18,1.22.69,0,1.63-.09,1.71-.78a1.48,1.48,0,0,0-.19-.75,10.36,10.36,0,0,1-.84-4.87c.18-2.51,1.26-4.84,2.08-7.22a35.55,35.55,0,0,0,1.9-10.07,4.56,4.56,0,0,1,.54-2.46,1.46,1.46,0,0,1,2.18-.34,2.22,2.22,0,0,1,.32,1.46,17.54,17.54,0,0,0,3.37,10.35c.68.92,1.45,1.78,2.21,2.63,1.38,1.53,2.9,3.15,4.91,3.57a2.38,2.38,0,0,0,1.61-.14,1.2,1.2,0,0,0,.62-1.38,2,2,0,0,0-.62-.75c-3.23-2.93-4.24-7.53-5.08-11.82a8.83,8.83,0,0,1,0-4.84,13.24,13.24,0,0,1,1.38-2.31,13,13,0,0,0,1.49-3.2,2.25,2.25,0,0,1,.43-.92,2.07,2.07,0,0,1,.85-.46l2.45-.85a7,7,0,0,1,3.25-.57c3.39.5,4.74,5.55,8.16,5.83a1,1,0,0,0,.48,0,1.24,1.24,0,0,0,.53-.57,8.27,8.27,0,0,0,1.44-3.69,11.83,11.83,0,0,0-1-4,8,8,0,0,1-.4-2.09c0-.76.1-1.52.05-2.28-.18-3.23-3.45-5.58-6.67-5.88a18.92,18.92,0,0,0-3.75.14c-2.22.24-4.44.53-6.66.8-3.29.4-6.68.73-9.87-.14-2.45-.67-4.9-2-7.37-1.43-1.86.46-3.39,2-5.3,2.13" transform="translate(-714.75 -1989.22)"/><path class="cls-1" d="M767.37,1993.13a1.56,1.56,0,0,0-1.18,1,4.22,4.22,0,0,0-.23,1.59q0,1.3.07,2.59a7,7,0,0,0,.37,2.08.88.88,0,0,0,.49.58,1,1,0,0,0,.82-.29,4.11,4.11,0,0,0,.86-.78,16.58,16.58,0,0,0,1-2.5,5.48,5.48,0,0,1,1.29-1.47,6.63,6.63,0,0,1,1.52-1.12" transform="translate(-714.75 -1989.22)"/><path class="cls-1" d="M775.61,1997.66a2.06,2.06,0,0,1-1.76-.11" transform="translate(-714.75 -1989.22)"/><path class="cls-1" d="M737.55,2008.65s-.36-.05-1-.08" transform="translate(-714.75 -1989.22)"/><path class="cls-2" d="M733.62,2008.68a21.5,21.5,0,0,0-9.09,3.15c-4.86,3.05-7.61,11.49-8.71,15.68" transform="translate(-714.75 -1989.22)"/><path class="cls-1" d="M715.46,2028.94c-.14.62-.21,1-.21,1" transform="translate(-714.75 -1989.22)"/><path class="cls-1" d="M775.47,2025a9,9,0,0,0,3.19,3.79.93.93,0,0,0,.56.21c.41,0,.6-.52.67-.93.21-1.31.19-2.73,1-3.8a13.28,13.28,0,0,0,1.66,4.41" transform="translate(-714.75 -1989.22)"/></svg>