<!-- Generator: Adobe Illustrator 20.1.0, SVG Export Plug-In  -->
<svg version="1.1"
	 xmlns="http://www.w3.org/2000/svg" xmlns:xlink="http://www.w3.org/1999/xlink" xmlns:a="http://ns.adobe.com/AdobeSVGViewerExtensions/3.0/"
	 x="0px" y="0px" width="87px" height="92.722px" viewBox="0 0 87 92.722" style="enable-background:new 0 0 87 92.722;"
	 xml:space="preserve">
<style type="text/css">
	.st0{fill:#FFFFFF;stroke:#000000;stroke-linecap:round;stroke-linejoin:round;stroke-miterlimit:10;}
</style>
<defs>
</defs>
<g>
	<path d="M67.773,57.783c-3.673,0.165-7.463,0.048-10.936-0.217c-0.138,2.485-0.166,3.901-1.85,5.848
		c-0.773,0.894-1.819,1.646-2.846,2.232c-0.917,0.523-2.037,0.484-3.092,0.431c-1.906-0.096-3.813-0.192-5.719-0.288
		c-1.134-0.057-2.291-0.119-3.346-0.54c-1.871-0.746-3.126-2.487-4.267-4.148c-2.124-3.09-4.314-6.576-3.833-10.295
		c2.694-0.78,5.543-0.789,8.347-0.74c14.403,0.254,28.661,1.633,43.05,0.949c-0.099-10.354-3.824-20.902-10.19-29.069
		c-1.081-1.387-2.243-2.718-3.557-3.887c-1.127-1.004-2.361-1.884-3.643-2.68c-5.444-3.38-11.82-5.24-18.227-5.318
		c-3.085-0.038-6.158,0.328-9.222,0.693c-2.798,0.333-5.611,0.67-8.313,1.467c-2.294,0.677-4.478,1.677-6.652,2.676
		c-2.495,1.147-5.016,2.313-7.16,4.029c-3.364,2.691-5.568,6.538-7.639,10.316c-2.616,4.772-3.7,10.044-3.758,15.486
		c-0.126,11.712,5.083,23.378,13.887,31.103c1.306,1.146,2.698,2.216,4.257,2.982c1.617,0.794,3.379,1.245,5.132,1.658
		c4.534,1.07,9.118,1.932,13.731,2.583c2.966,0.418,6.009,0.747,8.938,0.116c2.754-0.594,5.294-2.015,8.078-2.443
		c1.012-0.156,2.049-0.178,3.035-0.454c1.25-0.35,2.35-1.086,3.426-1.811c3.273-2.204,6.581-4.44,9.215-7.379
		c2.144-2.392,3.782-5.186,5.404-7.959c1.032-1.764,2.107-3.977,1.626-5.963C77.025,57.368,72.399,57.575,67.773,57.783z
		 M38.63,30.257c1.911-0.912,4.087-1.044,6.202-1.16c1.016-0.056,2.033-0.111,3.05-0.167c1.097-0.06,2.25-0.11,3.236,0.374
		c1.209,0.593,1.916,1.856,2.548,3.046c0.769,1.446,1.538,2.892,2.306,4.338c0.431,0.81,0.744,1.709,0.693,2.626
		c-7.832,0.636-15.838,0.778-23.685,0.354C33.407,35.862,35.175,31.907,38.63,30.257z"/>
	<path class="st0" d="M34.012,81.886c0.917,0.223,1.201,0.065,2.633,0.326c-2.918,3.106-5.731,3.925-10.096,5.929
		c-4.027,1.848-8.165,3.72-12.584,4.04s-9.249-1.229-11.659-4.946c-2.089-3.221-2.004-7.364-1.518-11.172
		C3.464,55.077,16.05,36.317,31.971,22.386c6.44-5.635,13.458-10.61,20.908-14.819c7.111-4.018,14.968-7.411,23.127-7.038
		c3.214,0.147,6.643,1.032,8.671,3.529c1.839,2.265,2.157,5.471,1.528,8.32s-2.154,5.509-3.596,8.045
		c1.528-3.874,2.837-8.254,1.012-11.997c-1.84-3.775-6.495-5.489-10.679-5.131s-8.024,2.365-11.726,4.349
		c-2.422,1.298-4.846,2.607-7.099,4.18c-1.849,1.291-3.572,2.752-5.292,4.21c-3.613,3.063-7.24,6.141-10.356,9.709
		c-1.314,1.504-2.532,3.089-3.748,4.674c-7.084,9.229-14.188,18.533-19.541,28.863c-2.576,4.971-5.308,9.892-7.23,15.151
		c-1.083,2.965-1.954,6.384-0.47,9.17c1.453,2.729,4.763,3.957,7.851,4.121c5.31,0.282,10.415-1.859,15.301-3.959
		C32.536,82.943,32.478,83.307,34.012,81.886z"/>
</g>
</svg>