<!-- Generator: Adobe Illustrator 20.1.0, SVG Export Plug-In  -->
<svg version="1.1"
	 xmlns="http://www.w3.org/2000/svg" xmlns:xlink="http://www.w3.org/1999/xlink" xmlns:a="http://ns.adobe.com/AdobeSVGViewerExtensions/3.0/"
	 x="0px" y="0px" width="66.186px" height="18px" viewBox="0 0 66.186 18" style="enable-background:new 0 0 66.186 18;"
	 xml:space="preserve">
<style type="text/css">
	.st0{fill:#FFFFFF;}
</style>
<defs>
</defs>
<g>
	<g>
		<path class="st0" d="M2.5,17C1.948,17,1,16.553,1,16V2c0-0.553,0.948-1,1.5-1h61.687c0.404,0,0.769,0.243,0.924,0.617
			s0.069,0.804-0.217,1.09L58.601,9l6.293,6.293c0.286,0.286,0.372,0.716,0.217,1.09S64.591,17,64.187,17H2.5z"/>
		<path d="M64.093,2L57.14,9l7.047,7H2V2h62 M64.186,0H2.5C1.395,0,0,0.895,0,2v14c0,1.105,1.395,2,2.5,2h61.686
			c0.809,0,1.538-0.487,1.848-1.235c0.31-0.747,0.138-1.608-0.434-2.18L60.015,9L65.6,3.414c0.572-0.572,0.743-1.432,0.434-2.18
			C65.724,0.487,64.995,0,64.186,0L64.186,0z"/>
	</g>
	<g>
		<g>
			<path d="M9.761,6.561v1.839h2.019v1.17H9.761v2.748h-1.64V5.392h4.128l-0.17,1.169H9.761z"/>
			<path d="M17.858,10.129H14.57c0.11,0.949,0.56,1.209,1.21,1.209c0.43,0,0.81-0.149,1.269-0.47l0.65,0.88
				c-0.53,0.419-1.21,0.739-2.069,0.739c-1.769,0-2.668-1.14-2.668-2.799c0-1.589,0.869-2.848,2.479-2.848
				c1.519,0,2.448,0.999,2.448,2.718C17.889,9.729,17.879,9.969,17.858,10.129z M16.34,9.109c-0.011-0.72-0.23-1.22-0.859-1.22
				c-0.53,0-0.84,0.34-0.91,1.289h1.77V9.109z"/>
			<path d="M23.879,11.428l-0.33,1.029c-0.63-0.05-1.039-0.239-1.279-0.77c-0.38,0.59-0.97,0.8-1.599,0.8
				c-1.06,0-1.729-0.689-1.729-1.659c0-1.159,0.88-1.789,2.488-1.789h0.54V8.81c0-0.63-0.25-0.819-0.899-0.819
				c-0.34,0-0.859,0.1-1.39,0.279L19.321,7.23c0.67-0.25,1.399-0.39,1.999-0.39c1.539,0,2.198,0.649,2.198,1.879v2.059
				C23.519,11.188,23.629,11.338,23.879,11.428z M21.97,10.849V9.909h-0.39c-0.72,0-1.069,0.249-1.069,0.779
				c0,0.42,0.229,0.67,0.619,0.67C21.5,11.358,21.78,11.168,21.97,10.849z"/>
			<path d="M27.17,12.487c-1.17-0.01-1.739-0.67-1.739-1.919V8.109h-0.75V7.011h0.75V5.861l1.579-0.181v1.33h1.22l-0.17,1.099h-1.05
				v2.439c0,0.509,0.17,0.689,0.5,0.689c0.18,0,0.359-0.05,0.569-0.181l0.53,1.01C28.209,12.348,27.649,12.487,27.17,12.487z"/>
			<path d="M32.749,12.317l-0.069-0.67c-0.39,0.56-0.91,0.84-1.609,0.84c-0.989,0-1.479-0.64-1.479-1.669V7.011h1.579v3.607
				c0,0.54,0.181,0.7,0.51,0.7c0.33,0,0.63-0.221,0.86-0.62V7.011h1.579v5.307H32.749z"/>
			<path d="M39.269,6.931L39.02,8.46c-0.17-0.04-0.3-0.07-0.48-0.07c-0.659,0-0.929,0.489-1.099,1.299v2.629h-1.579V7.011h1.379
				l0.13,1.029c0.24-0.74,0.76-1.18,1.369-1.18C38.939,6.86,39.099,6.88,39.269,6.931z"/>
			<path d="M44.868,10.129H41.58c0.11,0.949,0.56,1.209,1.21,1.209c0.43,0,0.81-0.149,1.269-0.47l0.65,0.88
				c-0.53,0.419-1.21,0.739-2.069,0.739c-1.769,0-2.668-1.14-2.668-2.799c0-1.589,0.869-2.848,2.479-2.848
				c1.519,0,2.448,0.999,2.448,2.718C44.898,9.729,44.889,9.969,44.868,10.129z M43.35,9.109c-0.011-0.72-0.23-1.22-0.859-1.22
				c-0.53,0-0.84,0.34-0.91,1.289h1.77V9.109z"/>
			<path d="M51.068,12.317h-1.399l-0.08-0.62c-0.31,0.44-0.789,0.79-1.509,0.79c-1.35,0-2.019-1.119-2.019-2.839
				c0-1.639,0.829-2.808,2.198-2.808c0.49,0,0.92,0.189,1.229,0.499V4.731l1.579,0.17V12.317z M49.489,10.729V8.439
				c-0.24-0.28-0.47-0.449-0.819-0.449c-0.57,0-0.97,0.479-0.97,1.669c0,1.319,0.36,1.669,0.88,1.669
				C48.949,11.328,49.239,11.128,49.489,10.729z"/>
		</g>
	</g>
</g>
</svg>