<!-- Generator: Adobe Illustrator 20.1.0, SVG Export Plug-In  -->
<svg version="1.1"
	 xmlns="http://www.w3.org/2000/svg" xmlns:xlink="http://www.w3.org/1999/xlink" xmlns:a="http://ns.adobe.com/AdobeSVGViewerExtensions/3.0/"
	 x="0px" y="0px" width="121.349px" height="156.753px" viewBox="0 0 121.349 156.753"
	 style="enable-background:new 0 0 121.349 156.753;" xml:space="preserve">
<style type="text/css">
	.st0{fill:#FFFFFF;}
</style>
<defs>
</defs>
<path class="st0" d="M64.347,0C21.569,0,0,30.67,0,56.246c0,15.486,5.863,29.263,18.438,34.398c2.062,0.842,3.909,0.029,4.507-2.254
	c0.416-1.581,1.4-5.567,1.839-7.226c0.603-2.258,0.369-3.05-1.295-5.018c-3.626-4.277-5.943-9.815-5.943-17.657
	c0-22.754,17.024-43.124,44.33-43.124c24.179,0,37.463,14.774,37.463,34.505c0,25.961-11.489,47.871-28.545,47.871
	c-9.419,0-16.47-7.789-14.21-17.343c2.706-11.407,7.948-23.716,7.948-31.95c0-7.37-3.956-13.517-12.143-13.517
	c-9.629,0-17.364,9.961-17.364,23.305c0,8.499,2.871,14.247,2.871,14.247s-9.853,41.751-11.581,49.062
	c-3.44,14.561-0.517,32.413-0.27,34.216c0.145,1.069,1.518,1.323,2.14,0.515c0.888-1.16,12.356-15.318,16.255-29.464
	c1.103-4.006,6.333-24.749,6.333-24.749c3.128,5.967,12.271,11.223,21.994,11.223c28.944,0,48.581-26.387,48.581-61.707
	C121.349,24.872,98.727,0,64.347,0z"/>
</svg>