<!-- Generator: Adobe Illustrator 20.1.0, SVG Export Plug-In  -->
<svg version="1.1"
	 xmlns="http://www.w3.org/2000/svg" xmlns:xlink="http://www.w3.org/1999/xlink" xmlns:a="http://ns.adobe.com/AdobeSVGViewerExtensions/3.0/"
	 x="0px" y="0px" width="246px" height="84.173px" viewBox="0 0 246 84.173" style="enable-background:new 0 0 246 84.173;"
	 xml:space="preserve">
<style type="text/css">
	.st0{fill:none;stroke:#000000;stroke-linecap:round;stroke-linejoin:round;stroke-miterlimit:10;}
	.st1{fill:none;stroke:#000000;stroke-linecap:round;stroke-linejoin:round;}
	.st2{fill:none;stroke:#000000;stroke-linecap:round;stroke-linejoin:round;stroke-dasharray:1.9643,3.9286;}
</style>
<defs>
</defs>
<g>
	<path class="st0" d="M241.718,10.525c0.475,1.73,1.44,3.264,2.647,4.591c0.545,0.599,1.2,1.258,1.13,2.065
		c-0.084,0.964-1.122,1.492-1.98,1.938c-1.356,0.705-2.63,1.692-3.311,3.06c-0.682,1.368-0.644,3.167,0.387,4.296
		c0.186,0.204,0.415,0.419,0.409,0.695c-0.007,0.302-0.291,0.513-0.546,0.675c-1.897,1.207-3.794,2.414-5.691,3.621
		c0.667-0.059,1.16,0.884,0.73,1.397c-0.495-0.604-1.507,0.117-1.623,0.889c-0.115,0.772,0.171,1.596-0.108,2.325
		c-0.365,0.952-1.768,1.294-2.53,0.618c0.939,1.653,1.342,3.604,1.134,5.494c-0.068,0.621-0.843,1.368-1.125,0.81
		c-0.717-1.667-1.435-3.334-2.152-5.001c-1.989,3.639,2.62,8.029,1.452,12.007c-0.684,2.329-3.075,3.621-4.932,5.185
		c-2.525,2.125-4.245,5.028-5.917,7.873c-0.365,0.621-0.74,1.276-0.764,1.996c-0.031,0.93,0.523,1.764,1.034,2.542
		c2.87,4.37,5.103,9.629,3.973,14.734c-0.355,0.159-0.764-0.026-1.101-0.222c-2.663-1.554-4.754-4.066-5.799-6.967
		c-0.484-1.344-0.755-2.776-1.434-4.032c-0.68-1.257-1.916-2.355-3.344-2.324c-0.788,0.017-1.613,0.366-2.333,0.047
		c-0.385-0.171-0.666-0.508-0.983-0.785c-1.054-0.922-2.525-1.195-3.924-1.267c-2.748-0.141-5.527,0.361-8.051,1.454
		c1.186,0.114,2.338,1.023,2.444,2.21c0.106,1.187-1.157,2.367-2.276,1.957c-0.573-0.21-0.963-0.73-1.441-1.109
		c-1.007-0.798-2.371-0.945-3.654-1.016c-3.463-0.19-7.096-0.009-10.126,1.68c-3.03,1.689-5.244,5.253-4.399,8.617
		c-1.607,0.339-3.994,0.567-5.001-0.731c-0.417-0.537-0.561-1.23-0.715-1.892c-0.513-2.204-1.265-4.353-2.237-6.397
		c-0.548-1.152-1.218-2.326-2.319-2.971c-1.101-0.645-2.741-0.529-3.41,0.558c-0.133,0.216-0.228,0.465-0.428,0.621
		c-0.436,0.339-1.063,0.049-1.532-0.245c-1.257-0.789-2.566-1.633-3.285-2.931c-0.465-0.84-0.644-1.805-0.988-2.702
		c-0.763-1.99-2.391-3.631-4.374-4.41c-1.254-0.493-3.175-0.262-3.301,1.08c-3.496-0.327-7.194-0.729-9.991-2.853
		c-0.748-0.568-1.407-1.243-2.124-1.848c-1.91-1.61-4.247-2.71-6.705-3.156c-0.61-0.111-1.291-0.218-1.671-0.708
		c-0.198-0.256-0.28-0.579-0.372-0.889c-0.686-2.296-2.216-4.33-4.233-5.624c-0.612-0.393-1.287-0.738-1.712-1.328
		c-0.288-0.399-0.436-0.88-0.577-1.351c-1.215-4.072-2.204-8.211-2.962-12.392c-0.477-2.631-0.832-5.486,0.395-7.862
		c0.403-0.203,0.806-0.406,1.21-0.609c-0.142-7.43,7.024-14.107,5.644-21.409c2.449-0.334,4.668,2.61,3.672,4.872
		c0.438,0.296,1.013-0.249,1.057-0.775s-0.185-1.048-0.14-1.574c0.083-0.986,1.126-1.662,2.114-1.707
		c0.989-0.046,1.933,0.367,2.851,0.739c5.006,2.025,10.362,3.013,15.683,3.938c10.875,1.892,21.784,3.577,32.693,5.262
		c0.882,0.136,1.765,0.273,2.647,0.409c3.213,0.496,6.426,0.993,9.639,1.489c0.487,1.033-0.812,1.985-1.9,2.335
		c-1.088,0.35-2.466,1.003-2.289,2.132c0.702,0.157,1.368,0.469,2.081,0.557c2.035,0.252,3.799-1.305,5.255-2.75
		c0.395,0.451,0.545,1.105,0.385,1.683c1.375,0.969,3.18,1.303,4.81,0.888c0.889-0.226,1.765-0.665,2.674-0.543
		c0.909,0.122,1.74,1.211,1.186,1.941c-3.102-0.834-6.687,0.924-7.927,3.887c0.792-0.18,0.993,1.053,0.848,1.852
		c-0.353,1.951-0.369,3.962-0.047,5.919c0.059,0.361,0.14,0.74,0.387,1.009c0.509,0.554,1.497,0.338,1.978-0.241
		c0.482-0.578,0.59-1.373,0.661-2.122c0.215-2.274,0.266-4.564,0.151-6.846c0.459,0.135,0.918,0.271,1.377,0.406
		c0.058-1.042,0.589-2.106,1.525-2.568s2.258-0.122,2.669,0.838c0.683,1.593-1.305,3.169-1.252,4.902
		c0.731,0.338,1.133-0.974,1.887-1.258c0.945-0.355,1.573,1.016,1.555,2.024c-0.03,1.628-0.407,3.248-1.099,4.722
		c0.463,0.446,1.032,0.781,1.647,0.969c2.885-0.939,5.795-2.578,7.981-4.682c-0.491-0.524-0.828-1.191-0.96-1.896
		c1.599-0.1,3.198-0.2,4.797-0.3c0.613-0.038,1.329-0.137,1.631-0.672c0.404-0.716-0.243-1.553-0.371-2.365
		c-0.16-1.016,0.557-2.002,1.451-2.511c0.894-0.509,1.94-0.656,2.95-0.854c2.219-0.435,4.38-1.159,6.412-2.149
		c0.758-2.563,1.516-5.127,2.274-7.69c0.189,0.486,0.377,0.972,0.566,1.459C240.846,11.398,241.522,11.021,241.718,10.525z"/>
	<path class="st0" d="M18.576,49.136c0.005,0.195,0.028,0.399,0.033,0.594c0.214,0.293,0.856,0.246,0.818,0.606
		c-0.027,0.249-0.367,0.278-0.612,0.33C17.932,50.853,17.721,52,17.7,52.902c-0.011,0.484-0.018,0.989,0.193,1.425
		c0.093,0.192,0.227,0.369,0.263,0.578c0.035,0.209-0.033,0.42-0.1,0.622c-0.229,0.686-0.457,1.371-0.686,2.057
		c-0.209,0.627-0.425,1.268-0.831,1.79c-0.263,0.34-0.616,0.652-0.678,1.077c-0.032,0.223,0.022,0.449,0.038,0.674
		c0.035,0.491-0.112,0.973-0.25,1.445c-0.733,2.507-1.25,5.078-1.542,7.674c-0.029,0.262-0.058,0.53-0.165,0.771
		c-0.118,0.264-0.322,0.478-0.512,0.697c-0.593,0.685-1.07,1.47-1.407,2.311c-0.079,0.198-0.152,0.401-0.271,0.578
		c-0.145,0.215-0.352,0.38-0.548,0.551c-1.948,1.703-2.982,4.396-2.673,6.965c0.046,0.381,0.116,0.785-0.041,1.135
		s-0.657,0.569-0.934,0.304c-0.097-0.093-0.15-0.227-0.257-0.307c-0.108-0.08-0.311-0.047-0.313,0.087
		c-0.101-1.247-0.33-2.483-0.682-3.683c-0.151-0.515-0.362-1.07-0.832-1.33c-0.351-0.194-0.779-0.183-1.155-0.323
		c-0.73-0.271-1.128-1.04-1.46-1.745c-0.339-0.721-0.678-1.442-1.017-2.164c-0.29-0.618-0.587-1.314-0.371-1.962
		c-0.441-0.088-0.763-0.494-0.886-0.927s-0.085-0.893-0.045-1.341c0.019-0.221,0.041-0.449,0.145-0.646
		c0.089-0.168,0.232-0.3,0.336-0.459c0.462-0.707,0.036-1.636,0.037-2.48c0.001-0.796,0.394-1.533,0.776-2.231
		c1.612-2.941,3.224-5.883,4.836-8.824c0.17-0.31,0.353-0.634,0.656-0.816c0.155-0.093,0.331-0.142,0.489-0.231
		c0.607-0.34,0.761-1.122,0.99-1.779c0.757-2.168,3.104-3.661,5.388-3.429c-0.012-0.361-0.024-0.722-0.036-1.084
		c0.243-0.467,0.934-0.493,1.393-0.237s0.778,0.702,1.178,1.043c0.4,0.341,0.984,0.579,1.446,0.327
		C18.296,48.949,18.476,49.037,18.576,49.136z"/>
	<g>
		<g>
			<path class="st1" d="M14.152,52.592c0,0,0.116-0.33,0.358-0.93"/>
			<path class="st2" d="M16.123,48.083c4.893-9.96,19.459-33.172,49.919-35.905c31.035-2.785,48.743,8.39,54.644,13.032"/>
			<path class="st1" d="M122.194,26.465c0.487,0.433,0.728,0.68,0.728,0.68"/>
		</g>
	</g>
	<circle cx="123.92" cy="27.395" r="2.994"/>
	<circle cx="13.403" cy="53.839" r="2.994"/>
</g>
</svg>