<svg id="Layer_1" data-name="Layer 1" xmlns="http://www.w3.org/2000/svg" viewBox="0 0 40.18 25"><defs><style>.cls-1{fill:#fff;}</style></defs><path class="cls-1" d="M756.21,2696.7H746.14v-2.5h10.07ZM739.44,2707a6.61,6.61,0,0,1,1,3.66,7.29,7.29,0,0,1-1.11,4,6.93,6.93,0,0,1-1.77,2,6.83,6.83,0,0,1-2.82,1.26,17.4,17.4,0,0,1-3.53.34H719.92v-25H732c3,.05,5.2.93,6.47,2.66a6.35,6.35,0,0,1,1.14,3.82,5.56,5.56,0,0,1-1.16,3.68,5.89,5.89,0,0,1-1.91,1.42,5.56,5.56,0,0,1,2.88,2.21ZM725.69,2703H731a5,5,0,0,0,2.64-.62,2.36,2.36,0,0,0,1-2.2,2.24,2.24,0,0,0-1.34-2.31,9.47,9.47,0,0,0-2.95-.39h-4.65Zm9.46,7.24a2.68,2.68,0,0,0-1.59-2.68,6.28,6.28,0,0,0-2.5-.43h-5.37v6.66H731a5.86,5.86,0,0,0,2.53-.44,3.15,3.15,0,0,0,1.64-3.12Zm24.8-4.07a23.48,23.48,0,0,1,.15,3.56h-13a4.28,4.28,0,0,0,1.87,3.78,4.72,4.72,0,0,0,2.58.67,3.64,3.64,0,0,0,3.56-2.05h4.78a5.84,5.84,0,0,1-1.74,3.24,8.7,8.7,0,0,1-6.74,2.61,9.78,9.78,0,0,1-6.31-2.2q-2.73-2.21-2.73-7.17,0-4.66,2.46-7.14a8.63,8.63,0,0,1,6.41-2.48,10.19,10.19,0,0,1,4.21.84,7.26,7.26,0,0,1,3.09,2.65,8.85,8.85,0,0,1,1.43,3.71Zm-4.7.47a3.92,3.92,0,0,0-1.25-2.83,4.08,4.08,0,0,0-2.77-1,3.71,3.71,0,0,0-2.79,1,4.83,4.83,0,0,0-1.25,2.77Zm0,0" transform="translate(-719.92 -2693.16)"/></svg>