<svg id="_Layer_" data-name="&lt;Layer&gt;" xmlns="http://www.w3.org/2000/svg" viewBox="0 0 99.25 39.34"><defs><style>.cls-1{fill:none;stroke:#231f20;stroke-linecap:round;stroke-linejoin:round;}</style></defs><path class="cls-1" d="M669,1287.92a10.18,10.18,0,0,1-3.61-3.89,12,12,0,0,1,11.59,3.28,16.38,16.38,0,0,0-.38-4.92,3.68,3.68,0,0,1,3.27,1.2,7.81,7.81,0,0,0,2.93,2.09q0-1.73.21-3.44a.81.81,0,0,1,.28-.63c.28-.18.64,0,.9.26q3.45,2.84,6.88,5.69" transform="translate(-664.91 -1249.09)"/><path class="cls-1" d="M727.37,1277.19c2.27-.72,4-1.85,6.21-2.64a47,47,0,0,1,6.41-1.39,13.62,13.62,0,0,0,6-2.44c.29-.23.56-.48.86-.69a6,6,0,0,1,3.7-.91,38.52,38.52,0,0,1,3.84.53c1.6.23,3.5.15,4.44-1.16a4.61,4.61,0,0,1,2-1.68,18.24,18.24,0,0,0,1.85-.62,1.54,1.54,0,0,0,.93-1.56,1.43,1.43,0,0,0-1.5-1,4.74,4.74,0,0,0-1.81.62,23,23,0,0,1-2.39,1" transform="translate(-664.91 -1249.09)"/><path class="cls-1" d="M722.24,1271.28c-.91,1.54-.46,2.35-.16,4.11a9.28,9.28,0,0,0,.81,2.87,8.8,8.8,0,0,0,2.23,2.45,9.16,9.16,0,0,0,4.07,2.32,7.94,7.94,0,0,0,2.76-.09,8.53,8.53,0,0,0,3.77-1.42,3.47,3.47,0,0,0,.89-1,4.83,4.83,0,0,0-.12-4.45,1.93,1.93,0,0,0-2.35-.69.83.83,0,0,0-.3.25c-.5.74,1,1.65.58,2.45a1.26,1.26,0,0,1-.69.53c-1.37.61-2.9,1.23-4.33.78A3.88,3.88,0,0,1,727,1277a7.1,7.1,0,0,1-.27-3.42,4.07,4.07,0,0,1,.45-1.91" transform="translate(-664.91 -1249.09)"/><path class="cls-1" d="M758.09,1266.15l-1-4.37a.91.91,0,0,1,0-.37,1,1,0,0,1,.27-.44,6.64,6.64,0,0,0,1.63-4.65,2.2,2.2,0,0,1,0-.7c.23-.81,1.42-1.07,1.57-1.9a12.75,12.75,0,0,1-2.41.22,4.8,4.8,0,0,0-4.45-1.8,10.72,10.72,0,0,0-1.92-2.55,2.66,2.66,0,0,0-.45,1.57c-.22,2-2,3.27-3.14,4.88a8.93,8.93,0,0,1-4.42,3.37c-1.77.7-3.64,1.09-5.43,1.71-3.32,1.14-6.43,3.08-9.92,3.41-1.56.15-3.13,0-4.68.14a20.81,20.81,0,0,0-3,.64l-13.31,3.52a14.62,14.62,0,0,1-5.32.72,1.67,1.67,0,0,0-.59,0,.94.94,0,0,0-.63,1,1.59,1.59,0,0,0,.64,1.07,4.59,4.59,0,0,0,3.52.55c2.22-.31,4.39-.93,6.61-1.17a10.56,10.56,0,0,1,6.52,1.05.69.69,0,0,1,.37.4c.05.23-.13.45-.31.62a40.1,40.1,0,0,1-6.27,5c-2.37,1.52-5.12,2.5-7.46,4.06a4.72,4.72,0,0,0-1.43,1.28,1.71,1.71,0,0,0-.1,1.82,1.81,1.81,0,0,0,2.09.49,8.12,8.12,0,0,0,1.94-1.24,20,20,0,0,1,6.17-2.62l10-3" transform="translate(-664.91 -1249.09)"/><path class="cls-1" d="M757.26,1262.12a9.86,9.86,0,0,1,3.94.5c.54.16,1.18.44,1.24,1" transform="translate(-664.91 -1249.09)"/><path class="cls-1" d="M758.68,1264.91a2,2,0,0,1-1-.28" transform="translate(-664.91 -1249.09)"/></svg>