<!-- Generator: Adobe Illustrator 20.1.0, SVG Export Plug-In  -->
<svg version="1.1"
	 xmlns="http://www.w3.org/2000/svg" xmlns:xlink="http://www.w3.org/1999/xlink" xmlns:a="http://ns.adobe.com/AdobeSVGViewerExtensions/3.0/"
	 x="0px" y="0px" width="55.186px" height="18px" viewBox="0 0 55.186 18" style="enable-background:new 0 0 55.186 18;"
	 xml:space="preserve">
<style type="text/css">
	.st0{fill:#FFFFFF;}
</style>
<defs>
</defs>
<g>
	<g>
		<path class="st0" d="M2.5,17C1.948,17,1,16.553,1,16V2c0-0.553,0.948-1,1.5-1h50.687c0.404,0,0.769,0.243,0.924,0.617
			s0.069,0.804-0.217,1.09L47.601,9l6.293,6.293c0.286,0.286,0.372,0.716,0.217,1.09S53.591,17,53.187,17H2.5z"/>
		<path d="M53.093,2L46.14,9l7.047,7H2V2h51 M53.186,0H2.5C1.395,0,0,0.895,0,2v14c0,1.105,1.395,2,2.5,2h50.686
			c0.809,0,1.538-0.487,1.848-1.235c0.31-0.747,0.138-1.608-0.434-2.18L49.015,9L54.6,3.414c0.572-0.572,0.743-1.432,0.434-2.18
			C54.724,0.487,53.995,0,53.186,0L53.186,0z"/>
	</g>
	<g>
		<g>
			<path d="M8.96,9.669v2.648H7.32V5.392h2.269c1.879,0,2.849,0.669,2.849,2.108c0,0.909-0.43,1.459-1.329,1.869l1.759,2.948h-1.849
				L9.6,9.669H8.96z M9.649,8.539c0.72,0,1.1-0.31,1.1-1.039c0-0.67-0.391-0.959-1.199-0.959H8.96v1.998H9.649z"/>
			<path d="M18.308,10.129H15.02c0.11,0.949,0.56,1.209,1.21,1.209c0.43,0,0.81-0.149,1.269-0.47l0.65,0.88
				c-0.53,0.419-1.21,0.739-2.069,0.739c-1.769,0-2.668-1.14-2.668-2.799c0-1.589,0.869-2.848,2.479-2.848
				c1.519,0,2.448,0.999,2.448,2.718C18.338,9.729,18.328,9.969,18.308,10.129z M16.789,9.109c-0.011-0.72-0.23-1.22-0.859-1.22
				c-0.53,0-0.84,0.34-0.91,1.289h1.77V9.109z"/>
			<path d="M23.868,7.49l-0.689,0.949c-0.33-0.27-0.64-0.39-1-0.39c-0.679,0-1.069,0.46-1.069,1.649c0,1.179,0.42,1.539,1.05,1.539
				c0.38,0,0.64-0.12,0.989-0.39l0.72,1.009c-0.489,0.39-1.06,0.63-1.789,0.63c-1.629,0-2.629-1.1-2.629-2.778
				c0-1.689,1.01-2.868,2.599-2.868C22.789,6.841,23.358,7.061,23.868,7.49z"/>
			<path d="M29.537,10.129h-3.288c0.11,0.949,0.56,1.209,1.21,1.209c0.43,0,0.81-0.149,1.269-0.47l0.65,0.88
				c-0.53,0.419-1.21,0.739-2.069,0.739c-1.769,0-2.669-1.14-2.669-2.799c0-1.589,0.87-2.848,2.479-2.848
				c1.519,0,2.448,0.999,2.448,2.718C29.567,9.729,29.558,9.969,29.537,10.129z M28.019,9.109c-0.011-0.72-0.23-1.22-0.859-1.22
				c-0.53,0-0.84,0.34-0.91,1.289h1.77V9.109z"/>
			<path d="M35.558,8.439v3.878h-1.579V8.709c0-0.56-0.19-0.709-0.5-0.709c-0.35,0-0.64,0.25-0.919,0.689v3.628H30.98V7.011h1.379
				l0.109,0.629c0.45-0.529,0.96-0.799,1.619-0.799C35.008,6.841,35.558,7.43,35.558,8.439z"/>
			<path d="M39.14,12.487c-1.17-0.01-1.739-0.67-1.739-1.919V8.109h-0.75V7.011h0.75V5.861l1.579-0.181v1.33h1.22l-0.17,1.099h-1.05
				v2.439c0,0.509,0.17,0.689,0.5,0.689c0.18,0,0.359-0.05,0.569-0.181l0.53,1.01C40.179,12.348,39.619,12.487,39.14,12.487z"/>
		</g>
	</g>
</g>
</svg>