<!-- Generator: Adobe Illustrator 20.1.0, SVG Export Plug-In  -->
<svg version="1.1"
	 xmlns="http://www.w3.org/2000/svg" xmlns:xlink="http://www.w3.org/1999/xlink" xmlns:a="http://ns.adobe.com/AdobeSVGViewerExtensions/3.0/"
	 x="0px" y="0px" width="127.261px" height="169px" viewBox="0 0 127.261 169" style="enable-background:new 0 0 127.261 169;"
	 xml:space="preserve">
<style type="text/css">
	.st0{fill:none;stroke:#000000;stroke-miterlimit:10;}
	.st1{fill:none;stroke:#000000;stroke-linecap:round;stroke-linejoin:round;stroke-miterlimit:10;}
	.st2{stroke:#000000;stroke-linecap:round;stroke-linejoin:round;stroke-miterlimit:10;}
	.st3{enable-background:new    ;}
	.st4{clip-path:url(#SVGID_2_);}
	.st5{fill:#FFFFFF;}
	.st6{clip-path:url(#SVGID_4_);}
</style>
<defs>
</defs>
<g>
	<g>
		<path class="st0" d="M19.335,155.554c8.575-6.09,16.796-12.678,24.609-19.719c-1.627-3.333-3.755-6.421-6.289-9.129
			c-0.233-0.249-0.591-0.513-0.877-0.329c-0.458-2.234-3.054-3.36-4.036-5.418c-0.311,0.049-0.623,0.098-0.934,0.147
			c-0.062-0.796-0.609-1.459-1.131-2.063c-2.184-2.531-4.368-5.062-6.552-7.593c-2.378,1.922-4.651,3.755-7.03,5.677
			c-0.92,0.744-1.84,1.487-2.76,2.231c-1.13,0.913-2.26,1.827-3.391,2.74c-1.431,1.157-2.873,2.324-4.039,3.748
			c0.178,0.188,0.355,0.376,0.533,0.563c-0.629,0.412-1.186,0.934-1.638,1.534c-0.189-0.061-0.325-0.259-0.312-0.458
			c-0.553,0.436-1.223,0.531-1.776,0.967c-1.067,0.841-2.154,1.704-2.893,2.844c-0.035,0.054-0.067,0.131-0.02,0.175
			c0.046,0.044,0.11-0.081,0.048-0.068c1.037,1.481,2.036,3.004,3.073,4.485c0.276,0.394,0.552,0.788,0.827,1.182
			c1.281,1.83,2.563,3.66,3.843,5.492c0.486,0.695,0.973,1.391,1.536,2.024c0.387,0.434,0.809,0.837,1.187,1.279
			c0.395,0.46,0.74,0.961,1.09,1.456c2.123,3.008,4.43,5.886,6.905,8.612"/>
		<path class="st0" d="M19.38,129.998c-0.475,0.08-0.771,0.544-1.006,0.964c-0.239,0.427-0.481,0.861-0.598,1.336
			c-0.091,0.37-0.104,0.757-0.064,1.136c0.162,1.519,1.246,2.903,2.682,3.425c1.436,0.522,3.155,0.158,4.256-0.902
			c0.24-0.231,0.455-0.496,0.577-0.806c0.127-0.322,0.147-0.675,0.166-1.021c0.024-0.43,0.047-0.861,0.071-1.291
			c0.046-0.845,0.076-1.757-0.39-2.463c-0.666-1.01-2.045-1.199-3.252-1.273c-0.55-0.034-1.113-0.062-1.64,0.099
			s-1.017,0.553-1.14,1.09"/>
		<path class="st0" d="M28.358,125.373c-0.451,0.23-0.755,0.666-1.041,1.085c-0.472,0.693-0.967,1.476-0.842,2.305
			c0.02,0.134,0.061,0.272,0.159,0.365c0.055,0.052,0.125,0.086,0.196,0.115c0.703,0.288,1.525,0.139,2.196-0.217
			c0.671-0.356,1.222-0.898,1.762-1.432c0.254-0.251,0.509-0.503,0.763-0.754c0.677-0.669,1.387-1.397,1.573-2.331
			c0.061-0.305,0.054-0.647-0.131-0.897c-0.162-0.219-0.434-0.331-0.702-0.376c-1.116-0.187-2.138,0.595-2.999,1.329
			c-0.338,0.288-0.676,0.576-1.014,0.864"/>
	</g>
	<g>
		<g>
			<path class="st1" d="M38.431,3.439c0.435,18.956,0.87,37.912,1.305,56.868c0.033,1.433,0.109,2.987,1.029,4.087
				c0.556,0.664,1.356,1.074,2.168,1.376c3.952,1.471,6.341,1.211,10.474,2.047c1.877,0.379,5.12,0.581,6.501,0.798
				c3.152,0.495,5.233,0.813,8.455,1.143c2.501,0.256,3.983,0.323,6.169,0.638c5.274,0.76,10.496,0.997,15.77,1.758
				c6.157,0.888,12.34,1.777,18.561,1.765c0.984-0.002,2.011-0.038,2.874-0.511c2.365-1.298,2.055-4.682,2.194-7.377
				c0.13-2.502,0.928-4.913,1.579-7.332c1.965-7.301,2.621-14.881,3.268-22.414c0.261-3.036,0.522-6.073,0.783-9.109
				c0.64-7.446,1.28-14.891,1.92-22.337c0.11-1.285,0.146-2.772-0.812-3.636c-0.786-0.708-1.956-0.723-3.014-0.698
				c-4.833,0.114-9.666,0.229-14.498,0.343c-1.301,0.031-2.602,0.062-3.902,0.092c-1.386,0.033-2.772,0.066-4.158,0.099
				C83.103,1.325,71.107,1.609,59.124,2.19C52.4,2.516,45.68,2.936,38.968,3.449"/>
			<path class="st1" d="M119.63,0.64c1.57,0.097,4.416,0.193,5.986,0.29c1.039,2.67,0.491,5.657,0.02,8.483
				c-0.446,2.674-0.811,5.361-1.176,8.048c-0.512,3.768-1.024,7.536-1.536,11.305c-0.301,2.215-0.602,4.433-0.732,6.664
				c-0.147,2.521-0.074,5.052-0.266,7.57c-0.425,5.573-2.139,10.99-2.52,16.566c-0.189,2.757-0.059,5.59-0.943,8.209
				s-3.136,5.043-5.9,5.042"/>
			<path class="st1" d="M45.158,66.909c-0.459,2.436-0.641,5.532,1.496,6.789c0.581,0.342,1.255,0.48,1.916,0.611
				c4.334,0.859,8.685,1.636,13.035,2.412c1.957,0.349,3.914,0.699,5.871,1.048c4.856,0.867,9.724,1.735,14.646,2.067
				c2.284,0.154,4.577,0.193,6.856,0.407c6.22,0.585,12.268,2.473,18.496,2.957c0.346,0.027,0.716,0.044,1.017-0.128
				c0.373-0.214,0.537-0.655,0.713-1.048c0.378-0.842,0.259-0.657,0.937-1.603c0.439-0.613,1.07-1.412,1.516-2.02
				c1.149-1.563,0.905-2.848,0.983-4.827"/>
			<path class="st1" d="M119.2,64.873c2.48-0.088,4.98,0.486,7.173,1.647c-0.596,7.953-1.821,15.859-3.661,23.619
				c-2.458,10.365-6,20.435-9.536,30.483c-0.133,0.378-0.273,0.768-0.551,1.056c-0.889,0.923-2.412,0.279-3.563-0.283
				c-5.277-2.574-11.446-2.247-17.201-3.41c-5.19-1.049-10.117-3.335-15.384-3.87c-2.102-0.214-4.234-0.145-6.311-0.53
				c-2.158-0.4-4.192-1.276-6.27-1.981c-9.18-3.114-19.226-2.881-28.434-5.914c-0.853-0.281-1.793-0.68-2.113-1.52
				c-0.135-0.354-0.137-0.743-0.138-1.122c-0.016-8.459-0.032-16.919-0.049-25.378c-0.001-0.558,0.002-1.137,0.233-1.645
				c0.262-0.574,0.78-0.984,1.289-1.358c2.919-2.144,6.148-3.864,9.556-5.092"/>
			<path class="st1" d="M33.904,75.836c17.4,2.986,34.801,5.973,52.201,8.959c4.779,0.82,9.481,1.989,14.211,3.051
				c3.104,0.697,4.641,0.91,6.761,1.322c2.983,0.581,4.887,0.746,8.553,0.862c1.445-2.936,2.89-5.871,4.335-8.807
				c0.696-1.413,1.392-2.827,2.053-4.256c1.535-3.318,2.884-6.723,4.038-10.192"/>
			<path class="st1" d="M116.075,89.385c-0.674,10.601-1.721,21.179-3.14,31.706"/>
			<path class="st1" d="M74.007,87.474c-0.485,5.587-0.778,10.555-0.953,16.16"/>
			<path class="st1" d="M80.62,98.149c3.719,0.869,4.761,0.911,7.528,1.489c7.206,1.505,13.824,2.3,20.95,3.996"/>
			<path class="st1" d="M78.498,93.915c-0.128,3.324-0.357,6.796-0.485,10.121c3.168-0.298,6.319,0.533,9.407,1.295
				c7.898,1.949,15.895,3.495,23.951,4.631c0.095-3.25,0.191-6.499,0.286-9.749c-7.229-2.524-14.85-3.684-22.421-4.832
				C85.691,94.843,82.044,94.453,78.498,93.915z"/>
			<path class="st1" d="M69.949,83.993c0.002,7.437-0.095,14.011-0.092,21.448c2.15,0.454,3.285,0.971,5.579,1.489
				c-0.089-2.868,0.301-6.45,0.287-9.319c-0.021-4.109,0.603-7.954,0.779-12.251C74.335,85.039,72.083,84.488,69.949,83.993z"/>
			<path class="st1" d="M121.906,95.367c1.625,0.982,3.319,2.033,4.263,3.681c0.944,1.648,0.815,4.076-0.785,5.1
				c-0.676,0.432-1.506,0.558-2.207,0.948c-1.438,0.8-2.055,2.509-2.558,4.076c-0.527,1.639-1.032,3.518-0.159,5.002
				c0.409,0.694,1.069,1.196,1.606,1.797c1.205,1.347,1.766,3.245,1.489,5.031c-0.186,1.198-0.721,2.309-1.249,3.4
				c-2.501,5.169-5.003,10.337-7.504,15.506c-1.098,2.27-1.807,4.216-3.792,5.772"/>
			<path class="st0" d="M113.09,150.11c0.139,1.45-0.436,2.691-1.071,4.002c-1.105,2.278-1.862,4.725-2.237,7.229
				c-0.261,1.742-0.382,3.624-1.478,5.003c-1.166,1.467-3.161,1.989-5.031,2.121c-4.1,0.289-8.601-1.153-10.772-4.643
				c-1.146-1.843-1.534-4.046-1.853-6.193c-0.134-0.906-0.26-1.837-0.068-2.733c0.204-0.952,0.75-1.791,1.295-2.598
				c2.252-3.337,4.883-6.731,8.661-8.125c2.833-1.046,6.118-0.791,8.756,0.678C111.276,145.955,113.171,147.841,113.09,150.11z"/>
			<path class="st2" d="M48.847,13.178c-1.671,10.03-1.765,19.831-1.647,29.999c0.059,5.079,0.134,10.258,1.777,15.064
				c18.83,2.168,37.661,4.336,56.491,6.505c0.574-9.826,1.147-19.653,1.721-29.479c0.139-2.38,0.28-4.774,0.824-7.095
				c0.447-1.907,1.164-3.752,1.458-5.688c0.484-3.192-0.187-6.582,0.985-9.59C90.004,11.728,69.265,11.537,48.847,13.178
				L48.847,13.178z"/>
			<path class="st1" d="M71.762,89.275c0.03,0.479,0.013,0.96-0.053,1.435"/>
			<path class="st1" d="M81.817,102.304c0.574-0.035,1.154,0.04,1.699,0.219"/>
			<path class="st1" d="M97.929,145.824c2.604-0.087,5.228,0.445,7.592,1.539c2.586,1.197,4.819,3.03,6.98,4.888"/>
			<path class="st1" d="M106.04,147.189c0.207-1.172,1.124-2.189,2.268-2.517"/>
		</g>
		<g>
			<g>
				<g class="st3">
					<defs>
						<polygon id="SVGID_1_" class="st3" points="51.956,44.889 52.905,19.343 93.654,20.733 92.706,46.279 						"/>
					</defs>
					<clipPath id="SVGID_2_">
						<use xlink:href="#SVGID_1_"  style="overflow:visible;"/>
					</clipPath>
					<g class="st4">
						<g>
							<g>
								<g>
									<polyline class="st5" points="56.081,19.451 53.439,19.361 53.418,19.9 52.885,19.882 52.845,20.952 53.379,20.97 
										53.359,21.501 53.884,21.519 53.864,22.058 54.923,22.095 54.903,22.625 55.428,22.643 55.368,24.253 53.784,24.199 
										53.824,23.128 52.765,23.092 52.726,24.162 53.26,24.181 53.24,24.711 55.882,24.801 55.902,24.271 56.427,24.289 
										56.487,22.679 55.962,22.661 55.982,22.131 55.448,22.112 55.468,21.573 54.418,21.537 54.438,21.007 53.904,20.988 
										53.943,19.918 55.527,19.972 55.487,21.042 56.546,21.079 56.586,20.009 56.061,19.991 56.081,19.451 									"/>
									<polyline class="st5" points="59.782,19.577 59.257,19.559 59.237,20.099 58.704,20.081 58.664,21.151 57.605,21.115 
										57.585,21.645 58.644,21.681 58.545,24.361 59.078,24.379 59.059,24.91 60.642,24.964 60.662,24.433 61.196,24.451 
										61.216,23.912 60.157,23.876 60.137,24.415 59.603,24.397 59.703,21.717 60.762,21.754 60.781,21.223 59.723,21.187 
										59.782,19.577 									"/>
									<path class="st5" d="M63.314,24.524l0.06-1.61l1.059,0.036l-0.059,1.601l0,0.009L63.314,24.524 M65.016,21.367
										l-2.118-0.072l-0.02,0.531l1.593,0.054l-0.02,0.54l-1.593-0.054l-0.02,0.53l-0.525-0.018l-0.06,1.61l0.525,0.018
										l-0.02,0.531l1.593,0.054l0.02-0.531l0.525,0.018l-0.02,0.531l1.059,0.036l0.02-0.531l-0.525-0.018l0.1-2.68l-0.534-0.018
										L65.016,21.367"/>
									<polyline class="st5" points="70.31,21.548 68.718,21.494 68.698,22.024 68.173,22.006 68.193,21.476 67.134,21.44 
										67.114,21.97 67.639,21.988 67.54,24.668 67.015,24.65 66.995,25.18 69.113,25.253 69.132,24.722 68.599,24.704 
										68.678,22.564 69.212,22.582 69.232,22.042 69.757,22.06 69.717,23.13 70.776,23.167 70.816,22.096 70.291,22.079 
										70.31,21.548 									"/>
									<polyline class="st5" points="74.071,20.065 73.547,20.047 73.526,20.586 72.993,20.568 72.953,21.638 71.894,21.602 
										71.874,22.133 72.933,22.169 72.834,24.848 73.367,24.867 73.348,25.397 74.932,25.451 74.951,24.921 75.476,24.938 
										75.496,24.399 74.446,24.363 74.426,24.903 73.892,24.884 73.992,22.205 75.051,22.241 75.07,21.71 74.012,21.674 
										74.071,20.065 									"/>
									<path class="st5" d="M79.306,21.855l-1.593-0.054l-0.02,0.531l0.534,0.018l-0.1,2.68l-0.534-0.018l-0.02,0.531l2.118,0.072
										l0.02-0.531l-0.525-0.018L79.306,21.855 M79.365,20.245l-1.059-0.036l-0.04,1.07l1.059,0.036L79.365,20.245"/>
									<polyline class="st5" points="84.599,22.035 83.007,21.981 82.987,22.512 82.462,22.494 82.482,21.963 81.423,21.927 
										81.403,22.458 81.928,22.476 81.809,25.686 82.868,25.722 82.987,22.512 84.046,22.548 83.927,25.758 84.986,25.794 
										85.105,22.584 84.58,22.566 84.599,22.035 									"/>
									<polyline class="st5" points="89.885,22.216 88.826,22.18 88.806,22.71 88.281,22.692 88.281,22.701 88.182,25.372 
										87.123,25.336 87.222,22.656 88.281,22.692 88.301,22.162 86.708,22.107 86.688,22.638 86.164,22.62 86.064,25.3 
										86.589,25.318 86.569,25.848 88.162,25.902 88.122,26.972 87.063,26.936 87.083,26.406 86.024,26.37 86.005,26.9 
										86.529,26.918 86.509,27.458 88.627,27.53 88.647,26.99 89.181,27.009 89.34,22.728 89.865,22.746 89.885,22.216 									
										"/>
									<polyline class="st5" points="56.322,27.121 55.263,27.085 55.243,27.625 54.718,27.607 54.698,28.137 54.173,28.119 
										54.193,27.589 53.659,27.57 53.679,27.031 52.62,26.995 52.422,32.345 53.481,32.381 53.6,29.171 54.134,29.189 
										54.114,29.729 54.639,29.747 54.659,29.207 55.183,29.225 55.064,32.435 56.123,32.471 56.322,27.121 									"/>
									<polyline class="st5" points="60.557,27.266 57.914,27.175 57.894,27.715 57.361,27.697 57.321,28.767 57.855,28.785 
										57.835,29.316 58.36,29.333 58.34,29.873 59.399,29.909 59.379,30.44 59.913,30.458 59.853,32.067 58.26,32.013 
										58.3,30.943 57.241,30.907 57.202,31.977 57.735,31.995 57.716,32.526 60.358,32.616 60.378,32.085 60.912,32.103 
										60.972,30.494 60.438,30.476 60.457,29.945 59.932,29.927 59.952,29.388 58.894,29.352 58.913,28.821 58.38,28.803 
										58.419,27.733 60.012,27.787 59.972,28.857 61.031,28.893 61.071,27.823 60.537,27.805 60.557,27.266 									"/>
									<polyline class="st5" points="65.751,30.126 62.05,30 62.03,30.53 65.732,30.656 65.751,30.126 									"/>
									<path class="st5" d="M68.314,32.356l0.159-4.28l0.534,0.018l-0.02,0.531l0.525,0.018l-0.119,3.21l-0.525-0.018l-0.02,0.539
										L68.314,32.356 M69.552,27.572l-2.642-0.09l-0.02,0.539l0.525,0.018l-0.159,4.28l-0.525-0.018l-0.02,0.531l2.643,0.09
										l0.02-0.531l0.534,0.018l0.02-0.539l0.525,0.018l0.119-3.21l-0.525-0.018l0.02-0.531l-0.534-0.018L69.552,27.572"/>
									<path class="st5" d="M72.549,32.5l0.159-4.28l1.593,0.054l-0.159,4.28L72.549,32.5 M74.846,27.753l-2.643-0.09l-0.02,0.539
										l-0.534-0.018l-0.159,4.28l0.534,0.018l-0.02,0.531l2.643,0.09l0.02-0.531l0.525,0.018l0.159-4.28l-0.525-0.018
										L74.846,27.753"/>
									<polyline class="st5" points="79.606,27.915 76.964,27.825 76.944,28.365 76.41,28.347 76.37,29.417 76.904,29.435 
										76.884,29.965 77.409,29.983 77.389,30.523 78.448,30.559 78.428,31.089 78.962,31.108 78.902,32.717 77.31,32.663 
										77.349,31.593 76.29,31.557 76.251,32.627 76.785,32.645 76.765,33.175 79.407,33.266 79.427,32.735 79.961,32.753 
										80.021,31.144 79.487,31.125 79.507,30.595 78.982,30.577 79.002,30.038 77.943,30.001 77.963,29.471 77.429,29.453 
										77.468,28.383 79.061,28.437 79.021,29.507 80.08,29.543 80.12,28.473 79.586,28.455 79.606,27.915 									"/>
									<polyline class="st5" points="83.682,32.34 82.623,32.304 82.584,33.374 83.643,33.41 83.682,32.34 									"/>
									<polyline class="st5" points="88.442,32.502 87.384,32.466 87.344,33.536 88.403,33.572 88.442,32.502 									"/>
									<polyline class="st5" points="93.211,32.665 92.153,32.629 92.113,33.699 93.172,33.735 93.211,32.665 									"/>
									<polyline class="st5" points="55.37,38.586 53.253,38.514 53.233,39.044 52.708,39.026 52.688,39.566 52.154,39.548 
										52.035,42.749 52.569,42.767 52.549,43.306 53.074,43.324 53.054,43.855 55.172,43.927 55.192,43.397 55.717,43.414 
										55.756,42.344 55.231,42.327 55.212,42.857 54.678,42.839 54.658,43.378 53.608,43.343 53.628,42.803 53.094,42.785 
										53.213,39.584 53.747,39.602 53.767,39.062 54.817,39.098 54.797,39.638 55.331,39.656 55.311,40.186 55.836,40.204 
										55.876,39.134 55.351,39.116 55.37,38.586 									"/>
									<path class="st5" d="M59.467,42.471l-1.059-0.036l-0.04,1.07l1.059,0.036L59.467,42.471 M59.566,39.8l-1.059-0.036
										l-0.04,1.07l1.059,0.036L59.566,39.8"/>
									<polyline class="st5" points="62.228,39.351 61.703,39.333 61.644,40.943 62.168,40.961 62.149,41.491 62.683,41.509 
										62.663,42.049 63.188,42.067 63.168,42.597 63.702,42.616 63.682,43.146 64.207,43.164 64.187,43.703 64.721,43.722 
										64.701,44.252 65.226,44.27 65.285,42.67 64.76,42.652 64.78,42.121 64.246,42.103 64.266,41.563 63.741,41.545 
										63.761,41.015 63.227,40.997 63.247,40.457 62.722,40.439 62.742,39.909 62.208,39.891 62.228,39.351 									"/>
									<polyline class="st5" points="68.047,39.55 66.988,39.513 66.968,40.053 67.502,40.071 67.482,40.602 68.007,40.62 
										67.987,41.159 68.521,41.177 68.501,41.708 69.026,41.726 69.006,42.265 68.481,42.247 68.462,42.778 67.928,42.76 
										67.908,43.29 67.383,43.272 67.363,43.812 66.829,43.794 66.81,44.324 67.868,44.36 67.888,43.83 68.422,43.848 
										68.442,43.308 68.967,43.326 68.987,42.796 69.521,42.814 69.54,42.283 70.065,42.301 70.085,41.762 69.56,41.744 
										69.58,41.213 69.046,41.195 69.066,40.656 68.541,40.638 68.561,40.107 68.027,40.089 68.047,39.55 									"/>
									<polyline class="st5" points="75.26,45.153 71.025,45.008 71.005,45.539 75.24,45.683 75.26,45.153 									"/>
								</g>
							</g>
						</g>
					</g>
				</g>
			</g>
		</g>
	</g>
</g>
</svg>