<svg id="_Layer_" data-name="&lt;Layer&gt;" xmlns="http://www.w3.org/2000/svg" viewBox="0 0 90 90"><defs><style>.cls-1{fill:#fff;}.cls-2{fill:#231f20;}</style></defs><rect class="cls-1" x="1" y="1" width="50" height="50" rx="11" ry="11"/><path class="cls-2" d="M1051.12,1138.3a9.57,9.57,0,0,1,9.88,9.59v28c0,5.51-4.37,10.41-9.88,10.41h-28a10.47,10.47,0,0,1-10.12-10.41v-28c0-5.51,4.6-9.59,10.12-9.59H1051m.12-2h-28c-6.63,0-12.12,5-12.12,11.59v28a12.46,12.46,0,0,0,12.12,12.41h28c6.63,0,11.88-5.78,11.88-12.41v-28a11.56,11.56,0,0,0-11.88-11.59Z" transform="translate(-1011 -1136.3)"/><path d="M1030.29,1157.68l-3.89,4-3.76-3.8-2.3,2.29,3.94,3.58-3.42,3.55,2.18,2.2,3.5-3.55,3.49,3.54,2.28-2.24-3.64-3.52,3.81-3.84Z" transform="translate(-1011 -1136.3)"/><path d="M1052,1166.59c-.11,0-.18.2-.28.28a24.28,24.28,0,0,1-2.11,1.56c-.68.41-1,.13-1-.66a1.13,1.13,0,0,1,0-.28c.37-1.4.74-2.81,1.11-4.21a4.76,4.76,0,0,0,.27-1.23,1.09,1.09,0,0,0-.44-.76c-.12-.08-.53.13-.69.31a13,13,0,0,0-.73,1.1c-.92,1.27-1.81,2.56-2.79,3.78a5.32,5.32,0,0,1-2.54,1.81c-1,.32-1.52.08-1.85-.93-.11-.34-.13-.71-.24-1.06a1.59,1.59,0,0,1,.42-1.55,31.07,31.07,0,0,0,5.62-10.65,11.26,11.26,0,0,0,.33-2.77,1.59,1.59,0,0,0-1.13-1.64,1.72,1.72,0,0,0-1.9.64,9.12,9.12,0,0,0-1.29,1.82,30.62,30.62,0,0,0-3.12,12.43,1.44,1.44,0,0,1-.34.86c-1.39,1.47-2.79,2.92-5,3.17-.16,0-.42.34-.39.44a.78.78,0,0,0,.47.45,1.62,1.62,0,0,0,.73-.05,8.47,8.47,0,0,0,3.93-2.38l.61-.58c.17.56.27,1,.44,1.46a2,2,0,0,0,2.61,1.35,6,6,0,0,0,3.18-2c.87-1,1.65-2,2.5-3.06a9.29,9.29,0,0,0-.28.93,20.12,20.12,0,0,0-.49,2.87,1.41,1.41,0,0,0,2.14,1.4,16,16,0,0,0,2.27-1.53,2.07,2.07,0,0,0,.62-.66c.1-.18,0-.46,0-.7A4.36,4.36,0,0,0,1052,1166.59Zm-10.52-8a22.44,22.44,0,0,1,2-5.77,10.35,10.35,0,0,1,1.32-1.86.93.93,0,0,1,.83-.26,1,1,0,0,1,.45.82,16.09,16.09,0,0,1-.53,3.14,30.8,30.8,0,0,1-4.56,8.7c-.06.09-.14.16-.21.25l-.23-.08C1040.83,1161.85,1041.08,1160.19,1041.44,1158.55Z" transform="translate(-1011 -1136.3)"/><path d="M1053.38,1173.3h-32.52c-.33,0-.6.17-.6.5s.27.5.6.5h32.52c.33,0,.6-.17.6-.5S1053.71,1173.3,1053.38,1173.3Z" transform="translate(-1011 -1136.3)"/><rect class="cls-1" x="39" y="39" width="50" height="50" rx="11" ry="11"/><path class="cls-2" d="M1089.24,1176.3a9.42,9.42,0,0,1,9.76,9.53v28c0,5.51-4.24,10.47-9.76,10.47h-28a10.63,10.63,0,0,1-10.24-10.47v-28c0-5.51,4.73-9.53,10.24-9.53H1089m.24-2h-28c-6.63,0-12.24,4.9-12.24,11.53v28a12.62,12.62,0,0,0,12.24,12.47h28c6.63,0,11.76-5.84,11.76-12.47v-28a11.4,11.4,0,0,0-11.76-11.53Z" transform="translate(-1011 -1136.3)"/><polygon class="cls-2" points="67.89 52 78 74.92 78 52 67.89 52"/><polygon class="cls-2" points="61.18 52 52 74.92 52 52 61.18 52"/><polygon class="cls-2" points="64 61.09 64 60.96 64 61.03 64 60.96 64 61.09 59.68 70.69 64.75 70.74 66.67 75 70.71 75 64 61.09"/></svg>