<svg id="_Layer_" data-name="&lt;Layer&gt;" xmlns="http://www.w3.org/2000/svg" viewBox="0 0 91 90"><defs><style>.cls-1{fill:#fff;}.cls-2{fill:#231f20;}</style></defs><rect class="cls-1" x="1" y="1" width="50" height="50" rx="11" ry="11"/><path class="cls-2" d="M735.77,824.3A10.16,10.16,0,0,1,746,834.24v28a10.26,10.26,0,0,1-10.23,10.06h-28A9.87,9.87,0,0,1,698,862.24v-28a9.77,9.77,0,0,1,9.77-9.94H736m-.23-2h-28A11.76,11.76,0,0,0,696,834.24v28a11.86,11.86,0,0,0,11.77,12.06h28A12.25,12.25,0,0,0,748,862.24v-28a12.15,12.15,0,0,0-12.23-11.94Z" transform="translate(-696 -822.3)"/><path id="_Compound_Path_" data-name="&lt;Compound Path&gt;" class="cls-2" d="M738.62,854.16c0-.25-.25-3.13-5.37-3a36.92,36.92,0,0,0-6.37.45s-3.83-3.88-5.22-6.89c0,0,1.69-4.95,1.62-8.06s-.82-4.9-3.21-4.87-2.74,2.11-2.42,5.22a24.17,24.17,0,0,0,1.73,6.07s-1.1,3.43-2.56,6.85-2.45,5.21-2.45,5.21-4.93,1.65-7.07,3.64-3,3.52-1.88,5c1,1.32,4.37,1.62,7.4-2.36a58.54,58.54,0,0,0,4.4-6.47s4.63-1.27,6.07-1.62,3.18-.62,3.18-.62,4.23,4.25,8.31,4.1S738.65,854.41,738.62,854.16Zm-32.16,9c-2.54-1.52,5.32-6.19,6.74-6.34C713.2,856.8,709.12,864.73,706.46,863.14Zm12.06-27.28c0-2.46.8-3.13,1.42-3.13s1.32.3,1.34,2.44a28,28,0,0,1-1.34,6.32A11.49,11.49,0,0,1,718.53,835.86Zm3.28,16.86A19.58,19.58,0,0,0,718,854l1-2.34c1-2.34,2.11-5.52,2.11-5.52a36.9,36.9,0,0,0,4.3,5.84A33.88,33.88,0,0,0,721.8,852.72Zm6.12-.22s8.27-1.5,8.27,1.33S731.07,855.51,727.92,852.51Z" transform="translate(-696 -822.3)"/><rect class="cls-1" x="40" y="39" width="50" height="50" rx="11" ry="11"/><path class="cls-2" d="M774.59,862.3A10.59,10.59,0,0,1,785,872.55v28c0,5.51-4.9,9.75-10.41,9.75h-28a9.45,9.45,0,0,1-9.59-9.75v-28c0-5.51,4.07-10.25,9.59-10.25H775m-.41-2h-28c-6.63,0-11.59,5.63-11.59,12.25v28a11.44,11.44,0,0,0,11.59,11.75h28c6.63,0,12.41-5.12,12.41-11.75v-28a12.58,12.58,0,0,0-12.41-12.25Z" transform="translate(-696 -822.3)"/><path class="cls-2" d="M773.11,876.3c1.95,0,3.89,1.11,3.89,3.06v14.39a3.87,3.87,0,0,1-3.89,3.55h-25c-1.95,0-3.07-1.6-3.07-3.55V879.36a2.79,2.79,0,0,1,3.07-3.06H773m.11-2h-25a4.77,4.77,0,0,0-5.07,5.06v14.39c0,3.06,2,5.55,5.07,5.55h25a5.86,5.86,0,0,0,5.89-5.55V879.36c0-3.06-2.83-5.06-5.89-5.06Z" transform="translate(-696 -822.3)"/><path class="cls-2" d="M772.83,876.3c2.1,0,4.17,1.24,4.17,3.34v1.66H763v-5h10m-.17-2h-10.4c-.82,0-1.43.19-1.43,1v6.07c0,.82.61,1.93,1.43,1.93h14.73a2.26,2.26,0,0,0,1.84-1.93v-1.73c0-3.21-3-5.34-6.17-5.34Z" transform="translate(-696 -822.3)"/></svg>