<!-- Generator: Adobe Illustrator 20.1.0, SVG Export Plug-In  -->
<svg version="1.1"
	 xmlns="http://www.w3.org/2000/svg" xmlns:xlink="http://www.w3.org/1999/xlink" xmlns:a="http://ns.adobe.com/AdobeSVGViewerExtensions/3.0/"
	 x="0px" y="0px" width="124px" height="107.721px" viewBox="0 0 124 107.721" style="enable-background:new 0 0 124 107.721;"
	 xml:space="preserve">
<style type="text/css">
	.st0{fill:#FFFFFF;stroke:#000000;stroke-miterlimit:10;}
	.st1{fill:none;stroke:#000000;stroke-width:7;stroke-miterlimit:10;}
	.st2{fill:none;stroke:#000000;stroke-linejoin:round;stroke-miterlimit:10;}
	.st3{stroke:#000000;stroke-miterlimit:10;}
</style>
<defs>
</defs>
<g>
	<g>
		<path class="st0" d="M61.446,67.676c1.499,0.571,3.709,1.505,4.937,0.473c0.533-0.448,0.829-1.11,1.108-1.749
			c3.993-9.157,7.307-18.758,11.929-27.614c0.917-1.757,1.643-3.358,2.494-5.277c0.42-0.947,0.663-2.055,0.312-3.029
			c-0.418-1.164-1.654-1.787-2.781-2.297c-18.908-8.556-37.654-17.48-56.725-25.668c-3.224-1.384-5.514-1.275-6.397,0.557
			c-5.1,10.582-9.629,20.819-14.729,31.401c-0.846,1.756-1.67,3.936-0.555,5.536c0.578,0.829,1.551,1.274,2.477,1.68
			c1.28,0.562,2.56,1.124,3.841,1.686c8.677,3.809,13.156,6.044,21.758,10.022c1.865,0.862,6.422,3.24,8.364,3.911
			c1.583,0.547,4.462,1.814,6.05,2.35c2.153,0.727,4.231,1.655,6.306,2.582C53.585,63.915,57.696,66.001,61.446,67.676z"/>
		<line class="st1" x1="12.976" y1="10.726" x2="78.648" y2="40.488"/>
	</g>
	<g>
		<path class="st0" d="M104.338,74.658c1.454-0.679,3.661-1.616,3.776-3.216c0.05-0.695-0.22-1.368-0.485-2.012
			c-3.797-9.24-8.385-18.301-11.528-27.784c-0.623-1.881-1.268-3.517-2.054-5.464c-0.387-0.961-1.014-1.906-1.958-2.333
			c-1.127-0.51-2.434-0.056-3.584,0.398c-19.303,7.624-38.758,14.874-57.909,22.871c-3.238,1.352-4.753,3.072-4.052,4.981
			c4.05,11.027,8.249,21.403,12.298,32.43c0.672,1.83,1.664,3.938,3.589,4.251c0.998,0.162,1.994-0.227,2.93-0.609
			c1.295-0.528,2.589-1.056,3.884-1.585c8.774-3.58,13.496-5.241,22.339-8.649c1.917-0.739,6.796-2.357,8.629-3.284
			c1.495-0.756,4.408-1.942,5.898-2.709c2.02-1.04,4.133-1.886,6.243-2.731C96.166,77.686,100.526,76.186,104.338,74.658z"/>
		<line class="st1" x1="29.71" y1="69.83" x2="96.787" y2="43.384"/>
	</g>
	<path class="st0" d="M74.611,0.516c-2.951,0.311-5.872,2.745-7.187,5.376s-1.339,5.695-1.336,8.635
		c0.029,26.627,0.057,53.253,0.086,79.88c0.005,4.424,0.583,9.799,4.603,11.647c1.463,0.672,3.126,0.71,4.736,0.737
		c14.026,0.23,26.194,0.201,40.22,0.431c0.792,0.013,3.233-1.216,3.957-1.539c0.793-0.354,1.535-1.122,1.978-1.868
		c1.752-2.948,1.853-5.018,1.828-8.447c-0.197-26.709-0.395-53.418-0.592-80.127c-0.02-2.648-0.042-5.319-0.61-7.905
		c-0.503-2.289-1.56-4.631-3.586-5.809c-1.64-0.954-3.636-0.991-5.533-1.002C100.329,0.445,87.458,0.595,74.611,0.516z"/>
	<path class="st2" d="M117.493,89.196c0.005-23.707,0.247-47.646,0.333-71.058c-15.089-0.164-30.833-0.494-45.688-0.653
		c-0.686,18.911-0.447,37.537-0.477,56.461c-0.008,4.726-0.412,10.057-0.127,15.23c7.216,0.35,10.033,0.481,16.861,0.433
		c1.723-0.012,6.451-0.13,8.161,0.082c1.388,0.172,3.665-0.356,5.057-0.229c1.678,0.153,3.364-0.108,5.049-0.08
		C110.486,89.443,113.944,89.442,117.493,89.196z"/>
	<path class="st2" d="M95.675,93.702c-1.649-0.275-2.537-0.021-3.61,0.805c-1.03,0.793-1.638,2.119-1.527,3.415
		c0.111,1.296,0.952,2.513,2.141,3.04c0.598,0.265,1.262,0.36,1.916,0.343c0.998-0.025,2.023-0.328,2.743-1.019
		c0.799-0.767,1.129-1.919,1.144-3.027c0.013-0.905-0.187-1.86-0.801-2.525C97.167,94.176,96.664,93.922,95.675,93.702z"/>
	<path class="st2" d="M90.388,11.16c2.607-0.084,5.311-0.104,7.919-0.063c0.527,0.008,1.144,0.067,1.422,0.515
		c0.106,0.171,0.144,0.375,0.166,0.575c0.038,0.343,0.027,0.718-0.18,0.993c-0.373,0.496-1.194,0.295-1.811,0.358
		c-0.668,0.067-1.197-0.054-1.868-0.041c-0.623,0.012-1.374-0.03-2.144,0.008c-1.252,0.062-2.204-0.046-3.455,0.032
		c-0.264,0.017-0.652-0.144-0.797-0.366c-0.144-0.222-0.183-0.494-0.213-0.758c-0.027-0.243-0.043-0.51,0.1-0.708
		C89.711,11.449,90.003,11.257,90.388,11.16z"/>
	<g>
		<path class="st0" d="M91.133,50.54c-0.727,4.149-1.331,8.276-2.058,12.426c-0.096,0.546-0.191,1.091-0.287,1.637
			c-0.213,1.215-0.426,2.43-0.639,3.644c-0.062,0.355-0.085,0.803,0.226,0.987c0.14,0.083,0.311,0.083,0.473,0.081
			c1.425-0.018,2.85-0.051,4.274-0.1c0.07-0.002,0.147-0.007,0.199-0.054c0.062-0.056,0.06-0.15,0.069-0.232
			c0.2-1.817,0.385-3.459,0.693-5.291c0.091-0.541,0.12-1.167,0.609-1.415c0.304-0.154,0.661-0.139,1.001-0.125
			c2.323,0.102,4.776,0.019,6.775-1.167c0.584-0.347,1.112-0.778,1.637-1.208c0.264-0.216,0.53-0.434,0.749-0.696
			c0.377-0.452,0.596-1.012,0.795-1.566c0.26-0.726,0.497-1.467,0.591-2.233c0.115-0.942,0.011-1.903-0.242-2.818
			c-0.115-0.417-0.266-0.833-0.538-1.17c-0.157-0.195-0.351-0.357-0.551-0.508c-1.576-1.189-3.433-1.474-5.583-1.464
			c-2.366,0.011-4.732,0.079-7.098,0.081c-0.184,0-0.397-0.045-0.546,0.063C91.323,49.673,91.202,50.176,91.133,50.54z"/>
		<path class="st3" d="M86.791,42.848c-0.809,4.614-1.48,9.203-2.288,13.817c-0.106,0.607-0.213,1.213-0.319,1.82
			c-0.237,1.351-0.473,2.702-0.71,4.052c-0.069,0.395-0.094,0.893,0.251,1.097c0.155,0.092,0.346,0.092,0.526,0.09
			c1.585-0.02,3.169-0.057,4.753-0.112c0.078-0.003,0.163-0.008,0.221-0.06c0.069-0.062,0.067-0.166,0.077-0.258
			c0.222-2.021,0.428-3.847,0.771-5.883c0.101-0.601,0.134-1.297,0.677-1.573c0.338-0.171,0.735-0.155,1.113-0.138
			c2.583,0.113,5.31,0.022,7.534-1.298c0.649-0.385,1.236-0.866,1.821-1.344c0.294-0.24,0.59-0.483,0.833-0.774
			c0.42-0.502,0.663-1.126,0.884-1.742c0.289-0.808,0.552-1.632,0.657-2.483c0.128-1.047,0.012-2.116-0.27-3.133
			c-0.128-0.463-0.296-0.927-0.598-1.3c-0.175-0.217-0.391-0.397-0.613-0.565c-1.752-1.322-3.818-1.639-6.208-1.628
			c-2.63,0.012-5.262,0.087-7.893,0.09c-0.205,0-0.442-0.05-0.607,0.07C87.003,41.883,86.868,42.443,86.791,42.848z"/>
	</g>
</g>
</svg>