<svg id="_Layer_" data-name="&lt;Layer&gt;" xmlns="http://www.w3.org/2000/svg" viewBox="0 0 95.13 93.74"><defs><style>.cls-1{fill:none;}.cls-1,.cls-2{stroke:#231f20;stroke-linecap:round;stroke-linejoin:round;}.cls-2{fill:#fff;}</style></defs><path class="cls-1" d="M822.64,1252.57a3.11,3.11,0,0,0,2.2-.63,2.16,2.16,0,0,1,2.22-.23c.72.51.7,1.71,1.47,2.14a1.43,1.43,0,0,0,1.39-.12,5,5,0,0,0,1.06-1,18.69,18.69,0,0,1,3.5-3,23.08,23.08,0,0,1,0,3.71,12.53,12.53,0,0,0,4,.7" transform="translate(-743.86 -1160.9)"/><path class="cls-1" d="M747.08,1239.56a6.62,6.62,0,0,1-2.72-3.73c2.23-.28,4.25,1.66,6.5,1.56q.07-1.48,0-3c.64-.13,1.22.38,1.68.85l1.75,1.8a.91.91,0,0,0,.37.27c.5.15.81-.54.82-1.06s.08-1.21.59-1.31.77.38,1.08.71a2.46,2.46,0,0,0,1.47.76" transform="translate(-743.86 -1160.9)"/><path class="cls-1" d="M798.27,1213.11a30.41,30.41,0,0,0-.69,3.73,18.08,18.08,0,0,1-.67,3.44,12.21,12.21,0,0,1-1.29,2.36c-.48.88-.61,1.95-1.18,2.9a11.6,11.6,0,0,1-2,2.78,13.23,13.23,0,0,1-2.57,2.27,4.06,4.06,0,0,1-2.71.71,4.19,4.19,0,0,1-2.47-2.08c-1.57-2.41-2.55-5.59-1.21-8.13.61-1.14,1.65-2.09,1.84-3.37.22-1.45-.8-3,.14-4.33,1.33-1.86,1.68-4.13,2.15-6.35,1.1-5.24.87-11.18,5.49-14.83a20.09,20.09,0,0,1,2.67-1.68l3.74-2.09c1.16-.65,2.32-1.3,3.44-2,1.38-.9,3.45-.79,5-.86,4.11-.66,7.17-2,11.08-.55,1.42.52,1.64,1.14,2.89,2a14.61,14.61,0,0,1,4.64,5.14c1.15,2.09,2.12,4.26,3.16,6.4a11.9,11.9,0,0,1,1.25,2.92,21.13,21.13,0,0,1,.29,3.62q.07,3.12.14,6.24c0,1.81-.67,3.53-.76,5.33a47.16,47.16,0,0,0,.48,5.71c.13,1.93-.49,3.81-.72,5.7s0,3.9-.56,5.87c-.45,1.53-1.41,3.1-1.36,4.73.11,3-4.31,5.37-6.88,5.85a7.49,7.49,0,0,1-2.12.12c-.64-.06-1.27-.23-1.9-.36a31.67,31.67,0,0,0-4.52-.4q-2.48-.12-5-.39c-3.18-.35-6-2.5-8-4.9l-1.89-2.24c-1.4-1.66-2.85-3.47-3.07-5.63a3.26,3.26,0,0,1,1-2.93c.79-.62,2-.74,2.48-1.63a7.15,7.15,0,0,0,.22-4.44,39.35,39.35,0,0,1-.48-5.71,34.08,34.08,0,0,1,.33-8.22" transform="translate(-743.86 -1160.9)"/><path class="cls-1" d="M783.56,1220.26a1.5,1.5,0,0,0-.11-1.12c-.07-.1-.17-.19-.26-.28-.33-.39-.33-1-.57-1.43a.4.4,0,0,0-.13-.16c-.23-.15-.47.17-.55.43s-.28.6-.53.49-.2-.3-.2-.48V1216a.75.75,0,0,1,.38-.79l1.77-1.31a1.93,1.93,0,0,1,.76-.4.66.66,0,0,1,.73.32" transform="translate(-743.86 -1160.9)"/><path class="cls-1" d="M783.65,1220l-3.9-2.07a7.69,7.69,0,0,0-1.57-.69,15.64,15.64,0,0,1-1.73-.63c-.75-.3-1.18-1-2-.93a3.69,3.69,0,0,0,.14,1.68l2.84,1.14c.49.2,1,.39,1.46.61a28.63,28.63,0,0,0,4.44,2" transform="translate(-743.86 -1160.9)"/><path class="cls-1" d="M774.28,1215.52l6.68.08" transform="translate(-743.86 -1160.9)"/><path class="cls-1" d="M774.37,1215.54c-1.23-4.16-2.44-8.31-3.8-12.45a34.9,34.9,0,0,0-1.5-3.8c-.27-.58.05-.79.69-.79,5.45,0,13.18-.11,19.24-.09" transform="translate(-743.86 -1160.9)"/><path class="cls-1" d="M769,1198.67a2,2,0,0,0-.63,1.69,6.14,6.14,0,0,0,.51,1.79,81.91,81.91,0,0,1,3.78,12.46,3.38,3.38,0,0,0,1.75,2.71" transform="translate(-743.86 -1160.9)"/><path class="cls-1" d="M819.6,1178.37c-1.27-.31-2.57.27-3.86.47a29.56,29.56,0,0,1-3.13.13,7.57,7.57,0,0,1-3.1-.15,6.71,6.71,0,0,1-2.68-2.69,20.71,20.71,0,0,0-2.12-2.52,1.77,1.77,0,0,0-1.18-.67,3,3,0,0,0-.94.29,4.29,4.29,0,0,1-1.53.16,3.38,3.38,0,0,1-2.8-1,2.66,2.66,0,0,1-.38-.93,6.63,6.63,0,0,1,2.41-6.28,12.81,12.81,0,0,1,6.48-2.6,43.55,43.55,0,0,1,5.74-.38,7.05,7.05,0,0,1,3.42,1.08c.59.34,1,.34,1.48.84a9.88,9.88,0,0,1,1.42,2,18.61,18.61,0,0,1,1.28,2.9,15.72,15.72,0,0,1,.35,7,13,13,0,0,1-.08,1.32,14.8,14.8,0,0,1-1,2.26c-.55,1.34-1.29,3.29-.35,5" transform="translate(-743.86 -1160.9)"/><path class="cls-1" d="M799.69,1173.58l.19,3.65a9,9,0,0,0,.3,2.21c.53,1.72,2,3,2.85,4.55a10.49,10.49,0,0,0,.76,1.42,1.07,1.07,0,0,0,.54.43,4.77,4.77,0,0,0,1-.11" transform="translate(-743.86 -1160.9)"/><path class="cls-1" d="M794.7,1225.58a8.66,8.66,0,0,1,2.18,1.68" transform="translate(-743.86 -1160.9)"/><path class="cls-1" d="M778.57,1219.26c-.77.3-1.14,1.14-1.52,1.87-1.4,2.75-3.64,5-5.34,7.54a45.87,45.87,0,0,1-3,4.55c0-.1-.6.89-.56.79a3.13,3.13,0,0,0-1,2.5,4,4,0,0,0,1.78,2.66,6.54,6.54,0,0,0,3.11,1,6.31,6.31,0,0,0,3.9-.81c.41-.26.78-.59,1.17-.87a14.23,14.23,0,0,1,2.26-1.24l3.72-1.77s3.58,5.26,4,5.75c1.15,1.43,2.36,3.19,4.12,3.91a50.07,50.07,0,0,0,11.41,3.13,88.66,88.66,0,0,0,12.8.58,12.06,12.06,0,0,0,4.9-.75,12.23,12.23,0,0,0,3.11-2.2q1.12-1,2.2-2.05a5.31,5.31,0,0,0,1.58-2.21" transform="translate(-743.86 -1160.9)"/><path class="cls-1" d="M798.68,1222a5.77,5.77,0,0,0-1.27,1.26l-2,2.49" transform="translate(-743.86 -1160.9)"/><path class="cls-1" d="M780.13,1237a1.82,1.82,0,0,0,.55,1.47,3.13,3.13,0,0,0,1.57,1.29,2.57,2.57,0,0,0,1.69-.31,5.28,5.28,0,0,1,1.28-.49" transform="translate(-743.86 -1160.9)"/><path class="cls-1" d="M768.19,1233.56q-1.94-.78-3.93-1.42a2.58,2.58,0,0,0-2.21,0,2.62,2.62,0,0,0-.85,1.72,2.43,2.43,0,0,0,.49,2.62l1.61,2.06a8.1,8.1,0,0,0,1.43,1.54,12.39,12.39,0,0,0,1.43.85c1,.55,1.86,1.23,2.87,1.72a4.36,4.36,0,0,0,3.24.38,5.29,5.29,0,0,0,1.47-.87,3.29,3.29,0,0,0,.86-.87c.21-.35.53-.65.33-1a13,13,0,0,1,1.92,1.31,3.56,3.56,0,0,0,.81.62,2.8,2.8,0,0,0,1.22.16,3.65,3.65,0,0,0,1.28-.17,3.31,3.31,0,0,0,1.5-1.52,1.7,1.7,0,0,1,.82-.85" transform="translate(-743.86 -1160.9)"/><path class="cls-1" d="M782,1233.27l-.62-.87a1.28,1.28,0,0,1-.31-1v-2.8" transform="translate(-743.86 -1160.9)"/><path class="cls-2" d="M804.5,1172.25c-.16,0-.62.49-.76.57a.94.94,0,0,0-.34.47,9.67,9.67,0,0,0-.65,3.24,4,4,0,0,0,.12,1.31,3.82,3.82,0,0,0,.6,1.33,3,3,0,0,0,2.83,1.39,2.83,2.83,0,0,0,1.82-2,8.83,8.83,0,0,0,.24-2.93,2.81,2.81,0,0,0-.11-.82,3.84,3.84,0,0,0-.22-.68c-.3-.48-.27-.49-.57-1a5.51,5.51,0,0,0-.63-.62.93.93,0,0,0-.45-.14A4.94,4.94,0,0,0,804.5,1172.25Z" transform="translate(-743.86 -1160.9)"/><path class="cls-1" d="M803.89,1172.44c.31-1.84.4-4.53,1.38-6.22a17.06,17.06,0,0,1,2.25-3.25,8.1,8.1,0,0,1,1.63-1.12,5.73,5.73,0,0,1,2.47-.44,7.86,7.86,0,0,1,2.61.6c0,.38-.92.13-1.5.38l-1.58.71a4.22,4.22,0,0,0-2.17,2,14.22,14.22,0,0,0-2.15,7.24" transform="translate(-743.86 -1160.9)"/></svg>