<!-- Generator: Adobe Illustrator 20.1.0, SVG Export Plug-In  -->
<svg version="1.1"
	 xmlns="http://www.w3.org/2000/svg" xmlns:xlink="http://www.w3.org/1999/xlink" xmlns:a="http://ns.adobe.com/AdobeSVGViewerExtensions/3.0/"
	 x="0px" y="0px" width="252.969px" height="276.188px" viewBox="0 0 252.969 276.188"
	 style="enable-background:new 0 0 252.969 276.188;" xml:space="preserve">
<style type="text/css">
	.st0{fill:none;stroke:#231F20;stroke-linecap:round;stroke-linejoin:round;stroke-miterlimit:10;}
	.st1{stroke:#231F20;stroke-linecap:round;stroke-linejoin:round;stroke-miterlimit:10;}
	.st2{fill:none;stroke:#FFFFFF;stroke-linecap:round;stroke-linejoin:round;stroke-miterlimit:10;}
	.st3{fill:none;stroke:#231F20;stroke-width:2;stroke-linecap:round;stroke-linejoin:round;stroke-miterlimit:10;}
	.st4{fill:#231F20;}
	.st5{fill:#ECF0F1;}
	.st6{fill:#FFFFFF;}
</style>
<defs>
</defs>
<g>
	<path class="st0" d="M153.754,99.505c-0.5-0.021-0.96,0.26-1.356,0.566c-2.073,1.6-3.341,4.196-3.329,6.815"/>
	<path class="st0" d="M155.945,105.525c0.174-0.109,0.379,0.081,0.497,0.249c0.315,0.45,0.63,0.899,0.945,1.349
		c0.391,0.558,0.797,1.161,0.812,1.842c0.008,0.347-0.096,0.703-0.321,0.967"/>
	<path class="st0" d="M81.053,143.506c0.151-0.791,0.01-1.604-0.028-2.408c-0.038-0.804,0.053-1.673,0.575-2.286
		c0.299-0.35,0.711-0.582,1.043-0.9c0.158-0.151,0.3-0.323,0.487-0.435c0.173-0.103,0.373-0.149,0.57-0.192
		c2.275-0.504,4.679-0.964,6.9-0.262"/>
	<path class="st0" d="M110.947,164.917c0.864,0.072,1.763,0.139,2.573-0.173c0.234-0.09,0.456-0.211,0.693-0.296
		c0.283-0.101,0.583-0.148,0.868-0.243c0.441-0.146,0.838-0.4,1.223-0.661c0.686-0.465,1.353-0.96,1.996-1.483"/>
	<path class="st0" d="M153.242,147.999c0.1,1.276-0.336,2.55-1.006,3.64c-0.67,1.091-1.566,2.022-2.472,2.927"/>
	<path class="st0" d="M111.169,188.953c-0.29,2.365,0.108,4.811,1.133,6.962c0.254,0.534,0.548,1.054,0.707,1.623
		c0.136,0.487,0.17,0.995,0.203,1.499c0.046,0.704,0.093,1.408,0.139,2.112c0.09,1.373,0.184,2.762,0.608,4.071
		c0.424,1.309,1.222,2.55,2.42,3.226c1.109,0.626,2.431,0.71,3.703,0.781c0.572,0.032,1.15,0.063,1.716-0.031
		c0.847-0.14,1.62-0.553,2.376-0.959c0.542-0.291,1.091-0.588,1.53-1.019c0.998-0.981,1.254-2.477,1.36-3.873
		c0.046-0.609,0.074-1.22,0.036-1.83c-0.164-2.63-1.538-5.15-1.246-7.769c0.106-0.944,0.427-1.866,0.41-2.815
		c-0.008-0.408-0.084-0.828-0.309-1.169c-0.334-0.506-0.932-0.756-1.422-1.114c-1.582-1.157-1.987-3.412-3.467-4.697"/>
	<path class="st0" d="M157.771,163.764c-0.303,1.139,0.49,2.262,0.644,3.431c0.055,0.42,0.027,0.85,0.115,1.265
		c0.19,0.898,0.909,1.611,1.73,2.023c0.82,0.412,1.741,0.569,2.646,0.722c1.352,0.227,2.71,0.455,4.081,0.486
		c1.003,0.023,2.013-0.06,3.007,0.079c0.589,0.082,1.166,0.242,1.757,0.314c0.502,0.062,1.01,0.06,1.516,0.059
		c1.348-0.004,2.696-0.009,4.045-0.013c1.295-0.004,2.688-0.039,3.729-0.809c1.354-1.002,1.648-2.882,1.731-4.564
		c0.049-0.996,0.062-2.005-0.153-2.978c-0.215-0.974-0.677-1.92-1.441-2.56c-0.544-0.455-1.211-0.734-1.866-1.007
		c-0.737-0.306-1.477-0.614-2.25-0.814c-2.015-0.523-4.234-0.316-6.088-1.263c-0.795-0.406-1.684-0.631-2.566-0.774
		c-0.199-0.032-0.401-0.049-0.598-0.096c-0.344-0.082-0.659-0.253-0.985-0.389c-0.516-0.214-1.069-0.34-1.627-0.372"/>
	<path class="st1" d="M95.961,82.379c-2.751,2.235-4.866,5.244-6.038,8.589c-0.276,0.788-0.503,1.609-0.489,2.444
		c0.031,1.841,1.211,3.452,2.454,4.811c1.154,1.261,2.409,2.429,3.749,3.49c0.762,0.603,1.57,1.181,2.497,1.471
		c1.712,0.536,3.556,0.027,5.274-0.49c0.634-0.191,1.27-0.383,1.884-0.63c2.671-1.073,4.82-3.11,6.899-5.102
		c0.585-0.561,1.191-1.152,1.456-1.918c0.149-0.429,0.181-0.89,0.3-1.328c0.131-0.481,0.366-0.93,0.481-1.416
		c0.227-0.953-0.025-1.955-0.388-2.864c-0.644-1.616-1.628-3.069-2.604-4.508c-0.4-0.589-0.8-1.179-1.2-1.768
		c-0.496-0.732-0.994-1.465-1.561-2.143c-0.359-0.429-0.744-0.835-1.129-1.241c-0.526-0.554-1.067-1.119-1.75-1.462
		c-1.075-0.538-2.378-0.449-3.505-0.032c-1.127,0.417-2.116,1.131-3.089,1.837c-1.209,0.877-2.418,1.754-3.627,2.63"/>
	<path class="st2" d="M107.092,87.017c0.332,1.889-0.461,3.779-1.3,5.504c-0.21,0.432-0.425,0.864-0.702,1.256"/>
	<path class="st2" d="M109.459,87.497c-0.109,4.041-1.948,7.807-3.749,11.427"/>
	<path class="st0" d="M82.765,101.353c2.517,3.675,4.753,7.571,6.506,11.666c0.241,0.563,0.474,1.129,0.708,1.695
		c0.244,0.591,0.488,1.182,0.731,1.773c0.48,1.163,1.058,2.058,1.392,3.271c0.216-3.314-0.219-6.666-1.227-9.83
		c-0.833-2.614-2.056-5.103-3.615-7.359c-0.535-0.775-1.111-1.523-1.732-2.231c-0.392-0.447-1.047-0.962-1.592-0.724
		c-1.53-2.523-2.982-5.049-3.552-7.943c-0.277-1.408-0.313-2.852-0.298-4.287c0.028-2.68,0.264-5.473,1.643-7.771
		c0.429-0.715,0.96-1.365,1.523-1.98c2.951-3.219,6.944-5.545,11.266-6.167s8.942,0.554,12.22,3.438
		c1.183,1.041,2.176,2.275,3.163,3.503c1.092,1.359,2.107,2.85,3.2,4.209c1.558-1.298,3.744-1.497,5.771-1.435
		c1.777,0.054,3.548,0.265,5.297,0.587c3.253,0.599,6.456,1.594,9.344,3.205c0.832,0.464,1.65,0.985,2.568,1.242
		c0.51,0.143,1.048,0.204,1.522,0.438c0.395,0.195,0.728,0.501,1.131,0.68c0.607,0.269,1.324,0.224,1.913,0.53
		c0.591,0.307,1.157,0.819,1.752,1.118c3.615,1.811,7.337,3.704,9.931,6.805c0.628,0.751,1.195,1.595,1.381,2.557
		c0.05,0.26,0.075,0.534,0.213,0.76c0.216,0.352,0.644,0.494,1.02,0.664c0.681,0.307,1.276,0.777,1.832,1.276
		c0.73,0.656,1.405,1.37,2.079,2.083c0.566,0.599,1.133,1.199,1.674,1.82c0.72,0.826,1.396,1.691,2.023,2.589
		c0.929,1.329,1.784,2.869,1.588,4.478c-0.06,0.491-0.226,0.983-0.556,1.352s-0.841,0.596-1.327,0.504
		c-0.578-0.109-0.984-0.61-1.361-1.061c-0.73-0.873-1.54-1.679-2.416-2.405c-0.128-0.106-0.261-0.213-0.419-0.266
		c-0.275-0.094-0.575-0.014-0.862,0.033c-1.973,0.329-3.839-0.902-5.425-2.12c-0.628-0.482-1.373-0.797-2.159-0.89
		c-1.436,0.745-3.137,0.963-4.715,0.605c-1.443-0.328-2.737-1.105-4.014-1.854c-1.674-0.983-3.413-1.954-5.331-2.251
		c-1.435-0.222-2.899-0.055-4.351-0.093c-2.854-0.074-5.683-0.963-8.067-2.535c-0.303-0.2-0.655-0.42-1.003-0.316
		c-0.494,0.148-0.581,0.799-0.575,1.314c0.01,0.915,0.024,1.851,0.343,2.709c0.183,0.493,0.462,0.944,0.749,1.384
		c1.323,2.024,3.226,4.025,3.564,6.419c0.232,1.638,0.883,3.216,1.874,4.541c1.141,1.525,2.692,2.683,4.22,3.82
		c2.072,1.541,4.144,3.082,6.215,4.623c0.935,0.695,1.87,1.39,2.815,2.071c1.453,1.045,2.932,2.055,4.435,3.027
		c0.434,0.281,0.87,0.559,1.296,0.853c0.432,0.298,0.853,0.612,1.277,0.922c0.785,0.574,1.581,1.132,2.377,1.691
		c0.258,0.181,0.525,0.33,0.839,0.363c0.51,0.642,1.214,1.094,1.883,1.568c1.989,1.406,3.782,3.09,5.309,4.987
		c0.203,0.253,0.405,0.514,0.519,0.817c0.172,0.457,0.131,0.964,0.232,1.441c0.195,0.917,0.885,1.632,1.464,2.37
		c1.942,2.473,2.813,5.596,3.64,8.63c0.25,0.915,0.499,1.831,0.749,2.746c0.134,0.491,0.269,1.002,0.181,1.503
		c-0.087,0.502-0.678,1.045-1.159,1.214c-1.644,0.579-2.298,2.68-3.877,3.419c-0.501,0.234-1.058,0.312-1.607,0.378
		c-1.908,0.232-3.946,0.348-5.647-0.546c-0.603-0.317-1.136-0.749-1.665-1.178c-1.274-1.033-2.549-2.066-3.823-3.099
		c-0.858-0.695-1.824-1.429-2.927-1.379c-0.322,0.014-0.653,0.096-0.961,0.002c-0.319-0.097-0.553-0.364-0.767-0.62
		c-1.341-1.605-2.62-3.297-4.285-4.564c-0.811-0.617-1.7-1.122-2.585-1.626c-2.576-1.464-5.151-2.928-7.727-4.391
		c-0.601-0.341-1.219-0.904-1.745-1.353c-1.508-1.286-3.355-2.17-5.302-2.54c-0.746-0.142-1.597-0.183-2.18,0.303
		c-0.832,0.694-0.646,1.996-0.402,3.052c0.786,3.397,1.4,6.834,1.837,10.294c0.206,1.627,0.376,3.272,0.886,4.83
		c0.392,1.196,0.98,2.329,1.251,3.557c0.26,1.181,0.217,2.406,0.172,3.615c-0.022,0.597-0.044,1.194-0.067,1.791
		c-0.104,2.785-0.207,5.569-0.311,8.354c-0.043,1.163-0.09,2.346-0.464,3.448c-0.277,0.818-0.727,1.565-1.172,2.304
		c-0.281,0.467-0.563,0.934-0.844,1.401c-1.088,1.807-2.425,3.79-4.503,4.149c-0.947,0.164-1.915-0.047-2.853-0.256
		c-1.774-0.396-3.617-0.825-5.034-1.963c-1.196-0.961-1.973-2.338-2.69-3.695c-2.108-3.984-4.155-8.47-3.66-12.951
		c1.158-1.574,0.55-3.775-0.102-5.616c-0.705-1.99-1.41-3.981-2.115-5.971c-1.066-3.009-2.137-6.04-2.628-9.195
		c-0.326-2.094-0.391-4.22-0.629-6.326c-0.886-7.844-4.158-15.415-3.857-23.303c-2.432,4.147-3.473,9.095-2.918,13.871
		c0.135,1.161,0.45,2.447,1.445,3.061c0.611,0.377,1.366,0.422,2.033,0.687c0.667,0.265,1.301,0.94,1.086,1.624
		c-0.28,0.89-1.566,0.84-2.429,0.486c-0.863-0.354-1.932-0.804-2.639-0.195c1.121,1.086,2.526,1.823,3.796,2.731
		s2.465,2.083,2.839,3.598c0.374,1.516-0.382,3.385-1.896,3.767c-1.103,0.278-2.23-0.262-3.239-0.786
		c-2.733-1.42-5.466-2.841-8.199-4.261c-2.706-1.406-5.546-2.935-7.123-5.545c-0.511-0.846-0.867-1.774-1.221-2.697
		c-0.854-2.229-1.708-4.458-2.562-6.687c-0.33-0.861-0.666-1.756-0.61-2.677c0.075-1.242,0.841-2.317,1.324-3.464
		c0.728-1.727,0.819-3.646,1.259-5.468c0.751-3.112,2.5-5.875,4.222-8.575C79.018,106.776,80.97,104.074,82.765,101.353z"/>
	<path class="st0" d="M135.106,91.036c0.375,3.08-0.386,6.285-2.104,8.867"/>
	<path class="st0" d="M82.655,129.334c1.606,0.222,3.252,0.16,4.837-0.184"/>
	<path class="st0" d="M85.425,126.083c0.652,0.491,1.304,0.983,1.957,1.474"/>
	<path class="st0" d="M113.142,82.763c1.396,2.392,2.426,4.998,3.041,7.699c0.1,0.438,0.189,0.881,0.217,1.33
		c0.042,0.679,0.193,1.188,0.095,1.86c0.39,0.611,0.78,1.221,1.171,1.832c0.226,0.353,0.452,0.706,0.69,1.051
		c0.354,0.512,0.736,1.003,1.118,1.495c0.733,0.944,1.466,1.888,2.2,2.832c-0.295,0.034-0.563-0.156-0.798-0.337
		c-1.213-0.934-2.431-1.874-3.483-2.987c-0.576-0.61-1.003-1.271-1.761-1.632c-0.187,0.25-0.254,0.363-0.408,0.561
		c-2.154,2.756-4.703,5.203-7.543,7.244c-0.557,0.4-1.127,0.786-1.735,1.104c-1.74,0.909-3.74,1.231-5.703,1.219
		s-3.91-0.342-5.845-0.671c-0.906-0.154-1.812-0.308-2.717-0.462c-0.527-0.09-1.057-0.18-1.561-0.359
		c-1.037-0.367-1.907-1.086-2.725-1.821"/>
	<path class="st0" d="M116.526,93.156c0.075,0.362-0.126,0.806-0.271,1.146c-0.167,0.391-0.229,0.713-0.396,1.104
		c-0.14,0.328-0.385,0.844-0.604,1.125"/>
	<path class="st0" d="M107.987,75.375c0.99-0.502,1.664-1.576,1.685-2.686c-1.301-0.218-2.602-0.435-3.903-0.653
		c-0.46-0.077-0.925-0.155-1.351-0.346c-0.408-0.182-0.764-0.46-1.156-0.674c-1.102-0.601-2.409-0.663-3.61-1.027
		c-0.95-0.288-1.829-0.764-2.701-1.238c-0.927-0.503-1.855-1.006-2.782-1.51c-0.989-0.537-2.081-1.091-3.186-0.882
		c-9.485-0.074-18.242,4.177-25.83,9.867c-0.533,0.4-1.067,0.812-1.48,1.334c-0.567,0.717-0.884,1.614-1.488,2.301
		c-0.249,0.283-0.547,0.531-0.729,0.862c-0.195,0.354-0.238,0.769-0.267,1.172c-0.268,3.686,0.307,7.386,1.157,10.982
		c0.376,1.593,0.807,3.176,1.395,4.703c0.477,1.24,1.056,2.437,1.633,3.633c0.178,0.368,0.382,0.764,0.753,0.937
		c0.323,0.151,0.699,0.098,1.053,0.061c0.999-0.105,2.014-0.057,2.999,0.14c0.933,0.187,1.843,0.509,2.792,0.583
		c2.064,0.162,4.018-0.851,5.84-1.833c1.317-0.71,2.666-1.446,3.64-2.582"/>
	<path class="st0" d="M70.934,102.202c-0.299,2.172,0.372,4.46,1.798,6.126c0.963,1.159,1.642,2.553,1.96,4.026
		c0.059,0.274,0.106,0.551,0.153,0.828"/>
	<path class="st3" d="M70.671,105.994c-5.085,1.23-10.092-1.768-14.974-3.648c-7.831-3.015-16.417-3.231-24.807-3.409
		c-2.692-0.057-5.451-0.105-7.998,0.769c-5.391,1.85-8.622,7.362-10.467,12.755c-3.086,9.019-3.586,19.008-0.772,28.116
		c0.984,3.184,2.356,6.237,3.906,9.187c5.542,10.555,13.414,19.879,22.891,27.113c4.35,3.321,9.02,6.198,13.49,9.355
		c2.324,1.642,4.594,3.359,6.844,5.101c9.946,7.705,19.497,15.919,28.604,24.6c8.331,7.94,16.888,17.855,15.809,29.314
		c-0.677,7.193-5.095,13.409-9.361,19.24c-2.609,3.567-5.219,7.134-7.828,10.701"/>
	<g>
		<g>
			<path class="st4" d="M1.318,180.895c1.756,0,1.759-2.729,0-2.729C-0.438,178.167-0.441,180.895,1.318,180.895L1.318,180.895z"/>
		</g>
	</g>
	<g>
		<g>
			<path class="st4" d="M4.318,213.729c1.756,0,1.759-2.729,0-2.729C2.562,211,2.559,213.729,4.318,213.729L4.318,213.729z"/>
		</g>
	</g>
	<g>
		<g>
			<path class="st4" d="M26.318,231.729c1.756,0,1.759-2.729,0-2.729C24.562,229,24.559,231.729,26.318,231.729L26.318,231.729z"/>
		</g>
	</g>
	<g>
		<g>
			<path class="st4" d="M61.651,239.729c1.756,0,1.759-2.729,0-2.729C59.896,237,59.893,239.729,61.651,239.729L61.651,239.729z"/>
		</g>
	</g>
	<g>
		<g>
			<path class="st4" d="M141.318,236.093c3.511,0,3.517-5.457,0-5.457C137.807,230.636,137.801,236.093,141.318,236.093
				L141.318,236.093z"/>
		</g>
	</g>
	<g>
		<g>
			<path class="st4" d="M116.651,259.062c1.756,0,1.759-2.729,0-2.729C114.896,256.333,114.893,259.062,116.651,259.062
				L116.651,259.062z"/>
		</g>
	</g>
	<g>
		<g>
			<path class="st4" d="M180.318,227.062c1.756,0,1.759-2.729,0-2.729C178.562,224.333,178.559,227.062,180.318,227.062
				L180.318,227.062z"/>
		</g>
	</g>
	<g>
		<g>
			<path class="st4" d="M195.651,258.062c1.756,0,1.759-2.729,0-2.729C193.896,255.333,193.893,258.062,195.651,258.062
				L195.651,258.062z"/>
		</g>
	</g>
	<g>
		<g>
			<path class="st4" d="M241.985,235.062c1.756,0,1.759-2.729,0-2.729C240.229,232.333,240.226,235.062,241.985,235.062
				L241.985,235.062z"/>
		</g>
	</g>
	<g>
		<g>
			<path class="st4" d="M234.318,209.395c1.756,0,1.759-2.729,0-2.729C232.562,206.667,232.559,209.395,234.318,209.395
				L234.318,209.395z"/>
		</g>
	</g>
	<g>
		<g>
			<path class="st4" d="M248.651,162.395c1.756,0,1.759-2.729,0-2.729C246.896,159.667,246.893,162.395,248.651,162.395
				L248.651,162.395z"/>
		</g>
	</g>
	<g>
		<g>
			<path class="st4" d="M249.651,141.395c1.756,0,1.759-2.729,0-2.729C247.896,138.667,247.893,141.395,249.651,141.395
				L249.651,141.395z"/>
		</g>
	</g>
	<g>
		<g>
			<path class="st4" d="M228.985,129.395c1.756,0,1.759-2.729,0-2.729C227.229,126.667,227.226,129.395,228.985,129.395
				L228.985,129.395z"/>
		</g>
	</g>
	<g>
		<g>
			<path class="st4" d="M251.651,78.395c1.756,0,1.759-2.729,0-2.729C249.896,75.667,249.893,78.395,251.651,78.395L251.651,78.395z
				"/>
		</g>
	</g>
	<g>
		<g>
			<path class="st4" d="M216.651,53.093c3.511,0,3.517-5.457,0-5.457C213.14,47.636,213.134,53.093,216.651,53.093L216.651,53.093z"
				/>
		</g>
	</g>
	<g>
		<g>
			<path class="st4" d="M197.651,79.062c1.756,0,1.759-2.729,0-2.729C195.896,76.333,195.893,79.062,197.651,79.062L197.651,79.062z
				"/>
		</g>
	</g>
	<g>
		<g>
			<path class="st4" d="M133.318,70.395c1.756,0,1.759-2.729,0-2.729C131.562,67.667,131.559,70.395,133.318,70.395L133.318,70.395z
				"/>
		</g>
	</g>
	<g>
		<g>
			<path class="st4" d="M165.318,46.062c1.756,0,1.759-2.729,0-2.729C163.562,43.333,163.559,46.062,165.318,46.062L165.318,46.062z
				"/>
		</g>
	</g>
	<g>
		<g>
			<path class="st4" d="M222.651,22.395c1.756,0,1.759-2.729,0-2.729C220.896,19.667,220.893,22.395,222.651,22.395L222.651,22.395z
				"/>
		</g>
	</g>
	<g>
		<g>
			<path class="st4" d="M251.651,42.062c1.756,0,1.759-2.729,0-2.729C249.896,39.333,249.893,42.062,251.651,42.062L251.651,42.062z
				"/>
		</g>
	</g>
	<g>
		<g>
			<path class="st4" d="M135.318,2.729c1.756,0,1.759-2.729,0-2.729C133.562,0,133.559,2.729,135.318,2.729L135.318,2.729z"/>
		</g>
	</g>
	<g>
		<g>
			<path class="st4" d="M113.318,38.062c1.756,0,1.759-2.729,0-2.729C111.562,35.333,111.559,38.062,113.318,38.062L113.318,38.062z
				"/>
		</g>
	</g>
	<g>
		<g>
			<path class="st4" d="M76.651,31.729c1.756,0,1.759-2.729,0-2.729C74.896,29,74.893,31.729,76.651,31.729L76.651,31.729z"/>
		</g>
	</g>
	<g>
		<g>
			<path class="st4" d="M56.985,7.426c3.511,0,3.517-5.457,0-5.457C53.473,1.969,53.467,7.426,56.985,7.426L56.985,7.426z"/>
		</g>
	</g>
	<g>
		<g>
			<path class="st4" d="M19.318,30.729c1.756,0,1.759-2.729,0-2.729C17.562,28,17.559,30.729,19.318,30.729L19.318,30.729z"/>
		</g>
	</g>
	<g>
		<g>
			<path class="st4" d="M10.651,67.395c1.756,0,1.759-2.729,0-2.729C8.896,64.667,8.893,67.395,10.651,67.395L10.651,67.395z"/>
		</g>
	</g>
	<g>
		<g>
			<path class="st4" d="M201.318,146.062c1.756,0,1.759-2.729,0-2.729C199.562,143.333,199.559,146.062,201.318,146.062
				L201.318,146.062z"/>
		</g>
	</g>
	<g>
		<g>
			<path class="st4" d="M62.651,58.729c1.756,0,1.759-2.729,0-2.729C60.896,56,60.893,58.729,62.651,58.729L62.651,58.729z"/>
		</g>
	</g>
	<g>
		<g>
			<path class="st4" d="M189.985,5.395c1.756,0,1.759-2.729,0-2.729C188.229,2.667,188.226,5.395,189.985,5.395L189.985,5.395z"/>
		</g>
	</g>
	<g>
		<g>
			<path class="st4" d="M152.985,128.729c1.756,0,1.759-2.729,0-2.729C151.229,126,151.226,128.729,152.985,128.729L152.985,128.729
				z"/>
		</g>
	</g>
	<g>
		<g>
			<path class="st4" d="M155.651,211.729c1.756,0,1.759-2.729,0-2.729C153.896,209,153.893,211.729,155.651,211.729L155.651,211.729
				z"/>
		</g>
	</g>
	<g>
		<g>
			<path class="st4" d="M129.985,184.062c1.756,0,1.759-2.729,0-2.729C128.229,181.333,128.226,184.062,129.985,184.062
				L129.985,184.062z"/>
		</g>
	</g>
	<g>
		<g>
			<path class="st4" d="M76.985,152.395c1.756,0,1.759-2.729,0-2.729C75.229,149.667,75.226,152.395,76.985,152.395L76.985,152.395z
				"/>
		</g>
	</g>
	<g>
		<g>
			<path class="st4" d="M64.985,162.062c1.756,0,1.759-2.729,0-2.729C63.229,159.333,63.226,162.062,64.985,162.062L64.985,162.062z
				"/>
		</g>
	</g>
	<g>
		<g>
			<path class="st4" d="M39.651,130.395c1.756,0,1.759-2.729,0-2.729C37.896,127.667,37.893,130.395,39.651,130.395L39.651,130.395z
				"/>
		</g>
	</g>
	<g>
		
			<ellipse transform="matrix(0.8896 -0.4568 0.4568 0.8896 -41.6112 58.2528)" class="st5" cx="99.691" cy="115.2" rx="5.169" ry="5.056"/>
		<g>
			<polygon class="st6" points="102.349,112.896 100.667,113.014 99.219,112.549 97.271,113.385 96.582,114.798 96.58,116.63 
				96.367,117.812 96.123,118.422 97.502,119.743 99.741,120.192 101.897,119.68 103.716,118.434 103.536,117.403 102.101,115.886 
				101.224,114.618 101.549,113.853 			"/>
			<g>
				<g>
					<path d="M103.937,118.32c0,0-0.001,0.001-0.002,0.001c-0.149,0.075-0.331,0.015-0.406-0.134
						c-0.202-0.401-0.507-1.007-0.808-1.322c-0.162-0.17-0.35-0.318-0.549-0.475c-0.167-0.132-0.34-0.268-0.501-0.422
						c-0.471-0.449-0.714-0.965-0.682-1.455c0.031-0.489,0.329-0.949,0.831-1.3c-0.139,0.015-0.279,0.03-0.418,0.045
						c-0.237,0.025-0.473,0.05-0.708,0.077c-0.065,0.008-0.13-0.006-0.187-0.039c-0.415-0.241-0.847-0.46-1.195-0.432
						c-0.647,0.054-1.499,0.336-1.948,0.966c-0.163,0.229-0.231,0.492-0.309,0.796l-0.053,0.199
						c-0.099,0.359-0.118,0.769-0.137,1.165l-0.002,0.042c-0.007,0.15-0.002,0.301,0.004,0.452c0.009,0.257,0.018,0.522-0.027,0.794
						c-0.073,0.44-0.245,0.774-0.427,1.129l-0.096,0.189c-0.075,0.15-0.257,0.21-0.406,0.135c-0.149-0.075-0.21-0.257-0.135-0.406
						l0.099-0.194c0.167-0.325,0.311-0.605,0.368-0.951c0.035-0.213,0.027-0.437,0.019-0.674c-0.006-0.163-0.012-0.331-0.003-0.502
						l0.002-0.041c0.019-0.409,0.042-0.873,0.158-1.296l0.05-0.191c0.086-0.332,0.175-0.675,0.402-0.996
						c0.484-0.679,1.377-1.134,2.391-1.218c0.507-0.042,1.016,0.207,1.462,0.461c0.204-0.023,0.409-0.045,0.614-0.067
						c0.237-0.025,0.473-0.05,0.708-0.077c0.189-0.022,0.448,0.01,0.606,0.166c0.099,0.097,0.146,0.227,0.132,0.365
						c-0.026,0.268-0.261,0.391-0.362,0.444c-0.497,0.26-0.807,0.634-0.83,0.998c-0.026,0.415,0.299,0.791,0.496,0.978
						c0.141,0.134,0.296,0.256,0.459,0.385c0.207,0.163,0.42,0.331,0.612,0.532c0.364,0.381,0.693,1.035,0.911,1.468
						C104.144,118.064,104.085,118.245,103.937,118.32z"/>
					<path d="M98.148,114.249c-0.008-0.127,0.04-0.265,0.149-0.331l0.139-0.091c0.179-0.144,0.33-0.11,0.538-0.013
						c0.116,0.054,0.186,0.172,0.249,0.284c0.025,0.045,0.051,0.093,0.045,0.144c-0.005,0.039-0.028,0.074-0.052,0.105
						c-0.123,0.162-0.281,0.298-0.46,0.395c-0.101,0.055-0.224,0.097-0.327,0.046c-0.073-0.036-0.118-0.11-0.156-0.181
						C98.212,114.494,98.156,114.376,98.148,114.249z"/>
				</g>
				<path class="st4" d="M102.533,119.708c-0.61,0.313-1.118,0.44-1.726,0.592c-0.958,0.239-1.994,0.19-2.92-0.136
					c-1.974-0.695-3.424-2.739-3.448-4.861c-0.024-2.089,1.313-4.156,3.247-5.021c0.532-0.238,1.062-0.375,1.577-0.406
					c0.721-0.044,1.491,0.111,2.356,0.472c0.87,0.363,1.591,0.832,2.143,1.394c1.027,1.043,1.568,2.536,1.449,3.996
					c-0.116,1.42-0.887,2.749-2.115,3.645l-0.016,0.011C102.886,119.516,102.705,119.619,102.533,119.708z M97.716,110.938
					c-1.604,0.824-2.692,2.581-2.673,4.358c0.021,1.877,1.301,3.684,3.044,4.297c0.816,0.287,1.728,0.33,2.568,0.121
					c0.758-0.189,1.303-0.324,2.091-0.827c1.081-0.792,1.759-1.958,1.861-3.199c0.105-1.286-0.372-2.603-1.277-3.522
					c-0.495-0.504-1.15-0.927-1.945-1.259c-0.778-0.325-1.46-0.465-2.086-0.427c-0.441,0.027-0.901,0.146-1.366,0.354
					C97.859,110.866,97.787,110.901,97.716,110.938z"/>
			</g>
		</g>
	</g>
</g>
</svg>