<!-- Generator: Adobe Illustrator 20.1.0, SVG Export Plug-In  -->
<svg version="1.1"
	 xmlns="http://www.w3.org/2000/svg" xmlns:xlink="http://www.w3.org/1999/xlink" xmlns:a="http://ns.adobe.com/AdobeSVGViewerExtensions/3.0/"
	 x="0px" y="0px" width="52.235px" height="39.115px" viewBox="0 0 52.235 39.115"
	 style="enable-background:new 0 0 52.235 39.115;" xml:space="preserve">
<style type="text/css">
	.st0{fill:none;stroke:#010101;stroke-linecap:round;stroke-linejoin:round;stroke-miterlimit:10;}
	.st1{fill:#010101;}
	.st2{fill:none;stroke:#231F20;stroke-linejoin:round;stroke-miterlimit:10;}
</style>
<defs>
</defs>
<g>
	<g>
		<path class="st0" d="M37.524,22.524c1.294,1.254,2.616,2.49,3.911,3.744c0.108,0.104,0.225,0.248,0.169,0.387
			c-0.06,0.15-0.712,0.352-0.861,0.416c-0.745,0.319-1.49,0.529-2.236,0.461c-1.038-0.094-1.969-0.837-2.84-1.455
			c-1.13-0.802-1.875-1.374-2.866-2.343c-0.168-0.164-0.352-0.331-0.582-0.375c-0.285-0.055-0.625-0.088-0.82,0.23
			c-0.339,0.498-0.73,0.518-1.238,0.678c-0.813,0.257-1.98-0.542-2.833-0.535c-0.793,0.007-1.228,0.485-1.985,0.721
			s-1.671,0.297-2.259-0.236c-0.12-0.109-0.221-0.239-0.353-0.334c-0.172-0.125-0.383-0.181-0.585-0.247
			c-0.786-0.256-1.505-0.692-2.153-1.207c-1.726-1.373-2.969-3.341-3.467-5.49c-0.26-1.123-0.322-2.283-0.331-3.436
			c-0.007-0.891,0.019-1.796,0.272-2.65c0.246-0.828,0.697-1.581,0.982-2.397s0.384-1.766-0.058-2.508
			c-0.528-0.885-1.663-1.209-2.694-1.218C14.51,4.73,14.29,4.719,14.19,4.562c-0.174-0.271,0.194-0.56,0.495-0.673
			c0.823-0.31,1.654-0.639,2.478-0.949c0.517-0.806,1.104-1.627,1.866-1.942c1.401-0.579,3.162-0.732,4.508-0.035
			c0.668,0.346,1.09,0.901,1.597,1.455c0.526,0.574,0.936,1.299,1.325,1.974c0.374,0.65,0.612,1.381,1.059,1.983
			c0.521,0.703,1.284,1.176,1.99,1.694c1.211,0.888,2.297,1.95,3.176,3.168c0.339,0.47,0.647,0.962,0.945,1.459
			c1.603,2.673,2.384,4.228,3.421,7.167C37.217,20.337,37.618,21.284,37.524,22.524z"/>
		<path class="st0" d="M24.442,24.644c-0.382,0.696-0.51,1.231-0.784,1.977c-0.555,1.508-1.109,3.017-1.664,4.525
			c-0.12,0.325-0.242,0.656-0.455,0.929c-0.364,0.466-1.014,0.602-1.536,0.878c-0.523,0.277-0.989,0.454-1.63,0.909"/>
		<path class="st0" d="M30.053,24.507c-0.334,3.033-0.439,5.584-0.988,8.585c-0.09,0.494-0.208,1.029-0.595,1.347
			c-0.634,0.521-1.33,0.331-2.18,1.003"/>
		<path class="st0" d="M21.518,32.136c0.197-0.045,0.401,0.034,0.575,0.137s0.332,0.235,0.519,0.31
			c0.426,0.172,1.124,0.201,1.561,0.343"/>
		<path class="st0" d="M28.916,33.619c0.25-0.041,0.476,0.134,0.712,0.225c0.33,0.127,0.697,0.09,1.05,0.075
			c0.163-0.007,0.497,0.023,0.764,0.183"/>
		<path class="st1" d="M23.304,3.645c-0.013,0.414-0.126,0.862-0.423,1.117c-0.089,0.076-0.191,0.133-0.298,0.181
			c-0.368,0.164-0.797,0.209-1.179,0.08c-0.382-0.129-0.707-0.443-0.809-0.833c-0.037-0.143-0.045-0.292-0.053-0.439
			c-0.008-0.145-0.015-0.294,0.029-0.433c0.062-0.196,0.221-0.351,0.404-0.446c0.183-0.094,0.389-0.134,0.594-0.159
			c0.396-0.049,0.82-0.04,1.165,0.161C23.024,3.041,23.21,3.297,23.304,3.645z"/>
	</g>
	<path class="st2" d="M38.605,37.271c0.651,0.179,1.304-0.213,1.896-0.538c0.592-0.325,1.357-0.587,1.906-0.195
		c0.616,0.44,0.601,1.475,1.265,1.838c0.367,0.201,0.837,0.116,1.196-0.1c0.359-0.216,0.634-0.543,0.915-0.854
		c0.89-0.985,1.902-1.86,3.007-2.597c0.08,1.062,0.074,2.129-0.017,3.19c1.11,0.387,2.283,0.59,3.459,0.599"/>
	<path class="st2" d="M2.838,29.287c-1.13-0.742-1.977-1.904-2.338-3.206c1.922-0.24,3.655,1.427,5.589,1.344
		c0.043-0.848,0.055-1.698,0.036-2.547c0.553-0.114,1.051,0.327,1.444,0.732c0.501,0.517,1.003,1.035,1.504,1.552
		c0.092,0.095,0.19,0.194,0.318,0.232c0.429,0.128,0.694-0.467,0.701-0.915c0.007-0.447,0.066-1.04,0.505-1.124
		c0.381-0.073,0.661,0.324,0.926,0.608c0.33,0.354,0.785,0.588,1.264,0.651"/>
</g>
</svg>