<!-- Generator: Adobe Illustrator 20.1.0, SVG Export Plug-In  -->
<svg version="1.1"
	 xmlns="http://www.w3.org/2000/svg" xmlns:xlink="http://www.w3.org/1999/xlink" xmlns:a="http://ns.adobe.com/AdobeSVGViewerExtensions/3.0/"
	 x="0px" y="0px" width="162.562px" height="166.215px" viewBox="0 0 162.562 166.215"
	 style="enable-background:new 0 0 162.562 166.215;" xml:space="preserve">
<style type="text/css">
	.st0{fill:#FFFFFF;}
	.st1{fill:none;stroke:#231F20;stroke-linecap:round;stroke-linejoin:round;stroke-miterlimit:10;}
	.st2{fill:#231F20;}
	.st3{fill:#010101;}
	.st4{fill:#FFFFFF;stroke:#231F20;stroke-linecap:round;stroke-linejoin:round;stroke-miterlimit:10;}
</style>
<defs>
</defs>
<g>
	<polygon class="st0" points="107.41,5.013 105.998,2.536 104.249,2.607 103.514,5.013 103.389,6.865 105.66,6.778 	"/>
	<path class="st1" d="M87.355,149.93c0.602,1.361,1.597,2.545,2.834,3.373c0.151,0.101,0.319,0.2,0.5,0.187
		c0.367-0.027,0.534-0.466,0.593-0.83c0.188-1.162,0.173-2.43,0.864-3.383c0.253,1.382,0.756,2.718,1.478,3.924"/>
	<g>
		<path class="st2" d="M88.541,34.302c-0.098-0.053-0.162,0.086-0.215,0.185c-0.313,0.577-0.307,1.314,0.015,1.885
			c0.079,0.141,0.187,0.28,0.342,0.326c0.028,0.008,0.058,0.013,0.085,0.004c0.054-0.017,0.079-0.077,0.097-0.131
			c0.078-0.228,0.156-0.462,0.145-0.703c-0.005-0.113-0.03-0.225-0.055-0.336C88.856,35.093,88.795,34.674,88.541,34.302z"/>
		<path class="st1" d="M147.51,94.817c0.676,0.185,1.354-0.221,1.969-0.559c0.615-0.337,1.409-0.61,1.979-0.202
			c0.639,0.457,0.625,1.532,1.314,1.909c0.382,0.209,0.869,0.12,1.242-0.104c0.373-0.224,0.659-0.564,0.95-0.887
			c0.924-1.024,1.976-1.932,3.123-2.697c0.083,1.103,0.077,2.212-0.018,3.313c1.153,0.402,2.372,0.613,3.592,0.623"/>
		<path class="st1" d="M95.761,112.424c-1.174-0.77-2.054-1.977-2.428-3.33c1.996-0.249,3.796,1.482,5.805,1.396
			c0.044-0.881,0.057-1.764,0.038-2.646c0.574-0.118,1.091,0.34,1.5,0.761c0.521,0.537,1.041,1.075,1.562,1.612
			c0.096,0.099,0.198,0.202,0.33,0.241c0.445,0.133,0.721-0.485,0.729-0.95s0.068-1.08,0.525-1.168
			c0.396-0.076,0.687,0.337,0.962,0.632c0.342,0.368,0.815,0.611,1.313,0.676"/>
		<path class="st1" d="M138.362,66.424c-0.269,1.876,0.454,4.109,0.894,5.952c0.525,2.198,0.642,4.467,0.619,6.719
			c-0.011,1.134-0.058,2.268-0.104,3.401c-0.044,1.09-0.254,2.007-0.522,3.061c-0.354,1.394-0.42,2.901-0.604,4.326
			c-0.196,1.522-0.393,3.044-0.589,4.565c-0.029,0.225-0.06,0.455-0.171,0.653c-0.18,0.32-0.535,0.496-0.878,0.626
			c-0.894,0.339-1.855,0.5-2.811,0.471c-0.179-0.005-0.384-0.032-0.482-0.182c-0.067-0.102-0.062-0.234-0.054-0.356
			c0.058-0.909,0.066-1.857,0.374-2.708c0.252-0.697,0.224-1.483,0.229-2.229c0.005-0.798,0.135-1.54,0.357-2.302
			c0.242-0.831,0.425-1.663,0.611-2.509c0.241-1.103,0.616-2.204,0.553-3.347c-0.071-1.302-0.451-2.588-0.726-3.859
			c-0.618-2.858-1.371-5.423-2.404-8.159"/>
		<path class="st1" d="M150.051,68.094c1.121,4.281,2.879,8.395,5.196,12.165c0.383,0.622,0.787,1.244,1.335,1.727
			c1.444,1.274,3.554,1.349,5.479,1.359c-3.246-3.013-4.504-7.551-5.511-11.864c-0.761-3.261-1.462-6.543-1.861-9.868
			c-0.237-1.981-0.632-4.087-1.146-6.014"/>
		<path class="st1" d="M141.046,93.354c0.318,0.189,0.671,0.322,1.035,0.39c0.279,0.052,0.563,0.066,0.846,0.08
			c0.637,0.032,1.273,0.063,1.91,0.095c0.173,0.009,0.37,0.008,0.487-0.12"/>
		<path class="st1" d="M134.186,92.661c1.345,0.158,2.668-0.349,3.927-0.847"/>
		<path class="st1" d="M115.561,109.845c0.916,0.184,1.849,0.318,2.781,0.266c0.932-0.052,1.87-0.3,2.641-0.827"/>
		<path class="st1" d="M108.802,107.267c0.758,0.405,1.537,0.817,2.39,0.924c0.286,0.036,0.575,0.036,0.862,0.037
			c0.237,0,0.476,0.001,0.709-0.044c0.47-0.09,0.885-0.357,1.286-0.619"/>
		<path class="st2" d="M93.866,34.416c-0.246-0.075-0.464,0.055-0.641,0.242c-0.177,0.187-0.275,0.433-0.359,0.676
			c-0.122,0.355-0.221,0.719-0.273,1.09c-0.028,0.196-0.035,0.418,0.097,0.566c0.121,0.136,0.331,0.164,0.506,0.11
			c0.174-0.053,0.32-0.173,0.452-0.298c0.302-0.285,0.568-0.618,0.71-1.008s0.145-0.842-0.055-1.206
			c-0.05-0.09-0.115-0.177-0.207-0.223C94.003,34.319,93.934,34.34,93.866,34.416z"/>
		<path class="st3" d="M104.718,18.917c-0.145-0.336-0.451-0.625-0.816-0.652l-0.476-0.052c-0.647-0.134-0.991,0.153-1.396,0.675
			c-0.226,0.291-0.249,0.685-0.264,1.053c-0.006,0.147-0.008,0.305,0.074,0.427c0.064,0.095,0.168,0.152,0.271,0.201
			c0.528,0.254,1.112,0.394,1.698,0.407c0.33,0.007,0.702-0.047,0.899-0.312c0.139-0.187,0.156-0.436,0.161-0.67
			C104.877,19.63,104.864,19.253,104.718,18.917z"/>
		<path class="st1" d="M141.941,62.528c-1.415,1.448-2.831,2.897-4.246,4.345c-1.013,1.037-2.046,2.089-3.311,2.797
			c-1.177,0.659-2.504,0.993-3.812,1.319c-2.947,0.735-5.895,1.47-8.842,2.204c-0.249,0.062-0.511,0.131-0.694,0.312
			c-0.256,0.254-0.284,0.652-0.297,1.012c-0.078,2.22-0.155,4.44-0.233,6.66l-0.206,9.024c0.666,6.855,0.08,13.536,1.206,20.331
			c0.193,1.165,0.314,2.588-0.629,3.3c-0.471,0.356-1.093,0.423-1.681,0.477c-1.097,0.102-2.195,0.204-3.292,0.306
			c-0.348,0.032-0.749,0.046-0.99-0.207c-0.245-0.258-0.205-0.666-0.15-1.018c0.38-2.426,0.698-4.861,0.953-7.303
			c0.442-4.229,0.694-8.517,0.041-12.719c-0.17-1.096-0.401-2.181-0.56-3.279c-0.89-6.156,0.514-2.505-0.647-8.616
			c-0.391-2.059-1.647-9.634-3.147-4.467c-0.583,2.667,1.506,8.312,2.258,17.819c0.362,4.579,0.725,9.182,0.343,13.759
			c-0.108,1.294-0.386,2.763-1.499,3.431c-0.542,0.325-1.195,0.397-1.826,0.438c-0.999,0.064-2.207-0.046-2.676-0.93
			c-0.377-0.711-0.079-1.574,0.194-2.331c2.258-6.269,2.37-13.289,0.311-19.627c-0.207-0.638-0.426-1.272-0.625-1.912
			c-0.259-0.833-0.45-1.561-0.884-2.317c-0.334-0.582-0.668-1.164-1.002-1.747c0-0.289-0.508-0.885-0.656-1.144
			c-0.231-0.404-0.463-0.807-0.694-1.211c-0.395-0.688-0.885-1.376-1.165-2.12c-0.326-0.866-0.416-1.845-0.648-2.742
			c-0.241-0.927-0.549-1.845-1.035-2.675c-0.692-1.183-1.008-2.753-1.651-3.964c-2.481-4.673-2.884-10.403-1.081-15.377
			c0.257-0.708,0.558-1.408,0.68-2.151c0.119-0.724,0.065-1.465,0.008-2.196c-0.147-1.893-0.308-3.751-0.482-5.642
			c-0.263-2.866-0.554-5.769-0.88-8.628"/>
		<path class="st1" d="M95.901,9.253c-0.527-0.666-1.051-1.234-1.286-2.05c-0.099-0.344-0.141-0.702-0.183-1.058
			c-0.061-0.518-0.121-1.036-0.182-1.555c-0.028-0.24-0.056-0.481-0.05-0.723c0.031-1.171,0.844-2.156,1.615-3.038
			c0.131-0.149,0.281-0.31,0.479-0.327c0.279-0.024,0.49,0.242,0.616,0.492c0.436,0.864,0.523,1.865,0.896,2.758
			c0.196,0.469,0.468,0.903,0.659,1.374c0.311,0.769,0.432,1.522,0.272,2.337C98.868,7.418,99,7.377,99.133,7.34
			c1.435-0.404,2.98-0.415,4.234,0.352c-0.188-1.509,0.007-3.065,0.561-4.482c0.233-0.595,0.701-1.262,1.332-1.161
			c0.297,0.048,0.537,0.263,0.739,0.486c2.331,2.584,1.506,6.598,2.12,10.023c0.274,1.526,0.855,2.978,1.434,4.417
			c1.813,4.512,3.655,9.126,5.468,13.638c0.782,1.947,1.557,3.934,2.857,5.581c1.3,1.647,3.193,2.949,5.29,3.043
			c3.109,0.14,5.662-2.262,8.47-3.602c5.351-2.554,12.158-1.012,16.426,3.104s6.079,10.398,5.441,16.293
			c-0.611,5.642-3.234,10.844-4.768,16.307c-1.013,3.609-1.551,7.334-1.985,11.057c-0.965,8.281-1.434,6.62-1.403,14.956
			c-1.003,1.36-3.37,0.684-4.181-0.799c-0.811-1.483-0.558-3.294-0.306-4.965c1.742-11.536,2.384-13.237,1.912-24.894
			c-0.04-0.993-1.24-2.083-1.955-2.772"/>
		<path class="st1" d="M103.88,29.928c-0.253,1.587-1.582,2.767-2.915,3.666c-1.333,0.898-2.809,1.711-3.668,3.069
			c-0.844,1.334-1.141,3.214-2.59,3.84c-0.54,0.233-1.147,0.234-1.734,0.232c-1.079-0.004-2.159-0.009-3.238-0.013
			c-0.331-0.001-0.681-0.008-0.962-0.183c-0.298-0.186-0.458-0.524-0.594-0.848c-0.631-1.504-1.064-3.091-1.287-4.707
			c-0.109-0.793-0.166-1.611,0.037-2.385c0.212-0.81,0.693-1.517,1.134-2.229c1.85-2.986,3.116-6.333,3.706-9.796
			c0.055-0.325,0.104-0.663,0.059-0.986"/>
		<path class="st1" d="M99.133,7.382c-0.438,0.229-0.678,0.285-0.833,0.396c-4.373,3.121-7.489,7.3-10.548,11.717
			c3.891,0.014,7.992-0.026,11.357-1.98c0.298-0.173,0.589-0.361,0.898-0.513c0.292-0.144,0.597-0.256,0.898-0.379
			c1.765-0.722,3.366-1.84,4.652-3.248c0.993,2.159,2.565,4.048,4.508,5.416"/>
	</g>
	<g>
		<path class="st0" d="M138.974,34.855c-0.061-0.098-0.124-0.197-0.208-0.276c-0.097-0.091-0.218-0.152-0.338-0.21
			c-0.939-0.458-1.805-1.421-2.786-1.779l-0.477-0.439c-0.723-0.651-1.193-0.289-2.146-0.488c-0.127-0.027-0.256-0.049-0.38-0.086
			c-0.125-0.038-0.245-0.09-0.365-0.143c-0.634-0.277-1.286-0.556-1.977-0.595c-0.588-0.033-1.17,0.108-1.741,0.25
			c-0.562,0.139-1.13,0.281-1.642,0.552c-1.017,0.538-1.712,1.528-2.273,2.533c-0.183,0.329-0.36,0.672-0.417,1.044
			c-0.052,0.334-0.006,0.675,0.019,1.012c0.079,1.057-0.049,2.129-0.372,3.138c-0.041,0.126-0.083,0.266-0.028,0.386
			c0.091,0.2,0.37,0.203,0.587,0.171c0.93-0.136,1.877-0.356,2.641-0.903c0.267-0.191,0.506-0.419,0.767-0.618
			c0.816-0.62,1.83-0.936,2.848-1.062c1.017-0.126,2.047-0.074,3.071-0.021c0.825,0.043,1.671,0.09,2.43,0.417
			c0.444,0.191,0.875,0.482,1.359,0.468c0.414-0.012,0.787-0.247,1.106-0.51c0.426-0.351,0.82-0.809,0.863-1.359
			C139.555,35.804,139.259,35.308,138.974,34.855z"/>
		<path class="st1" d="M133.884,38.042c-0.24,0.16-0.703,0.458-0.943,0.618c-0.493,0.329-0.993,0.661-1.555,0.862
			c-0.563,0.201-1.205,0.259-1.757,0.036"/>
		<path class="st1" d="M130.026,37.576c0.102-0.133,0.206-0.266,0.341-0.369c0.135-0.103,0.305-0.172,0.478-0.156"/>
		<path class="st1" d="M127.602,36.177c-0.111,0.024-0.367,0.17-0.452,0.242c-0.265,0.223-0.504,0.475-0.71,0.749"/>
		<path class="st1" d="M126.447,38.499c0.313,0.053,0.833-0.102,1.119-0.234"/>
		<path class="st1" d="M131.533,30.169c-0.029,0.161-0.166,0.282-0.236,0.431c-0.056,0.12-0.096,0.297-0.059,0.424
			c0.232,0.812-0.038,1.671-0.305,2.475c-0.141,0.423-0.281,0.846-0.424,1.268c-0.078,0.232-0.157,0.464-0.227,0.699
			c-0.225,0.761-0.348,1.545-0.471,2.326c-0.046,0.296-0.093,0.592-0.139,0.888c-0.043,0.277-0.087,0.559-0.047,0.837
			c0.047,0.327,0.207,0.629,0.278,0.952c0.071,0.323,0.028,0.708-0.246,0.909c-0.07,0.052-0.151,0.088-0.232,0.123
			c-0.197,0.087-0.424,0.168-0.633,0.224c-0.353,0.094-0.727,0.07-1.092,0.046c-0.24-0.016-0.497-0.039-0.681-0.186
			c-0.198-0.158-0.262-0.429-0.233-0.674c0.029-0.245,0.137-0.475,0.232-0.705c0.8-1.931,0.76-4.093,0.377-6.134
			c-0.058-0.307-0.185-0.674-0.506-0.73c-0.246-0.043-0.486,0.141-0.581,0.362c-0.095,0.221-0.081,0.469-0.066,0.707
			c0.046,0.702,0.092,1.403,0.138,2.105c0.054,0.823,0.108,1.653-0.03,2.468c-0.044,0.259-0.112,0.526-0.291,0.725
			c-0.297,0.33-0.804,0.382-1.259,0.402c-0.343,0.015-0.722,0.014-0.981-0.199c-0.414-0.342-0.247-1.03,0.166-1.376
			c0.097-0.081,0.208-0.155,0.269-0.263c0.084-0.147,0.059-0.326,0.032-0.492c-0.306-1.868-0.686-3.724-1.082-5.577
			c-0.099-0.464-0.199-0.927-0.299-1.39c-0.083-0.385-0.166-0.771-0.229-1.16c-0.334-2.068-0.096-4.168,0.722-6.114
			c0.242-0.529,0.189-1.11-0.104-1.613c-0.06-0.104-0.131-0.202-0.174-0.313c-0.035-0.089-0.051-0.184-0.066-0.278
			c-0.113-0.7-0.176-1.429,0.083-2.094c0.211-0.542,0.421-1.083,0.632-1.625c0.441-1.133-0.21-2.517,0.363-3.595
			c0.034-0.064,0.072-0.129,0.131-0.175c0.089-0.069,0.213-0.084,0.326-0.069c0.426,0.055,0.698,0.447,0.914,0.801
			c0.194,0.318,0.388,0.637,0.581,0.955c0.117,0.192,0.24,0.391,0.434,0.514c0.219,0.138,0.494,0.159,0.756,0.176
			c0.506,0.033,1.134,0.188,1.519,0.098c0.385-0.089,0.69-0.926,1.035-1.389c0.208-0.278,0.426-0.567,0.742-0.728
			c0.316-0.161,0.757-0.151,0.98,0.115c0.112,0.134,0.152,0.31,0.179,0.48c0.176,1.129-0.098,2.278-0.065,3.419
			c0.021,0.727,0.168,1.447,0.204,2.173c0.037,0.727-0.047,1.488-0.444,2.11c-0.09,0.141-0.123,0.344-0.186,0.499
			c-0.04,0.099-0.043,0.313,0.052,0.474c0.44,1.215,1.76,1.769,2.56,2.802c0.257,0.332,0.46,0.7,0.663,1.065
			c0.416,0.753,0.833,1.506,1.249,2.259c0.213,0.384,0.426,0.771,0.564,1.186c0.132,0.396,0.193,0.811,0.251,1.223
			c0.037,0.263,0.074,0.528,0.058,0.793c-0.012,0.193-0.048,0.398-0.081,0.589c0.398,0.105,0.881,0.501,1.252,0.722
			s0.689,0.514,0.991,0.815c0.287,0.286,0.57,0.59,0.729,0.956c0.146,0.337,0.18,0.707,0.206,1.072
			c0.009,0.134,0.014,0.279-0.065,0.389c-0.039,0.054-0.095,0.094-0.151,0.132c-0.436,0.292-0.943,0.485-1.468,0.56
			c-0.226,0.032-0.454,0.043-0.681,0.052c-0.462,0.019-0.923,0.033-1.385,0.041c-0.244,0.004-0.49,0.007-0.731-0.024
			c-0.18-0.024-0.356-0.066-0.537-0.086c-1.22-0.132-1.968-1.577-2.003-2.803c-0.008-0.264,0.026-0.55,0.204-0.746
			c0.259-0.286,0.795-0.232,0.992,0.101c0.077,0.131,0.103,0.284,0.146,0.43c0.145,0.494,0.5,0.922,0.958,1.155
			s1.013,0.269,1.498,0.096"/>
		<path class="st2" d="M126.312,19.766c-0.09,0.113-0.101,0.066-0.185,0.143c-0.209,0.096-0.272,0.051-0.537,0.054
			c-0.065,0.001-0.132,0.001-0.19-0.027c-0.131-0.064-0.158-0.235-0.168-0.38c-0.017-0.231-0.025-0.49,0.128-0.665
			c0.048-0.055,0.11-0.098,0.177-0.129c0.251-0.118,0.573-0.06,0.765,0.14c0.192,0.199,0.238,0.526,0.104,0.769"/>
		<path class="st2" d="M129.689,19.127c0.066,0.132,0.017,0.123,0.052,0.234c-0.002,0.235-0.071,0.274-0.183,0.522
			c-0.027,0.06-0.056,0.123-0.108,0.165c-0.116,0.094-0.286,0.044-0.425-0.009c-0.222-0.085-0.465-0.19-0.561-0.408
			c-0.03-0.069-0.043-0.145-0.043-0.22c0-0.283,0.194-0.557,0.462-0.649c0.268-0.091,0.591,0.008,0.758,0.237"/>
	</g>
	<g>
		<path class="st4" d="M50.729,46.321c0.035-0.11-0.362-0.231-0.327-0.341c0.596,0.266,1.719-0.205,2.017-0.786
			c0.298-0.581,0.359-1.257,0.628-1.852c0.192-0.424,0.485-0.794,0.7-1.207c0.507-0.973,0.552-2.113,0.586-3.21
			c0.056-1.784,0.111-3.567,0.167-5.351c0.037-1.2,0.07-2.434-0.335-3.564c-0.214-0.596-0.543-1.142-0.869-1.684
			c-0.491-0.814-0.999-1.648-1.751-2.231c-0.824-0.638-1.866-0.915-2.887-1.124c-1.563-0.32-3.278-0.494-4.677,0.274
			c-0.274,0.15-0.531,0.335-0.817,0.459c-0.255,0.111-0.528,0.173-0.795,0.254c-2.216,0.678-3.815,2.718-4.518,4.926
			c-0.703,2.209-0.638,4.583-0.448,6.893c0.044,0.533,0.098,1.079,0.33,1.562c0.187,0.388,0.48,0.713,0.706,1.079
			c0.717,1.163,1.178,3.327,1.141,4.694"/>
		<path class="st1" d="M47.577,86.901c6.6-0.849,12.831-1.74,19.431-2.589c1.65-0.212,3.394-0.413,4.922,0.246
			c2.453,1.057,3.521,3.923,4.047,6.542c0.277,1.38,0.476,2.775,0.595,4.177c0.032,0.382,0.052,0.796-0.158,1.117
			c-0.237,0.365-0.696,0.503-1.117,0.614c-5.286,1.404-10.613,2.814-16.071,3.159c-1.652,0.104-3.43,0.076-4.794-0.862
			c-1.301-0.894-1.973-2.448-2.406-3.965c-0.434-1.518-0.705-3.109-1.485-4.481c-0.78-1.372-2.242-2.512-3.81-2.334
			c-1.213,0.138-2.752,1.303-3.946,1.557c0.449,5.271,1.252,12.272,1.702,17.544c0.104,1.22,0.262,2.556,1.152,3.397
			c0.585,0.552,1.393,0.792,2.179,0.967c5.865,1.312,11.964,0.056,17.842-1.199c2.721-0.581,5.458-1.167,8.034-2.217
			c0.735-0.3,1.496-0.672,1.912-1.348c0.33-0.538,0.394-1.194,0.421-1.824c0.102-2.4-0.436-5.655-1.148-7.95"/>
		<path class="st1" d="M52.409,96.807c0.332,1.001,0.646,1.227,0.884,2.254c1.024,4.42,1.135,8.752,1.13,13.289"/>
		<path class="st1" d="M43.47,99.304c-2.073,0.314-3.724,0.366-5.816,0.225c-1.274-0.086-2.6-0.279-3.643-1.016
			c-1.102-0.779-1.743-2.08-2.012-3.403c-0.269-1.323-0.208-2.687-0.166-4.037c0.26-8.513-0.318-17.051-1.724-25.45
			c-0.202-1.205-0.421-2.411-0.793-3.574c-0.318-0.996-0.747-1.956-1.007-2.969c-0.286-1.117-0.361-2.28-0.319-3.432
			c0.092-2.515,0.744-5.008,1.895-7.247c1.067-2.076,4.862-0.53,6.998-1.469c0.989-0.435,1.757-1.249,2.68-1.81
			c1.306-0.795,2.867-1.053,4.393-1.155c1.518-0.102,3.09-0.055,4.49,0.542c1.4,0.597,2.603,1.84,2.791,3.35"/>
		<path class="st1" d="M64.65,69.184c0.092,0.892,0.512,0.874,0.933,1.666c1.064,2.002,1.557,4.248,2.27,6.4
			c0.788,2.379,1.856,4.665,3.174,6.796"/>
		<path class="st1" d="M65.536,80.378c0.322,1.208,1.144,2.415,2.143,3.721"/>
		<path class="st1" d="M65.285,84.188c0.489-4.571,0.247-9.22-0.714-13.715c-0.171-0.8-0.236-1.871,0.517-2.191
			c0.354-0.15,0.758-0.054,1.134,0.025c2.474,0.518,5.126,0.13,7.348-1.073c0.583-0.316,1.163-0.715,1.449-1.313
			c0.192-0.402,0.234-0.858,0.235-1.304c0.015-3.715-2.453-6.937-4.944-9.692c-2.481-2.744-5.11-5.354-7.872-7.815
			c-0.131-0.117-0.273-0.239-0.446-0.269c-0.173-0.03-0.346,0.036-0.506,0.109c-0.918,0.421-1.709,1.115-2.246,1.97"/>
		<path class="st1" d="M54.671,49.142c1.032,0.072,2.09,0.141,3.084-0.149c0.299-0.087,0.603-0.208,0.911-0.162
			c0.272,0.041,0.508,0.206,0.729,0.37c1.945,1.43,3.765,3.021,5.582,4.61c1.594,1.394,3.189,2.788,4.783,4.182"/>
		<path class="st1" d="M51.311,47.723C48.4,50.965,47.786,55.6,47.303,59.93c-1.085,9.731-2.169,19.462-3.254,29.192"/>
		<path class="st1" d="M51.281,47.834c1.185-0.088,2.4,0.423,3.166,1.332c-2.034,2.571-2.892,5.863-3.508,9.083
			c-0.649,3.394-1.088,6.825-1.464,10.26c-0.714,6.519-1.209,13.071-2.355,19.528"/>
		<path class="st1" d="M61.91,46.392c0.16-0.741-0.198-1.522-0.031-2.262c0.08-0.354,0.275-0.669,0.418-1.003
			c0.643-1.491,0.186-3.32-0.913-4.514c-1.1-1.194-2.744-1.794-4.366-1.859c-0.235,0.603,0.394,1.152,0.825,1.635
			c0.438,0.491,0.721,1.119,0.8,1.772c0.034,0.281-0.002,0.625-0.254,0.754c-0.495,0.254-0.888-0.615-1.443-0.659
			c-0.331-0.026-0.616,0.274-0.693,0.597c-0.076,0.323,0.003,0.66,0.082,0.983c0.585,2.388,1.198,4.837,2.608,6.85"/>
		<path class="st1" d="M54.584,37.088c0.711,0.023,1.424,0.009,2.134-0.042"/>
		<path class="st1" d="M53.658,43.293c1.007,0,2.013,0,3.02,0"/>
		<path class="st1" d="M56.437,43.752c0.145,0.357,0.067,0.795-0.194,1.08c-0.481,0.525-1.358,0.434-1.931,0.857
			c-0.689,0.509-0.713,1.569-1.321,2.172"/>
		<path class="st1" d="M54.266,34.384c-0.654-0.27-1.469-0.079-1.934,0.454c-0.328,0.375-0.475,0.869-0.649,1.336
			c-0.295,0.787-0.694,1.535-1.183,2.219c-0.437,0.61-0.971,1.187-1.668,1.466c-0.346,0.139-0.717,0.198-1.086,0.252
			c-2.955,0.431-5.953,0.559-8.934,0.383"/>
		<path class="st1" d="M33.062,97.876c-0.463,2.466-0.751,4.971-0.73,7.48c0.053,6.133,1.947,12.107,2.424,18.222
			c0.22,2.82,0.137,5.653,0.11,8.481c-0.077,7.964,1.071,14.455,1.436,22.411c0.033,0.723,0.659,2.606,0.966,3.262
			c0.442,0.942,1.326,1.875,2.215,2.416c0.926,0.564,1.57,0.886,2.497,0.886c1.017,0,2.47-0.543,3.302-1.127
			c1.302-0.915,0.966-1.007,1.289-3.463c1.045-7.966,1.85-16.253,2.266-24.276c0.299-5.76,0.961-11.502,1.98-17.179
			c0.031-0.172,0.064-0.35,0.162-0.496c0.153-0.228,0.436-0.334,0.709-0.367c1.602-0.189,2.672,1.587,3.186,3.116
			c3.161,9.399,4.156,17.24,2.932,27.081c-0.176,1.413-0.314,6.448,0.564,7.57c0.595,0.76,1.276,0.455,2.094,0.966
			c0.966,0.604,2.471,0.464,4.228,0.322c1.757-0.142,2.682-0.973,3.49-2.54c0.356-0.692,0.505-1.469,0.64-2.236
			c2.209-12.529,2.031-25.474-0.521-37.937"/>
		<path class="st1" d="M58.449,152.134c-0.439,1.739-0.508,2.163-0.622,3.953c-0.044,0.692-0.031,1.472,0.463,1.958
			c0.367,0.361,0.91,0.463,1.42,0.531c1.482,0.198,2.996,0.25,4.467-0.018c0.785-0.143,1.551-0.377,2.315-0.609
			c1.251-0.381,2.503-0.763,3.754-1.144c0.539-0.164,1.093-0.336,1.527-0.695c0.598-0.494,0.88-1.263,1.136-1.994
			c0.167-0.477,0.331-1.022,0.097-1.47c-0.317-0.605-1.135-0.67-1.815-0.729c-1.93-0.166-2.274-0.508-3.16-0.91"/>
		<path class="st1" d="M45.967,159.462c0.506,0.67,0.6,2.141,0.644,2.98c0.04,0.765-0.299,1.435-0.764,2.134
			c-0.713,1.071-2.231,1.35-3.467,0.992s-2.257-1.212-3.239-2.044c-2.396-2.032-4.835-4.114-6.462-6.802
			c-0.37-0.611-0.645-1.515-0.074-1.944c0.509-0.382,1.019-0.389,1.835-0.395c0.604,0,1.259,0.187,1.863,0.187"/>
		<path class="st1" d="M59.885,63.586c-1.485,0.415-2.932-0.674-4.092-1.69c-0.347-0.304-0.695-0.609-1.042-0.913"/>
		<path class="st1" d="M60.064,68.128c-0.799-0.063-1.444,0.59-2.111,1.034c-0.881,0.586-1.972,0.849-3.023,0.728"/>
	</g>
	<path class="st1" d="M4.555,162.349c-1.707-1.065-3.122-2.593-4.055-4.375c4.578-1.24,9.785,0.234,13.034,3.689
		c0.139-1.851-0.004-3.723-0.423-5.531c1.312-0.377,2.662,0.437,3.678,1.348s1.979,2.002,3.298,2.353
		c0.02-1.294,0.1-2.586,0.239-3.873c0.029-0.267,0.082-0.57,0.31-0.712c0.317-0.199,0.718,0.05,1.007,0.287
		c2.586,2.126,5.165,4.259,7.739,6.399"/>
</g>
</svg>