<!-- Generator: Adobe Illustrator 20.1.0, SVG Export Plug-In  -->
<svg version="1.1"
	 xmlns="http://www.w3.org/2000/svg" xmlns:xlink="http://www.w3.org/1999/xlink" xmlns:a="http://ns.adobe.com/AdobeSVGViewerExtensions/3.0/"
	 x="0px" y="0px" width="130.57px" height="75.596px" viewBox="0 0 130.57 75.596"
	 style="enable-background:new 0 0 130.57 75.596;" xml:space="preserve">
<style type="text/css">
	.st0{stroke:#000000;stroke-linejoin:round;stroke-miterlimit:10;}
	.st1{fill:none;stroke:#000000;stroke-linejoin:round;stroke-miterlimit:10;}
	.st2{fill:none;stroke:#000000;stroke-width:3;stroke-linejoin:round;stroke-miterlimit:10;}
</style>
<defs>
</defs>
<g>
	<g>
		<path class="st0" d="M15.696,28.561c2.181-0.434,3.594-0.514,5.734-1.118c0.183-0.052,1.483-0.502,1.594-0.656
			c0.275-0.383-0.58-1-1.023-1.164c-0.474-0.175-0.974-0.264-1.472-0.348c-6.215-1.053-12.527-1.536-18.83-1.441
			c-0.32,0.005-0.646,0.001-0.969-0.016c-0.038,2.058-0.072,4.056-0.1,6.014c0.596-0.103,1.221-0.132,1.816-0.144
			C6.884,29.602,11.343,29.426,15.696,28.561z"/>
		<path class="st0" d="M8.439,38.349c0.936-0.122,1.884-0.101,2.828-0.1c1.193,0.001,2.385-0.03,3.576-0.093
			c1.399-0.074,2.733-0.48,4.092-0.821c1.599-0.402,2.849-0.485,3.898-1.291c0.204-0.287-0.144-0.645-0.459-0.803
			c-1.982-0.991-4.301-0.941-6.517-0.934c-5.106,0.017-10.211-0.316-15.274-0.977C0.56,35.3,0.542,37.249,0.528,39.204
			c1.905-0.01,3.811-0.071,5.68-0.428C6.952,38.635,7.688,38.447,8.439,38.349z"/>
		<path class="st0" d="M39.734,0.678c-2.005-0.284-4.04-0.071-6.063-0.14c-1.649-0.056-3.3-0.039-4.95-0.023
			c-9.222,0.09-18.239,0.13-27.461,0.221C1.069,8.222,0.915,14.594,0.796,20.398c3.674-0.305,7.325-0.406,11.003-0.647
			c2.77-0.182,5.496-0.772,8.209-1.36c1.014-0.22,2.828-0.323,3.39-0.917c0.001-0.999-1.47-1.371-2.448-1.576
			c-2.177-0.455-4.708-0.58-6.896-0.893c0.433-0.874,1.499-1.919,2.22-2.576c1.118-0.01,2.384,0.067,3.491,0.232
			c0.517,0.077,1.034,0.154,1.551,0.23c0.567,0.084,1.134,0.169,1.692,0.299c0.366,0.086,0.728,0.192,1.089,0.298
			c0.207,0.06,0.413,0.121,0.62,0.182c0.224,0.066,0.449,0.131,0.672,0.201c0.893,0.277,1.768,0.612,2.617,1.002
			c0.502,0.23,1.019,0.501,1.312,0.969c0.09,0.143,0.155,0.3,0.22,0.456c0.076,0.182,0.151,0.364,0.227,0.546
			c0.061,0.146,0.122,0.294,0.15,0.45c0.083,0.467-0.15,0.946-0.493,1.273c-0.343,0.328-0.783,0.531-1.218,0.721
			c-2.69,1.179-5.498,2.092-8.367,2.721c3.104,0.619,6.259,1.266,9.054,2.753c0.353,0.188,0.711,0.399,0.941,0.727
			c0.43,0.614,0.288,1.48-0.099,2.121c-0.388,0.641-0.845,1.298-1.494,1.671c-2.56,1.474-5.198,1.81-7.884,2.058
			c2.25,0.378,4.625,1.04,6.803,1.72c0.907,0.283,1.845,0.623,2.485,1.326c0.64,0.703,0.862,1.877,0.24,2.595
			c-0.23,0.266-0.545,0.441-0.853,0.61c-0.614,0.338-1.228,0.676-1.869,0.958c-0.867,0.381-1.777,0.657-2.692,0.904
			c-1.708,0.463-3.44,0.833-5.188,1.108c2.797,0.205,5.653,0.939,8.295,1.878c1.02,0.363,2.106,0.815,2.653,1.749
			c0.143,0.244,0.244,0.52,0.234,0.802c-0.018,0.518-0.396,0.952-0.802,1.275c-0.479,0.382-1.023,0.674-1.571,0.948
			c-2.406,1.203-4.974,2.082-7.613,2.606c0.706-0.123,1.429,0.244,2.122,0.424c1.144,0.298,2.326,0.416,3.504,0.52
			c0.349,0.031,0.698,0.06,1.04,0.133c1.178,0.251,2.189,1,3.055,1.837c0.231,0.223,0.463,0.471,0.534,0.784
			c0.046,0.206,0.017,0.421-0.035,0.626c-0.352,1.37-1.665,2.255-2.944,2.856c-1.663,0.782-3.433,1.306-5.195,1.827
			c-0.539,0.159-1.078,0.319-1.617,0.478c1.46-0.066,2.986,0.39,4.388,0.8c0.941,0.274,1.881,0.549,2.822,0.823
			c0.835,0.244,1.712,0.513,2.304,1.15c0.668,0.72,0.835,1.764,0.897,2.744c0.048,0.768,0.051,1.539,0.053,2.309
			c0.008,2.641,0.017,5.283,0.025,7.924c2.648,0.011,5.315,0.023,8.031,0.04C39.063,44.042,38.94,31.725,39.734,0.678z"/>
		<path class="st0" d="M8.366,57.285c1.547-0.135,3.083-0.362,4.619-0.588c0.85-0.125,1.7-0.251,2.551-0.376
			c2.106-0.31,4.218-0.622,6.264-1.21c0.317-0.091,0.643-0.194,0.892-0.411s0.402-0.578,0.281-0.885
			c-0.15-0.381-0.616-0.509-1.019-0.585c-1.777-0.338-3.567-0.671-5.376-0.678c-0.774-0.003-1.547,0.054-2.321,0.059
			c-0.807,0.005-1.614-0.047-2.42-0.098c-3.735-0.239-7.643-1.39-11.331-0.762c0.006,1.867,0.015,3.789,0.029,5.781
			c0.639-0.008,1.279-0.016,1.918-0.024C4.426,57.481,6.401,57.457,8.366,57.285z"/>
		<path class="st0" d="M6.854,48.122c0.763-0.083,1.526-0.167,2.289-0.25c2.16-0.236,4.321-0.473,6.481-0.709
			c2.198-0.24,4.405-0.482,6.548-1.025c0.424-0.107,0.912-0.292,1.02-0.715c0.093-0.367-0.171-0.748-0.508-0.92
			c-0.337-0.173-0.729-0.189-1.107-0.211c-2.977-0.173-5.889-0.924-8.848-1.301c-4.015-0.51-8.208-0.206-12.218-0.795
			C0.502,44.27,0.499,46.37,0.5,48.525c0.137-0.003,0.275-0.002,0.409,0C2.897,48.554,4.878,48.338,6.854,48.122z"/>
	</g>
	<path class="st1" d="M46.035,20.51c3.335,0.088,6.676-0.034,9.996-0.365"/>
	<path class="st1" d="M50.884,20.349c0.07,3.944,0.141,7.888,0.211,11.833"/>
	<path class="st1" d="M58.535,20.683c-0.099,3.89,0.041,7.786,0.421,11.658"/>
	<path class="st1" d="M67.905,20.681c0.17,4.109,0.208,8.223,0.114,12.334"/>
	<path class="st1" d="M58.872,26.932c3.053-0.161,6.106-0.321,9.159-0.482"/>
	<path class="st1" d="M81.029,21.067c-2.751-0.311-5.502-0.621-8.253-0.932c-0.185,4.274-0.221,8.555-0.107,12.832
		c2.788,0.079,5.576,0.158,8.365,0.237"/>
	<path class="st1" d="M80.201,26.849c-2.389,0-4.778,0-7.167,0"/>
	<path class="st2" d="M49.623,41.175c-0.139,2.466,0.918,4.817,1.764,7.138c0.76,2.084,1.363,4.226,1.804,6.4
		c1.556-4.092,3.112-8.183,4.668-12.275c1.664,2.571,2.864,5.443,3.523,8.434c0.26,1.179,0.559,2.547,1.641,3.081
		c1.132-3.975,2.264-7.949,3.395-11.924"/>
	<path class="st2" d="M72.543,47.26c3.107-0.336,6.235-0.483,9.36-0.439c0.674-1.863-0.31-4.167-2.123-4.967
		c-0.624-0.276-1.317-0.386-1.998-0.349c-1.638,0.09-3.199,1.077-3.981,2.52c-0.477,0.88-0.669,1.882-0.854,2.866
		c-0.199,1.06-0.4,2.134-0.322,3.21s0.466,2.171,1.273,2.886c0.844,0.748,2.015,0.985,3.134,1.127
		c0.892,0.113,1.818,0.18,2.675-0.092c0.857-0.272,1.638-0.957,1.776-1.846"/>
	<path class="st2" d="M90.014,41.73c0.247,3.941,0.048,8.187-0.167,12.131c1.507-0.238,3.02,0.251,4.532,0.447
		c1.512,0.197,3.269-0.004,4.186-1.223c0.52-1.123,0.225-2.52-0.56-3.477c-0.786-0.956-1.991-1.503-3.216-1.683
		c-1.334-0.196-2.694,0.006-4.039-0.089c1.594,0.074,3.192,0.051,4.783-0.07c0.514-0.039,1.061-0.101,1.462-0.426
		c0.308-0.249,1.22-0.686,1.371-1.053c0.357-0.866,0.362-0.699,0.5-1.625c0.028-0.188-0.438-1.404-0.536-1.567
		c-0.107-0.177-0.828-1.124-1.026-1.183C94.841,41.177,92.581,41.888,90.014,41.73z"/>
	<path class="st2" d="M106.327,41.73c0.247,3.941,0.048,8.187-0.167,12.131c1.507-0.238,3.02,0.251,4.532,0.447
		c1.512,0.197,3.269-0.004,4.186-1.223c0.52-1.123,0.225-2.52-0.56-3.477c-0.786-0.956-1.991-1.503-3.216-1.683
		c-1.334-0.196-2.694,0.006-4.039-0.089c1.594,0.074,3.192,0.051,4.783-0.07c0.514-0.039,1.061-0.101,1.462-0.426
		c0.308-0.249,1.22-0.686,1.371-1.053c0.357-0.866,0.362-0.699,0.5-1.625c0.028-0.188-0.438-1.404-0.536-1.567
		c-0.107-0.177-0.828-1.124-1.026-1.183C111.153,41.177,108.894,41.888,106.327,41.73z"/>
	<path class="st2" d="M120.317,41.394c1.621,1.133,2.645,2.915,3.617,4.637c0.319,0.566,0.638,1.131,0.957,1.697
		c1.809-1.752,2.55-4.366,4.279-6.196"/>
	<path class="st2" d="M124.964,47.663c0.084,2.292,0.167,4.583,0.251,6.875"/>
	<path class="st1" d="M47.648,74.566c1.527-4.111,3.317-8.125,5.357-12.007c0.071-0.136,0.17-0.289,0.323-0.295
		c0.148-0.006,0.258,0.131,0.339,0.255c1.317,2.015,2.012,4.361,2.897,6.6c0.768,1.944,1.689,3.827,2.752,5.626"/>
	<path class="st1" d="M79.773,74.566c1.527-4.111,3.317-8.125,5.357-12.007c0.071-0.136,0.17-0.289,0.323-0.295
		c0.148-0.006,0.258,0.131,0.339,0.255c1.317,2.015,2.012,4.361,2.897,6.6c0.768,1.944,1.689,3.827,2.752,5.626"/>
	<path class="st1" d="M49.368,70.826c2.812,0.025,5.625,0.049,8.437,0.074"/>
	<path class="st1" d="M81.056,70.826c2.812,0.025,5.625,0.049,8.437,0.074"/>
	<path class="st1" d="M60.533,61.912c0.031,0.953,0.384,1.863,0.732,2.751c1.284,3.277,2.567,6.554,3.851,9.831
		c0.063-0.805,0.619-1.469,1.004-2.178c0.477-0.879,0.703-1.868,0.966-2.834c0.626-2.3,1.487-4.537,2.565-6.663
		c1.479,3.946,2.828,7.94,4.044,11.974c0.95-2.51,1.899-5.02,2.849-7.529c0.206-0.543,0.411-1.086,0.617-1.629
		c0.436-1.152,0.872-2.305,1.308-3.457"/>
	<path class="st1" d="M94.434,74.912c0.027-4.25,0.054-8.5,0.08-12.75c2.234-0.002,4.446-0.002,6.68-0.004
		c0.467,0,0.972,0.011,1.343,0.296c0.18,0.139,0.312,0.331,0.433,0.523c0.732,1.168,1.206,2.637,0.705,3.921
		c-0.597,1.53-2.368,2.271-4.006,2.399c-1.637,0.128-3.291-0.187-4.922,0.006"/>
	<path class="st1" d="M99.912,69.364c0.713,1.042,1.425,2.084,2.138,3.127c0.218,0.319,0.437,0.639,0.669,0.949
		c0.345,0.462,0.718,0.903,1.134,1.303"/>
	<path class="st1" d="M108.029,62.142c-0.058,4.042-0.115,8.167,0.005,12.208c1.369,0.038,2.76,0.269,4.128,0.216
		c0.884-0.034,1.782-0.09,2.613-0.394c1.636-0.599,2.826-2.137,3.257-3.825c0.431-1.688,0.172-3.498-0.456-5.123
		c-0.194-0.502-0.431-1.002-0.814-1.379c-0.306-0.301-0.69-0.507-1.068-0.71c-0.496-0.265-0.991-0.531-1.487-0.796
		c-0.245-0.131-0.492-0.263-0.76-0.338c-0.331-0.092-0.68-0.093-1.024-0.092C110.964,61.909,109.488,62.141,108.029,62.142
		C108.047,62.268,108.012,62.016,108.029,62.142z"/>
	<path class="st1" d="M129.727,63.321c-1.386-0.855-2.96-1.577-4.58-1.424c-1.621,0.152-3.223,1.465-3.177,3.092
		c0.033,1.19,0.92,2.223,1.977,2.772c1.057,0.549,2.267,0.703,3.45,0.843c0.466,0.055,0.944,0.113,1.36,0.329
		c1.036,0.537,1.372,1.874,1.306,3.04c-0.022,0.386-0.078,0.779-0.251,1.125c-0.326,0.651-1.017,1.04-1.707,1.274
		c-2.294,0.779-5,0.171-6.741-1.513"/>
</g>
</svg>