<svg id="_Layer_" data-name="&lt;Layer&gt;" xmlns="http://www.w3.org/2000/svg" viewBox="0 0 52 52"><defs><style>.cls-1{fill:#fff;}.cls-2{fill:#231f20;}</style></defs><rect class="cls-1" x="1" y="1" width="50" height="50" rx="11" ry="11"/><path class="cls-2" d="M439.71,1157.3a10.34,10.34,0,0,1,10.29,10.1v28a10.18,10.18,0,0,1-10.29,9.9h-28a9.69,9.69,0,0,1-9.71-9.9v-28a9.85,9.85,0,0,1,9.71-10.1H440m-.29-2h-28a11.84,11.84,0,0,0-11.71,12.1v28a11.68,11.68,0,0,0,11.71,11.9h28a12.16,12.16,0,0,0,12.29-11.9v-28a12.33,12.33,0,0,0-12.29-12.1Z" transform="translate(-400 -1155.3)"/><path id="_Compound_Path_" data-name="&lt;Compound Path&gt;" class="cls-2" d="M442.57,1187.32c0-.25-.25-3.13-5.37-3a36.92,36.92,0,0,0-6.37.45s-3.83-3.88-5.22-6.89c0,0,1.69-4.95,1.62-8.06s-.82-4.9-3.21-4.87-2.74,2.11-2.42,5.22a24.17,24.17,0,0,0,1.73,6.07s-1.1,3.43-2.56,6.85-2.45,5.21-2.45,5.21-4.93,1.65-7.07,3.64-3,3.52-1.88,5c1,1.32,4.37,1.62,7.4-2.36a58.54,58.54,0,0,0,4.4-6.47s4.63-1.27,6.07-1.62,3.18-.62,3.18-.62,4.23,4.25,8.31,4.1S442.59,1187.57,442.57,1187.32Zm-32.16,9c-2.54-1.52,5.32-6.19,6.74-6.34C417.15,1190,413.06,1197.89,410.41,1196.3ZM422.47,1169c0-2.46.8-3.13,1.42-3.13s1.32.3,1.34,2.44a28,28,0,0,1-1.34,6.32A11.49,11.49,0,0,1,422.47,1169Zm3.28,16.86a19.58,19.58,0,0,0-3.82,1.27l1-2.34c1-2.34,2.11-5.52,2.11-5.52a36.9,36.9,0,0,0,4.3,5.84A33.88,33.88,0,0,0,425.75,1185.88Zm6.12-.22s8.27-1.5,8.27,1.33S435,1188.66,431.86,1185.66Z" transform="translate(-400 -1155.3)"/></svg>