<svg id="_Layer_" data-name="&lt;Layer&gt;" xmlns="http://www.w3.org/2000/svg" viewBox="0 0 52 52"><defs><style>.cls-1{fill:#fff;}.cls-2{fill:#231f20;}</style></defs><rect class="cls-1" x="1" y="1" width="50" height="50" rx="11" ry="11"/><path class="cls-2" d="M754.89,1467.3a10.36,10.36,0,0,1,10.11,10.3v28a9.85,9.85,0,0,1-10.11,9.7h-28a9.67,9.67,0,0,1-9.89-9.7v-28a10.18,10.18,0,0,1,9.89-10.3H755m-.11-2h-28a12.17,12.17,0,0,0-11.89,12.3v28a11.66,11.66,0,0,0,11.89,11.7h28a11.84,11.84,0,0,0,12.11-11.7v-28a12.35,12.35,0,0,0-12.11-12.3Z" transform="translate(-715 -1465.3)"/><path class="cls-2" d="M754.35,1485.46a2.23,2.23,0,0,1,2.22,2.22v13.24a2.23,2.23,0,0,1-2.22,2.22H728.58a2.23,2.23,0,0,1-2.22-2.22v-13.24a2.23,2.23,0,0,1,2.22-2.22h25.77m0-2H728.58a4.22,4.22,0,0,0-4.22,4.22v13.24a4.22,4.22,0,0,0,4.22,4.22h25.77a4.22,4.22,0,0,0,4.22-4.22v-13.24a4.22,4.22,0,0,0-4.22-4.22Z" transform="translate(-715 -1465.3)"/><path class="cls-2" d="M744.87,1493.84v9.31h-6.81v-9.31h6.81m.12-2h-7.05a1.88,1.88,0,0,0-1.88,1.88v9.56a1.88,1.88,0,0,0,1.88,1.88H745a1.88,1.88,0,0,0,1.88-1.88v-9.56a1.88,1.88,0,0,0-1.88-1.88Z" transform="translate(-715 -1465.3)"/><path class="cls-1" d="M727.16,1489.13a3.43,3.43,0,0,1-3.43-3.43v-6.27l7.08-.05v6.31a3.45,3.45,0,0,1-3.44,3.44Z" transform="translate(-715 -1465.3)"/><path class="cls-2" d="M729.82,1480.38v5.31a2.45,2.45,0,0,1-2.44,2.44h-.21a2.43,2.43,0,0,1-2.43-2.43v-5.32h5.08m1.11-2h-7.14a1.05,1.05,0,0,0-1.05,1.05v6.27a4.43,4.43,0,0,0,4.43,4.43h.21a4.44,4.44,0,0,0,4.44-4.44v-6.41a.89.89,0,0,0-.89-.89Z" transform="translate(-715 -1465.3)"/><path class="cls-1" d="M734.2,1489.13a3.43,3.43,0,0,1-3.43-3.43v-6.27l7.08-.05v6.31a3.45,3.45,0,0,1-3.44,3.44Z" transform="translate(-715 -1465.3)"/><path class="cls-2" d="M736.86,1480.38v5.31a2.45,2.45,0,0,1-2.44,2.44h-.21a2.43,2.43,0,0,1-2.43-2.43v-5.32h5.08m1.11-2h-7.14a1.05,1.05,0,0,0-1.05,1.05v6.27a4.43,4.43,0,0,0,4.43,4.43h.21a4.44,4.44,0,0,0,4.44-4.44v-6.41a.89.89,0,0,0-.89-.89Z" transform="translate(-715 -1465.3)"/><path class="cls-1" d="M741.29,1489.13a3.43,3.43,0,0,1-3.43-3.43v-6.27l7.08-.05v6.31a3.45,3.45,0,0,1-3.44,3.44Z" transform="translate(-715 -1465.3)"/><path class="cls-2" d="M743.94,1480.38v5.31a2.45,2.45,0,0,1-2.44,2.44h-.21a2.43,2.43,0,0,1-2.43-2.43v-5.32h5.08m1.11-2h-7.14a1.05,1.05,0,0,0-1.05,1.05v6.27a4.43,4.43,0,0,0,4.43,4.43h.21a4.44,4.44,0,0,0,4.44-4.44v-6.41a.89.89,0,0,0-.89-.89Z" transform="translate(-715 -1465.3)"/><path class="cls-1" d="M748.41,1489.13a3.43,3.43,0,0,1-3.43-3.43v-6.27l7.08-.05v6.31a3.45,3.45,0,0,1-3.44,3.44Z" transform="translate(-715 -1465.3)"/><path class="cls-2" d="M751.07,1480.38v5.31a2.45,2.45,0,0,1-2.44,2.44h-.21a2.43,2.43,0,0,1-2.43-2.43v-5.32h5.08m1.11-2H745a1.05,1.05,0,0,0-1.05,1.05v6.27a4.43,4.43,0,0,0,4.43,4.43h.21a4.44,4.44,0,0,0,4.44-4.44v-6.41a.89.89,0,0,0-.89-.89Z" transform="translate(-715 -1465.3)"/><path class="cls-1" d="M755.54,1489.13a3.43,3.43,0,0,1-3.43-3.43v-6.27l7.08-.05v6.31a3.45,3.45,0,0,1-3.44,3.44Z" transform="translate(-715 -1465.3)"/><path class="cls-2" d="M758.19,1480.38v5.31a2.45,2.45,0,0,1-2.44,2.44h-.21a2.43,2.43,0,0,1-2.43-2.43v-5.32h5.08m1.11-2h-7.14a1.05,1.05,0,0,0-1.05,1.05v6.27a4.43,4.43,0,0,0,4.43,4.43h.21a4.44,4.44,0,0,0,4.44-4.44v-6.41a.89.89,0,0,0-.89-.89Z" transform="translate(-715 -1465.3)"/></svg>