<svg id="_Layer_" data-name="&lt;Layer&gt;" xmlns="http://www.w3.org/2000/svg" viewBox="0 0 179.39 145.21"><defs><style>.cls-1,.cls-2{fill:none;}.cls-1{stroke:#231f20;}.cls-1,.cls-2,.cls-3{stroke-linecap:round;stroke-linejoin:round;}.cls-2,.cls-3{stroke:#010101;}.cls-3{fill:#a5c53a;}.cls-4{fill:#231f20;}.cls-5{fill:#010101;}</style></defs><path class="cls-1" d="M724.2,280.51a8,8,0,0,0,2.83,3.37.83.83,0,0,0,.5.19c.37,0,.53-.47.59-.83.19-1.16.17-2.43.86-3.38a11.81,11.81,0,0,0,1.48,3.92" transform="translate(-652.97 -142.91)"/><path class="cls-1" d="M657.08,281a10.18,10.18,0,0,1-3.61-3.89,12,12,0,0,1,11.59,3.28,16.38,16.38,0,0,0-.38-4.92,3.68,3.68,0,0,1,3.27,1.2,7.81,7.81,0,0,0,2.93,2.09q0-1.73.21-3.44a.81.81,0,0,1,.28-.63c.28-.18.64,0,.9.26q3.45,2.84,6.88,5.69" transform="translate(-652.97 -142.91)"/><path class="cls-2" d="M691.2,278.13a5.36,5.36,0,0,0,2.78-.38c2-.85,3-3,4.61-4.44" transform="translate(-652.97 -142.91)"/><path class="cls-2" d="M708.89,280.69c.5.18,1,.47,1.44.7,2.34,1.1,5.32.84,7.23,2.58a1.51,1.51,0,0,1,.6,1.11,1.35,1.35,0,0,1-1,1.11c-.51.17-1.05.16-1.57.29s-1,.4-1.54.58a10.26,10.26,0,0,1-3.27.41l-9,.15a.83.83,0,0,1-1-1,7.64,7.64,0,0,1,.38-3.85" transform="translate(-652.97 -142.91)"/><path class="cls-2" d="M703.47,235.95c.31,3.07,2.12,3.51,3.43,6.31.58,1.24.95,2.58,1.62,3.78,1.11,2,3,3.47,3.92,5.55a9.51,9.51,0,0,1,.69,3,32.24,32.24,0,0,1-1,9.36q-1.59,7.61-3.38,15.18a6.22,6.22,0,0,1-.78,2.1,4.21,4.21,0,0,1-3,1.65,12.48,12.48,0,0,1-3.5-.22.8.8,0,0,1-.6-.29.79.79,0,0,1-.08-.36l-.54-7.53a26.47,26.47,0,0,1,0-6.2c.4-2.44,1.49-4.75,1.69-7.21a5.33,5.33,0,0,0-.6-3.25c-.43-.7-1.09-1.23-1.55-1.92s-.68-1.47-1.19-2.1c-.89-1.09-2.41-1.42-3.5-2.31-.65-.54-.65-1.35-1.44-1.66-.51-.2-2-1.9-2.56-2-1.94-.37-2.77-1.72-3.31-4.5" transform="translate(-652.97 -142.91)"/><path class="cls-2" d="M700.54,279.41a5.15,5.15,0,0,0-2.15.42,14.26,14.26,0,0,0-1.44.87,8.46,8.46,0,0,1-5.44,1.16,9.21,9.21,0,0,1-.36-4.24,14.69,14.69,0,0,0-1.18-7.35,8.28,8.28,0,0,1-.63-1.36,5.74,5.74,0,0,1-.16-1.55,55.09,55.09,0,0,1,.13-5.71,26.31,26.31,0,0,0,.26-4,17.83,17.83,0,0,0-1.35-5.06,10.71,10.71,0,0,0-3-4.74l-6.12-6.5a21.05,21.05,0,0,1-2.76-3.86" transform="translate(-652.97 -142.91)"/><path class="cls-2" d="M699.32,254.89c.63,5.16-.49,7.51-1.14,12.67a10.46,10.46,0,0,0,.3,5.36c.7,1.67,1,1.85,1.75,2.35" transform="translate(-652.97 -142.91)"/><path class="cls-2" d="M708.47,185.6c.39,1.34.87,2.48,1.39,3.78l-.79.33a1.2,1.2,0,0,0-.34.19,1.37,1.37,0,0,0-.3.53,7.27,7.27,0,0,1-1.11,1.77,2.21,2.21,0,0,1-.09.86,1.33,1.33,0,0,1-1.08.7,3.92,3.92,0,0,1-1.33-.15c-.14.39-.08.3-.22.68" transform="translate(-652.97 -142.91)"/><path class="cls-2" d="M691.59,186.47a6.6,6.6,0,0,1,3.93-1.05,6.37,6.37,0,0,1,1,.15,9.82,9.82,0,0,1,2.74,1.06c.66.38,1.45.84,2.12.49.39-.2.6-.62.92-.93a1.68,1.68,0,0,1,1.68-.39,7.06,7.06,0,0,0,1,.42c.8.16,1.5-.62,2.31-.73.54-.07,1.1.17,1.63.07a1.8,1.8,0,0,0,1.31-1.53,4.89,4.89,0,0,0-.27-2.12,10.06,10.06,0,0,0-1.93-4,9.11,9.11,0,0,0-1.38-1.21q-.77-.57-1.58-1.07a1.48,1.48,0,0,0-.45-.21,2,2,0,0,0-.74.05c-.94.15-1.91-.11-2.85.05a11.78,11.78,0,0,0-2.22.84c-.93.37-1.94.53-2.85,1a10.7,10.7,0,0,0-3.47,3.19,2.76,2.76,0,0,0-.79,1.86l-.27,2.26a6.31,6.31,0,0,0-.06,1.25c0,.49.72,1.92.84,2.64a6.44,6.44,0,0,1-.58,3.16" transform="translate(-652.97 -142.91)"/><path class="cls-2" d="M698.77,206.77l3.39,0a1,1,0,0,0,.35,0,1.17,1.17,0,0,0,.35-.25,2.79,2.79,0,0,1,.76-.48" transform="translate(-652.97 -142.91)"/><path class="cls-2" d="M704.85,233.64a3.2,3.2,0,0,1-.2,1.49,1.74,1.74,0,0,1-1.21.8c-1.75.35-3.3-1-4.72-2.14s-3.61-1.9-4.84-.61c-.3.31-.49.71-.81,1-1.1,1-2.83.22-4.33.16-3.09-.12-5.56,3.14-8.65,3a18.74,18.74,0,0,0-2.59-.27c-1.16.11-2.49.87-3.35.09a2.2,2.2,0,0,1-.57-1.12c-.64-2.46-.22-5.53.16-8.26s5.63-22.44,12.18-32.28a9.24,9.24,0,0,1,2.58-2.84c1.63-1,3.67-1,5.59-1a21,21,0,0,1,6.47.84c1.49.52,2.85,1.38,4.31,2a14.48,14.48,0,0,0,9.49.58,56.77,56.77,0,0,0,5.74-1.64,61.25,61.25,0,0,1,10-3.42c1.36-.3,3-1.1,4.27-.62a3,3,0,0,1,1.54,3.77,3.74,3.74,0,0,1-1.57,1.38,64.4,64.4,0,0,1-11.43,5.73c-4.28,1.48-8.81,2-13.2,3.11a1.32,1.32,0,0,0-1.24,1.19A115.71,115.71,0,0,0,704.85,233.64Z" transform="translate(-652.97 -142.91)"/><path class="cls-2" d="M733.64,189.24a4.19,4.19,0,0,1,1.22-2,3.78,3.78,0,0,1,1.71-.86,1,1,0,0,1,1,0c.19.16.24.44.35.66.45.86,1.77.7,2.56.13s1.43-1.41,2.37-1.64a1.24,1.24,0,0,1-.13,1.45,4.7,4.7,0,0,0-.85,1.31,12.22,12.22,0,0,0-.08,1.36,3,3,0,0,1-1.33,1.81,9.93,9.93,0,0,1-4.45,1.85" transform="translate(-652.97 -142.91)"/><path class="cls-3" d="M742.49,185.77a18.54,18.54,0,0,1,1.48-5,2.05,2.05,0,0,1-1.82.48c.15-2.13,1.68-4.14,1.22-6.23a22.86,22.86,0,0,1-2,4.38c-.26.43-.74.91-1.18.67a45.27,45.27,0,0,0-1.09-6.48,5.77,5.77,0,0,0-.95,3.36,22.58,22.58,0,0,1-.15,3.54l-1.18-2.2c-.2-.38-.63-.82-1-.56l1.53,8.3a1.74,1.74,0,0,0,.91,1.06,2.62,2.62,0,0,0,1.1.29,2,2,0,0,0,.83-.07,4,4,0,0,0,1.09-.85,3,3,0,0,1,1.22-.62" transform="translate(-652.97 -142.91)"/><path class="cls-4" d="M758.34,177.21c-.1-.05-.16.09-.22.18a2,2,0,0,0,0,1.89.64.64,0,0,0,.34.33.15.15,0,0,0,.09,0c.05,0,.08-.08.1-.13a1.46,1.46,0,0,0,.09-1A3.36,3.36,0,0,0,758.34,177.21Z" transform="translate(-652.97 -142.91)"/><path class="cls-1" d="M817.31,237.73a2.78,2.78,0,0,0,2-.56,1.93,1.93,0,0,1,2-.2c.64.46.62,1.53,1.31,1.91a1.28,1.28,0,0,0,1.24-.1,4.43,4.43,0,0,0,1-.89,16.7,16.7,0,0,1,3.12-2.7,20.62,20.62,0,0,1,0,3.31,11.19,11.19,0,0,0,3.59.62" transform="translate(-652.97 -142.91)"/><path class="cls-1" d="M765.56,255.33a5.91,5.91,0,0,1-2.43-3.33c2-.25,3.8,1.48,5.81,1.4q.07-1.32,0-2.65c.57-.12,1.09.34,1.5.76l1.56,1.61a.81.81,0,0,0,.33.24c.45.13.72-.49.73-1s.07-1.08.52-1.17.69.34,1,.63a2.2,2.2,0,0,0,1.31.68" transform="translate(-652.97 -142.91)"/><path class="cls-1" d="M808.16,209.33c-.27,1.88.45,4.11.89,6a27.68,27.68,0,0,1,.62,6.72c0,1.13-.06,2.27-.1,3.4a14.24,14.24,0,0,1-.52,3.06,36.84,36.84,0,0,0-.6,4.33l-.59,4.57a1.78,1.78,0,0,1-.17.65,1.6,1.6,0,0,1-.88.63,7.32,7.32,0,0,1-2.81.47.57.57,0,0,1-.48-.18.58.58,0,0,1-.05-.36,9.79,9.79,0,0,1,.37-2.71,6.71,6.71,0,0,0,.23-2.23,8.27,8.27,0,0,1,.36-2.3c.24-.83.43-1.66.61-2.51a12.57,12.57,0,0,0,.55-3.35,25,25,0,0,0-.73-3.86,55.85,55.85,0,0,0-2.4-8.16" transform="translate(-652.97 -142.91)"/><path class="cls-1" d="M819.85,211a45.1,45.1,0,0,0,5.2,12.16,7.4,7.4,0,0,0,1.34,1.73c1.44,1.27,3.55,1.35,5.48,1.36-3.25-3-4.5-7.55-5.51-11.86a91.3,91.3,0,0,1-1.86-9.87,44.47,44.47,0,0,0-1.15-6" transform="translate(-652.97 -142.91)"/><path class="cls-1" d="M810.85,236.26a3.16,3.16,0,0,0,1,.39,6.32,6.32,0,0,0,.85.08l1.91.09a.6.6,0,0,0,.49-.12" transform="translate(-652.97 -142.91)"/><path class="cls-1" d="M804,235.57a8.29,8.29,0,0,0,3.93-.85" transform="translate(-652.97 -142.91)"/><path class="cls-1" d="M785.36,252.75a11,11,0,0,0,2.78.27,5.18,5.18,0,0,0,2.64-.83" transform="translate(-652.97 -142.91)"/><path class="cls-1" d="M778.6,250.18a5.29,5.29,0,0,0,3.25,1,2.79,2.79,0,0,0,2-.66" transform="translate(-652.97 -142.91)"/><path class="cls-4" d="M763.67,177.33a.63.63,0,0,0-.64.24,1.81,1.81,0,0,0-.36.68,5.9,5.9,0,0,0-.27,1.09.7.7,0,0,0,.1.57.49.49,0,0,0,.51.11,1.19,1.19,0,0,0,.45-.3,2.68,2.68,0,0,0,.71-1,1.48,1.48,0,0,0-.05-1.21.51.51,0,0,0-.21-.22A.17.17,0,0,0,763.67,177.33Z" transform="translate(-652.97 -142.91)"/><path class="cls-5" d="M774.52,161.83a1,1,0,0,0-.82-.65l-.48-.05c-.65-.13-1,.15-1.4.68a1.8,1.8,0,0,0-.26,1.05.71.71,0,0,0,.07.43.65.65,0,0,0,.27.2,4.14,4.14,0,0,0,1.7.41,1.06,1.06,0,0,0,.9-.31,1.14,1.14,0,0,0,.16-.67A2.58,2.58,0,0,0,774.52,161.83Z" transform="translate(-652.97 -142.91)"/><path class="cls-1" d="M811.74,205.44l-4.25,4.35a11.42,11.42,0,0,1-7.12,4.12l-8.84,2.2a1.09,1.09,0,0,0-1,1.32l-.23,6.66-.21,9c.67,6.86.08,13.54,1.21,20.33.19,1.17.31,2.59-.63,3.3a3.23,3.23,0,0,1-1.68.48l-3.29.31a.89.89,0,0,1-1.14-1.22q.57-3.64,1-7.3a49.51,49.51,0,0,0,0-12.72c-.17-1.1-.4-2.18-.56-3.28-.89-6.16.51-2.5-.65-8.62-.39-2.06-1.65-9.63-3.15-4.47-.58,2.67,1.51,8.31,2.26,17.82a85,85,0,0,1,.34,13.76c-.11,1.29-.39,2.76-1.5,3.43a4,4,0,0,1-1.83.44c-1,.06-2.21,0-2.68-.93a3,3,0,0,1,.19-2.33,30.56,30.56,0,0,0,.31-19.63c-.21-.64-.43-1.27-.63-1.91a10.77,10.77,0,0,0-.88-2.32l-1-1.75c0-.29-.51-.89-.66-1.14l-.69-1.21a15.34,15.34,0,0,1-1.16-2.12,27.05,27.05,0,0,1-.65-2.74,10.44,10.44,0,0,0-1-2.68c-.69-1.18-1-2.75-1.65-4a19.25,19.25,0,0,1-1.08-15.38,12.26,12.26,0,0,0,.68-2.15,9.16,9.16,0,0,0,0-2.2c-.15-1.89-.31-3.75-.48-5.64-.26-2.87-.55-5.77-.88-8.63" transform="translate(-652.97 -142.91)"/><path class="cls-1" d="M765.7,152.16a6,6,0,0,1-1.29-2.05,6.56,6.56,0,0,1-.18-1.06l-.18-1.55a5.08,5.08,0,0,1,0-.72,5.14,5.14,0,0,1,1.62-3,.79.79,0,0,1,.48-.33c.28,0,.49.24.62.49.44.86.52,1.86.9,2.76.2.47.47.9.66,1.37a4,4,0,0,1,.27,2.34l.4-.12a5.31,5.31,0,0,1,4.23.35,9.23,9.23,0,0,1,.56-4.48c.23-.6.7-1.26,1.33-1.16a1.35,1.35,0,0,1,.74.49c2.33,2.58,1.51,6.6,2.12,10a22.76,22.76,0,0,0,1.43,4.42l5.47,13.64a22.05,22.05,0,0,0,2.86,5.58,7.45,7.45,0,0,0,5.29,3c3.11.14,5.66-2.26,8.47-3.6,5.35-2.55,12.16-1,16.43,3.1s6.08,10.4,5.44,16.29c-.61,5.64-3.23,10.84-4.77,16.31a71.36,71.36,0,0,0-2,11.06c-1,8.28-1.43,6.62-1.4,15-1,1.36-3.37.68-4.18-.8s-.56-3.29-.31-5c1.74-11.54,2.38-13.24,1.91-24.89,0-1-1.24-2.08-2-2.77" transform="translate(-652.97 -142.91)"/><path class="cls-1" d="M773.68,172.84c-.25,1.59-1.58,2.77-2.91,3.67a11.73,11.73,0,0,0-3.67,3.07c-.84,1.33-1.14,3.21-2.59,3.84a4.31,4.31,0,0,1-1.73.23h-3.24a1.81,1.81,0,0,1-1-.18,1.73,1.73,0,0,1-.59-.85,18.82,18.82,0,0,1-1.29-4.71,6.13,6.13,0,0,1,0-2.39,8.45,8.45,0,0,1,1.13-2.23,27.39,27.39,0,0,0,3.71-9.8,3.29,3.29,0,0,0,.06-1" transform="translate(-652.97 -142.91)"/><path class="cls-1" d="M768.93,150.29c-.44.23-.68.29-.83.4-4.37,3.12-7.49,7.3-10.55,11.72,3.89,0,8,0,11.36-2,.3-.17.59-.36.9-.51s.6-.26.9-.38a13,13,0,0,0,4.65-3.25,13.62,13.62,0,0,0,4.51,5.42" transform="translate(-652.97 -142.91)"/></svg>