<!-- Generator: Adobe Illustrator 20.1.0, SVG Export Plug-In  -->
<svg version="1.1"
	 xmlns="http://www.w3.org/2000/svg" xmlns:xlink="http://www.w3.org/1999/xlink" xmlns:a="http://ns.adobe.com/AdobeSVGViewerExtensions/3.0/"
	 x="0px" y="0px" width="109px" height="108.521px" viewBox="0 0 109 108.521" style="enable-background:new 0 0 109 108.521;"
	 xml:space="preserve">
<style type="text/css">
	.st0{fill:none;stroke:#000000;stroke-linejoin:round;stroke-miterlimit:10;}
	.st1{stroke:#000000;stroke-linejoin:round;stroke-miterlimit:10;}
</style>
<defs>
</defs>
<g>
	<path class="st0" d="M0.5,99.941c0.002,2.479,0.003,5.122,0.005,7.601c1.123,0.015,2.247,0.03,3.37,0.045
		c1.454,0.019,3.08,0.084,4.304,0.195c0.165-2.776,0.175-5.096,0.081-7.876C5.677,99.772,3.087,99.892,0.5,99.941z"/>
	<path class="st1" d="M0.619,88.373c0.002,2.479,0.003,5.122,0.005,7.601c1.123,0.015,2.247,0.03,3.37,0.045
		c1.454,0.019,3.08,0.084,4.304,0.195c0.165-2.776,0.175-5.096,0.081-7.876C5.796,88.204,3.206,88.324,0.619,88.373z"/>
	<path class="st1" d="M0.858,77.759c0.002,2.479,0.003,5.122,0.005,7.601c1.123,0.015,2.247,0.03,3.37,0.045
		c1.454,0.019,3.08,0.084,4.304,0.195c0.165-2.776,0.175-5.096,0.081-7.876C6.034,77.589,3.445,77.709,0.858,77.759z"/>
	<path class="st1" d="M0.977,66.786c0.002,2.479,0.003,5.122,0.005,7.601c1.123,0.015,2.247,0.03,3.37,0.045
		c1.454,0.019,3.08,0.084,4.304,0.195c0.165-2.776,0.175-5.096,0.081-7.876C6.154,66.617,3.564,66.737,0.977,66.786z"/>
	<path class="st1" d="M0.739,55.814c0.002,2.479,0.003,5.122,0.005,7.601c1.123,0.015,2.247,0.03,3.37,0.045
		c1.454,0.019,3.08,0.084,4.304,0.195c0.165-2.776,0.175-5.096,0.081-7.876C5.915,55.645,3.325,55.765,0.739,55.814z"/>
	<path class="st1" d="M1.096,44.842c0.002,2.479,0.003,5.122,0.005,7.601c1.123,0.015,2.247,0.03,3.37,0.045
		c1.454,0.019,3.08,0.084,4.304,0.195c0.165-2.776,0.175-5.096,0.081-7.876C6.273,44.673,3.683,44.793,1.096,44.842z"/>
	<path class="st1" d="M1.216,23.256c0.002,2.479,0.003,5.122,0.005,7.601c1.123,0.015,2.247,0.03,3.37,0.045
		c1.454,0.019,3.08,0.084,4.304,0.195c0.165-2.776,0.175-5.096,0.081-7.876C6.392,23.087,3.802,23.207,1.216,23.256z"/>
	<path class="st1" d="M1.216,34.109c0.002,2.479,0.003,5.122,0.005,7.601c1.123,0.015,2.247,0.03,3.37,0.045
		c1.454,0.019,3.08,0.084,4.304,0.195c0.165-2.776,0.175-5.096,0.081-7.876C6.392,33.94,3.802,34.06,1.216,34.109z"/>
	<path class="st1" d="M1.216,12.165c0.002,2.479,0.003,5.122,0.005,7.601c1.123,0.015,2.247,0.03,3.37,0.045
		c1.454,0.019,3.08,0.084,4.304,0.195C9.06,17.23,9.07,14.91,8.976,12.13C6.392,11.995,3.802,12.115,1.216,12.165z"/>
	<path class="st1" d="M0.858,1.312C0.86,3.791,0.861,6.434,0.863,8.913c1.123,0.015,2.247,0.03,3.37,0.045
		c1.454,0.019,3.08,0.084,4.304,0.195c0.165-2.776,0.175-5.096,0.081-7.876C6.034,1.143,3.445,1.263,0.858,1.312z"/>
	<path class="st0" d="M11.472,99.941c0.002,2.479,0.003,5.122,0.005,7.601c1.123,0.015,2.247,0.03,3.37,0.045
		c1.454,0.019,3.08,0.084,4.304,0.195c0.165-2.776,0.175-5.096,0.081-7.876C16.649,99.772,14.059,99.892,11.472,99.941z"/>
	<path class="st0" d="M11.591,88.373c0.002,2.479,0.003,5.122,0.005,7.601c1.123,0.015,2.247,0.03,3.37,0.045
		c1.454,0.019,3.08,0.084,4.304,0.195c0.165-2.776,0.175-5.096,0.081-7.876C16.768,88.204,14.178,88.324,11.591,88.373z"/>
	<path class="st0" d="M11.83,77.759c0.002,2.479,0.003,5.122,0.005,7.601c1.123,0.015,2.247,0.03,3.37,0.045
		c1.454,0.019,3.08,0.084,4.304,0.195c0.165-2.776,0.175-5.096,0.081-7.876C17.007,77.589,14.417,77.709,11.83,77.759z"/>
	<path class="st1" d="M11.949,66.786c0.002,2.479,0.003,5.122,0.005,7.601c1.123,0.015,2.247,0.03,3.37,0.045
		c1.454,0.019,3.08,0.084,4.304,0.195c0.165-2.776,0.175-5.096,0.081-7.876C17.126,66.617,14.536,66.737,11.949,66.786z"/>
	<path class="st1" d="M11.711,55.814c0.002,2.479,0.003,5.122,0.005,7.601c1.123,0.015,2.247,0.03,3.37,0.045
		c1.454,0.019,3.08,0.084,4.304,0.195c0.165-2.776,0.175-5.096,0.081-7.876C16.887,55.645,14.298,55.765,11.711,55.814z"/>
	<path class="st1" d="M12.068,44.842c0.002,2.479,0.003,5.122,0.005,7.601c1.123,0.015,2.247,0.03,3.37,0.045
		c1.454,0.019,3.08,0.084,4.304,0.195c0.165-2.776,0.175-5.096,0.081-7.876C17.245,44.673,14.655,44.793,12.068,44.842z"/>
	<path class="st1" d="M12.188,23.256c0.002,2.479,0.003,5.122,0.005,7.601c1.123,0.015,2.247,0.03,3.37,0.045
		c1.454,0.019,3.08,0.084,4.304,0.195c0.165-2.776,0.175-5.096,0.081-7.876C17.364,23.087,14.775,23.207,12.188,23.256z"/>
	<path class="st1" d="M12.188,34.109c0.002,2.479,0.003,5.122,0.005,7.601c1.123,0.015,2.247,0.03,3.37,0.045
		c1.454,0.019,3.08,0.084,4.304,0.195c0.165-2.776,0.175-5.096,0.081-7.876C17.364,33.94,14.775,34.06,12.188,34.109z"/>
	<path class="st1" d="M12.188,12.165c0.002,2.479,0.003,5.122,0.005,7.601c1.123,0.015,2.247,0.03,3.37,0.045
		c1.454,0.019,3.08,0.084,4.304,0.195c0.165-2.776,0.175-5.096,0.081-7.876C17.364,11.995,14.775,12.115,12.188,12.165z"/>
	<path class="st1" d="M11.83,1.312c0.002,2.479,0.003,5.122,0.005,7.601c1.123,0.015,2.247,0.03,3.37,0.045
		c1.454,0.019,3.08,0.084,4.304,0.195c0.165-2.776,0.175-5.096,0.081-7.876C17.007,1.143,14.417,1.263,11.83,1.312z"/>
	<path class="st0" d="M22.921,99.941c0.002,2.479,0.003,5.122,0.005,7.601c1.123,0.015,2.247,0.03,3.37,0.045
		c1.454,0.019,3.08,0.084,4.304,0.195c0.165-2.776,0.175-5.096,0.081-7.876C28.098,99.772,25.508,99.892,22.921,99.941z"/>
	<path class="st0" d="M23.04,88.373c0.002,2.479,0.003,5.122,0.005,7.601c1.123,0.015,2.247,0.03,3.37,0.045
		c1.454,0.019,3.08,0.084,4.304,0.195c0.165-2.776,0.175-5.096,0.081-7.876C28.217,88.204,25.627,88.324,23.04,88.373z"/>
	<path class="st0" d="M23.279,77.759c0.002,2.479,0.003,5.122,0.005,7.601c1.123,0.015,2.247,0.03,3.37,0.045
		c1.454,0.019,3.08,0.084,4.304,0.195c0.165-2.776,0.175-5.096,0.081-7.876C28.456,77.589,25.866,77.709,23.279,77.759z"/>
	<path class="st0" d="M23.398,66.786c0.002,2.479,0.003,5.122,0.005,7.601c1.123,0.015,2.247,0.03,3.37,0.045
		c1.454,0.019,3.08,0.084,4.304,0.195c0.165-2.776,0.175-5.096,0.081-7.876C28.575,66.617,25.985,66.737,23.398,66.786z"/>
	<path class="st0" d="M23.16,55.814c0.002,2.479,0.003,5.122,0.005,7.601c1.123,0.015,2.247,0.03,3.37,0.045
		c1.454,0.019,3.08,0.084,4.304,0.195c0.165-2.776,0.175-5.096,0.081-7.876C28.336,55.645,25.747,55.765,23.16,55.814z"/>
	<path class="st1" d="M23.517,44.842c0.002,2.479,0.003,5.122,0.005,7.601c1.123,0.015,2.247,0.03,3.37,0.045
		c1.454,0.019,3.08,0.084,4.304,0.195c0.165-2.776,0.175-5.096,0.081-7.876C28.694,44.673,26.104,44.793,23.517,44.842z"/>
	<path class="st1" d="M23.637,23.256c0.002,2.479,0.003,5.122,0.005,7.601c1.123,0.015,2.247,0.03,3.37,0.045
		c1.454,0.019,3.08,0.084,4.304,0.195c0.165-2.776,0.175-5.096,0.081-7.876C28.813,23.087,26.224,23.207,23.637,23.256z"/>
	<path class="st1" d="M23.637,34.109c0.002,2.479,0.003,5.122,0.005,7.601c1.123,0.015,2.247,0.03,3.37,0.045
		c1.454,0.019,3.08,0.084,4.304,0.195c0.165-2.776,0.175-5.096,0.081-7.876C28.813,33.94,26.224,34.06,23.637,34.109z"/>
	<path class="st1" d="M23.637,12.165c0.002,2.479,0.003,5.122,0.005,7.601c1.123,0.015,2.247,0.03,3.37,0.045
		c1.454,0.019,3.08,0.084,4.304,0.195c0.165-2.776,0.175-5.096,0.081-7.876C28.813,11.995,26.224,12.115,23.637,12.165z"/>
	<path class="st1" d="M23.279,1.312c0.002,2.479,0.003,5.122,0.005,7.601c1.123,0.015,2.247,0.03,3.37,0.045
		c1.454,0.019,3.08,0.084,4.304,0.195c0.165-2.776,0.175-5.096,0.081-7.876C28.456,1.143,25.866,1.263,23.279,1.312z"/>
	<path class="st0" d="M33.893,99.941c0.002,2.479,0.003,5.122,0.005,7.601c1.123,0.015,2.247,0.03,3.37,0.045
		c1.454,0.019,3.08,0.084,4.304,0.195c0.165-2.776,0.175-5.096,0.081-7.876C39.07,99.772,36.48,99.892,33.893,99.941z"/>
	<path class="st0" d="M34.013,88.373c0.002,2.479,0.003,5.122,0.005,7.601c1.123,0.015,2.247,0.03,3.37,0.045
		c1.454,0.019,3.08,0.084,4.304,0.195c0.165-2.776,0.175-5.096,0.081-7.876C39.189,88.204,36.599,88.324,34.013,88.373z"/>
	<path class="st1" d="M34.251,77.759c0.002,2.479,0.003,5.122,0.005,7.601c1.123,0.015,2.247,0.03,3.37,0.045
		c1.454,0.019,3.08,0.084,4.304,0.195c0.165-2.776,0.175-5.096,0.081-7.876C39.428,77.589,36.838,77.709,34.251,77.759z"/>
	<path class="st0" d="M34.37,66.786c0.002,2.479,0.003,5.122,0.005,7.601c1.123,0.015,2.247,0.03,3.37,0.045
		c1.454,0.019,3.08,0.084,4.304,0.195c0.165-2.776,0.175-5.096,0.081-7.876C39.547,66.617,36.957,66.737,34.37,66.786z"/>
	<path class="st0" d="M34.132,55.814c0.002,2.479,0.003,5.122,0.005,7.601c1.123,0.015,2.247,0.03,3.37,0.045
		c1.454,0.019,3.08,0.084,4.304,0.195c0.165-2.776,0.175-5.096,0.081-7.876C39.308,55.645,36.719,55.765,34.132,55.814z"/>
	<path class="st0" d="M34.49,44.842c0.002,2.479,0.003,5.122,0.005,7.601c1.123,0.015,2.247,0.03,3.37,0.045
		c1.454,0.019,3.08,0.084,4.304,0.195c0.165-2.776,0.175-5.096,0.081-7.876C39.666,44.673,37.076,44.793,34.49,44.842z"/>
	<path class="st1" d="M34.609,23.256c0.002,2.479,0.003,5.122,0.005,7.601c1.123,0.015,2.247,0.03,3.37,0.045
		c1.454,0.019,3.08,0.084,4.304,0.195c0.165-2.776,0.175-5.096,0.081-7.876C39.786,23.087,37.196,23.207,34.609,23.256z"/>
	<path class="st0" d="M34.609,34.109c0.002,2.479,0.003,5.122,0.005,7.601c1.123,0.015,2.247,0.03,3.37,0.045
		c1.454,0.019,3.08,0.084,4.304,0.195c0.165-2.776,0.175-5.096,0.081-7.876C39.786,33.94,37.196,34.06,34.609,34.109z"/>
	<path class="st1" d="M34.609,12.165c0.002,2.479,0.003,5.122,0.005,7.601c1.123,0.015,2.247,0.03,3.37,0.045
		c1.454,0.019,3.08,0.084,4.304,0.195c0.165-2.776,0.175-5.096,0.081-7.876C39.786,11.995,37.196,12.115,34.609,12.165z"/>
	<path class="st1" d="M34.251,1.312c0.002,2.479,0.003,5.122,0.005,7.601c1.123,0.015,2.247,0.03,3.37,0.045
		c1.454,0.019,3.08,0.084,4.304,0.195c0.165-2.776,0.175-5.096,0.081-7.876C39.428,1.143,36.838,1.263,34.251,1.312z"/>
	<path class="st0" d="M44.865,100.18c0.002,2.479,0.003,5.122,0.005,7.601c1.123,0.015,2.247,0.03,3.37,0.045
		c1.454,0.019,3.08,0.084,4.304,0.195c0.165-2.776,0.175-5.096,0.081-7.876C50.042,100.011,47.452,100.13,44.865,100.18z"/>
	<path class="st0" d="M44.985,88.611c0.002,2.479,0.003,5.122,0.005,7.601c1.123,0.015,2.247,0.03,3.37,0.045
		c1.454,0.019,3.08,0.084,4.304,0.195c0.165-2.776,0.175-5.096,0.081-7.876C50.161,88.442,47.572,88.562,44.985,88.611z"/>
	<path class="st1" d="M45.223,77.997c0.002,2.479,0.003,5.122,0.005,7.601c1.123,0.015,2.247,0.03,3.37,0.045
		c1.454,0.019,3.08,0.084,4.304,0.195c0.165-2.776,0.175-5.096,0.081-7.876C50.4,77.828,47.81,77.948,45.223,77.997z"/>
	<path class="st1" d="M45.342,67.025c0.002,2.479,0.003,5.122,0.005,7.601c1.123,0.015,2.247,0.03,3.37,0.045
		c1.454,0.019,3.08,0.084,4.304,0.195c0.165-2.776,0.175-5.096,0.081-7.876C50.519,66.856,47.929,66.976,45.342,67.025z"/>
	<path class="st1" d="M45.104,56.053c0.002,2.479,0.003,5.122,0.005,7.601c1.123,0.015,2.247,0.03,3.37,0.045
		c1.454,0.019,3.08,0.084,4.304,0.195c0.165-2.776,0.175-5.096,0.081-7.876C50.281,55.884,47.691,56.004,45.104,56.053z"/>
	<path class="st0" d="M45.462,45.081c0.002,2.479,0.003,5.122,0.005,7.601c1.123,0.015,2.247,0.03,3.37,0.045
		c1.454,0.019,3.08,0.084,4.304,0.195c0.165-2.776,0.175-5.096,0.081-7.876C50.638,44.912,48.049,45.032,45.462,45.081z"/>
	<path class="st0" d="M45.581,23.495c0.002,2.479,0.003,5.122,0.005,7.601c1.123,0.015,2.247,0.03,3.37,0.045
		c1.454,0.019,3.08,0.084,4.304,0.195c0.165-2.776,0.175-5.096,0.081-7.876C50.758,23.325,48.168,23.445,45.581,23.495z"/>
	<path class="st0" d="M45.581,34.347c0.002,2.479,0.003,5.122,0.005,7.601c1.123,0.015,2.247,0.03,3.37,0.045
		c1.454,0.019,3.08,0.084,4.304,0.195c0.165-2.776,0.175-5.096,0.081-7.876C50.758,34.178,48.168,34.298,45.581,34.347z"/>
	<path class="st0" d="M45.581,12.403c0.002,2.479,0.003,5.122,0.005,7.601c1.123,0.015,2.247,0.03,3.37,0.045
		c1.454,0.019,3.08,0.084,4.304,0.195c0.165-2.776,0.175-5.096,0.081-7.876C50.758,12.234,48.168,12.354,45.581,12.403z"/>
	<path class="st1" d="M45.223,1.55c0.002,2.479,0.003,5.122,0.005,7.601c1.123,0.015,2.247,0.03,3.37,0.045
		c1.454,0.019,3.08,0.084,4.304,0.195c0.165-2.776,0.175-5.096,0.081-7.876C50.4,1.381,47.81,1.501,45.223,1.55z"/>
	<path class="st0" d="M56.314,100.18c0.002,2.479,0.003,5.122,0.005,7.601c1.123,0.015,2.247,0.03,3.37,0.045
		c1.454,0.019,3.08,0.084,4.304,0.195c0.165-2.776,0.175-5.096,0.081-7.876C61.491,100.011,58.901,100.13,56.314,100.18z"/>
	<path class="st1" d="M56.434,88.611c0.002,2.479,0.003,5.122,0.005,7.601c1.123,0.015,2.247,0.03,3.37,0.045
		c1.454,0.019,3.08,0.084,4.304,0.195c0.165-2.776,0.175-5.096,0.081-7.876C61.61,88.442,59.021,88.562,56.434,88.611z"/>
	<path class="st1" d="M56.672,77.997c0.002,2.479,0.003,5.122,0.005,7.601c1.123,0.015,2.247,0.03,3.37,0.045
		c1.454,0.019,3.08,0.084,4.304,0.195c0.165-2.776,0.175-5.096,0.081-7.876C61.849,77.828,59.259,77.948,56.672,77.997z"/>
	<path class="st1" d="M56.791,67.025c0.002,2.479,0.003,5.122,0.005,7.601c1.123,0.015,2.247,0.03,3.37,0.045
		c1.454,0.019,3.08,0.084,4.304,0.195c0.165-2.776,0.175-5.096,0.081-7.876C61.968,66.856,59.378,66.976,56.791,67.025z"/>
	<path class="st1" d="M56.553,56.053c0.002,2.479,0.003,5.122,0.005,7.601c1.123,0.015,2.247,0.03,3.37,0.045
		c1.454,0.019,3.08,0.084,4.304,0.195c0.165-2.776,0.175-5.096,0.081-7.876C61.73,55.884,59.14,56.004,56.553,56.053z"/>
	<path class="st0" d="M56.911,45.081c0.002,2.479,0.003,5.122,0.005,7.601c1.123,0.015,2.247,0.03,3.37,0.045
		c1.454,0.019,3.08,0.084,4.304,0.195c0.165-2.776,0.175-5.096,0.081-7.876C62.087,44.912,59.498,45.032,56.911,45.081z"/>
	<path class="st0" d="M57.03,23.495c0.002,2.479,0.003,5.122,0.005,7.601c1.123,0.015,2.247,0.03,3.37,0.045
		c1.454,0.019,3.08,0.084,4.304,0.195c0.165-2.776,0.175-5.096,0.081-7.876C62.207,23.325,59.617,23.445,57.03,23.495z"/>
	<path class="st0" d="M57.03,34.347c0.002,2.479,0.003,5.122,0.005,7.601c1.123,0.015,2.247,0.03,3.37,0.045
		c1.454,0.019,3.08,0.084,4.304,0.195c0.165-2.776,0.175-5.096,0.081-7.876C62.207,34.178,59.617,34.298,57.03,34.347z"/>
	<path class="st0" d="M57.03,12.403c0.002,2.479,0.003,5.122,0.005,7.601c1.123,0.015,2.247,0.03,3.37,0.045
		c1.454,0.019,3.08,0.084,4.304,0.195c0.165-2.776,0.175-5.096,0.081-7.876C62.207,12.234,59.617,12.354,57.03,12.403z"/>
	<path class="st1" d="M56.672,1.55c0.002,2.479,0.003,5.122,0.005,7.601c1.123,0.015,2.247,0.03,3.37,0.045
		c1.454,0.019,3.08,0.084,4.304,0.195c0.165-2.776,0.175-5.096,0.081-7.876C61.849,1.381,59.259,1.501,56.672,1.55z"/>
	<path class="st1" d="M67.048,99.226c0.002,2.479,0.003,5.122,0.005,7.601c1.123,0.015,2.247,0.03,3.37,0.045
		c1.454,0.019,3.08,0.084,4.304,0.195c0.165-2.776,0.175-5.096,0.081-7.876C72.225,99.056,69.635,99.176,67.048,99.226z"/>
	<path class="st1" d="M67.167,87.657c0.002,2.479,0.003,5.122,0.005,7.601c1.123,0.015,2.247,0.03,3.37,0.045
		c1.454,0.019,3.08,0.084,4.304,0.195c0.165-2.776,0.175-5.096,0.081-7.876C72.344,87.488,69.754,87.608,67.167,87.657z"/>
	<path class="st1" d="M67.406,77.043c0.002,2.479,0.003,5.122,0.005,7.601c1.123,0.015,2.247,0.03,3.37,0.045
		c1.454,0.019,3.08,0.084,4.304,0.195c0.165-2.776,0.175-5.096,0.081-7.876C72.582,76.874,69.993,76.994,67.406,77.043z"/>
	<path class="st0" d="M67.525,66.071c0.002,2.479,0.003,5.122,0.005,7.601c1.123,0.015,2.247,0.03,3.37,0.045
		c1.454,0.019,3.08,0.084,4.304,0.195c0.165-2.776,0.175-5.096,0.081-7.876C72.702,65.902,70.112,66.022,67.525,66.071z"/>
	<path class="st0" d="M67.287,55.099c0.002,2.479,0.003,5.122,0.005,7.601c1.123,0.015,2.247,0.03,3.37,0.045
		c1.454,0.019,3.08,0.084,4.304,0.195c0.165-2.776,0.175-5.096,0.081-7.876C72.463,54.93,69.873,55.05,67.287,55.099z"/>
	<path class="st0" d="M67.644,44.127c0.002,2.479,0.003,5.122,0.005,7.601c1.123,0.015,2.247,0.03,3.37,0.045
		c1.454,0.019,3.08,0.084,4.304,0.195c0.165-2.776,0.175-5.096,0.081-7.876C72.821,43.958,70.231,44.078,67.644,44.127z"/>
	<path class="st1" d="M67.764,22.54c0.002,2.479,0.003,5.122,0.005,7.601c1.123,0.015,2.247,0.03,3.37,0.045
		c1.454,0.019,3.08,0.084,4.304,0.195c0.165-2.776,0.175-5.096,0.081-7.876C72.94,22.371,70.35,22.491,67.764,22.54z"/>
	<path class="st0" d="M67.764,33.393c0.002,2.479,0.003,5.122,0.005,7.601c1.123,0.015,2.247,0.03,3.37,0.045
		c1.454,0.019,3.08,0.084,4.304,0.195c0.165-2.776,0.175-5.096,0.081-7.876C72.94,33.224,70.35,33.344,67.764,33.393z"/>
	<path class="st1" d="M67.764,11.449c0.002,2.479,0.003,5.122,0.005,7.601c1.123,0.015,2.247,0.03,3.37,0.045
		c1.454,0.019,3.08,0.084,4.304,0.195c0.165-2.776,0.175-5.096,0.081-7.876C72.94,11.28,70.35,11.4,67.764,11.449z"/>
	<path class="st1" d="M67.406,0.596c0.002,2.479,0.003,5.122,0.005,7.601c1.123,0.015,2.247,0.03,3.37,0.045
		c1.454,0.019,3.08,0.084,4.304,0.195c0.165-2.776,0.175-5.096,0.081-7.876C72.582,0.427,69.993,0.547,67.406,0.596z"/>
	<path class="st0" d="M77.543,99.226c0.002,2.479,0.003,5.122,0.005,7.601c1.123,0.015,2.247,0.03,3.37,0.045
		c1.454,0.019,3.08,0.084,4.304,0.195c0.165-2.776,0.175-5.096,0.081-7.876C82.72,99.056,80.13,99.176,77.543,99.226z"/>
	<path class="st0" d="M77.662,87.657c0.002,2.479,0.003,5.122,0.005,7.601c1.123,0.015,2.247,0.03,3.37,0.045
		c1.454,0.019,3.08,0.084,4.304,0.195c0.165-2.776,0.175-5.096,0.081-7.876C82.839,87.488,80.249,87.608,77.662,87.657z"/>
	<path class="st0" d="M77.901,77.043c0.002,2.479,0.003,5.122,0.005,7.601c1.123,0.015,2.247,0.03,3.37,0.045
		c1.454,0.019,3.08,0.084,4.304,0.195c0.165-2.776,0.175-5.096,0.081-7.876C83.077,76.874,80.488,76.994,77.901,77.043z"/>
	<path class="st0" d="M78.02,66.071c0.002,2.479,0.003,5.122,0.005,7.601c1.123,0.015,2.247,0.03,3.37,0.045
		c1.454,0.019,3.08,0.084,4.304,0.195c0.165-2.776,0.175-5.096,0.081-7.876C83.197,65.902,80.607,66.022,78.02,66.071z"/>
	<path class="st0" d="M77.782,55.099c0.002,2.479,0.003,5.122,0.005,7.601c1.123,0.015,2.247,0.03,3.37,0.045
		c1.454,0.019,3.08,0.084,4.304,0.195c0.165-2.776,0.175-5.096,0.081-7.876C82.958,54.93,80.368,55.05,77.782,55.099z"/>
	<path class="st1" d="M78.139,44.127c0.002,2.479,0.003,5.122,0.005,7.601c1.123,0.015,2.247,0.03,3.37,0.045
		c1.454,0.019,3.08,0.084,4.304,0.195c0.165-2.776,0.175-5.096,0.081-7.876C83.316,43.958,80.726,44.078,78.139,44.127z"/>
	<path class="st1" d="M78.259,22.54c0.002,2.479,0.003,5.122,0.005,7.601c1.123,0.015,2.247,0.03,3.37,0.045
		c1.454,0.019,3.08,0.084,4.304,0.195c0.165-2.776,0.175-5.096,0.081-7.876C83.435,22.371,80.846,22.491,78.259,22.54z"/>
	<path class="st1" d="M78.259,33.393c0.002,2.479,0.003,5.122,0.005,7.601c1.123,0.015,2.247,0.03,3.37,0.045
		c1.454,0.019,3.08,0.084,4.304,0.195c0.165-2.776,0.175-5.096,0.081-7.876C83.435,33.224,80.846,33.344,78.259,33.393z"/>
	<path class="st1" d="M78.259,11.449c0.002,2.479,0.003,5.122,0.005,7.601c1.123,0.015,2.247,0.03,3.37,0.045
		c1.454,0.019,3.08,0.084,4.304,0.195c0.165-2.776,0.175-5.096,0.081-7.876C83.435,11.28,80.846,11.4,78.259,11.449z"/>
	<path class="st1" d="M77.901,0.596c0.002,2.479,0.003,5.122,0.005,7.601c1.123,0.015,2.247,0.03,3.37,0.045
		c1.454,0.019,3.08,0.084,4.304,0.195c0.165-2.776,0.175-5.096,0.081-7.876C83.077,0.427,80.488,0.547,77.901,0.596z"/>
	<path class="st0" d="M88.992,99.703c0.002,2.479,0.003,5.122,0.005,7.601c1.123,0.015,2.247,0.03,3.37,0.045
		c1.454,0.019,3.08,0.084,4.304,0.195c0.165-2.776,0.175-5.096,0.081-7.876C94.169,99.534,91.579,99.653,88.992,99.703z"/>
	<path class="st0" d="M89.111,88.134c0.002,2.479,0.003,5.122,0.005,7.601c1.123,0.015,2.247,0.03,3.37,0.045
		c1.454,0.019,3.08,0.084,4.304,0.195c0.165-2.776,0.175-5.096,0.081-7.876C94.288,87.965,91.698,88.085,89.111,88.134z"/>
	<path class="st0" d="M89.35,77.52c0.002,2.479,0.003,5.122,0.005,7.601c1.123,0.015,2.247,0.03,3.37,0.045
		c1.454,0.019,3.08,0.084,4.304,0.195c0.165-2.776,0.175-5.096,0.081-7.876C94.527,77.351,91.937,77.471,89.35,77.52z"/>
	<path class="st1" d="M89.469,66.548c0.002,2.479,0.003,5.122,0.005,7.601c1.123,0.015,2.247,0.03,3.37,0.045
		c1.454,0.019,3.08,0.084,4.304,0.195c0.165-2.776,0.175-5.096,0.081-7.876C94.646,66.379,92.056,66.499,89.469,66.548z"/>
	<path class="st1" d="M89.231,55.576c0.002,2.479,0.003,5.122,0.005,7.601c1.123,0.015,2.247,0.03,3.37,0.045
		c1.454,0.019,3.08,0.084,4.304,0.195c0.165-2.776,0.175-5.096,0.081-7.876C94.407,55.407,91.818,55.527,89.231,55.576z"/>
	<path class="st1" d="M89.588,44.604c0.002,2.479,0.003,5.122,0.005,7.601c1.123,0.015,2.247,0.03,3.37,0.045
		c1.454,0.019,3.08,0.084,4.304,0.195c0.165-2.776,0.175-5.096,0.081-7.876C94.765,44.435,92.175,44.555,89.588,44.604z"/>
	<path class="st1" d="M89.708,23.017c0.002,2.479,0.003,5.122,0.005,7.601c1.123,0.015,2.247,0.03,3.37,0.045
		c1.454,0.019,3.08,0.084,4.304,0.195c0.165-2.776,0.175-5.096,0.081-7.876C94.884,22.848,92.295,22.968,89.708,23.017z"/>
	<path class="st1" d="M89.708,33.87c0.002,2.479,0.003,5.122,0.005,7.601c1.123,0.015,2.247,0.03,3.37,0.045
		c1.454,0.019,3.08,0.084,4.304,0.195c0.165-2.776,0.175-5.096,0.081-7.876C94.884,33.701,92.295,33.821,89.708,33.87z"/>
	<path class="st1" d="M89.708,11.926c0.002,2.479,0.003,5.122,0.005,7.601c1.123,0.015,2.247,0.03,3.37,0.045
		c1.454,0.019,3.08,0.084,4.304,0.195c0.165-2.776,0.175-5.096,0.081-7.876C94.884,11.757,92.295,11.877,89.708,11.926z"/>
	<path class="st1" d="M89.35,1.073c0.002,2.479,0.003,5.122,0.005,7.601c1.123,0.015,2.247,0.03,3.37,0.045
		c1.454,0.019,3.08,0.084,4.304,0.195c0.165-2.776,0.175-5.096,0.081-7.876C94.527,0.904,91.937,1.024,89.35,1.073z"/>
	<path class="st0" d="M99.964,99.703c0.002,2.479,0.003,5.122,0.005,7.601c1.123,0.015,2.247,0.03,3.37,0.045
		c1.454,0.019,3.08,0.084,4.304,0.195c0.165-2.776,0.175-5.096,0.081-7.876C105.141,99.534,102.551,99.653,99.964,99.703z"/>
	<path class="st1" d="M100.083,88.134c0.002,2.479,0.003,5.122,0.005,7.601c1.123,0.015,2.247,0.03,3.37,0.045
		c1.454,0.019,3.08,0.084,4.304,0.195c0.165-2.776,0.175-5.096,0.081-7.876C105.26,87.965,102.67,88.085,100.083,88.134z"/>
	<path class="st1" d="M100.322,77.52c0.002,2.479,0.003,5.122,0.005,7.601c1.123,0.015,2.247,0.03,3.37,0.045
		c1.454,0.019,3.08,0.084,4.304,0.195c0.165-2.776,0.175-5.096,0.081-7.876C105.499,77.351,102.909,77.471,100.322,77.52z"/>
	<path class="st1" d="M100.441,66.548c0.002,2.479,0.003,5.122,0.005,7.601c1.123,0.015,2.247,0.03,3.37,0.045
		c1.454,0.019,3.08,0.084,4.304,0.195c0.165-2.776,0.175-5.096,0.081-7.876C105.618,66.379,103.028,66.499,100.441,66.548z"/>
	<path class="st1" d="M100.203,55.576c0.002,2.479,0.003,5.122,0.005,7.601c1.123,0.015,2.247,0.03,3.37,0.045
		c1.454,0.019,3.08,0.084,4.304,0.195c0.165-2.776,0.175-5.096,0.081-7.876C105.379,55.407,102.79,55.527,100.203,55.576z"/>
	<path class="st1" d="M100.561,44.604c0.002,2.479,0.003,5.122,0.005,7.601c1.123,0.015,2.247,0.03,3.37,0.045
		c1.454,0.019,3.08,0.084,4.304,0.195c0.165-2.776,0.175-5.096,0.081-7.876C105.737,44.435,103.147,44.555,100.561,44.604z"/>
	<path class="st1" d="M100.68,23.017c0.002,2.479,0.003,5.122,0.005,7.601c1.123,0.015,2.247,0.03,3.37,0.045
		c1.454,0.019,3.08,0.084,4.304,0.195c0.165-2.776,0.175-5.096,0.081-7.876C105.856,22.848,103.267,22.968,100.68,23.017z"/>
	<path class="st1" d="M100.68,33.87c0.002,2.479,0.003,5.122,0.005,7.601c1.123,0.015,2.247,0.03,3.37,0.045
		c1.454,0.019,3.08,0.084,4.304,0.195c0.165-2.776,0.175-5.096,0.081-7.876C105.856,33.701,103.267,33.821,100.68,33.87z"/>
	<path class="st1" d="M100.68,11.926c0.002,2.479,0.003,5.122,0.005,7.601c1.123,0.015,2.247,0.03,3.37,0.045
		c1.454,0.019,3.08,0.084,4.304,0.195c0.165-2.776,0.175-5.096,0.081-7.876C105.856,11.757,103.267,11.877,100.68,11.926z"/>
	<path class="st1" d="M100.322,1.073c0.002,2.479,0.003,5.122,0.005,7.601c1.123,0.015,2.247,0.03,3.37,0.045
		c1.454,0.019,3.08,0.084,4.304,0.195c0.165-2.776,0.175-5.096,0.081-7.876C105.499,0.904,102.909,1.024,100.322,1.073z"/>
</g>
</svg>