<!-- Generator: Adobe Illustrator 24.2.3, SVG Export Plug-In  -->
<svg version="1.1" xmlns="http://www.w3.org/2000/svg" xmlns:xlink="http://www.w3.org/1999/xlink" x="0px" y="0px"
	 width="154.144px" height="34.933px" viewBox="0 0 154.144 34.933"
	 style="overflow:visible;enable-background:new 0 0 154.144 34.933;" xml:space="preserve">
<style type="text/css">
	.st0{fill:none;stroke:#383838;stroke-width:2;stroke-linejoin:round;}
	.st1{enable-background:new    ;}
	.st2{fill:#383838;}
</style>
<defs>
</defs>
<g id="Group_130_1_" transform="translate(-4661.871 -681.449)">
	<path id="Path_1319_1_" class="st0" d="M4669.098,709.807c12.706,2.055,9.081,0.64,19.458,0.893c25.47,0.621,71.672,0.36,108.324,0
		c4.349,0.01,12.343,3.512,18.135,4.682c-0.57-4.927-3.418-9.023-3.261-12.186c0.227-4.606,0.758-4.779,1.008-10.118
		c0.039-2.918-0.759-5.786-2.3-8.265c-2.837-1.478-5.994-2.24-9.193-2.219c-36.071-0.335-68.8,0.018-105.662,0
		c-9.8-0.005-18.691-0.513-28.563,2.219c-3.813,4.221-4.028,4.021-3.93,8.322c0.027,1.085,0.27,4.064-0.171,5.141
		c-0.356,0.875,0.74,2.309,0.476,3.186c-0.317,1.057,0.225,2.119,0.167,3.18C4663.454,707.052,4665.538,707.675,4669.098,709.807z"
		/>
	<g class="st1">
		<path class="st2" d="M4676.347,702.704c-0.128,0.288-0.24,0.64-0.304,1.04c-0.048,0.16-0.064,0.32-0.064,0.48
			c0,0.063,0,0.144,0.016,0.256c-0.08,0-0.144,0.017-0.208,0.017c-0.352,0-0.576-0.08-0.704-0.209
			c-0.128-0.144-0.192-0.304-0.192-0.496c0-0.111,0.016-0.304,0.08-0.56c0.144-0.513,0.288-0.913,0.448-1.217
			c0.064-0.16,0.128-0.272,0.192-0.304c0.08-0.032,0.176-0.064,0.304-0.064c0.144,0,0.272,0.048,0.368,0.128
			c0.112,0.112,0.192,0.24,0.224,0.368c0.016,0.064,0.032,0.128,0.032,0.16c0,0.08-0.032,0.16-0.08,0.224
			C4676.411,702.56,4676.379,702.624,4676.347,702.704z M4681.405,695.694c0,0.288-0.144,0.448-0.416,0.448
			c-0.16,0-0.352-0.017-0.544-0.049c-0.176-0.031-0.353-0.063-0.512-0.063c-0.24,0-0.592,0.016-1.073,0.048v1.232
			c0.48-0.063,0.769-0.112,0.896-0.144c0.208-0.049,0.336-0.08,0.4-0.08c0.144,0,0.289,0.031,0.417,0.096s0.256,0.16,0.384,0.256
			c0.112,0.097,0.176,0.24,0.176,0.416c0,0.16-0.064,0.288-0.16,0.385c-0.096,0.112-0.224,0.16-0.384,0.16
			c-0.064,0-0.144-0.017-0.272-0.048c-0.112,0-0.208,0-0.304-0.017c-0.112,0-0.24-0.016-0.384-0.016
			c-0.192,0-0.432,0.016-0.736,0.048c0,0.48,0.032,0.88,0.08,1.2c0.384-0.063,0.736-0.111,1.024-0.144
			c0.496-0.064,0.864-0.097,1.12-0.097c0.16,0,0.304,0.064,0.4,0.177c0.048,0.128,0.08,0.256,0.096,0.352
			c0,0.097-0.016,0.177-0.032,0.24c-0.032,0.096-0.112,0.176-0.24,0.208c-0.16,0-0.464,0.048-0.944,0.128
			c-0.496,0.064-1.152,0.177-1.985,0.368c-0.816,0.16-1.424,0.288-1.825,0.385c-0.448,0.128-0.784,0.191-0.992,0.191
			c-0.192,0-0.336-0.063-0.432-0.191c-0.112-0.097-0.16-0.24-0.16-0.448s0.016-0.416,0.064-0.624
			c0.208-0.017,0.544-0.049,1.008-0.112c0.417-0.048,0.977-0.128,1.681-0.256c-0.032-0.16-0.032-0.353-0.032-0.561v-0.688
			c-0.448,0.064-0.785,0.128-1.008,0.176c-0.336,0.097-0.544,0.145-0.608,0.145c-0.128,0-0.24-0.048-0.336-0.16
			c-0.112-0.096-0.192-0.192-0.224-0.304c-0.048-0.097-0.064-0.209-0.064-0.353c0-0.16,0.096-0.304,0.288-0.448
			c0,0.016,0.048,0.032,0.128,0.032c0.032,0.032,0.112,0.032,0.208,0.032c0.08,0.016,0.16,0.016,0.256,0.016
			c0.048,0,0.497-0.048,1.361-0.176v-1.265c-0.368,0.048-0.688,0.096-0.944,0.16c-0.064,0.031-0.128,0.048-0.16,0.048
			c-0.032,0.063-0.08,0.128-0.112,0.16c-0.144,0.112-0.272,0.16-0.4,0.16c-0.208,0-0.368-0.08-0.496-0.208
			c-0.064-0.064-0.112-0.145-0.144-0.24c-0.192-1.152-0.289-2.785-0.289-4.882c0-0.128-0.016-0.225-0.032-0.288
			c-0.032-0.064-0.032-0.129-0.032-0.192c0-0.064,0.048-0.128,0.144-0.192c0.08-0.048,0.192-0.08,0.336-0.08
			c0.16,0,0.352,0.048,0.56,0.145l0.016,0.016c1.376-0.288,2.657-0.448,3.81-0.448c0.256,0,0.528,0.064,0.8,0.16
			c0.256,0.112,0.48,0.256,0.64,0.433c0.144,0.144,0.224,0.336,0.224,0.56c0,0.896-0.048,1.713-0.112,2.449
			c-0.096,0.721-0.176,1.232-0.24,1.537C4681.357,695.581,4681.405,695.646,4681.405,695.694z M4677.195,695.261l0.528-0.063v-2.161
			c0-0.416-0.016-0.801-0.048-1.152c-0.016-0.145-0.016-0.272-0.016-0.368c-0.4,0.08-0.785,0.176-1.137,0.271
			c-0.032,0.017-0.08,0.032-0.144,0.064c0,1.345,0.032,2.241,0.08,2.689c0.016,0.319,0.048,0.592,0.08,0.8
			C4676.779,695.309,4677.003,695.293,4677.195,695.261z M4677.099,692.764c0.112,0.128,0.224,0.353,0.336,0.656
			c0.096,0.305,0.144,0.576,0.144,0.801c0,0.176-0.096,0.288-0.256,0.32c-0.16,0-0.256-0.032-0.288-0.112
			c-0.016-0.048-0.064-0.192-0.128-0.448c-0.064-0.225-0.128-0.416-0.192-0.544c-0.08-0.112-0.145-0.192-0.208-0.24
			c0-0.16,0.016-0.305,0.064-0.433c0.032-0.128,0.112-0.191,0.24-0.191C4676.891,692.573,4676.987,692.636,4677.099,692.764z
			 M4677.74,701.84c0.144,0.191,0.288,0.496,0.416,0.912s0.192,0.784,0.192,1.104c0,0.288-0.16,0.48-0.448,0.561
			c-0.256,0-0.4-0.064-0.464-0.177c-0.016-0.08-0.064-0.288-0.128-0.608c-0.08-0.319-0.16-0.544-0.224-0.688
			c-0.08-0.16-0.144-0.257-0.192-0.32c0-0.288,0.016-0.528,0.08-0.721c0.08-0.208,0.208-0.32,0.4-0.32
			C4677.5,701.583,4677.611,701.68,4677.74,701.84z M4679.404,701.552c0.144,0.208,0.304,0.528,0.464,0.976
			c0.144,0.448,0.224,0.865,0.224,1.217c0,0.288-0.144,0.465-0.432,0.528c-0.224,0-0.352-0.063-0.4-0.176l-0.176-0.704
			c-0.096-0.368-0.192-0.641-0.288-0.816c-0.112-0.192-0.208-0.305-0.288-0.368c0-0.257,0.016-0.465,0.08-0.656
			c0.08-0.192,0.208-0.305,0.368-0.305C4679.084,701.247,4679.244,701.36,4679.404,701.552z M4680.188,692.636
			c-0.032,0.032-0.128,0.208-0.288,0.496c-0.192,0.32-0.384,0.593-0.56,0.801c-0.192,0.224-0.353,0.384-0.48,0.464v0.688
			l0.688-0.064l0.512-0.063c0.016-0.128,0.048-0.288,0.096-0.48c0.176-0.992,0.272-1.937,0.272-2.865
			c-0.016-0.192-0.256-0.288-0.72-0.288c-0.256,0-0.512,0.016-0.736,0.032c0,0.16-0.016,0.384-0.048,0.688
			c-0.048,0.479-0.064,0.896-0.064,1.248v0.208c0.096-0.144,0.208-0.32,0.32-0.544c0.144-0.272,0.24-0.496,0.288-0.673
			c0.016-0.128,0.064-0.191,0.128-0.191c0.16,0,0.32,0.048,0.464,0.112c0.112,0.063,0.176,0.128,0.176,0.224
			C4680.236,692.476,4680.221,692.54,4680.188,692.636z M4681.053,701.247c0.192,0.257,0.384,0.624,0.561,1.121
			c0.176,0.512,0.272,0.96,0.272,1.36c0,0.336-0.176,0.544-0.496,0.608c-0.272,0-0.432-0.064-0.497-0.192l-0.176-0.896
			c-0.096-0.464-0.192-0.8-0.288-1.024c-0.112-0.224-0.208-0.384-0.272-0.48c0-0.208,0.016-0.399,0.08-0.576
			c0.048-0.16,0.144-0.24,0.304-0.24S4680.877,701.039,4681.053,701.247z M4687.775,697.438c0.288,0.128,0.528,0.305,0.72,0.528
			c0.192,0.225,0.304,0.433,0.304,0.656c0,0.4-0.032,1.009-0.096,1.809c-0.08,0.833-0.144,1.601-0.208,2.369v0.256
			c0,0.032-0.016,0.064-0.016,0.097c0.128,0.128,0.192,0.224,0.192,0.32c0,0.352-0.176,0.527-0.496,0.544
			c-0.208,0-0.416-0.032-0.64-0.08s-0.448-0.064-0.641-0.064c-0.272,0-0.72,0.017-1.328,0.08c-0.641,0.032-1.153,0.112-1.569,0.208
			c-0.064,0.017-0.128,0.032-0.16,0.049c-0.032,0.063-0.08,0.128-0.144,0.191c-0.144,0.112-0.288,0.176-0.448,0.176
			c-0.24-0.016-0.416-0.096-0.544-0.224c-0.096-0.064-0.144-0.16-0.176-0.272c-0.16-1.376-0.24-3.297-0.24-5.794
			c0-0.145-0.016-0.256-0.032-0.336c-0.016-0.064-0.016-0.128-0.016-0.225c0-0.063,0.048-0.144,0.144-0.208
			c0.096-0.048,0.224-0.08,0.4-0.08c0.176,0,0.384,0.064,0.608,0.177c0.352-0.064,0.688-0.112,1.008-0.177
			c-0.032-0.448-0.048-1.488-0.048-3.137c0-0.784,0.016-1.889,0.08-3.313c0-0.096-0.016-0.225-0.016-0.368
			c-0.016-0.16-0.032-0.256-0.032-0.32c0-0.32,0.208-0.496,0.624-0.496c0.192,0.016,0.416,0.112,0.705,0.304
			c0.288,0.192,0.448,0.385,0.448,0.561c0,0.064-0.032,0.145-0.08,0.208c-0.048,0.064-0.08,0.096-0.08,0.112
			c-0.096,0.096-0.144,0.272-0.176,0.528c-0.048,0.512-0.08,0.96-0.096,1.345l0.512-0.049l1.521-0.191
			c0.144-0.032,0.24-0.064,0.272-0.064c0.16,0,0.384,0.096,0.656,0.256c0.272,0.192,0.416,0.353,0.416,0.513
			c0,0.384-0.24,0.576-0.688,0.576c-0.064,0-0.224,0-0.448-0.032c-0.224-0.016-0.384-0.032-0.464-0.032
			c-0.192,0-0.464,0.032-0.816,0.064c-0.32,0.032-0.656,0.112-1.008,0.208v0.192c0,0.64,0,1.185,0.016,1.633
			c0,0.464,0.016,0.736,0.032,0.815c0,0.097,0,0.16,0.032,0.209c0,0.08,0.016,0.128,0.032,0.144c0,0.064-0.016,0.128-0.016,0.176
			c0.352-0.031,0.672-0.048,0.992-0.048C4687.151,697.23,4687.487,697.31,4687.775,697.438z M4683.726,702.031
			c0,0.368,0.032,0.673,0.064,0.896c0.16-0.032,0.304-0.048,0.448-0.048c0.384-0.048,0.752-0.08,1.104-0.112
			c0.576-0.048,0.928-0.08,1.072-0.096l0.672-0.096c0.096-0.545,0.16-1.137,0.208-1.809c0.08-0.753,0.128-1.361,0.128-1.81
			c0-0.336-0.24-0.512-0.688-0.512c-0.816,0-1.681,0.128-2.593,0.384c-0.16,0.048-0.304,0.097-0.416,0.128l-0.064,0.032
			C4683.662,700.495,4683.694,701.52,4683.726,702.031z"/>
		<path class="st2" d="M4697.197,691.356c-0.353,0.08-0.721,0.192-1.137,0.32c-0.016,0.08-0.032,0.16-0.064,0.256
			c-0.08,0.224-0.128,0.512-0.128,0.864c-0.032,0.353-0.048,0.816-0.048,1.393v0.336c1.121-0.128,2.193-0.224,3.217-0.304
			c-0.064-0.641-0.128-1.297-0.16-1.985c-0.032-0.56-0.048-1.04-0.048-1.456c0-0.641,0.224-0.977,0.688-1.009
			c0.224,0,0.4,0.048,0.56,0.112c0.32,0.192,0.48,0.432,0.48,0.688c-0.096,0.128-0.16,0.288-0.176,0.464
			c0,0.256,0,0.656,0.016,1.217c0.016,0.64,0.064,1.265,0.128,1.841c1.104-0.097,1.841-0.16,2.209-0.208
			c0.176-0.017,0.528-0.064,1.057-0.16c0.176,0,0.48,0.128,0.896,0.384c0.448,0.288,0.672,0.528,0.672,0.721
			c0,0.399-0.192,0.607-0.576,0.624c-0.224,0-0.48-0.017-0.752-0.08c-0.256-0.048-0.512-0.08-0.736-0.08
			c-0.608,0-1.473,0.048-2.625,0.112c0.16,1.12,0.368,2.112,0.656,2.993c0.64-0.545,1.121-0.929,1.441-1.121
			c0.4-0.239,0.752-0.368,1.072-0.368c0.432,0.032,0.656,0.192,0.656,0.48c0,0.272-0.096,0.48-0.256,0.641
			c-0.192,0.063-0.56,0.288-1.136,0.672c-0.336,0.225-0.752,0.576-1.265,1.057c0.929,2.049,1.841,3.233,2.753,3.602
			c0.064,0,0.176-0.032,0.304-0.064c0.256,0.192,0.4,0.48,0.4,0.833c0,0.399-0.224,0.607-0.672,0.607
			c-0.304,0-0.624-0.128-0.96-0.352c-1.104-0.736-2.065-1.921-2.897-3.554c-0.096,0.096-0.176,0.192-0.272,0.288
			c-0.896,0.896-1.553,1.665-1.985,2.337c-0.08,0.097-0.176,0.208-0.304,0.336c-0.144,0.145-0.336,0.225-0.592,0.225
			c-0.176,0-0.336-0.112-0.464-0.32c-0.144-0.192-0.208-0.433-0.208-0.688c0-0.063,0.016-0.112,0.048-0.176
			c0.032-0.08,0.16-0.256,0.353-0.528c0.304-0.32,0.752-0.769,1.344-1.377c0.417-0.448,0.896-0.928,1.473-1.472
			c-0.416-1.073-0.736-2.386-0.96-3.954l-0.48,0.032c-1.072,0.08-2.049,0.176-2.929,0.288l-0.048,2.417
			c0.192-0.064,0.368-0.112,0.544-0.176c0.833-0.272,1.376-0.417,1.601-0.417c0.368,0.017,0.608,0.128,0.72,0.337
			c0,0.416-0.064,0.656-0.16,0.736c-0.016,0.031-0.289,0.111-0.833,0.239c-0.608,0.192-1.249,0.417-1.889,0.705
			c0,1.216,0.032,2.288,0.128,3.217c0.016,0.208,0.064,0.448,0.144,0.704c0.032,0.097,0.08,0.208,0.112,0.336
			c0.048,0.097,0.08,0.225,0.08,0.368c0,0.16-0.08,0.272-0.208,0.368c-0.128,0.097-0.272,0.145-0.432,0.145
			c-0.784,0-1.168-0.416-1.168-1.248v-1.265c0.016-0.576,0.032-1.249,0.032-2.001c-0.384,0.191-0.752,0.4-1.137,0.608
			c-0.304,0.144-0.688,0.384-1.136,0.72c-0.448-0.16-0.672-0.576-0.705-1.248c0-0.192,0.592-0.561,1.793-1.072
			c0.416-0.192,0.8-0.368,1.185-0.528v-2.722c-0.368,0.064-0.705,0.145-1.009,0.208c-0.304,0.08-0.56,0.145-0.768,0.208
			c-0.208,0.08-0.416,0.112-0.608,0.112c-0.224,0-0.416-0.144-0.608-0.464c-0.192-0.305-0.272-0.561-0.272-0.752
			c0-0.112,0.048-0.177,0.144-0.209c1.121-0.176,2.161-0.336,3.122-0.464c-0.016-0.8-0.032-1.345-0.048-1.601
			c-0.016-0.256-0.048-0.512-0.08-0.736l-0.608,0.256c-0.224,0.112-0.4,0.208-0.561,0.272c-0.176,0.096-0.368,0.128-0.56,0.128
			c-0.448-0.096-0.656-0.336-0.656-0.704c0-0.32,0.08-0.576,0.256-0.769c0.192-0.032,0.384-0.08,0.544-0.128
			c0.512-0.144,1.104-0.336,1.809-0.576c0.672-0.225,1.249-0.416,1.729-0.561c0.448-0.144,0.768-0.224,0.976-0.224
			c0.368,0.191,0.577,0.384,0.641,0.608c0,0.336-0.032,0.528-0.096,0.56C4697.613,691.26,4697.421,691.308,4697.197,691.356z
			 M4704.08,692.573c-0.048,0.159-0.144,0.304-0.304,0.416c-0.128,0.096-0.32,0.128-0.544,0.128c-0.048,0-0.112-0.048-0.176-0.145
			c-0.048-0.063-0.112-0.128-0.208-0.208c-0.416-0.448-0.768-0.784-1.024-0.992c-0.288-0.176-0.432-0.288-0.464-0.353
			c-0.048-0.063-0.064-0.128-0.064-0.191c0-0.145,0.064-0.32,0.224-0.545c0.16-0.239,0.336-0.368,0.496-0.368
			c0.096,0,0.208,0.08,0.352,0.225c0.064,0.063,0.192,0.176,0.384,0.32c0.192,0.144,0.544,0.464,1.056,0.944
			c0.064,0.063,0.144,0.128,0.224,0.176c0.064,0.064,0.112,0.112,0.112,0.145C4704.144,692.3,4704.111,692.444,4704.08,692.573z"/>
		<path class="st2" d="M4708.923,695.389c0.304,0.097,0.577,0.24,0.833,0.4c0.24,0.176,0.368,0.336,0.368,0.48
			c0,0.208-0.048,0.416-0.112,0.608c-0.064,0.191-0.16,0.288-0.289,0.288c-0.064,0-0.16-0.032-0.256-0.128
			c-0.096-0.049-0.24-0.112-0.416-0.209c-0.192-0.08-0.417-0.128-0.688-0.128c-0.128,0-0.256,0.017-0.384,0.032
			c-0.128,0-0.256-0.063-0.384-0.192c-0.112-0.111-0.16-0.304-0.16-0.592c0-0.256,0.064-0.448,0.208-0.544
			c0.128-0.097,0.288-0.145,0.512-0.145C4708.347,695.261,4708.603,695.309,4708.923,695.389z M4708.011,702.416
			c0.16-0.128,0.416-0.32,0.736-0.593c0.304-0.256,0.56-0.448,0.768-0.592c0.176-0.128,0.32-0.192,0.417-0.192
			c0.192,0,0.336,0.08,0.464,0.225c0.064,0.16,0.112,0.304,0.128,0.416c0,0.128-0.016,0.224-0.048,0.288
			c-0.048,0.112-0.144,0.192-0.272,0.256c-0.064,0.032-0.16,0.112-0.32,0.24c-0.176,0.096-0.4,0.32-0.672,0.641
			c-0.272,0.304-0.48,0.544-0.608,0.736c-0.16,0.224-0.272,0.336-0.336,0.336c-0.24-0.017-0.416-0.097-0.528-0.24
			c-0.128-0.128-0.192-0.305-0.192-0.544c0-0.257,0.016-0.513,0.08-0.753C4707.707,702.592,4707.834,702.512,4708.011,702.416z
			 M4709.483,690.507c0.288,0.096,0.56,0.208,0.816,0.368c0.24,0.16,0.368,0.305,0.368,0.433c0,0.224-0.048,0.416-0.112,0.608
			c-0.064,0.208-0.16,0.304-0.288,0.304c-0.064,0-0.144-0.032-0.256-0.112c-0.096-0.048-0.24-0.112-0.417-0.208
			c-0.192-0.063-0.416-0.112-0.688-0.112c-0.128,0-0.256,0.017-0.384,0.032c-0.128,0-0.256-0.063-0.352-0.192
			c-0.128-0.096-0.176-0.288-0.176-0.576c0-0.256,0.064-0.432,0.208-0.527c0.128-0.097,0.288-0.145,0.496-0.145
			C4708.891,690.379,4709.163,690.427,4709.483,690.507z M4711.324,697.87c0.384-0.256,0.88-0.561,1.488-0.912
			c0.576-0.353,1.024-0.577,1.376-0.705c0.304-0.128,0.544-0.191,0.705-0.191c0.352,0.031,0.528,0.16,0.528,0.384
			c0,0.16-0.064,0.288-0.176,0.4c0.144,0.063,0.304,0.128,0.464,0.176c0.304,0.128,0.592,0.225,0.848,0.288
			c0.224,0.064,0.448,0.112,0.672,0.145c0.048,0,0.096,0.016,0.16,0.016c0.032,0.016,0.064,0.016,0.096,0.016
			c0.112,0.049,0.176,0.145,0.176,0.272c0,0.08-0.016,0.176-0.048,0.305c-0.048,0.159-0.112,0.256-0.176,0.319
			c-0.08,0.112-0.192,0.16-0.352,0.16c-0.112,0-0.304-0.048-0.576-0.16c-0.288-0.096-0.656-0.24-1.104-0.448
			c-0.464-0.191-0.8-0.352-0.993-0.464c-0.128-0.063-0.224-0.112-0.272-0.144c-0.336,0.191-0.656,0.384-0.96,0.576
			c-0.352,0.256-0.64,0.479-0.896,0.704c0.48-0.048,0.993-0.097,1.521-0.128c0.576-0.032,1.104-0.049,1.568-0.049
			c0.128,0,0.336,0.017,0.625,0.017c0.272,0,0.432,0.096,0.48,0.272c0,0.191-0.016,0.352-0.048,0.464
			c-0.048,0.128-0.128,0.176-0.224,0.176s-0.224,0-0.4-0.032h-0.88c-0.016,0.049-0.032,0.08-0.032,0.097
			c-0.032,0.128-0.048,0.288-0.048,0.512c0.528-0.016,1.009-0.032,1.457-0.032c0.144,0,0.368,0.017,0.656,0.017
			s0.448,0.096,0.496,0.288c0,0.192-0.016,0.352-0.048,0.464c-0.048,0.128-0.128,0.176-0.24,0.176c-0.096,0-0.224,0-0.384-0.016
			h-0.432c-0.384,0-0.896,0.016-1.537,0.032v1.168c0.112-0.063,0.256-0.16,0.416-0.271c0.288-0.192,0.544-0.353,0.785-0.48
			c0.224-0.128,0.352-0.192,0.416-0.192c0.112,0,0.256,0.049,0.432,0.145c0.128,0.096,0.208,0.208,0.208,0.304
			c0,0.192-0.048,0.336-0.112,0.416c-0.032,0.032-0.16,0.064-0.384,0.145c-0.24,0.064-0.512,0.176-0.816,0.336
			c-0.32,0.16-0.544,0.272-0.672,0.353l-0.208,0.128c0.016,0.063,0.032,0.112,0.048,0.16c0.368-0.048,0.705-0.08,1.024-0.112
			c0.528-0.048,0.88-0.064,1.057-0.064c0.192,0,0.336,0.064,0.464,0.209c0.064,0.128,0.112,0.239,0.128,0.368
			c0,0.128-0.032,0.224-0.096,0.304c-0.064,0.048-0.128,0.08-0.208,0.112c-0.224,0-0.544,0.031-0.928,0.063
			c-0.528,0.032-1.249,0.128-2.177,0.257c-0.96,0.111-1.632,0.191-1.984,0.256c-0.353,0.048-0.625,0.08-0.849,0.08
			c-0.128,0-0.24-0.048-0.32-0.145c-0.096-0.096-0.128-0.224-0.128-0.384c0-0.145,0.016-0.32,0.064-0.528l0.24-0.048
			c0.352-0.032,0.752-0.064,1.185-0.097c0.352-0.031,0.768-0.08,1.265-0.128c-0.032-0.096-0.032-0.176-0.032-0.271
			c0-0.705,0.016-1.201,0.016-1.537v-0.48c-0.608,0.032-1.185,0.097-1.745,0.16c-0.24,0.064-0.384,0.08-0.448,0.08
			c-0.128,0-0.224-0.08-0.32-0.24c-0.096-0.159-0.144-0.319-0.144-0.496c0-0.096,0.048-0.176,0.176-0.208
			c0.8-0.096,1.632-0.16,2.465-0.224c-0.016-0.24-0.032-0.4-0.064-0.465c-0.016-0.063-0.016-0.096-0.016-0.128
			c-0.32,0.032-0.624,0.08-0.928,0.128c-0.16,0.032-0.256,0.049-0.288,0.049c-0.112,0-0.208-0.08-0.304-0.257
			c-0.064-0.128-0.112-0.256-0.112-0.384c-0.192,0.16-0.336,0.272-0.433,0.304c-0.128,0.112-0.256,0.16-0.368,0.16
			c-0.288,0-0.56-0.271-0.816-0.816c0.096-0.063,0.224-0.16,0.352-0.288C4710.716,698.286,4710.94,698.142,4711.324,697.87z
			 M4713.549,691.035c-0.288,0.08-0.624,0.208-1.008,0.368c-0.016,0.08-0.048,0.145-0.096,0.208
			c-0.064,0.192-0.096,0.32-0.128,0.416c-0.336,1.537-0.496,2.609-0.496,3.218c0,0.224,0.08,0.32,0.272,0.32
			s0.448-0.112,0.769-0.368l0.24-0.192c-0.096-0.128-0.16-0.24-0.208-0.32c-0.096-0.128-0.192-0.24-0.272-0.32
			c-0.16-0.063-0.224-0.16-0.224-0.304c0-0.16,0.048-0.32,0.176-0.48c0.096-0.144,0.256-0.224,0.48-0.224
			c0.208,0.048,0.464,0.368,0.768,0.944c0.289,0.624,0.433,1.057,0.448,1.296c0,0.097-0.064,0.225-0.176,0.385
			c-0.16,0.144-0.32,0.208-0.512,0.208c-0.032,0-0.048-0.064-0.064-0.208l-0.048-0.177c-0.48,0.385-0.912,0.576-1.296,0.576
			c-0.896,0-1.36-0.399-1.36-1.216c0-0.704,0.128-1.825,0.416-3.361c-0.256-0.097-0.384-0.288-0.384-0.544
			c0-0.257,0.064-0.465,0.192-0.641l0.256-0.048c0.224-0.048,0.512-0.128,0.833-0.225c0.32-0.063,0.576-0.128,0.784-0.191
			c0.208-0.049,0.368-0.08,0.464-0.08c0.288,0.144,0.448,0.304,0.496,0.464c0,0.272-0.032,0.416-0.08,0.432
			C4713.725,691.003,4713.645,691.02,4713.549,691.035z M4712.236,702.88c-0.16-0.192-0.288-0.4-0.384-0.592
			c-0.112-0.225-0.16-0.385-0.16-0.513s0.032-0.224,0.096-0.288c0.048-0.08,0.144-0.128,0.272-0.144c0.128,0,0.24,0.048,0.368,0.111
			c0.112,0.064,0.176,0.16,0.192,0.257c0,0.031,0,0.096,0.032,0.191c0.016,0.112,0.064,0.208,0.128,0.305l0.144,0.224l0.128,0.128
			c0.048,0.032,0.08,0.097,0.08,0.177c0,0.063-0.064,0.128-0.16,0.224c-0.112,0.112-0.224,0.176-0.352,0.176
			C4712.508,703.136,4712.38,703.04,4712.236,702.88z M4716.03,692.268c-0.208,0.688-0.368,1.473-0.464,2.354
			c-0.048,0.384-0.08,0.736-0.08,1.056c0,0.08,0,0.177,0.016,0.272c-0.08,0.016-0.144,0.016-0.208,0.016
			c-0.352,0-0.576-0.063-0.704-0.224c-0.144-0.128-0.208-0.288-0.208-0.48s0.048-0.561,0.16-1.088
			c0.224-0.944,0.464-1.713,0.704-2.306l0.016-0.031c-0.032,0-0.048,0.016-0.064,0.016c-0.32,0.096-0.512,0.192-0.608,0.256
			c-0.096,0.064-0.16,0.08-0.176,0.08c-0.272,0-0.464-0.271-0.56-0.8l0.048-0.16c0.849-0.288,1.633-0.448,2.353-0.448
			c0.24,0,0.48,0.048,0.705,0.112c0.208,0.063,0.4,0.176,0.576,0.368c0.16,0.191,0.256,0.464,0.256,0.815
			c0,0.961-0.08,1.841-0.24,2.609c-0.176,0.784-0.352,1.345-0.528,1.681c-0.128,0.208-0.272,0.305-0.4,0.305
			s-0.272-0.08-0.448-0.257c-0.208-0.16-0.304-0.304-0.304-0.432c0-0.064,0-0.112,0.032-0.145c0.016-0.032,0.048-0.096,0.112-0.16
			c0.144-0.304,0.304-0.8,0.48-1.488c0.16-0.688,0.24-1.377,0.24-2.064c0-0.288-0.176-0.433-0.497-0.433v0.016
			c0,0.064-0.016,0.129-0.048,0.16C4716.126,691.98,4716.078,692.108,4716.03,692.268z M4719.215,701.264
			c-0.16,0.24-0.304,0.352-0.432,0.352c-0.128,0-0.256-0.048-0.368-0.16c-0.128-0.176-0.192-0.368-0.208-0.592
			c-0.016-0.16-0.016-0.353-0.016-0.561c0-1.024,0.016-1.776,0.016-2.225v-3.569c0-0.385-0.016-0.753-0.048-1.072
			c-0.032-0.32-0.032-0.513-0.032-0.576c0-0.288,0.16-0.448,0.512-0.448c0.144,0,0.304,0.048,0.48,0.144
			c0.16,0.112,0.256,0.225,0.256,0.32c0,0.128-0.016,0.368-0.048,0.704c-0.048,0.448-0.064,0.849-0.064,1.169v3.425
			c0,1.089,0.032,1.938,0.112,2.545C4719.375,700.879,4719.311,701.072,4719.215,701.264z M4721.328,703.025
			c0.016,0.256,0.064,0.544,0.128,0.832l0.096,0.288c0.032,0.096,0.048,0.192,0.048,0.304c0,0.145-0.064,0.257-0.16,0.32
			c-0.128,0.08-0.256,0.128-0.384,0.128c-0.672,0-0.993-0.368-0.993-1.072v-1.057c0.032-0.96,0.048-2.08,0.048-3.377v-5.986
			c0-0.944-0.016-1.553-0.032-1.809c-0.032-0.225-0.048-0.433-0.08-0.625c-0.064-0.159-0.08-0.288-0.08-0.384
			c0-0.144,0.112-0.304,0.352-0.48c0.224-0.191,0.417-0.288,0.576-0.288c0.128,0,0.272,0.049,0.448,0.128
			c0.16,0.097,0.24,0.192,0.24,0.305c0,0.063-0.032,0.224-0.08,0.464c-0.064,0.256-0.112,0.561-0.144,0.944
			c-0.032,0.4-0.032,0.913-0.032,1.537l-0.064,5.906C4721.216,700.575,4721.248,701.871,4721.328,703.025z"/>
		<path class="st2" d="M4728.572,691.243c-0.064,0.096-0.08,0.208-0.08,0.32l-0.08,0.528c0.128,0,0.256-0.017,0.368-0.017
			c0.256,0,0.496,0.032,0.688,0.08c0.224,0.064,0.384,0.16,0.512,0.257c0.128,0.128,0.208,0.288,0.208,0.512
			c0,0.336-0.064,0.704-0.192,1.104c0.096,0.096,0.144,0.16,0.144,0.225c0,0.224-0.112,0.336-0.304,0.336
			c-0.128,0-0.272-0.017-0.417-0.048c-0.144-0.017-0.272-0.032-0.384-0.032c-0.16,0-0.353,0.016-0.577,0.016
			c-0.016,0.048-0.032,0.08-0.032,0.097c-0.064,0.096-0.096,0.208-0.096,0.336l-0.08,0.64c0.512-0.048,1.041-0.128,1.553-0.239
			c0.032-0.032,0.064-0.049,0.096-0.08c0.096,0,0.208,0.016,0.336,0.031c0.096,0.017,0.192,0.08,0.288,0.192
			c0.08,0.096,0.128,0.224,0.128,0.353c0,0.16-0.112,0.271-0.336,0.368c-1.216,0.271-2.593,0.399-4.162,0.399
			c-0.592,0-1.041-0.128-1.329-0.384c-0.32-0.272-0.464-0.688-0.464-1.265c0-0.912,0.048-1.969,0.16-3.169
			c0-0.097,0.016-0.192,0.016-0.288c-0.08-0.048-0.144-0.128-0.208-0.24c-0.128-0.192-0.176-0.336-0.176-0.464
			c0-0.064,0.032-0.112,0.112-0.129c0.608-0.063,1.168-0.128,1.681-0.159l1.473-0.097l1.424-0.08c0.112,0,0.336-0.032,0.656-0.08
			c0.112,0,0.304,0.08,0.561,0.225c0.272,0.191,0.416,0.336,0.416,0.448c0,0.256-0.128,0.384-0.368,0.384
			c-0.16,0-0.304-0.016-0.464-0.048s-0.32-0.048-0.448-0.048C4729.021,691.228,4728.812,691.243,4728.572,691.243z
			 M4725.707,694.797c-0.08,0.032-0.144,0.048-0.192,0.048v0.32c0,0.208,0.048,0.368,0.144,0.464
			c0.096,0.064,0.272,0.096,0.528,0.096c0.32,0,0.625,0,0.945-0.031l0.048-1.089
			C4726.587,694.653,4726.091,694.717,4725.707,694.797z M4726.267,693.948c0.417-0.032,0.833-0.08,1.233-0.112
			c0.64-0.031,1.056-0.063,1.216-0.096c0.032,0,0.096,0,0.192-0.016c0.096-0.257,0.16-0.496,0.16-0.721
			c0-0.128-0.112-0.192-0.336-0.192c-0.641,0-1.265,0.049-1.889,0.145c-0.608,0.112-1.024,0.192-1.249,0.256
			c-0.032,0.288-0.048,0.561-0.048,0.816C4725.803,693.996,4726.043,693.981,4726.267,693.948z M4727.308,692.14v-0.048l0.032-0.801
			c-0.576,0.032-1.057,0.08-1.473,0.112c-0.016,0.064-0.032,0.112-0.048,0.16c-0.064,0.176-0.112,0.384-0.144,0.608
			c-0.016,0.08-0.016,0.144-0.016,0.191C4726.235,692.268,4726.795,692.204,4727.308,692.14z M4727.644,702.608
			c-0.128,0.017-0.24,0.032-0.32,0.032c-0.112,0.08-0.192,0.128-0.256,0.128c-0.288-0.016-0.496-0.096-0.624-0.224
			c-0.24-0.192-0.352-0.624-0.352-1.297c0-1.088-0.016-2.24-0.048-3.457c0-0.096-0.032-0.288-0.064-0.544
			c0-0.208,0.176-0.32,0.561-0.337c0.192,0,0.4,0.064,0.656,0.192l0.128,0.08c2.593-0.353,4.786-0.528,6.547-0.528
			c0.288,0,0.56,0.064,0.784,0.192c0.224,0.112,0.4,0.256,0.544,0.448c0.112,0.176,0.176,0.416,0.176,0.736
			c0,0.64-0.016,1.488-0.048,2.545c0,0.16-0.016,0.32-0.032,0.448c-0.032,0.224-0.064,0.4-0.112,0.528
			c0.096,0.111,0.16,0.208,0.176,0.304c-0.032,0.272-0.144,0.416-0.368,0.416c-0.112,0-0.272-0.032-0.496-0.063
			c-0.256-0.032-0.464-0.048-0.624-0.048c-0.176,0-0.368,0-0.577,0.016c0,0.048-0.016,0.096-0.048,0.144
			c-0.032,0.049-0.048,0.112-0.048,0.177c-0.064,0.288-0.08,0.56-0.08,0.832c0,0.096,0.032,0.16,0.112,0.225
			c0.096,0.031,0.256,0.048,0.512,0.048c0.705,0,1.425-0.112,2.193-0.32c0.064-0.032,0.112-0.064,0.144-0.08
			c0.128,0,0.256,0,0.384,0.032c0.096,0.016,0.208,0.096,0.32,0.224c0.096,0.112,0.16,0.24,0.16,0.4s-0.145,0.304-0.4,0.432
			c-0.833,0.225-1.777,0.337-2.833,0.337c-0.641,0-1.121-0.128-1.441-0.353c-0.336-0.256-0.496-0.656-0.496-1.168
			c0-0.257,0-0.545,0.016-0.865l-0.592,0.032c-0.608,0.032-1.121,0.08-1.537,0.112c-0.016,0.064-0.048,0.128-0.08,0.176
			c-0.064,0.128-0.224,0.32-0.48,0.576c-0.288,0.288-0.688,0.641-1.185,1.041c-0.352,0.288-0.592,0.432-0.752,0.448
			c-0.208,0-0.4-0.097-0.592-0.272c-0.192-0.16-0.272-0.32-0.272-0.48c0-0.096,0-0.191,0.032-0.288
			c0.192-0.08,0.528-0.224,0.976-0.448c0.352-0.208,0.672-0.416,0.928-0.624C4727.964,702.544,4727.772,702.576,4727.644,702.608z
			 M4734.046,698.206c0-0.16-0.032-0.288-0.064-0.4c-0.08-0.144-0.24-0.224-0.464-0.24c-1.696,0.017-3.521,0.177-5.474,0.497
			l-0.688,0.128c-0.032,0.16-0.048,0.319-0.048,0.464v0.08h0.08c0.112,0,0.769-0.048,1.985-0.16
			c1.216-0.096,2.689-0.192,4.418-0.288c0.128,0,0.224-0.016,0.256-0.048V698.206z M4730.861,699.135
			c-1.153,0.096-2.225,0.208-3.202,0.32c-0.144,0.031-0.256,0.048-0.352,0.048c0,0.256,0.016,0.464,0.016,0.656h0.144
			c0.112,0,0.768-0.048,1.953-0.145c1.185-0.096,2.625-0.176,4.354-0.271l0.224-0.032c0.016-0.24,0.032-0.465,0.032-0.688
			c-0.192,0-0.352-0.016-0.448-0.016C4732.926,699.007,4732.014,699.055,4730.861,699.135z M4733.566,700.479
			c-0.641,0-1.537,0.049-2.673,0.112c-1.152,0.097-2.193,0.192-3.153,0.288c-0.16,0.032-0.288,0.048-0.384,0.048
			c0.016,0.288,0.032,0.513,0.064,0.673c0.48-0.017,1.232-0.064,2.257-0.128c1.152-0.064,2.449-0.112,3.89-0.177
			c0.048,0,0.08,0,0.112-0.016v-0.032c0-0.08,0.048-0.191,0.16-0.32c0.032-0.031,0.08-0.176,0.112-0.432
			C4733.791,700.495,4733.662,700.479,4733.566,700.479z M4732.542,690.86c-0.032,0.048-0.064,0.08-0.064,0.096
			c0.32-0.016,0.704-0.048,1.12-0.08c0.849-0.063,1.681-0.144,2.481-0.24c0.256-0.032,0.4-0.063,0.448-0.063
			c0.144,0,0.336,0.08,0.561,0.208c0.224,0.16,0.352,0.304,0.352,0.432c0,0.32-0.192,0.496-0.576,0.496
			c-0.064,0-0.192,0-0.384-0.031c-0.192-0.017-0.32-0.032-0.4-0.032c-0.336,0-0.864,0.016-1.568,0.048h-0.08
			c0.176,0.096,0.4,0.225,0.672,0.368c0.064,0.032,0.112,0.064,0.176,0.096c0.064,0.032,0.096,0.064,0.096,0.064
			c0,0.128-0.016,0.256-0.048,0.353c-0.032,0.128-0.112,0.239-0.224,0.336c-0.112,0.063-0.256,0.08-0.432,0.08
			c-0.048,0-0.096-0.017-0.144-0.064c-0.032-0.032-0.08-0.063-0.145-0.112c-0.352-0.239-0.624-0.416-0.832-0.512
			c-0.224-0.096-0.336-0.16-0.352-0.192c-0.032-0.032-0.048-0.063-0.048-0.096c0-0.064,0.016-0.145,0.048-0.225
			c-0.368,0.032-0.736,0.08-1.121,0.129c-0.064,0.031-0.112,0.031-0.144,0.031c-0.064,0.128-0.096,0.24-0.128,0.336
			c-0.096,0.225-0.144,0.448-0.144,0.641c0,0.064,0,0.145,0.032,0.24c-0.08,0.016-0.144,0.016-0.208,0.016
			c-0.32,0-0.528-0.063-0.656-0.208c-0.128-0.096-0.192-0.24-0.192-0.432c0-0.128,0.064-0.353,0.208-0.704
			c0.288-0.593,0.592-1.089,0.896-1.473c0.144-0.192,0.288-0.32,0.416-0.368c0.064-0.032,0.128-0.049,0.224-0.049
			s0.192,0.032,0.272,0.097c0.096,0.096,0.16,0.176,0.192,0.256c0,0.064,0.016,0.112,0.016,0.145c0,0.08-0.032,0.144-0.064,0.176
			C4732.702,690.683,4732.622,690.763,4732.542,690.86z M4737.408,695.501c0,0.192-0.016,0.353-0.048,0.464
			c-0.032,0.128-0.112,0.177-0.208,0.177c-0.096,0-0.224,0-0.4-0.032h-0.4c-0.384,0-0.945,0.016-1.665,0.048
			s-1.424,0.112-2.097,0.24c-0.176,0.048-0.288,0.08-0.352,0.08c-0.096,0.063-0.192,0.096-0.288,0.096
			c-0.176,0-0.32-0.063-0.417-0.176c-0.08-0.048-0.128-0.112-0.144-0.208c-0.176-0.496-0.256-1.2-0.256-2.129
			c0-0.112-0.016-0.192-0.032-0.256c-0.032-0.049-0.032-0.112-0.032-0.177c0-0.048,0.032-0.096,0.128-0.16
			c0.064-0.031,0.16-0.063,0.288-0.063s0.256,0.032,0.384,0.096c1.601-0.304,3.025-0.464,4.242-0.464c0.24,0,0.448,0.048,0.64,0.144
			c0.192,0.097,0.336,0.208,0.464,0.337c0.128,0.128,0.192,0.271,0.192,0.416c0,0.128-0.016,0.304-0.032,0.528l-0.048,0.688v0.225
			C4737.36,695.421,4737.392,695.469,4737.408,695.501z M4732.238,695.469c0,0.032,0.016,0.064,0.016,0.064
			c0.272-0.032,0.544-0.064,0.8-0.097c-0.016-0.159-0.016-0.384-0.016-0.656c0-0.128,0.016-0.352,0.048-0.672l-0.416,0.096
			c-0.192,0.032-0.352,0.08-0.48,0.112c-0.016,0.048-0.016,0.08-0.016,0.112C4732.174,694.957,4732.206,695.309,4732.238,695.469z
			 M4733.838,694.204c-0.032,0.24-0.048,0.433-0.048,0.593c0,0.271,0,0.464,0.016,0.561l0.432-0.032
			c0.112,0,0.224-0.017,0.336-0.017c-0.016-0.16-0.016-0.416-0.016-0.736c0-0.144,0.016-0.368,0.064-0.688
			c-0.256,0.031-0.512,0.048-0.736,0.08C4733.871,694.044,4733.854,694.124,4733.838,694.204z M4735.359,694.061
			c-0.032,0.224-0.048,0.4-0.048,0.528c0,0.384,0,0.608,0.032,0.672l0.785-0.032c0.016-0.016,0.032-0.031,0.048-0.063
			c0.032-0.145,0.064-0.32,0.08-0.544c0.032-0.192,0.048-0.353,0.048-0.465c0-0.224-0.192-0.336-0.544-0.336
			c-0.128,0-0.24,0.016-0.336,0.016C4735.407,693.901,4735.391,693.981,4735.359,694.061z"/>
		<path class="st2" d="M4752.591,698.574c0,0.368-0.192,0.561-0.544,0.576c-0.225,0-0.465-0.016-0.704-0.08
			c-0.24-0.032-0.465-0.063-0.673-0.063c-0.608,0-1.584,0.048-2.929,0.111c0,1.345,0.048,2.529,0.144,3.586
			c0.017,0.224,0.064,0.48,0.16,0.769c0.032,0.096,0.08,0.208,0.112,0.336c0.032,0.111,0.063,0.24,0.063,0.384
			c0,0.16-0.08,0.305-0.208,0.4c-0.144,0.096-0.304,0.144-0.464,0.144c-0.816,0-1.217-0.448-1.217-1.312v-1.312
			c0.017-0.784,0.032-1.729,0.032-2.816v-0.097c-1.12,0.08-2.064,0.177-2.833,0.305c-0.224,0.048-0.4,0.096-0.561,0.128
			c-0.08,0.016-0.16,0.016-0.224,0.016c-0.16,0.128-0.336,0.192-0.496,0.192c-0.257,0-0.465-0.08-0.608-0.24
			c-0.096-0.064-0.16-0.176-0.192-0.32c-0.16-1.137-0.24-2.753-0.24-4.85c0-0.16-0.016-0.272-0.048-0.353s-0.032-0.16-0.032-0.256
			c0-0.08,0.049-0.16,0.177-0.224c0.096-0.064,0.24-0.097,0.432-0.097c0.208,0,0.433,0.064,0.688,0.176
			c0.064,0.032,0.128,0.064,0.176,0.097c1.312-0.192,2.562-0.353,3.762-0.464c-0.016-0.608-0.032-1.025-0.048-1.249
			c-0.032-0.288-0.048-0.528-0.08-0.752c-0.064-0.208-0.08-0.368-0.08-0.48c0-0.192,0.145-0.384,0.433-0.608
			c0.288-0.24,0.512-0.368,0.704-0.368c0.16,0,0.336,0.064,0.56,0.16c0.192,0.112,0.305,0.24,0.305,0.368
			c0,0.08-0.048,0.24-0.112,0.48c-0.08,0.24-0.128,0.544-0.16,0.912s-0.048,0.832-0.048,1.408c1.12-0.063,2.193-0.111,3.218-0.111
			c0.319,0,0.64,0.08,0.976,0.224c0.32,0.145,0.576,0.32,0.769,0.528c0.176,0.224,0.272,0.464,0.272,0.752
			c0,0.849-0.08,1.633-0.208,2.354c-0.112,0.672-0.225,1.152-0.336,1.456C4752.559,698.462,4752.591,698.527,4752.591,698.574z
			 M4744.924,698.063c0.496-0.032,0.977-0.08,1.44-0.112v-3.378c-0.88,0.097-1.744,0.225-2.593,0.385
			c-0.128,0.016-0.32,0.063-0.608,0.128c-0.192,0.063-0.336,0.096-0.416,0.096c0,1.217,0.032,2.017,0.063,2.417
			c0,0.256,0.017,0.48,0.049,0.641C4743.596,698.174,4744.284,698.111,4744.924,698.063z M4750.159,697.71
			c0.16-0.016,0.479-0.064,0.96-0.145l0.08-0.191c0.272-0.929,0.416-1.809,0.416-2.674c-0.032-0.256-0.32-0.384-0.864-0.384
			c-0.992,0-1.969,0.048-2.929,0.128l-0.064,3.409C4749.006,697.79,4749.806,697.742,4750.159,697.71z"/>
		<path class="st2" d="M4767.807,693.1c-0.063,0.225-0.16,0.497-0.288,0.816c-0.112,0.208-0.592,1.169-1.425,2.865
			c-0.624,1.137-1.248,2.161-1.872,3.073c0.736,0.736,1.456,1.377,2.16,1.921c1.249,0.992,2.177,1.568,2.785,1.761
			c0.097,0,0.177,0.017,0.24,0.017c0.048,0,0.112,0,0.192,0.016c0.288,0.16,0.432,0.352,0.448,0.608c0,0.191-0.08,0.336-0.24,0.432
			c-0.145,0.097-0.336,0.145-0.576,0.145c-0.704-0.032-1.969-0.753-3.794-2.177c-0.736-0.545-1.408-1.072-2.001-1.617
			c-0.063,0.097-0.128,0.192-0.191,0.256c-0.977,1.249-1.825,2.178-2.545,2.785c-0.673,0.576-1.217,0.881-1.601,0.881
			c-0.32-0.016-0.641-0.416-0.993-1.2c0.16-0.049,0.353-0.128,0.608-0.225c0.24-0.144,0.608-0.4,1.121-0.769
			c0.479-0.368,1.168-1.056,2.064-2.097l0.48-0.576c-0.593-0.544-1.121-1.104-1.601-1.664c-1.217-1.409-1.905-2.369-2.065-2.882
			c-0.08-0.128-0.111-0.271-0.111-0.416c0-0.16,0.048-0.288,0.176-0.384c0.16-0.112,0.336-0.177,0.528-0.177
			c0.128,0,0.256,0.017,0.384,0.049l0.288,0.128c0.208,0.64,1.024,1.761,2.465,3.345c0.272,0.305,0.528,0.576,0.784,0.833
			c0.465-0.673,0.929-1.44,1.409-2.273c0.752-1.345,1.28-2.48,1.584-3.409c-0.656,0.032-1.393,0.08-2.208,0.128
			c-2.113,0.128-3.858,0.336-5.234,0.593c-0.305,0.08-0.561,0.144-0.769,0.208c-0.192,0.063-0.4,0.08-0.592,0.08
			c-0.208,0-0.4-0.145-0.561-0.448c-0.192-0.257-0.272-0.496-0.272-0.688c0-0.096,0.048-0.145,0.16-0.176
			c1.505-0.225,2.897-0.385,4.162-0.513c0.688-0.064,1.36-0.112,2.001-0.176l-0.097-0.16c-0.208-0.288-0.384-0.513-0.528-0.656
			c-0.16-0.128-0.304-0.24-0.432-0.336c-0.176-0.064-0.256-0.192-0.256-0.368c0-0.208,0.063-0.417,0.224-0.608
			c0.112-0.176,0.304-0.272,0.592-0.272c0.289,0.048,0.657,0.4,1.089,1.057c0.353,0.561,0.576,0.977,0.641,1.248l0.352-0.031
			c1.857-0.112,3.041-0.192,3.521-0.257c0.16-0.016,0.496-0.063,0.992-0.16c0.16,0,0.433,0.129,0.833,0.353
			c0.416,0.288,0.624,0.513,0.624,0.672c0,0.368-0.192,0.561-0.561,0.577c-0.224,0-0.448-0.017-0.704-0.08
			c-0.224-0.032-0.448-0.064-0.672-0.064C4768.303,693.084,4768.063,693.1,4767.807,693.1z"/>
		<path class="st2" d="M4772.762,695.982c0.032-0.064,0.128-0.192,0.305-0.416c0.176-0.177,0.432-0.433,0.784-0.769
			c0.336-0.336,0.784-0.736,1.328-1.185c0.48-0.416,0.849-0.688,1.072-0.816c0.225-0.128,0.417-0.192,0.561-0.208
			c-0.032-0.064-0.032-0.112-0.032-0.176l-0.031-0.272c-0.593,0.064-1.121,0.112-1.602,0.176c-0.288,0.064-0.544,0.112-0.752,0.145
			c-0.208,0.048-0.4,0.063-0.592,0.063c-0.192,0-0.368-0.128-0.496-0.384c-0.16-0.24-0.24-0.448-0.24-0.608
			c0-0.096,0.048-0.16,0.144-0.176c1.217-0.128,2.354-0.225,3.409-0.305l-0.063-0.464c-0.017-0.032-0.017-0.08-0.017-0.112
			c-0.016-0.031-0.016-0.048-0.016-0.063c0-0.272,0.128-0.416,0.416-0.416c0.225,0,0.416,0.031,0.608,0.08
			c0.225,0.048,0.353,0.128,0.4,0.239c0,0.064-0.017,0.192-0.032,0.385c0,0.08,0,0.176,0.016,0.271
			c1.024-0.063,2.001-0.111,2.962-0.176c0.352-0.016,0.688-0.032,0.992-0.048c0.032-0.048,0.048-0.096,0.08-0.145
			c0.128-0.224,0.208-0.368,0.24-0.432c0.111-0.208,0.304-0.32,0.592-0.32c0.225,0,0.4,0.064,0.496,0.192
			c0.097,0.128,0.145,0.256,0.177,0.384c0,0.032-0.049,0.097-0.112,0.192c-0.017,0.032-0.032,0.048-0.032,0.048l1.04-0.048
			c0.145,0,0.433-0.048,0.865-0.128c0.144,0,0.399,0.111,0.752,0.32c0.353,0.239,0.544,0.432,0.544,0.576
			c0,0.336-0.16,0.512-0.479,0.512c-0.192,0-0.4-0.016-0.625-0.063c-0.224-0.032-0.416-0.064-0.608-0.064
			c-0.512,0-1.184,0.016-2.049,0.048c-0.159,0.336-0.256,0.544-0.271,0.608c-0.048,0.096-0.08,0.176-0.112,0.24
			c-0.128,0.176-0.272,0.256-0.432,0.256c-0.16,0-0.337-0.128-0.513-0.384c-0.192-0.225-0.272-0.4-0.272-0.561
			c0-0.016,0.017-0.048,0.049-0.096l-0.881,0.032c-0.832,0.031-1.601,0.079-2.305,0.128c0,0.063,0,0.128,0.016,0.16
			c0.032,0.239,0.048,0.384,0.048,0.447c0,0.225-0.128,0.368-0.384,0.417c-0.112,0-0.192,0-0.256-0.017
			c-0.032,0.225-0.097,0.4-0.225,0.496c-0.096,0.032-0.24,0.112-0.464,0.24l2.033-0.144l1.056-0.064
			c-0.031-0.016-0.063-0.032-0.063-0.032c-0.192-0.063-0.32-0.111-0.4-0.144c-0.096-0.017-0.16-0.032-0.192-0.032
			c-0.048-0.048-0.063-0.128-0.063-0.24c0-0.176,0.048-0.352,0.176-0.512s0.304-0.257,0.528-0.257c0.144,0,0.304,0.064,0.496,0.192
			c0.225,0.128,0.448,0.32,0.704,0.561c0.128,0.16,0.225,0.288,0.272,0.368c0.96-0.048,2.001-0.097,3.121-0.16
			c0.16-0.016,0.272-0.032,0.32-0.048c0.032-0.017,0.063-0.032,0.128-0.032c0.145,0,0.353,0.08,0.608,0.208
			c0.224,0.16,0.336,0.32,0.352,0.48c-0.016,0.224-0.288,0.336-0.815,0.336c-0.385-0.016-0.673-0.032-0.849-0.032
			c-0.753,0-1.761,0.032-3.041,0.096c-0.017,0.064-0.032,0.112-0.064,0.177c-0.048,0.128-0.08,0.336-0.08,0.608
			c0.992-0.064,2.064-0.128,3.233-0.192c0.144,0,0.24-0.016,0.272-0.032c0.031,0,0.063-0.016,0.128-0.016
			c0.128,0,0.288,0.048,0.496,0.144c0.192,0.145,0.304,0.288,0.304,0.416c0,0.177-0.24,0.272-0.688,0.272
			c-0.336-0.016-0.576-0.032-0.72-0.032c-0.752,0-1.776,0.048-3.058,0.128v0.833c1.024-0.064,2.161-0.145,3.378-0.208
			c0.144,0,0.24-0.017,0.271-0.032c0.032,0,0.064-0.017,0.128-0.017c0.112,0,0.272,0.064,0.497,0.16
			c0.191,0.145,0.288,0.288,0.288,0.417c0,0.176-0.24,0.271-0.688,0.271c-0.32-0.016-0.561-0.032-0.704-0.032
			c-0.785,0-1.841,0.049-3.153,0.129c0,0.063,0.016,0.128,0.016,0.176c0,0.16,0.064,0.352,0.192,0.561l0.56-0.032
			c1.489-0.064,2.434-0.112,2.817-0.145c0.112,0,0.336-0.048,0.673-0.112c0.111,0,0.304,0.097,0.576,0.257
			c0.271,0.191,0.416,0.336,0.416,0.448c0,0.256-0.128,0.399-0.368,0.399c-0.16,0-0.32-0.016-0.48-0.048s-0.32-0.048-0.464-0.048
			c-0.721,0-1.937,0.048-3.634,0.112c-1.696,0.063-3.089,0.176-4.21,0.336l-0.607,0.112c-0.097,0.032-0.177,0.032-0.24,0.032
			c-0.017,0.016-0.017,0.031-0.017,0.031c-0.128,0.257-0.271,0.368-0.448,0.368c-0.224,0-0.399-0.063-0.528-0.208
			c-0.271-0.208-0.399-1.408-0.399-3.585v-0.416c-0.385,0.399-0.688,0.752-0.881,1.04c-0.048,0.064-0.112,0.128-0.176,0.192
			c-0.112,0.128-0.272,0.176-0.48,0.176c-0.16,0-0.288-0.08-0.4-0.256c-0.111-0.16-0.159-0.353-0.159-0.576
			C4772.731,696.093,4772.731,696.045,4772.762,695.982z M4775.564,699.951l1.408-0.24l1.473-0.256
			c0.433-0.064,0.721-0.112,0.88-0.112c0.16,0,0.305,0.063,0.417,0.191c0.063,0.129,0.111,0.24,0.128,0.337
			c0,0.128-0.032,0.24-0.097,0.304c-0.048,0.048-0.111,0.08-0.191,0.096c-0.177,0.017-0.433,0.049-0.753,0.097
			c-0.432,0.063-1.024,0.176-1.776,0.368c-0.384,0.096-0.704,0.176-0.96,0.224c0,0.192,0,0.465,0.031,0.784
			c0.337-0.031,0.688-0.08,1.041-0.111c0.544-0.032,1.024-0.064,1.456-0.064c0.128,0,0.353,0.016,0.656,0.016
			c0.288,0,0.448,0.097,0.496,0.257c0,0.191-0.016,0.352-0.048,0.464c-0.048,0.128-0.128,0.192-0.24,0.192
			c-0.08,0-0.208-0.017-0.399-0.017h-0.417c-0.271,0-0.656,0-1.152,0.032c-0.448,0.032-0.896,0.096-1.328,0.208
			c0.016,0.305,0.032,0.593,0.063,0.849v0.016c0.913-0.08,1.761-0.144,2.562-0.176c0.929-0.064,1.809-0.112,2.673-0.145
			c1.393-0.063,2.273-0.096,2.657-0.111c0.08-0.017,0.208-0.032,0.4-0.064c0.016-0.032,0.032-0.063,0.063-0.08
			c0.08-0.032,0.145-0.271,0.208-0.72h-0.271c-0.305,0-0.736,0-1.297,0.016c-0.576,0.032-1.12,0.096-1.664,0.224
			c-0.16,0.032-0.257,0.064-0.289,0.064c-0.128,0-0.224-0.096-0.319-0.256c-0.097-0.16-0.128-0.32-0.128-0.48
			c0-0.096,0.048-0.176,0.159-0.208c0.593-0.08,1.201-0.144,1.841-0.192c0.608-0.031,1.169-0.063,1.665-0.063h0.353v-0.353
			c0-0.16-0.017-0.304-0.049-0.432c-0.08-0.177-0.239-0.272-0.464-0.288c-0.816,0-1.696,0.111-2.625,0.304
			c-0.24,0.064-0.368,0.08-0.384,0.08c-0.288,0-0.48-0.08-0.593-0.256c-0.096-0.16-0.128-0.385-0.128-0.688l0.064-0.08
			c1.521-0.224,2.785-0.336,3.81-0.336c0.319,0,0.624,0.08,0.88,0.208c0.225,0.128,0.416,0.288,0.561,0.48
			c0.144,0.191,0.224,0.464,0.224,0.815c0,0.48-0.032,1.137-0.08,1.938c0,0.111-0.031,0.224-0.063,0.336
			c-0.032,0.224-0.064,0.384-0.112,0.512c0.064,0.064,0.096,0.129,0.096,0.192c0,0.288-0.144,0.433-0.416,0.448
			c-0.16,0-0.352-0.016-0.544-0.048c-0.176-0.048-0.353-0.064-0.513-0.064c-0.688,0-1.824,0.017-3.393,0.08
			c-1.569,0.048-2.882,0.128-3.922,0.257c-0.225,0.031-0.416,0.063-0.576,0.096c-0.16,0.016-0.288,0.032-0.416,0.032
			c-0.08,0.063-0.16,0.096-0.24,0.128c-0.336,0-0.576-0.08-0.704-0.225c-0.145-0.16-0.208-0.288-0.208-0.416l-0.24-2.865h-0.064
			c-0.144,0-0.256-0.048-0.336-0.16c-0.096-0.08-0.145-0.208-0.145-0.399c0-0.145,0.017-0.337,0.064-0.561l0.256-0.048
			C4774.891,700.063,4775.211,700.015,4775.564,699.951z M4779.677,695.101c-0.016-0.224-0.032-0.384-0.064-0.448
			c-0.031-0.063-0.048-0.128-0.048-0.176v-0.048c-1.072,0.096-2.064,0.176-2.993,0.271c-0.16,0.032-0.288,0.064-0.384,0.064
			c-0.032,0.112-0.032,0.272-0.032,0.48v0.224h0.096c0.145,0,0.977-0.063,2.497-0.191c0.288-0.032,0.608-0.049,0.929-0.08V695.101z
			 M4779.693,695.902c-1.136,0.096-2.192,0.208-3.153,0.32l-0.384,0.048c0,0.271,0,0.496,0.016,0.688h0.112
			c0.145,0,0.977-0.049,2.514-0.177l0.896-0.063V695.902z M4778.845,698.206l0.896-0.064c-0.049-0.128-0.064-0.271-0.064-0.447
			v-0.272c-1.12,0.096-2.145,0.176-3.105,0.272l-0.336,0.048c0.032,0.288,0.064,0.512,0.128,0.656
			C4777.245,698.319,4778.077,698.254,4778.845,698.206z"/>
		<path class="st2" d="M4791.308,691.659c-0.097,0.305-0.225,1.265-0.368,2.897l0.976-0.064l0.608-0.031l0.24-4.114
			c0-0.271,0.16-0.416,0.496-0.416c0.24,0,0.48,0.048,0.721,0.145c0.224,0.08,0.336,0.176,0.336,0.271
			c0,0.097-0.032,0.192-0.08,0.305c-0.08,0.111-0.112,0.24-0.112,0.384l-0.256,3.409c0.112,0.017,0.24,0.017,0.368,0.017
			c0.353,0.016,0.544,0.128,0.608,0.352c0,0.24-0.032,0.433-0.064,0.576c-0.048,0.16-0.144,0.225-0.288,0.225
			c-0.096,0-0.271,0-0.496-0.032h-0.512c-0.272,0-0.656,0.016-1.152,0.032c-0.513,0.016-1.009,0.063-1.489,0.144h-0.016
			c-0.064,0.721-0.112,1.505-0.145,2.337c0.608-0.063,1.137-0.111,1.585-0.111c0.353,0,0.672,0.08,0.944,0.224
			c0.256,0.145,0.464,0.32,0.624,0.544c0.16,0.208,0.24,0.496,0.24,0.881c0,0.832-0.016,1.952-0.032,3.329
			c0,0.192-0.016,0.4-0.016,0.593c-0.032,0.319-0.112,0.576-0.224,0.735c-0.192,0.16-0.448,0.24-0.753,0.272
			c-0.096,0-0.256-0.096-0.448-0.272c-0.191-0.191-0.288-0.352-0.288-0.512c0-0.096,0.048-0.224,0.16-0.353
			c0.064-0.08,0.112-0.528,0.145-1.328c0.031-0.801,0.048-1.553,0.048-2.257c0-0.176-0.032-0.336-0.064-0.464
			c-0.096-0.192-0.256-0.288-0.479-0.305c-0.433,0-0.896,0.064-1.377,0.192l-0.112,0.032c-0.032,0.832-0.032,1.712-0.032,2.625
			c0,0.191,0.017,0.496,0.08,0.896c0.064,0.399,0.145,0.704,0.257,0.896c0.08,0.192,0.128,0.337,0.128,0.4
			c0,0.16-0.064,0.288-0.16,0.385c-0.145,0.096-0.288,0.144-0.433,0.144c-0.448,0-0.752-0.16-0.912-0.448
			c-0.224-0.32-0.336-1.04-0.336-2.161c0-1.984,0.176-5.25,0.544-9.796l0.048-0.72c0-0.192,0.017-0.368,0.017-0.528
			s0.063-0.288,0.208-0.385c0.096-0.063,0.24-0.111,0.448-0.111c0.176,0,0.384,0.08,0.608,0.208c0.208,0.128,0.319,0.24,0.319,0.368
			C4791.419,691.163,4791.372,691.371,4791.308,691.659z M4795.486,692.348c-0.129-0.112-0.177-0.288-0.177-0.528
			c0-0.176,0.032-0.416,0.097-0.736l0.319-0.063c0.385-0.032,0.816-0.08,1.281-0.16c0.496-0.064,1.12-0.192,1.872-0.353
			c0.721-0.128,1.377-0.256,1.969-0.352c0.576-0.097,0.961-0.16,1.153-0.16c0.224,0,0.416,0.096,0.544,0.271
			c0.096,0.145,0.16,0.288,0.176,0.433c0,0.16-0.048,0.288-0.128,0.368c-0.064,0.063-0.145,0.112-0.24,0.144
			c-0.256,0.032-0.592,0.08-1.008,0.145c-0.577,0.08-1.361,0.24-2.354,0.48l-1.889,0.479l-0.064,0.208
			c-0.096,0.288-0.256,1.232-0.448,2.834c0.545-0.272,1.089-0.497,1.602-0.688c0.784-0.257,1.504-0.385,2.16-0.385
			c0.576,0,1.041,0.128,1.377,0.368c0.352,0.24,0.576,0.496,0.672,0.753c0.08,0.288,0.128,0.512,0.128,0.704
			c0,0.96-0.271,2.049-0.816,3.249c-0.288,0.608-0.56,1.152-0.848,1.648c0.256,0.353,0.512,0.656,0.769,0.913
			c0.512,0.479,0.928,0.8,1.264,0.96c0.16,0.032,0.288,0.08,0.385,0.128c0.112,0.064,0.176,0.24,0.176,0.513
			c0,0.144-0.048,0.271-0.128,0.399c-0.064,0.112-0.145,0.24-0.272,0.385c-0.144,0.128-0.32,0.192-0.528,0.192
			c-0.239,0-0.672-0.337-1.28-0.993c-0.336-0.368-0.704-0.832-1.088-1.376c-0.097,0.128-0.177,0.256-0.272,0.384
			c-0.672,0.896-1.152,1.488-1.457,1.793c-0.319,0.288-0.576,0.432-0.736,0.432c-0.464-0.128-0.736-0.576-0.832-1.376l0.32-0.08
			c0.24-0.145,0.544-0.416,0.912-0.816c0.32-0.353,0.721-0.881,1.217-1.617c-0.08-0.096-0.145-0.191-0.192-0.288
			c-0.832-1.28-1.376-2.145-1.633-2.593c-0.288-0.4-0.512-0.72-0.672-0.944l-0.08-0.112l-0.256,0.177c-0.032,0-0.064,0-0.064-0.017
			c-0.128,1.409-0.176,3.058-0.176,4.962c0,0.16,0.016,0.448,0.063,0.833c0.064,0.384,0.129,0.656,0.225,0.848
			c0.08,0.192,0.128,0.305,0.128,0.368c0,0.16-0.048,0.272-0.144,0.353c-0.129,0.096-0.257,0.144-0.4,0.144
			c-0.416,0-0.704-0.144-0.864-0.416c-0.192-0.288-0.288-0.96-0.288-2.017c0-1.841,0.191-4.882,0.576-9.107
			c0.031-0.225,0.048-0.416,0.063-0.593C4795.549,692.412,4795.517,692.38,4795.486,692.348z M4801.007,697.262
			c0.112-0.416,0.177-0.801,0.177-1.137c0-0.448-0.305-0.688-0.896-0.704c-0.288,0-0.673,0.08-1.137,0.208
			c-0.48,0.128-0.912,0.305-1.328,0.561c0.144,0.24,0.319,0.528,0.527,0.864c0.545,0.977,1.089,1.873,1.633,2.689
			C4800.399,698.975,4800.736,698.142,4801.007,697.262z"/>
	</g>
</g>
</svg>