<!-- Generator: Adobe Illustrator 24.1.0, SVG Export Plug-In  -->
<svg version="1.1" xmlns="http://www.w3.org/2000/svg" xmlns:xlink="http://www.w3.org/1999/xlink" x="0px" y="0px"
	 width="192.532px" height="170.683px" viewBox="0 0 192.532 170.683" style="enable-background:new 0 0 192.532 170.683;"
	 xml:space="preserve">
<style type="text/css">
	.st0{fill:none;stroke:#FFFFFF;stroke-linecap:round;stroke-linejoin:round;stroke-miterlimit:10;}
	.st1{fill:none;stroke:#FFFFFF;stroke-miterlimit:10;}
	.st2{fill:#FFFFFF;}
</style>
<defs>
</defs>
<g>
	<path class="st0" d="M76.518,87.031c0.217,7.757,0.435,12.276,0.846,20.025c1.114,21.013,0.454,42.084,0.415,63.127"/>
	<path class="st0" d="M65.922,165.506c0.024,0.833,0.049,1.667,0.073,2.5c-0.649-11.728-0.612-23.482-0.575-35.228
		c0.122-38.732,0.243-77.464,0.365-116.196c1.91-2.267,5.507-3.062,8.191-1.804c0.643,0.301,1.26,0.728,1.593,1.355
		c0.244,0.46,0.316,0.989,0.377,1.507c0.71,6.027,0.509,12.119,0.367,18.187c-0.2,8.533-0.283,17.068-0.249,25.603"/>
	<path class="st0" d="M65.165,59.075c-17.001-1.55-34.003-3.1-51.004-4.65c-0.762-0.069-1.549-0.146-2.218-0.517
		c-0.551-0.306-0.98-0.788-1.397-1.261C7.327,48.994,3.719,45.738,0.5,42.086c3.258-2.332,6.126-4.268,9.384-6.6
		c0.825-0.59,1.69-1.198,2.693-1.351c0.715-0.109,1.443,0.023,2.154,0.155c16.697,3.095,33.393,6.191,50.09,9.286
		c0.05,0.009,0.099,0.029,0.142,0.056"/>
	<path class="st0" d="M64.534,61.582c-8.449,1.633-16.867,3.426-25.247,5.379c-1.41,2.188-2.775,4.343-3.927,6.678
		c-0.234,0.475-0.469,0.985-0.411,1.511c0.053,0.478,0.34,0.894,0.618,1.287c1.169,1.65,2.337,3.299,3.506,4.949
		c0.107,0.151,0.224,0.311,0.397,0.378c0.188,0.073,0.399,0.022,0.595-0.03c7.985-2.12,16.179-3.451,24.424-3.968"/>
	<path class="st0" d="M77.504,29.405c11.564,3.808,21.771,5.916,32.6,9.2c1.18,0.358,2.36,0.748,3.44,1.344
		c2.178,2.617,3.815,4.487,6.586,7.266c-1.589,1.549-3.178,3.098-4.768,4.647c-0.691,0.674-1.411,1.366-2.317,1.697
		c-1.163,0.425-2.451,0.194-3.667-0.041c-11.135-2.158-22.271-4.316-33.406-6.473"/>
	<path class="st1" d="M73.932,61.615c29.187-3.076,58.364-10.517,87.551-13.593c2.639-0.278,5.377-0.546,7.89,0.307
		c2.089,0.71,3.845,2.138,5.532,3.558c5.862,4.935,11.507,10.128,16.912,15.56c-7.327,7.024-14.654,14.047-21.981,21.071
		c-1.275,1.223-2.583,2.468-4.19,3.203c-2.098,0.96-4.49,0.96-6.797,0.942c-28.332-0.221-56.585-5.446-84.917-5.667"/>
	<g>
		<path class="st2" d="M139.613,64.989c-1.236,1.275-2.458,2.537-3.774,3.896c-1.254-1.269-2.487-2.519-3.645-3.691
			c-0.684,0.68-1.361,1.355-2.233,2.223c1.241,1.129,2.526,2.298,3.821,3.475c-1.194,1.238-2.299,2.384-3.319,3.441
			c0.709,0.714,1.378,1.391,2.116,2.135c1.079-1.095,2.209-2.241,3.393-3.441c1.171,1.188,2.313,2.346,3.384,3.43
			c0.744-0.73,1.425-1.4,2.215-2.175c-1.136-1.101-2.303-2.233-3.528-3.419c1.251-1.262,2.487-2.51,3.697-3.729
			C141.094,66.481,140.429,65.81,139.613,64.989z"/>
		<path class="st2" d="M160.636,73.633c-0.108,0.031-0.172,0.192-0.274,0.27c-0.678,0.515-1.325,1.082-2.051,1.518
			c-0.655,0.394-1.002,0.129-0.999-0.644c0-0.092,0.008-0.187,0.031-0.276c0.356-1.362,0.717-2.723,1.072-4.085
			c0.103-0.395,0.266-0.794,0.26-1.19c-0.004-0.26-0.21-0.593-0.428-0.741c-0.113-0.076-0.515,0.124-0.674,0.302
			c-0.281,0.315-0.459,0.718-0.709,1.064c-0.891,1.233-1.755,2.488-2.708,3.672c-0.643,0.798-1.456,1.438-2.467,1.755
			c-1.002,0.314-1.475,0.081-1.792-0.905c-0.107-0.332-0.126-0.693-0.229-1.028c-0.184-0.601,0.042-1.03,0.412-1.508
			c2.428-3.118,4.369-6.509,5.448-10.335c0.242-0.858,0.296-1.787,0.317-2.685c0.017-0.731-0.35-1.345-1.092-1.591
			c-0.745-0.247-1.374,0.076-1.844,0.619c-0.469,0.543-0.928,1.128-1.248,1.765c-1.902,3.792-2.823,7.837-3.025,12.061
			c-0.014,0.287-0.139,0.63-0.331,0.834c-1.344,1.426-2.707,2.835-4.822,3.073c-0.152,0.017-0.411,0.326-0.381,0.426
			c0.054,0.181,0.27,0.379,0.459,0.434c0.215,0.062,0.478,0,0.712-0.049c1.539-0.322,2.697-1.279,3.813-2.305
			c0.193-0.178,0.382-0.361,0.595-0.562c0.16,0.539,0.258,0.994,0.43,1.418c0.482,1.184,1.295,1.59,2.532,1.314
			c1.275-0.283,2.253-1.052,3.09-1.989c0.84-0.937,1.598-1.947,2.426-2.967c-0.105,0.341-0.218,0.618-0.272,0.906
			c-0.178,0.926-0.434,1.851-0.474,2.785c-0.053,1.229,0.971,1.896,2.081,1.356c0.79-0.384,1.486-0.966,2.206-1.485
			c0.237-0.17,0.47-0.393,0.605-0.644c0.095-0.179,0.02-0.448,0.021-0.676C161.094,73.568,160.855,73.57,160.636,73.633z
			 M150.425,65.835c0.419-1.945,1.033-3.837,1.964-5.602c0.341-0.648,0.8-1.246,1.277-1.805c0.164-0.193,0.626-0.352,0.809-0.256
			c0.23,0.123,0.462,0.539,0.434,0.8c-0.109,1.024-0.206,2.073-0.514,3.048c-0.972,3.069-2.546,5.841-4.426,8.444
			c-0.061,0.085-0.136,0.159-0.205,0.239c-0.075-0.025-0.149-0.051-0.224-0.076C149.832,69.03,150.082,67.422,150.425,65.835z"/>
		<path class="st2" d="M162.008,80.422h-31.553c-0.323,0-0.584,0.162-0.584,0.485c0,0.323,0.261,0.485,0.584,0.485h31.553
			c0.323,0,0.584-0.162,0.584-0.485C162.593,80.585,162.331,80.422,162.008,80.422z"/>
	</g>
	<g>
		<path class="st0" d="M75.61,2.178c0.545,0.208,1.005,0.438,1.471,0.789c-0.433,0.289-1.026,0.088-1.527,0.23
			c-0.704,0.199-1.047,1.017-1.065,1.749s0.189,1.458,0.137,2.188c-0.094,1.323-1.006,2.431-1.925,3.388
			c-0.925,0.964-2.035,1.935-3.37,1.964c-0.498,0.011-0.988-0.114-1.471-0.238c-0.602-0.154-1.222-0.317-1.717-0.693
			c-0.291-0.221-0.537-0.513-0.875-0.652c-0.65-0.267-1.369,0.118-1.965,0.489c-0.4,0.249-0.801,0.499-1.201,0.748
			c-0.967,0.602-2.113,1.228-3.185,0.844c-0.105-0.037-0.215-0.094-0.256-0.197c-0.067-0.171,0.091-0.341,0.235-0.456
			c1.423-1.132,2.962-2.12,4.583-2.944c0.713-2.588,2.815-4.553,5.018-6.086c0.372-0.259,0.752-0.512,1.068-0.836
			C69.78,2.247,69.96,2,70.166,1.777c0.872-0.946,2.224-1.424,3.497-1.237C74.594,0.677,75.51,1.241,75.61,2.178z"/>
		<path class="st0" d="M70.099,12.496c0.26,0.337,0.397,0.75,0.529,1.154c0.183,0.559,0.365,1.117,0.548,1.676
			c0.114,0.35,0.229,0.701,0.298,1.063c0.04,0.213,0.065,0.428,0.072,0.644"/>
		<path class="st0" d="M71.473,16.069c0.148,0.061,0.299-0.072,0.452-0.12c0.079-0.025,0.162-0.027,0.245-0.028
			c0.326-0.007,0.653-0.014,0.979-0.021c0.069-0.001,0.165,0.027,0.152,0.094"/>
		<path class="st0" d="M67.021,12.123c0.149,0.887,0.298,1.775,0.447,2.662c0.126,0.751,0.253,1.514,0.17,2.272"/>
		<path class="st0" d="M67.709,16.354c0.404-0.001,0.807-0.003,1.211-0.004c0.195-0.001,0.406,0.004,0.563,0.121"/>
		<path class="st2" d="M73.122,1.748c-0.173-0.142-0.423-0.183-0.632-0.103c-0.234,0.153-0.371,0.453-0.304,0.725
			c0.066,0.271,0.349,0.48,0.625,0.438c0.224-0.034,0.462-0.233,0.487-0.459l0,0C73.335,2.129,73.295,1.89,73.122,1.748z"/>
	</g>
</g>
</svg>