<!-- Generator: Adobe Illustrator 24.1.0, SVG Export Plug-In  -->
<svg version="1.1" xmlns="http://www.w3.org/2000/svg" xmlns:xlink="http://www.w3.org/1999/xlink" x="0px" y="0px"
	 width="139.507px" height="120.307px" viewBox="0 0 139.507 120.307" style="enable-background:new 0 0 139.507 120.307;"
	 xml:space="preserve">
<style type="text/css">
	.st0{fill:none;stroke:#FFFFFF;stroke-miterlimit:10;}
	.st1{fill:none;stroke:#FFFFFF;stroke-linejoin:round;stroke-miterlimit:10;}
</style>
<defs>
</defs>
<g>
	<g>
		<path class="st0" d="M75.151,24.633C58.738,17.093,41.937,9.395,25.341,2.27c-3.604-1.548-6.164-1.425-7.151,0.622
			C12.489,14.722,7.426,26.166,1.725,37.996c-0.946,1.963-1.867,4.4-0.621,6.188c0.646,0.927,1.734,1.424,2.769,1.878
			c1.431,0.628,2.862,1.257,4.294,1.885c9.701,4.259,14.708,6.757,24.324,11.204c1.176,0.544,4.355,2.123,6.381,3.099"/>
		<polygon class="st0" points="75.151,43.235 12.778,14.968 16.009,7.841 74.844,34.505 		"/>
	</g>
	<path class="st0" d="M84.352,0.518c-3.299,0.348-6.565,3.069-8.034,6.009c-1.47,2.941-1.497,6.366-1.493,9.654
		c0.032,29.767,0.064,59.533,0.096,89.3c0.005,4.946,0.652,10.954,5.146,13.02c1.635,0.752,3.495,0.794,5.295,0.824
		c15.68,0.257,29.283,0.224,44.963,0.481c0.886,0.015,3.614-1.36,4.423-1.72c0.887-0.395,1.716-1.254,2.212-2.089
		c1.958-3.295,2.072-5.609,2.043-9.443c-0.221-29.859-0.441-59.718-0.662-89.577c-0.022-2.96-0.047-5.946-0.682-8.837
		c-0.562-2.559-1.744-5.178-4.009-6.494c-1.833-1.066-4.065-1.108-6.186-1.121C113.103,0.438,98.714,0.607,84.352,0.518z"/>
	<g>
		<path class="st0" d="M74.859,47.979C61.572,53.13,48.296,58.306,35.147,63.796c-3.62,1.511-5.313,3.435-4.53,5.568
			c4.527,12.327,9.222,23.927,13.749,36.254c0.751,2.046,1.861,4.403,4.012,4.752c1.116,0.181,2.229-0.254,3.276-0.681
			c1.447-0.59,2.894-1.181,4.342-1.771c7.612-3.106,12.495-4.92,18.921-7.357"/>
		<polygon class="st0" points="35.592,81.647 32.721,74.367 75.151,57.638 75.151,66.05 		"/>
	</g>
	<path class="st1" d="M132.291,99.656c0.006-26.503,0.276-53.265,0.372-79.438c-16.868-0.184-34.469-0.552-51.076-0.73
		c-0.767,21.142-0.499,41.963-0.534,63.119c-0.009,5.284-0.461,11.243-0.142,17.026c8.067,0.392,11.216,0.537,18.849,0.484
		c1.926-0.014,7.212-0.145,9.123,0.092c1.551,0.193,4.097-0.398,5.654-0.256c1.876,0.171,3.761-0.121,5.644-0.09
		C124.458,99.932,128.324,99.931,132.291,99.656z"/>
	<path class="st1" d="M107.901,104.693c-1.843-0.307-2.836-0.024-4.036,0.9c-1.152,0.887-1.831,2.369-1.707,3.817
		c0.124,1.448,1.065,2.809,2.393,3.399c0.668,0.296,1.411,0.402,2.141,0.384c1.116-0.028,2.261-0.367,3.067-1.139
		c0.894-0.857,1.262-2.146,1.279-3.384c0.014-1.011-0.209-2.079-0.895-2.823C109.568,105.223,109.007,104.939,107.901,104.693z"/>
	<path class="st1" d="M101.99,12.418c2.915-0.094,5.937-0.116,8.853-0.071c0.589,0.009,1.278,0.075,1.59,0.575
		c0.119,0.191,0.161,0.419,0.186,0.643c0.042,0.383,0.03,0.802-0.202,1.111c-0.416,0.555-1.335,0.33-2.025,0.4
		c-0.746,0.075-1.338-0.06-2.088-0.045c-0.696,0.014-1.536-0.033-2.397,0.009c-1.4,0.069-2.464-0.052-3.863,0.036
		c-0.295,0.019-0.729-0.161-0.89-0.41c-0.161-0.248-0.205-0.553-0.238-0.847c-0.03-0.271-0.048-0.57,0.112-0.792
		C101.233,12.74,101.559,12.525,101.99,12.418z"/>
	<g>
		<path class="st0" d="M100.441,71.055c-0.238,1.358-0.716,3.823-0.954,5.181c-0.07,0.397-0.095,0.898,0.252,1.103
			c0.156,0.092,0.348,0.093,0.529,0.091c1.593-0.02,3.186-0.057,4.778-0.112c0.078-0.003,0.164-0.008,0.222-0.061
			c0.069-0.062,0.067-0.167,0.077-0.26c0.223-2.032,0.43-3.867,0.775-5.915c0.102-0.604,0.134-1.304,0.681-1.582
			c0.339-0.172,0.739-0.156,1.119-0.139c2.597,0.114,5.339,0.022,7.574-1.305c0.653-0.387,1.243-0.87,1.831-1.351
			c0.295-0.242,0.593-0.485,0.838-0.779c0.422-0.505,0.667-1.132,0.888-1.751c0.291-0.812,0.555-1.64,0.66-2.496
			c0.129-1.053,0.012-2.128-0.271-3.15c-0.129-0.466-0.297-0.932-0.601-1.307c-0.176-0.218-0.393-0.399-0.616-0.568
			c-0.73-0.551-1.047-0.928-1.886-1.18"/>
		<path class="st0" d="M97.968,47.842C97.064,53,96.314,58.13,95.41,63.288c-0.119,0.678-0.238,1.357-0.357,2.035
			c-0.265,1.51-0.529,3.02-0.794,4.53c-0.077,0.441-0.105,0.998,0.28,1.226c0.174,0.103,0.387,0.103,0.588,0.101
			c1.771-0.022,3.543-0.063,5.313-0.125c0.087-0.003,0.182-0.009,0.247-0.067c0.077-0.069,0.075-0.186,0.086-0.289
			c0.248-2.259,0.478-4.3,0.862-6.577c0.113-0.672,0.149-1.45,0.757-1.759c0.377-0.191,0.822-0.173,1.245-0.155
			c2.888,0.127,5.936,0.024,8.422-1.451c0.726-0.431,1.382-0.968,2.036-1.502c0.329-0.269,0.659-0.54,0.931-0.866
			c0.469-0.562,0.741-1.258,0.988-1.947c0.323-0.903,0.618-1.824,0.734-2.776c0.143-1.171,0.013-2.366-0.301-3.503
			c-0.143-0.518-0.33-1.036-0.668-1.454c-0.196-0.242-0.437-0.444-0.685-0.631c-1.959-1.478-4.268-1.832-6.941-1.82
			c-2.941,0.014-5.883,0.098-8.823,0.101c-0.229,0-0.494-0.056-0.679,0.079C98.205,46.764,98.055,47.389,97.968,47.842z"/>
	</g>
</g>
</svg>