<!-- Generator: Adobe Illustrator 24.1.0, SVG Export Plug-In  -->
<svg version="1.1" xmlns="http://www.w3.org/2000/svg" xmlns:xlink="http://www.w3.org/1999/xlink" x="0px" y="0px"
	 width="108.881px" height="107.567px" viewBox="0 0 108.881 107.567" style="enable-background:new 0 0 108.881 107.567;"
	 xml:space="preserve">
<style type="text/css">
	.st0{fill:none;stroke:#FFFFFF;stroke-linejoin:round;stroke-miterlimit:10;}
</style>
<defs>
</defs>
<g>
	<path class="st0" d="M0.5,88.373c0.002,2.479,0.003,5.122,0.005,7.601c1.123,0.015,2.247,0.03,3.37,0.045
		c1.454,0.019,3.08,0.084,4.304,0.195c0.165-2.776,0.175-5.096,0.081-7.876C5.677,88.204,3.087,88.324,0.5,88.373z"/>
	<path class="st0" d="M0.739,77.759c0.002,2.479,0.003,5.122,0.005,7.601c1.123,0.015,2.247,0.03,3.37,0.045
		c1.454,0.019,3.08,0.084,4.304,0.195c0.165-2.776,0.175-5.096,0.081-7.876C5.915,77.589,3.325,77.709,0.739,77.759z"/>
	<path class="st0" d="M0.858,66.786c0.002,2.479,0.003,5.122,0.005,7.601c1.123,0.015,2.247,0.03,3.37,0.045
		c1.454,0.019,3.08,0.084,4.304,0.195c0.165-2.776,0.175-5.096,0.081-7.876C6.034,66.617,3.445,66.737,0.858,66.786z"/>
	<path class="st0" d="M0.619,55.814c0.002,2.479,0.003,5.122,0.005,7.601c1.123,0.015,2.247,0.03,3.37,0.045
		c1.454,0.019,3.08,0.084,4.304,0.195c0.165-2.776,0.175-5.096,0.081-7.876C5.796,55.645,3.206,55.765,0.619,55.814z"/>
	<path class="st0" d="M0.977,44.842c0.002,2.479,0.003,5.122,0.005,7.601c1.123,0.015,2.247,0.03,3.37,0.045
		c1.454,0.019,3.08,0.084,4.304,0.195c0.165-2.776,0.175-5.096,0.081-7.876C6.154,44.673,3.564,44.793,0.977,44.842z"/>
	<path class="st0" d="M1.096,23.256c0.002,2.479,0.003,5.122,0.005,7.601c1.123,0.015,2.247,0.03,3.37,0.045
		c1.454,0.019,3.08,0.084,4.304,0.195c0.165-2.776,0.175-5.096,0.081-7.876C6.273,23.087,3.683,23.207,1.096,23.256z"/>
	<path class="st0" d="M1.096,34.109C1.098,36.588,1.1,39.23,1.102,41.71c1.123,0.015,2.247,0.03,3.37,0.045
		c1.454,0.019,3.08,0.084,4.304,0.195c0.165-2.776,0.175-5.096,0.081-7.876C6.273,33.94,3.683,34.06,1.096,34.109z"/>
	<path class="st0" d="M1.096,12.165c0.002,2.479,0.003,5.122,0.005,7.601c1.123,0.015,2.247,0.03,3.37,0.045
		c1.454,0.019,3.08,0.084,4.304,0.195c0.165-2.776,0.175-5.096,0.081-7.876C6.273,11.995,3.683,12.115,1.096,12.165z"/>
	<path class="st0" d="M0.739,1.312c0.002,2.479,0.003,5.122,0.005,7.601c1.123,0.015,2.247,0.03,3.37,0.045
		c1.454,0.019,3.08,0.084,4.304,0.195c0.165-2.776,0.175-5.096,0.081-7.876C5.915,1.143,3.325,1.263,0.739,1.312z"/>
	<path class="st0" d="M11.83,66.786c0.002,2.479,0.003,5.122,0.005,7.601c1.123,0.015,2.247,0.03,3.37,0.045
		c1.454,0.019,3.08,0.084,4.304,0.195c0.165-2.776,0.175-5.096,0.081-7.876C17.007,66.617,14.417,66.737,11.83,66.786z"/>
	<path class="st0" d="M11.591,55.814c0.002,2.479,0.003,5.122,0.005,7.601c1.123,0.015,2.247,0.03,3.37,0.045
		c1.454,0.019,3.08,0.084,4.304,0.195c0.165-2.776,0.175-5.096,0.081-7.876C16.768,55.645,14.178,55.765,11.591,55.814z"/>
	<path class="st0" d="M11.949,44.842c0.002,2.479,0.003,5.122,0.005,7.601c1.123,0.015,2.247,0.03,3.37,0.045
		c1.454,0.019,3.08,0.084,4.304,0.195c0.165-2.776,0.175-5.096,0.081-7.876C17.126,44.673,14.536,44.793,11.949,44.842z"/>
	<path class="st0" d="M12.068,23.256c0.002,2.479,0.003,5.122,0.005,7.601c1.123,0.015,2.247,0.03,3.37,0.045
		c1.454,0.019,3.08,0.084,4.304,0.195c0.165-2.776,0.175-5.096,0.081-7.876C17.245,23.087,14.655,23.207,12.068,23.256z"/>
	<path class="st0" d="M12.068,34.109c0.002,2.479,0.003,5.122,0.005,7.601c1.123,0.015,2.247,0.03,3.37,0.045
		c1.454,0.019,3.08,0.084,4.304,0.195c0.165-2.776,0.175-5.096,0.081-7.876C17.245,33.94,14.655,34.06,12.068,34.109z"/>
	<path class="st0" d="M12.068,12.165c0.002,2.479,0.003,5.122,0.005,7.601c1.123,0.015,2.247,0.03,3.37,0.045
		c1.454,0.019,3.08,0.084,4.304,0.195c0.165-2.776,0.175-5.096,0.081-7.876C17.245,11.995,14.655,12.115,12.068,12.165z"/>
	<path class="st0" d="M11.711,1.312c0.002,2.479,0.003,5.122,0.005,7.601c1.123,0.015,2.247,0.03,3.37,0.045
		c1.454,0.019,3.08,0.084,4.304,0.195c0.165-2.776,0.175-5.096,0.081-7.876C16.887,1.143,14.298,1.263,11.711,1.312z"/>
	<path class="st0" d="M23.398,44.842c0.002,2.479,0.003,5.122,0.005,7.601c1.123,0.015,2.247,0.03,3.37,0.045
		c1.454,0.019,3.08,0.084,4.304,0.195c0.165-2.776,0.175-5.096,0.081-7.876C28.575,44.673,25.985,44.793,23.398,44.842z"/>
	<path class="st0" d="M23.517,23.256c0.002,2.479,0.003,5.122,0.005,7.601c1.123,0.015,2.247,0.03,3.37,0.045
		c1.454,0.019,3.08,0.084,4.304,0.195c0.165-2.776,0.175-5.096,0.081-7.876C28.694,23.087,26.104,23.207,23.517,23.256z"/>
	<path class="st0" d="M23.517,34.109c0.002,2.479,0.003,5.122,0.005,7.601c1.123,0.015,2.247,0.03,3.37,0.045
		c1.454,0.019,3.08,0.084,4.304,0.195c0.165-2.776,0.175-5.096,0.081-7.876C28.694,33.94,26.104,34.06,23.517,34.109z"/>
	<path class="st0" d="M23.517,12.165c0.002,2.479,0.003,5.122,0.005,7.601c1.123,0.015,2.247,0.03,3.37,0.045
		c1.454,0.019,3.08,0.084,4.304,0.195c0.165-2.776,0.175-5.096,0.081-7.876C28.694,11.995,26.104,12.115,23.517,12.165z"/>
	<path class="st0" d="M23.16,1.312c0.002,2.479,0.003,5.122,0.005,7.601c1.123,0.015,2.247,0.03,3.37,0.045
		c1.454,0.019,3.08,0.084,4.304,0.195c0.165-2.776,0.175-5.096,0.081-7.876C28.336,1.143,25.747,1.263,23.16,1.312z"/>
	<path class="st0" d="M34.132,77.759c0.002,2.479,0.003,5.122,0.005,7.601c1.123,0.015,2.247,0.03,3.37,0.045
		c1.454,0.019,3.08,0.084,4.304,0.195c0.165-2.776,0.175-5.096,0.081-7.876C39.308,77.589,36.719,77.709,34.132,77.759z"/>
	<path class="st0" d="M34.49,23.256c0.002,2.479,0.003,5.122,0.005,7.601c1.123,0.015,2.247,0.03,3.37,0.045
		c1.454,0.019,3.08,0.084,4.304,0.195c0.165-2.776,0.175-5.096,0.081-7.876C39.666,23.087,37.076,23.207,34.49,23.256z"/>
	<path class="st0" d="M34.49,12.165c0.002,2.479,0.003,5.122,0.005,7.601c1.123,0.015,2.247,0.03,3.37,0.045
		c1.454,0.019,3.08,0.084,4.304,0.195c0.165-2.776,0.175-5.096,0.081-7.876C39.666,11.995,37.076,12.115,34.49,12.165z"/>
	<path class="st0" d="M34.132,1.312c0.002,2.479,0.003,5.122,0.005,7.601c1.123,0.015,2.247,0.03,3.37,0.045
		c1.454,0.019,3.08,0.084,4.304,0.195c0.165-2.776,0.175-5.096,0.081-7.876C39.308,1.143,36.719,1.263,34.132,1.312z"/>
	<path class="st0" d="M45.104,77.997c0.002,2.479,0.003,5.122,0.005,7.601c1.123,0.015,2.247,0.03,3.37,0.045
		c1.454,0.019,3.08,0.084,4.304,0.195c0.165-2.776,0.175-5.096,0.081-7.876C50.281,77.828,47.691,77.948,45.104,77.997z"/>
	<path class="st0" d="M45.223,67.025c0.002,2.479,0.003,5.122,0.005,7.601c1.123,0.015,2.247,0.03,3.37,0.045
		c1.454,0.019,3.08,0.084,4.304,0.195c0.165-2.776,0.175-5.096,0.081-7.876C50.4,66.856,47.81,66.976,45.223,67.025z"/>
	<path class="st0" d="M44.985,56.053c0.002,2.479,0.003,5.122,0.005,7.601c1.123,0.015,2.247,0.03,3.37,0.045
		c1.454,0.019,3.08,0.084,4.304,0.195c0.165-2.776,0.175-5.096,0.081-7.876C50.161,55.884,47.572,56.004,44.985,56.053z"/>
	<path class="st0" d="M45.104,1.55c0.002,2.479,0.003,5.122,0.005,7.601c1.123,0.015,2.247,0.03,3.37,0.045
		c1.454,0.019,3.08,0.084,4.304,0.195c0.165-2.776,0.175-5.096,0.081-7.876C50.281,1.381,47.691,1.501,45.104,1.55z"/>
	<path class="st0" d="M56.314,88.611c0.002,2.479,0.003,5.122,0.005,7.601c1.123,0.015,2.247,0.03,3.37,0.045
		c1.454,0.019,3.08,0.084,4.304,0.195c0.165-2.776,0.175-5.096,0.081-7.876C61.491,88.442,58.901,88.562,56.314,88.611z"/>
	<path class="st0" d="M56.553,77.997c0.002,2.479,0.003,5.122,0.005,7.601c1.123,0.015,2.247,0.03,3.37,0.045
		c1.454,0.019,3.08,0.084,4.304,0.195c0.165-2.776,0.175-5.096,0.081-7.876C61.73,77.828,59.14,77.948,56.553,77.997z"/>
	<path class="st0" d="M56.672,67.025c0.002,2.479,0.003,5.122,0.005,7.601c1.123,0.015,2.247,0.03,3.37,0.045
		c1.454,0.019,3.08,0.084,4.304,0.195c0.165-2.776,0.175-5.096,0.081-7.876C61.849,66.856,59.259,66.976,56.672,67.025z"/>
	<path class="st0" d="M56.434,56.053c0.002,2.479,0.003,5.122,0.005,7.601c1.123,0.015,2.247,0.03,3.37,0.045
		c1.454,0.019,3.08,0.084,4.304,0.195c0.165-2.776,0.175-5.096,0.081-7.876C61.61,55.884,59.021,56.004,56.434,56.053z"/>
	<path class="st0" d="M56.553,1.55c0.002,2.479,0.003,5.122,0.005,7.601c1.123,0.015,2.247,0.03,3.37,0.045
		c1.454,0.019,3.08,0.084,4.304,0.195c0.165-2.776,0.175-5.096,0.081-7.876C61.73,1.381,59.14,1.501,56.553,1.55z"/>
	<path class="st0" d="M66.929,99.226c0.002,2.479,0.003,5.122,0.005,7.601c1.123,0.015,2.247,0.03,3.37,0.045
		c1.454,0.019,3.08,0.084,4.304,0.195c0.165-2.776,0.175-5.096,0.081-7.876C72.105,99.056,69.516,99.176,66.929,99.226z"/>
	<path class="st0" d="M67.048,87.657c0.002,2.479,0.003,5.122,0.005,7.601c1.123,0.015,2.247,0.03,3.37,0.045
		c1.454,0.019,3.08,0.084,4.304,0.195c0.165-2.776,0.175-5.096,0.081-7.876C72.225,87.488,69.635,87.608,67.048,87.657z"/>
	<path class="st0" d="M67.287,77.043c0.002,2.479,0.003,5.122,0.005,7.601c1.123,0.015,2.247,0.03,3.37,0.045
		c1.454,0.019,3.08,0.084,4.304,0.195c0.165-2.776,0.175-5.096,0.081-7.876C72.463,76.874,69.873,76.994,67.287,77.043z"/>
	<path class="st0" d="M67.644,22.54c0.002,2.479,0.003,5.122,0.005,7.601c1.123,0.015,2.247,0.03,3.37,0.045
		c1.454,0.019,3.08,0.084,4.304,0.195c0.165-2.776,0.175-5.096,0.081-7.876C72.821,22.371,70.231,22.491,67.644,22.54z"/>
	<path class="st0" d="M67.644,11.449c0.002,2.479,0.003,5.122,0.005,7.601c1.123,0.015,2.247,0.03,3.37,0.045
		c1.454,0.019,3.08,0.084,4.304,0.195c0.165-2.776,0.175-5.096,0.081-7.876C72.821,11.28,70.231,11.4,67.644,11.449z"/>
	<path class="st0" d="M67.287,0.596c0.002,2.479,0.003,5.122,0.005,7.601c1.123,0.015,2.247,0.03,3.37,0.045
		c1.454,0.019,3.08,0.084,4.304,0.195c0.165-2.776,0.175-5.096,0.081-7.876C72.463,0.427,69.873,0.547,67.287,0.596z"/>
	<path class="st0" d="M78.02,44.127c0.002,2.479,0.003,5.122,0.005,7.601c1.123,0.015,2.247,0.03,3.37,0.045
		c1.454,0.019,3.08,0.084,4.304,0.195c0.165-2.776,0.175-5.096,0.081-7.876C83.197,43.958,80.607,44.078,78.02,44.127z"/>
	<path class="st0" d="M78.139,22.54c0.002,2.479,0.003,5.122,0.005,7.601c1.123,0.015,2.247,0.03,3.37,0.045
		c1.454,0.019,3.08,0.084,4.304,0.195c0.165-2.776,0.175-5.096,0.081-7.876C83.316,22.371,80.726,22.491,78.139,22.54z"/>
	<path class="st0" d="M78.139,33.393c0.002,2.479,0.003,5.122,0.005,7.601c1.123,0.015,2.247,0.03,3.37,0.045
		c1.454,0.019,3.08,0.084,4.304,0.195c0.165-2.776,0.175-5.096,0.081-7.876C83.316,33.224,80.726,33.344,78.139,33.393z"/>
	<path class="st0" d="M78.139,11.449c0.002,2.479,0.003,5.122,0.005,7.601c1.123,0.015,2.247,0.03,3.37,0.045
		c1.454,0.019,3.08,0.084,4.304,0.195c0.165-2.776,0.175-5.096,0.081-7.876C83.316,11.28,80.726,11.4,78.139,11.449z"/>
	<path class="st0" d="M77.782,0.596c0.002,2.479,0.003,5.122,0.005,7.601c1.123,0.015,2.247,0.03,3.37,0.045
		c1.454,0.019,3.08,0.084,4.304,0.195c0.165-2.776,0.175-5.096,0.081-7.876C82.958,0.427,80.368,0.547,77.782,0.596z"/>
	<path class="st0" d="M89.35,66.548c0.002,2.479,0.003,5.122,0.005,7.601c1.123,0.015,2.247,0.03,3.37,0.045
		c1.454,0.019,3.08,0.084,4.304,0.195c0.165-2.776,0.175-5.096,0.081-7.876C94.527,66.379,91.937,66.499,89.35,66.548z"/>
	<path class="st0" d="M89.111,55.576c0.002,2.479,0.003,5.122,0.005,7.601c1.123,0.015,2.247,0.03,3.37,0.045
		c1.454,0.019,3.08,0.084,4.304,0.195c0.165-2.776,0.175-5.096,0.081-7.876C94.288,55.407,91.698,55.527,89.111,55.576z"/>
	<path class="st0" d="M89.469,44.604c0.002,2.479,0.003,5.122,0.005,7.601c1.123,0.015,2.247,0.03,3.37,0.045
		c1.454,0.019,3.08,0.084,4.304,0.195c0.165-2.776,0.175-5.096,0.081-7.876C94.646,44.435,92.056,44.555,89.469,44.604z"/>
	<path class="st0" d="M89.588,23.017c0.002,2.479,0.003,5.122,0.005,7.601c1.123,0.015,2.247,0.03,3.37,0.045
		c1.454,0.019,3.08,0.084,4.304,0.195c0.165-2.776,0.175-5.096,0.081-7.876C94.765,22.848,92.175,22.968,89.588,23.017z"/>
	<path class="st0" d="M89.588,33.87c0.002,2.479,0.003,5.122,0.005,7.601c1.123,0.015,2.247,0.03,3.37,0.045
		c1.454,0.019,3.08,0.084,4.304,0.195c0.165-2.776,0.175-5.096,0.081-7.876C94.765,33.701,92.175,33.821,89.588,33.87z"/>
	<path class="st0" d="M89.588,11.926c0.002,2.479,0.003,5.122,0.005,7.601c1.123,0.015,2.247,0.03,3.37,0.045
		c1.454,0.019,3.08,0.084,4.304,0.195c0.165-2.776,0.175-5.096,0.081-7.876C94.765,11.757,92.175,11.877,89.588,11.926z"/>
	<path class="st0" d="M89.231,1.073c0.002,2.479,0.003,5.122,0.005,7.601c1.123,0.015,2.247,0.03,3.37,0.045
		c1.454,0.019,3.08,0.084,4.304,0.195c0.165-2.776,0.175-5.096,0.081-7.876C94.407,0.904,91.818,1.024,89.231,1.073z"/>
	<path class="st0" d="M99.964,88.134c0.002,2.479,0.003,5.122,0.005,7.601c1.123,0.015,2.247,0.03,3.37,0.045
		c1.454,0.019,3.08,0.084,4.304,0.195c0.165-2.776,0.175-5.096,0.081-7.876C105.141,87.965,102.551,88.085,99.964,88.134z"/>
	<path class="st0" d="M100.203,77.52c0.002,2.479,0.003,5.122,0.005,7.601c1.123,0.015,2.247,0.03,3.37,0.045
		c1.454,0.019,3.08,0.084,4.304,0.195c0.165-2.776,0.175-5.096,0.081-7.876C105.379,77.351,102.79,77.471,100.203,77.52z"/>
	<path class="st0" d="M100.322,66.548c0.002,2.479,0.003,5.122,0.005,7.601c1.123,0.015,2.247,0.03,3.37,0.045
		c1.454,0.019,3.08,0.084,4.304,0.195c0.165-2.776,0.175-5.096,0.081-7.876C105.499,66.379,102.909,66.499,100.322,66.548z"/>
	<path class="st0" d="M100.083,55.576c0.002,2.479,0.003,5.122,0.005,7.601c1.123,0.015,2.247,0.03,3.37,0.045
		c1.454,0.019,3.08,0.084,4.304,0.195c0.165-2.776,0.175-5.096,0.081-7.876C105.26,55.407,102.67,55.527,100.083,55.576z"/>
	<path class="st0" d="M100.441,44.604c0.002,2.479,0.003,5.122,0.005,7.601c1.123,0.015,2.247,0.03,3.37,0.045
		c1.454,0.019,3.08,0.084,4.304,0.195c0.165-2.776,0.175-5.096,0.081-7.876C105.618,44.435,103.028,44.555,100.441,44.604z"/>
	<path class="st0" d="M100.561,23.017c0.002,2.479,0.003,5.122,0.005,7.601c1.123,0.015,2.247,0.03,3.37,0.045
		c1.454,0.019,3.08,0.084,4.304,0.195c0.165-2.776,0.175-5.096,0.081-7.876C105.737,22.848,103.147,22.968,100.561,23.017z"/>
	<path class="st0" d="M100.561,33.87c0.002,2.479,0.003,5.122,0.005,7.601c1.123,0.015,2.247,0.03,3.37,0.045
		c1.454,0.019,3.08,0.084,4.304,0.195c0.165-2.776,0.175-5.096,0.081-7.876C105.737,33.701,103.147,33.821,100.561,33.87z"/>
	<path class="st0" d="M100.561,11.926c0.002,2.479,0.003,5.122,0.005,7.601c1.123,0.015,2.247,0.03,3.37,0.045
		c1.454,0.019,3.08,0.084,4.304,0.195c0.165-2.776,0.175-5.096,0.081-7.876C105.737,11.757,103.147,11.877,100.561,11.926z"/>
	<path class="st0" d="M100.203,1.073c0.002,2.479,0.003,5.122,0.005,7.601c1.123,0.015,2.247,0.03,3.37,0.045
		c1.454,0.019,3.08,0.084,4.304,0.195c0.165-2.776,0.175-5.096,0.081-7.876C105.379,0.904,102.79,1.024,100.203,1.073z"/>
</g>
</svg>