<!-- Generator: Adobe Illustrator 24.1.0, SVG Export Plug-In  -->
<svg version="1.1" xmlns="http://www.w3.org/2000/svg" xmlns:xlink="http://www.w3.org/1999/xlink" x="0px" y="0px"
	 width="198.401px" height="82.564px" viewBox="0 0 198.401 82.564" style="enable-background:new 0 0 198.401 82.564;"
	 xml:space="preserve">
<style type="text/css">
	.st0{fill:none;stroke:#FFFFFF;stroke-linecap:round;stroke-linejoin:round;stroke-miterlimit:10;}
	.st1{fill:none;stroke:#FFFFFF;stroke-linecap:round;stroke-linejoin:round;}
	.st2{fill:none;stroke:#FFFFFF;stroke-linecap:round;stroke-linejoin:round;stroke-dasharray:2.0188,4.0375;}
	.st3{fill:#FFFFFF;}
</style>
<defs>
</defs>
<g>
	<path class="st0" d="M194.186,10.347c0.467,1.699,1.414,3.206,2.6,4.51c0.535,0.588,1.179,1.236,1.11,2.029
		c-0.083,0.947-1.102,1.465-1.945,1.904c-1.332,0.693-2.583,1.662-3.253,3.006s-0.632,3.111,0.38,4.219
		c0.183,0.2,0.408,0.411,0.402,0.682c-0.007,0.297-0.286,0.504-0.536,0.663c-1.863,1.185-3.727,2.371-5.59,3.556
		c0.656-0.058,1.139,0.868,0.717,1.373c-0.486-0.593-1.481,0.114-1.594,0.873c-0.113,0.759,0.168,1.568-0.106,2.284
		c-0.358,0.935-1.736,1.271-2.485,0.607c0.922,1.623,1.318,3.541,1.114,5.397c-0.067,0.61-0.828,1.344-1.105,0.796
		c-0.705-1.637-1.409-3.275-2.114-4.912c-1.954,3.574,2.574,7.886,1.426,11.795c-0.672,2.288-3.02,3.557-4.845,5.093
		c-2.48,2.087-4.17,4.939-5.812,7.734c-0.358,0.61-0.727,1.253-0.751,1.96c-0.031,0.913,0.514,1.733,1.015,2.497
		c2.819,4.292,5.013,9.459,3.903,14.473c-0.349,0.157-0.751-0.025-1.081-0.218c-2.616-1.526-4.67-3.993-5.696-6.843
		c-0.475-1.321-0.741-2.726-1.409-3.961s-1.882-2.313-3.285-2.283c-0.774,0.016-1.584,0.36-2.291,0.046
		c-0.378-0.168-0.654-0.499-0.966-0.771c-1.036-0.906-2.48-1.174-3.854-1.245c-2.699-0.139-5.429,0.354-7.908,1.429
		c1.165,0.112,2.297,1.005,2.401,2.171c0.104,1.166-1.137,2.325-2.236,1.923c-0.563-0.206-0.946-0.717-1.416-1.089
		c-0.99-0.784-2.329-0.928-3.589-0.998c-3.402-0.187-6.971-0.008-9.947,1.65c-2.976,1.659-5.151,5.16-4.322,8.465
		c-1.578,0.333-3.924,0.557-4.912-0.718c-0.409-0.528-0.551-1.208-0.702-1.858c-0.504-2.165-1.242-4.276-2.197-6.283
		c-0.538-1.132-1.196-2.285-2.278-2.919c-1.082-0.633-2.692-0.52-3.349,0.548c-0.13,0.212-0.224,0.457-0.42,0.61
		c-0.429,0.333-1.045,0.048-1.505-0.241c-1.235-0.775-2.52-1.604-3.227-2.879c-0.457-0.825-0.632-1.773-0.97-2.654
		c-0.75-1.955-2.349-3.566-4.297-4.332c-1.232-0.484-3.118-0.257-3.243,1.06c-3.434-0.321-7.067-0.716-9.814-2.802
		c-0.735-0.558-1.382-1.221-2.087-1.815c-1.877-1.582-4.172-2.662-6.587-3.1c-0.599-0.109-1.268-0.214-1.641-0.696
		c-0.194-0.251-0.275-0.569-0.366-0.873c-0.673-2.255-2.177-4.253-4.158-5.524c-0.601-0.386-1.265-0.725-1.682-1.305
		c-0.282-0.392-0.428-0.864-0.566-1.327c-1.193-4-2.165-8.066-2.91-12.173c-0.469-2.585-0.817-5.389,0.388-7.723
		c0.396-0.199,0.792-0.399,1.188-0.598c-0.14-7.299,6.9-13.857,5.544-21.03c2.405-0.328,4.585,2.563,3.607,4.785
		c0.43,0.291,0.995-0.244,1.039-0.761c0.044-0.517-0.181-1.029-0.138-1.547c0.082-0.969,1.106-1.632,2.077-1.677
		c0.971-0.045,1.899,0.361,2.8,0.726c4.918,1.99,10.178,2.96,15.405,3.869c10.682,1.858,21.398,3.514,32.113,5.169
		c0.867,0.134,1.733,0.268,2.6,0.402c3.156,0.487,6.312,0.975,9.468,1.462c0.478,1.015-0.798,1.95-1.866,2.293
		c-1.068,0.343-2.422,0.985-2.248,2.094c0.689,0.155,1.344,0.46,2.045,0.547c1.999,0.247,3.732-1.282,5.162-2.701
		c0.388,0.443,0.535,1.086,0.378,1.653c1.35,0.952,3.123,1.28,4.725,0.873c0.873-0.222,1.734-0.653,2.627-0.534
		c0.893,0.119,1.709,1.189,1.165,1.907c-3.047-0.819-6.569,0.908-7.786,3.819c0.778-0.177,0.976,1.034,0.833,1.819
		c-0.347,1.916-0.363,3.892-0.046,5.814c0.058,0.354,0.138,0.727,0.381,0.991c0.5,0.544,1.47,0.332,1.943-0.237
		s0.579-1.348,0.649-2.084c0.212-2.234,0.261-4.484,0.148-6.725c0.451,0.133,0.902,0.266,1.353,0.399
		c0.057-1.024,0.579-2.069,1.498-2.523c0.919-0.454,2.218-0.12,2.622,0.823c0.671,1.565-1.282,3.113-1.23,4.815
		c0.718,0.332,1.113-0.957,1.853-1.235c0.928-0.348,1.545,0.998,1.527,1.989c-0.029,1.599-0.399,3.191-1.079,4.638
		c0.455,0.438,1.014,0.767,1.618,0.952c2.834-0.922,5.692-2.532,7.84-4.599c-0.482-0.515-0.814-1.169-0.943-1.863
		c1.571-0.098,3.141-0.196,4.712-0.294c0.603-0.038,1.305-0.135,1.602-0.66c0.397-0.703-0.239-1.526-0.364-2.324
		c-0.157-0.998,0.548-1.966,1.426-2.466c0.878-0.5,1.906-0.644,2.898-0.839c2.179-0.427,4.302-1.139,6.299-2.111
		c0.744-2.518,1.489-5.036,2.233-7.554c0.185,0.478,0.371,0.955,0.556,1.433C193.329,11.205,193.993,10.835,194.186,10.347z"/>
	<path class="st0" d="M23.608,37.911c0.007,0.249,0.036,0.51,0.043,0.759c0.273,0.375,1.095,0.314,1.045,0.775
		c-0.034,0.318-0.469,0.355-0.782,0.422c-1.129,0.24-1.398,1.705-1.425,2.859c-0.015,0.619-0.024,1.265,0.246,1.822
		c0.119,0.245,0.29,0.471,0.336,0.74c0.045,0.267-0.042,0.538-0.127,0.795c-0.292,0.876-0.585,1.753-0.877,2.629
		c-0.267,0.802-0.544,1.621-1.062,2.289c-0.337,0.434-0.787,0.833-0.866,1.377c-0.041,0.285,0.028,0.574,0.048,0.861
		c0.045,0.627-0.144,1.244-0.32,1.848c-0.937,3.205-1.598,6.492-1.971,9.81c-0.038,0.335-0.074,0.677-0.212,0.985
		c-0.151,0.338-0.412,0.611-0.654,0.891c-0.758,0.876-1.368,1.879-1.798,2.954c-0.101,0.253-0.194,0.513-0.346,0.739
		c-0.186,0.275-0.45,0.486-0.7,0.704c-2.491,2.177-3.812,5.62-3.417,8.905c0.059,0.487,0.148,1.003-0.053,1.451
		s-0.84,0.728-1.194,0.389c-0.124-0.118-0.191-0.29-0.329-0.392s-0.398-0.06-0.401,0.111c-0.129-1.594-0.422-3.174-0.872-4.708
		c-0.194-0.659-0.463-1.368-1.064-1.7c-0.449-0.248-0.996-0.234-1.476-0.413c-0.933-0.347-1.442-1.33-1.866-2.231
		c-0.433-0.922-0.866-1.844-1.3-2.766c-0.371-0.79-0.75-1.68-0.474-2.508c-0.564-0.113-0.976-0.632-1.133-1.185
		c-0.157-0.553-0.108-1.141-0.058-1.714c0.025-0.283,0.052-0.574,0.185-0.825c0.114-0.215,0.297-0.384,0.43-0.587
		c0.591-0.904,0.046-2.091,0.047-3.171c0.001-1.018,0.503-1.96,0.993-2.853c2.061-3.76,4.122-7.52,6.182-11.281
		c0.217-0.396,0.451-0.81,0.838-1.043c0.198-0.119,0.424-0.182,0.625-0.295c0.776-0.435,0.973-1.434,1.266-2.274
		c0.967-2.771,3.968-4.681,6.888-4.383c-0.015-0.462-0.03-0.924-0.046-1.385c0.311-0.596,1.194-0.631,1.781-0.303
		c0.587,0.328,0.994,0.897,1.506,1.333s1.259,0.741,1.848,0.417C23.25,37.673,23.48,37.785,23.608,37.911z"/>
	<g>
		<g>
			<path class="st1" d="M16.887,44.516c0,0,0.007-0.357,0.087-0.991"/>
			<path class="st2" d="M17.859,39.592c1.845-5.816,7.184-15.341,22.614-20.407c19.434-6.379,32.274,0.864,37.225,4.608"/>
			<path class="st1" d="M79.267,25.075c0.48,0.427,0.724,0.684,0.724,0.684"/>
		</g>
	</g>
	<circle class="st3" cx="80.253" cy="28.77" r="3.57"/>
	<circle class="st3" cx="16.169" cy="44.291" r="3.57"/>
</g>
</svg>