<!-- Generator: Adobe Illustrator 24.2.3, SVG Export Plug-In  -->
<svg version="1.1" xmlns="http://www.w3.org/2000/svg" xmlns:xlink="http://www.w3.org/1999/xlink" x="0px" y="0px"
	 width="278.983px" height="277.207px" viewBox="0 0 278.983 277.207"
	 style="overflow:visible;enable-background:new 0 0 278.983 277.207;" xml:space="preserve">
<style type="text/css">
	.st0{fill:#FFFFFF;}
</style>
<defs>
</defs>
<g id="Group_6_1_">
	<g id="Group_5_1_">
		<g id="Group_4_1_">
			<path id="Path_6_1_" class="st0" d="M198.622,261.718h-0.061c-4.366-0.036-7.877-3.602-7.845-7.968
				c0.092-11.729,0.239-29.449-3.012-40.39c-1.953-6.025-4.326-11.906-7.1-17.6c-2.308-5.058-4.694-10.285-6.617-15.79
				c-5.6-16.053-5.073-30.955,1.5-41.966c6.556-10.987,18.979-18.137,34.847-20.3c-3.413-1.309-6.831-2.626-10.254-3.949
				c-5.8-2.24-11.6-4.483-17.373-6.652c-1.597-0.598-2.957-1.698-3.876-3.135c-6.772-10.563-14.2-20.817-22.632-24.3
				C140.517,73.19,117.342,69.58,99.37,78.88c-6.52,3.378-11.238,8.675-16.7,14.814l-3.6,4c-6.583,7.177-11.926,16.466-17.1,25.453
				l-0.541,0.942c-1.961,3.406-3.633,6.981-5.308,10.552c-2.857,6.073-5.811,12.358-10.1,18.141
				c-6.941,9.351-14.933,15.08-23.391,21.149l-4.487,3.243c-3.538,2.561-8.482,1.769-11.043-1.768
				c-2.54-3.508-1.785-8.406,1.693-10.988l4.621-3.336c7.748-5.559,14.443-10.362,19.91-17.72c3.351-4.525,5.848-9.829,8.489-15.45
				c1.811-3.85,3.683-7.834,5.915-11.71l0.54-0.938c5.336-9.277,11.385-19.794,19.141-28.256l3.444-3.83
				c5.961-6.7,12.123-13.621,21.242-18.346c19.361-10.011,45.563-9.93,70.136,0.216c12.277,5.073,21.149,16.925,28.477,28.172
				c5.011,1.9,10.037,3.837,15.072,5.783c5.8,2.239,11.6,4.482,17.373,6.652c4.663,1.753,10.3,5.59,12.115,11.1
				c1.143,3.371,0.67,7.08-1.282,10.057c-3.8,5.915-10.748,5.976-13.713,6c-14.655,0.128-26.33,5.1-31.218,13.293
				c-5.567,9.335-2.478,21.959-0.139,28.654c1.676,4.81,3.815,9.481,6.069,14.423c3.084,6.368,5.716,12.944,7.876,19.682
				c3.915,13.2,3.76,32.345,3.66,45.008C206.486,258.212,202.961,261.714,198.622,261.718z"/>
			<path id="Path_7_1_" class="st0" d="M112.624,97.954c1.32-3.049,4.091-5.674,7.4-5.918l4.321-0.469
				c5.872-1.213,8.992,1.393,12.668,6.128c2.05,2.64,2.264,6.22,2.4,9.56c0.189,1.332-0.045,2.689-0.669,3.88
				c-0.645,0.815-1.494,1.445-2.461,1.827c-4.817,2.312-10.071,3.571-15.413,3.693c-2.993,0.066-6.371-0.427-8.159-2.829
				c-1.265-1.7-1.419-3.961-1.46-6.08C111.189,104.424,111.306,101.003,112.624,97.954z"/>
		</g>
		<path id="Path_8_1_" class="st0" d="M149.406,277.207c-17.91,0-31.245-3.119-47.189-6.848
			c-25.305-5.99-48.329-19.195-66.277-38.013C-1.67,192.628-10.977,127.789,13.799,78.164C38.192,29.31,93.943-2.775,149.229,0.19
			c14.286,0.599,28.346,3.777,41.5,9.381c17.273,7.586,33.341,20.377,49.139,39.109c15.89,18.828,27.055,38.336,33.186,57.979
			c11.352,37.039,6.251,77.17-14.006,110.192c-19.659,31.634-53.44,53.316-92.68,59.493l-0.494,0.061
			C159.908,276.96,154.471,277.207,149.406,277.207z M142.106,15.813c-47.127,0-93.409,27.87-114.156,69.415
			C6.037,129.112,14.229,186.412,47.427,221.475c15.778,16.546,36.012,28.166,58.254,33.456c19.874,4.649,34.151,8.015,58.485,5.745
			c34.584-5.505,64.265-24.515,81.452-52.173c17.856-29.106,22.356-64.478,12.355-97.127c-5.506-17.624-15.667-35.286-30.191-52.5
			c-14.2-16.844-28.4-28.233-43.409-34.827c-11.41-4.839-23.601-7.573-35.984-8.071c-2.091-0.111-4.192-0.165-6.288-0.165H142.106z"
			/>
	</g>
</g>
</svg>