<!-- Generator: Adobe Illustrator 24.1.0, SVG Export Plug-In  -->
<svg version="1.1" xmlns="http://www.w3.org/2000/svg" xmlns:xlink="http://www.w3.org/1999/xlink" x="0px" y="0px"
	 width="167.033px" height="96.589px" viewBox="0 0 167.033 96.589" style="enable-background:new 0 0 167.033 96.589;"
	 xml:space="preserve">
<style type="text/css">
	.st0{fill:none;stroke:#FFFFFF;stroke-linejoin:round;stroke-miterlimit:10;}
	.st1{fill:none;stroke:#FFFFFF;stroke-width:3;stroke-linejoin:round;stroke-miterlimit:10;}
</style>
<defs>
</defs>
<g>
	<g>
		<path class="st0" d="M19.973,36.457c2.795-0.556,4.605-0.659,7.348-1.432c0.234-0.066,1.9-0.643,2.042-0.841
			c0.353-0.491-0.743-1.282-1.311-1.491c-0.607-0.224-1.248-0.338-1.886-0.446c-7.964-1.349-16.052-1.968-24.129-1.847
			c-0.41,0.006-0.827,0.001-1.242-0.02c-0.049,2.637-0.092,5.197-0.129,7.706c0.764-0.132,1.565-0.169,2.327-0.184
			C8.68,37.791,14.394,37.566,19.973,36.457z"/>
		<path class="st0" d="M10.674,49c1.2-0.156,2.414-0.129,3.624-0.128c1.528,0.001,3.056-0.038,4.583-0.119
			c1.793-0.095,3.502-0.615,5.243-1.052c2.049-0.515,3.651-0.622,4.995-1.654c0.262-0.368-0.185-0.827-0.589-1.029
			c-2.54-1.27-5.511-1.206-8.351-1.196c-6.543,0.022-13.085-0.405-19.572-1.252c-0.03,2.524-0.053,5.022-0.071,7.527
			c2.441-0.013,4.884-0.092,7.278-0.548C8.768,49.366,9.711,49.125,10.674,49z"/>
		<path class="st0" d="M50.775,0.728c-2.569-0.363-5.176-0.092-7.77-0.179c-2.113-0.071-4.228-0.051-6.343-0.03
			C24.846,0.636,13.291,0.686,1.474,0.802C1.229,10.395,1.031,18.56,0.88,25.997c4.708-0.391,9.386-0.52,14.099-0.83
			c3.55-0.233,7.042-0.989,10.519-1.742c1.3-0.282,3.624-0.414,4.344-1.174c0.001-1.281-1.883-1.757-3.137-2.019
			c-2.79-0.584-6.033-0.744-8.836-1.144c0.555-1.12,1.921-2.459,2.845-3.301c1.433-0.013,3.055,0.086,4.473,0.297
			c0.663,0.098,1.325,0.197,1.988,0.295c0.726,0.108,1.454,0.216,2.169,0.384c0.469,0.11,0.932,0.246,1.395,0.381
			c0.265,0.078,0.529,0.155,0.794,0.233c0.288,0.084,0.575,0.168,0.861,0.257c1.144,0.355,2.265,0.785,3.354,1.284
			c0.643,0.295,1.306,0.643,1.682,1.242c0.115,0.183,0.199,0.384,0.282,0.584c0.097,0.233,0.194,0.467,0.291,0.7
			c0.078,0.187,0.157,0.377,0.192,0.576c0.107,0.598-0.193,1.212-0.632,1.632c-0.439,0.42-1.004,0.68-1.56,0.924
			c-3.448,1.511-7.045,2.68-10.721,3.486c3.978,0.793,8.021,1.622,11.601,3.527c0.453,0.241,0.911,0.512,1.206,0.932
			c0.551,0.786,0.369,1.897-0.127,2.718c-0.497,0.821-1.083,1.663-1.915,2.142c-3.28,1.889-6.661,2.319-10.103,2.637
			c2.883,0.485,5.927,1.333,8.718,2.204c1.163,0.363,2.365,0.798,3.185,1.699c0.82,0.901,1.105,2.405,0.307,3.325
			c-0.295,0.341-0.698,0.565-1.093,0.782c-0.786,0.433-1.574,0.867-2.396,1.228c-1.111,0.489-2.278,0.841-3.449,1.159
			c-2.188,0.593-4.409,1.067-6.648,1.42c3.584,0.263,7.244,1.203,10.63,2.407c1.307,0.465,2.699,1.044,3.4,2.241
			c0.183,0.312,0.312,0.667,0.3,1.028c-0.023,0.664-0.508,1.22-1.028,1.634c-0.614,0.489-1.31,0.864-2.013,1.215
			c-3.084,1.541-6.374,2.668-9.756,3.339c0.904-0.158,1.831,0.313,2.719,0.544c1.466,0.381,2.981,0.533,4.489,0.666
			c0.447,0.039,0.895,0.077,1.333,0.171c1.509,0.322,2.806,1.281,3.915,2.354c0.295,0.286,0.594,0.603,0.684,1.004
			c0.059,0.264,0.022,0.54-0.045,0.802c-0.451,1.755-2.133,2.889-3.773,3.66c-2.131,1.002-4.399,1.674-6.657,2.341
			c-0.691,0.204-1.381,0.408-2.072,0.613c1.87-0.085,3.826,0.5,5.623,1.025c1.205,0.352,2.411,0.703,3.616,1.055
			c1.069,0.312,2.194,0.657,2.952,1.474c0.856,0.922,1.071,2.26,1.15,3.516c0.062,0.985,0.065,1.972,0.068,2.959
			c0.011,3.385,0.021,6.769,0.032,10.154c3.394,0.014,6.811,0.029,10.29,0.051C49.916,56.295,49.757,40.512,50.775,0.728z"/>
		<path class="st0" d="M10.579,73.265c1.982-0.174,3.951-0.464,5.919-0.754c1.089-0.161,2.179-0.321,3.268-0.482
			c2.698-0.398,5.406-0.798,8.027-1.55c0.407-0.117,0.824-0.249,1.143-0.527s0.515-0.741,0.361-1.135
			c-0.192-0.489-0.789-0.652-1.305-0.75c-2.277-0.433-4.571-0.86-6.889-0.869c-0.992-0.004-1.982,0.069-2.974,0.075
			c-1.035,0.006-2.068-0.06-3.101-0.126c-4.786-0.307-9.794-1.782-14.52-0.977c0.007,2.393,0.02,4.856,0.037,7.407
			c0.819-0.01,1.638-0.02,2.457-0.03C5.531,73.516,8.061,73.485,10.579,73.265z"/>
		<path class="st0" d="M8.642,61.523c0.978-0.107,1.955-0.214,2.933-0.321c2.768-0.303,5.537-0.606,8.305-0.909
			c2.817-0.308,5.644-0.618,8.391-1.313c0.543-0.137,1.169-0.374,1.307-0.916c0.12-0.47-0.219-0.958-0.65-1.179
			c-0.432-0.221-0.934-0.242-1.418-0.27c-3.815-0.221-7.547-1.185-11.338-1.667c-5.145-0.654-10.517-0.265-15.657-1.018
			c-0.012,2.658-0.016,5.349-0.014,8.11c0.176-0.004,0.353-0.002,0.524,0C3.571,62.077,6.111,61.8,8.642,61.523z"/>
	</g>
	<path class="st0" d="M58.849,26.142c4.274,0.112,8.555-0.044,12.809-0.468"/>
	<path class="st0" d="M65.062,25.935c0.09,5.054,0.18,10.108,0.271,15.162"/>
	<path class="st0" d="M74.866,26.362c-0.127,4.984,0.053,9.977,0.539,14.939"/>
	<path class="st0" d="M86.873,26.36c0.218,5.265,0.267,10.537,0.146,15.806"/>
	<path class="st0" d="M75.299,34.37c3.912-0.206,7.824-0.411,11.736-0.617"/>
	<path class="st0" d="M103.691,26.854c-3.525-0.398-7.051-0.796-10.576-1.194c-0.237,5.477-0.283,10.962-0.137,16.443
		c3.573,0.101,7.146,0.202,10.719,0.303"/>
	<path class="st0" d="M102.63,34.264c-3.061,0-6.122,0-9.183,0"/>
	<path class="st1" d="M63.447,52.621c-0.178,3.16,1.177,6.173,2.261,9.147c0.974,2.671,1.747,5.415,2.312,8.201
		c1.994-5.243,3.987-10.486,5.981-15.729c2.133,3.295,3.669,6.974,4.514,10.807c0.333,1.51,0.716,3.263,2.102,3.949
		c1.45-5.093,2.901-10.186,4.351-15.279"/>
	<path class="st1" d="M92.817,60.419c3.982-0.431,7.99-0.618,11.994-0.562c0.864-2.388-0.397-5.339-2.72-6.365
		c-0.8-0.353-1.687-0.495-2.561-0.447c-2.099,0.115-4.099,1.381-5.101,3.229c-0.612,1.128-0.857,2.412-1.094,3.673
		c-0.256,1.358-0.512,2.735-0.413,4.113c0.099,1.378,0.597,2.782,1.631,3.699c1.081,0.958,2.582,1.262,4.015,1.444
		c1.144,0.145,2.33,0.231,3.428-0.118c1.099-0.349,2.099-1.226,2.276-2.366"/>
	<path class="st1" d="M115.204,53.333c0.317,5.051,0.061,10.491-0.214,15.544c1.931-0.305,3.87,0.321,5.808,0.573
		c1.938,0.252,4.189-0.006,5.364-1.568c0.666-1.439,0.289-3.229-0.718-4.455c-1.007-1.226-2.551-1.926-4.121-2.157
		c-1.709-0.251-3.453,0.008-5.175-0.114c2.042,0.095,4.091,0.065,6.13-0.09c0.659-0.05,1.36-0.13,1.874-0.545
		c0.395-0.319,1.564-0.879,1.757-1.349c0.457-1.11,0.464-0.895,0.641-2.082c0.036-0.24-0.562-1.8-0.687-2.008
		c-0.137-0.227-1.061-1.441-1.315-1.516C121.389,52.624,118.494,53.535,115.204,53.333z"/>
	<path class="st1" d="M136.107,53.333c0.317,5.051,0.061,10.491-0.214,15.544c1.931-0.305,3.87,0.321,5.808,0.573
		c1.938,0.252,4.189-0.006,5.364-1.568c0.666-1.439,0.289-3.229-0.718-4.455c-1.007-1.226-2.551-1.926-4.121-2.157
		c-1.709-0.251-3.453,0.008-5.175-0.114c2.042,0.095,4.091,0.065,6.13-0.09c0.659-0.05,1.36-0.13,1.874-0.545
		c0.395-0.319,1.564-0.879,1.757-1.349c0.457-1.11,0.464-0.895,0.641-2.082c0.036-0.24-0.562-1.8-0.687-2.008
		c-0.137-0.227-1.061-1.441-1.315-1.516C142.292,52.624,139.397,53.535,136.107,53.333z"/>
	<path class="st1" d="M154.035,52.902c2.077,1.452,3.39,3.735,4.635,5.942c0.409,0.725,0.818,1.449,1.227,2.174
		c2.317-2.245,3.267-5.595,5.483-7.94"/>
	<path class="st1" d="M159.989,60.935c0.107,2.937,0.214,5.873,0.321,8.81"/>
	<path class="st0" d="M60.916,95.409c1.957-5.268,4.251-10.411,6.864-15.386c0.091-0.174,0.218-0.371,0.414-0.378
		c0.19-0.007,0.331,0.168,0.435,0.327c1.688,2.583,2.578,5.588,3.712,8.458c0.984,2.491,2.164,4.904,3.526,7.209"/>
	<path class="st0" d="M102.081,95.409c1.957-5.268,4.251-10.411,6.864-15.386c0.091-0.174,0.218-0.371,0.414-0.378
		c0.19-0.007,0.331,0.168,0.435,0.327c1.688,2.583,2.578,5.588,3.712,8.458c0.984,2.491,2.164,4.904,3.526,7.209"/>
	<path class="st0" d="M63.12,90.617c3.604,0.031,7.208,0.063,10.812,0.094"/>
	<path class="st0" d="M103.725,90.617c3.604,0.031,7.208,0.063,10.812,0.094"/>
	<path class="st0" d="M77.427,79.195c0.04,1.222,0.492,2.387,0.938,3.525c1.645,4.199,3.29,8.398,4.935,12.597
		c0.081-1.031,0.793-1.882,1.287-2.791c0.612-1.127,0.901-2.394,1.238-3.631c0.802-2.948,1.905-5.813,3.287-8.538
		c1.895,5.056,3.623,10.174,5.182,15.343c1.217-3.216,2.434-6.432,3.651-9.648c0.263-0.696,0.527-1.392,0.79-2.088
		c0.559-1.477,1.118-2.954,1.676-4.43"/>
	<path class="st0" d="M120.868,95.852c0.034-5.446,0.069-10.892,0.103-16.338c2.862-0.003,5.698-0.003,8.56-0.005
		c0.599-0.001,1.246,0.015,1.72,0.379c0.231,0.178,0.399,0.424,0.554,0.671c0.938,1.496,1.545,3.379,0.904,5.024
		c-0.765,1.961-3.035,2.91-5.133,3.075c-2.098,0.164-4.218-0.24-6.308,0.008"/>
	<path class="st0" d="M127.887,88.742c0.913,1.336,1.827,2.671,2.74,4.007c0.28,0.409,0.56,0.819,0.857,1.216
		c0.442,0.592,0.921,1.158,1.453,1.669"/>
	<path class="st0" d="M138.289,79.489c-0.075,5.179-0.148,10.466,0.006,15.643c1.754,0.048,3.536,0.345,5.29,0.277
		c1.133-0.044,2.284-0.116,3.348-0.505c2.097-0.767,3.621-2.739,4.174-4.902c0.553-2.163,0.221-4.483-0.584-6.565
		c-0.249-0.643-0.552-1.284-1.044-1.767c-0.392-0.385-0.884-0.65-1.368-0.909c-0.635-0.34-1.27-0.68-1.905-1.02
		c-0.314-0.168-0.631-0.337-0.974-0.433c-0.424-0.118-0.871-0.119-1.312-0.118C142.05,79.19,140.158,79.487,138.289,79.489
		C138.311,79.651,138.267,79.327,138.289,79.489z"/>
	<path class="st0" d="M166.092,81c-1.775-1.095-3.792-2.02-5.869-1.825c-2.077,0.195-4.129,1.877-4.071,3.962
		c0.043,1.525,1.179,2.849,2.533,3.552s2.906,0.901,4.421,1.08c0.597,0.07,1.209,0.144,1.743,0.421
		c1.328,0.689,1.758,2.402,1.673,3.895c-0.028,0.495-0.1,0.998-0.322,1.442c-0.418,0.835-1.303,1.332-2.187,1.632
		c-2.939,0.998-6.407,0.22-8.638-1.939"/>
</g>
</svg>