<!-- Generator: Adobe Illustrator 24.2.3, SVG Export Plug-In  -->
<svg version="1.1" xmlns="http://www.w3.org/2000/svg" xmlns:xlink="http://www.w3.org/1999/xlink" x="0px" y="0px"
	 width="38.803px" height="37.395px" viewBox="0 0 38.803 37.395"
	 style="overflow:visible;enable-background:new 0 0 38.803 37.395;" xml:space="preserve">
<style type="text/css">
	.st0{fill:none;stroke:#FFFFFF;stroke-linejoin:round;stroke-miterlimit:10;}
	.st1{fill:none;stroke:#FFFFFF;stroke-linecap:round;stroke-linejoin:round;stroke-miterlimit:10;}
	.st2{fill:#FFFFFF;}
</style>
<defs>
</defs>
<g>
	<path class="st0" d="M2.928,36.977C1.755,36.207,0.875,35,0.5,33.647c1.996-0.249,3.796,1.482,5.805,1.396
		c0.044-0.881,0.057-1.764,0.038-2.646c0.574-0.118,1.091,0.34,1.5,0.761c0.521,0.537,1.041,1.075,1.562,1.612
		c0.096,0.099,0.198,0.202,0.33,0.241c0.445,0.133,0.721-0.485,0.729-0.95c0.007-0.465,0.068-1.08,0.525-1.168
		c0.396-0.076,0.687,0.337,0.962,0.632c0.342,0.368,0.815,0.611,1.313,0.676"/>
	<g>
		<path class="st1" d="M31.164,30.102c-0.292,0.195-0.857,0.558-1.15,0.753c-0.601,0.401-1.211,0.806-1.897,1.051
			c-0.687,0.245-1.47,0.316-2.143,0.044"/>
		<path class="st1" d="M26.459,29.534c0.125-0.162,0.252-0.325,0.416-0.45s0.373-0.21,0.583-0.19"/>
		<path class="st1" d="M23.502,27.827c-0.135,0.029-0.448,0.208-0.552,0.295c-0.323,0.273-0.614,0.58-0.866,0.913"/>
		<path class="st1" d="M22.093,30.659c0.382,0.065,1.015-0.124,1.365-0.286"/>
		<path class="st1" d="M28.297,20.499c-0.035,0.196-0.202,0.345-0.288,0.526c-0.069,0.147-0.117,0.362-0.073,0.517
			c0.283,0.991-0.046,2.039-0.372,3.019c-0.172,0.516-0.343,1.032-0.517,1.547c-0.096,0.283-0.192,0.566-0.277,0.853
			c-0.274,0.928-0.425,1.884-0.574,2.838c-0.057,0.361-0.113,0.722-0.17,1.083c-0.053,0.338-0.106,0.682-0.058,1.021
			c0.057,0.399,0.252,0.768,0.339,1.161c0.087,0.394,0.035,0.863-0.301,1.109c-0.086,0.063-0.185,0.107-0.283,0.15
			c-0.24,0.106-0.517,0.205-0.772,0.273c-0.431,0.115-0.887,0.086-1.332,0.056c-0.292-0.02-0.606-0.047-0.83-0.226
			c-0.242-0.193-0.32-0.523-0.285-0.822c0.035-0.299,0.167-0.579,0.283-0.86c0.976-2.356,0.928-4.992,0.46-7.482
			c-0.07-0.374-0.225-0.822-0.617-0.89c-0.3-0.052-0.592,0.173-0.709,0.442c-0.116,0.269-0.099,0.572-0.08,0.862
			c0.056,0.856,0.112,1.711,0.169,2.567c0.066,1.003,0.131,2.017-0.036,3.01c-0.053,0.316-0.137,0.641-0.355,0.884
			c-0.363,0.403-0.981,0.466-1.536,0.49c-0.418,0.018-0.881,0.018-1.197-0.243c-0.506-0.417-0.301-1.257,0.202-1.679
			c0.118-0.099,0.253-0.189,0.328-0.321c0.102-0.18,0.073-0.398,0.04-0.6c-0.373-2.279-0.837-4.543-1.32-6.803
			c-0.121-0.565-0.243-1.131-0.365-1.696c-0.101-0.47-0.203-0.94-0.279-1.415c-0.407-2.523-0.117-5.084,0.88-7.457
			c0.296-0.645,0.231-1.354-0.127-1.968c-0.073-0.126-0.16-0.247-0.213-0.382c-0.042-0.109-0.062-0.225-0.08-0.34
			c-0.138-0.853-0.215-1.743,0.101-2.554c0.257-0.661,0.514-1.321,0.771-1.982c0.537-1.382-0.257-3.07,0.442-4.385
			c0.042-0.078,0.088-0.158,0.159-0.213c0.108-0.085,0.259-0.103,0.398-0.085c0.519,0.067,0.852,0.545,1.114,0.977
			c0.236,0.388,0.473,0.777,0.709,1.165c0.143,0.234,0.293,0.477,0.53,0.627c0.267,0.169,0.603,0.194,0.923,0.215
			c0.618,0.04,1.384,0.229,1.853,0.12s0.842-1.13,1.263-1.694c0.253-0.34,0.52-0.691,0.905-0.888
			c0.385-0.197,0.924-0.185,1.195,0.14c0.137,0.164,0.186,0.378,0.218,0.586c0.214,1.377-0.12,2.778-0.079,4.17
			c0.026,0.887,0.204,1.764,0.249,2.651c0.045,0.887-0.057,1.814-0.542,2.574c-0.11,0.173-0.15,0.42-0.227,0.608
			c-0.049,0.12-0.052,0.381,0.063,0.578c0.537,1.482,2.147,2.157,3.123,3.418c0.314,0.405,0.562,0.853,0.808,1.299
			c0.508,0.919,1.016,1.837,1.524,2.756c0.259,0.469,0.52,0.941,0.688,1.446c0.161,0.483,0.235,0.989,0.306,1.492
			c0.046,0.321,0.091,0.644,0.071,0.968c-0.014,0.235-0.058,0.486-0.099,0.718c0.485,0.128,1.074,0.611,1.527,0.88
			s0.84,0.627,1.209,0.994c0.351,0.349,0.695,0.719,0.889,1.166c0.178,0.411,0.22,0.863,0.251,1.307
			c0.011,0.163,0.018,0.34-0.08,0.474c-0.048,0.066-0.116,0.115-0.184,0.161c-0.531,0.356-1.15,0.592-1.791,0.683
			c-0.275,0.039-0.553,0.052-0.831,0.064c-0.563,0.023-1.126,0.04-1.69,0.05c-0.298,0.005-0.597,0.009-0.892-0.03
			c-0.219-0.029-0.435-0.081-0.655-0.104c-1.488-0.161-2.4-1.923-2.443-3.419c-0.009-0.322,0.032-0.671,0.249-0.91
			c0.316-0.349,0.97-0.283,1.21,0.123c0.094,0.159,0.126,0.347,0.178,0.524c0.177,0.602,0.61,1.124,1.169,1.409
			s1.236,0.328,1.827,0.117"/>
		<path class="st2" d="M21.928,7.809c-0.109,0.138-0.124,0.08-0.226,0.175c-0.255,0.116-0.332,0.062-0.655,0.066
			c-0.079,0.001-0.161,0.001-0.232-0.033c-0.16-0.077-0.193-0.286-0.205-0.463c-0.02-0.282-0.03-0.598,0.156-0.811
			c0.059-0.067,0.134-0.119,0.215-0.157c0.306-0.143,0.699-0.073,0.933,0.17s0.29,0.642,0.127,0.938"/>
		<path class="st2" d="M26.048,7.031c0.081,0.161,0.02,0.15,0.064,0.285c-0.003,0.287-0.087,0.334-0.224,0.636
			c-0.033,0.074-0.069,0.15-0.131,0.201c-0.141,0.114-0.349,0.054-0.519-0.011c-0.271-0.104-0.567-0.232-0.684-0.497
			c-0.037-0.084-0.052-0.176-0.052-0.268c0-0.346,0.236-0.68,0.563-0.791c0.327-0.112,0.721,0.01,0.925,0.289"/>
	</g>
</g>
</svg>