<!-- Generator: Adobe Illustrator 20.1.0, SVG Export Plug-In  -->
<svg version="1.1"
	 xmlns="http://www.w3.org/2000/svg" xmlns:xlink="http://www.w3.org/1999/xlink" xmlns:a="http://ns.adobe.com/AdobeSVGViewerExtensions/3.0/"
	 x="0px" y="0px" width="23.335px" height="23.641px" viewBox="0 0 23.335 23.641"
	 style="enable-background:new 0 0 23.335 23.641;" xml:space="preserve">
<style type="text/css">
	.st0{fill:none;stroke:#010101;stroke-linejoin:round;stroke-miterlimit:10;}
</style>
<defs>
</defs>
<path class="st0" d="M22.633,11.478c-1.419-1.412-2.839-2.824-4.258-4.236l-3.636-3.698c-0.794-0.888-1.478-1.774-2.329-2.556
	C12.192,0.787,11.962,0.58,11.677,0.5c-0.089,2.369-0.018,4.775,0.173,7.137C8.06,7.562,4.288,7.628,0.5,7.773
	c0.077,2.597,0.072,5.596,0.149,8.193c3.366,0,6.997,0.339,10.464,0.165c0.105-0.005,0.219-0.009,0.306,0.051
	c0.131,0.09,0.141,0.275,0.138,0.434c-0.024,1.329-0.049,2.658-0.073,3.988c-0.016,0.851-0.03,1.713,0.179,2.538
	c2.064-1.876,4.128-3.752,6.103-5.722c1.727-1.723,3.383-3.517,4.964-5.375c0.038-0.044,0.076-0.09,0.094-0.145
	C22.874,11.744,22.749,11.593,22.633,11.478z"/>
</svg>