<!-- Generator: Adobe Illustrator 24.1.0, SVG Export Plug-In  -->
<svg version="1.1" xmlns="http://www.w3.org/2000/svg" xmlns:xlink="http://www.w3.org/1999/xlink" x="0px" y="0px"
	 width="109.87px" height="103.412px" viewBox="0 0 109.87 103.412" style="enable-background:new 0 0 109.87 103.412;"
	 xml:space="preserve">
<style type="text/css">
	.st0{fill:none;stroke:#FFFFFF;stroke-width:2;stroke-linecap:round;stroke-linejoin:round;stroke-miterlimit:10;}
	.st1{fill:none;stroke:#FFFFFF;stroke-linecap:round;stroke-linejoin:round;stroke-miterlimit:10;}
</style>
<defs>
</defs>
<g>
	<path class="st0" d="M85.819,1.001c-0.104,5.367,0.048,10.709-0.056,16.077c-1.663-0.001-3.334,0.013-4.975,0.283
		c-3.441,0.566-6.687,2.291-9.051,4.855s-3.822,5.955-4.014,9.437c3.372,0.165,6.744,0.33,10.115,0.494
		c-0.049,4.674-0.099,9.349-0.148,14.023c-5.036,0.759-10.135,1.092-15.227,0.995c-1.948,5.168-4.367,10.584-6.786,15.549
		c-0.575,1.18-1.16,2.375-2.028,3.36c-0.635,0.721-1.407,1.311-2.037,2.037c-0.645,0.743-1.132,1.617-1.805,2.335
		c-1.015,1.083-2.388,1.747-3.727,2.386c-1.186,0.566-2.372,1.133-3.558,1.699c-1.134,0.541-2.269,1.083-3.442,1.534
		c-3.659,1.405-7.62,1.888-11.539,1.872c-0.345-5.411-0.398-10.84-0.157-16.256c6.438,0.675,12.949-3.106,15.694-8.968
		c0.527-1.125,0.918-2.309,1.415-3.448c1.244-2.855,3.137-5.411,4.179-8.346c0.776-2.187,1.054-4.519,1.7-6.748
		c0.456-1.575,1.093-3.092,1.729-4.604c0.935-2.224,1.87-4.448,2.805-6.672c0.665-1.583,1.332-3.168,2.123-4.692
		C62.41,7.835,74.137,0.905,85.819,1.001z"/>
	<path class="st0" d="M10.785,86.4c-3.262,0-6.524,0-9.785,0c0.092,5.337,0.218,10.675,0.31,16.012"/>
	<path class="st0" d="M1.395,93.516c2.899,0,5.799,0,8.698,0"/>
	<path class="st0" d="M15.856,86.796c-0.046,4.545-0.093,9.09-0.139,13.635c3.293,0.209,6.595,0.272,9.894,0.19"/>
	<path class="st0" d="M29.434,100.162c0.859-2.602,1.654-5.225,2.385-7.866c0.54-1.951,1.075-3.973,2.327-5.563
		c0.633-0.039,1.267-0.079,1.9-0.118c2.508,4.294,3.275,9.369,5.233,13.94"/>
	<path class="st0" d="M30.952,96.324c2.925-0.228,5.861-0.305,8.794-0.232"/>
	<path class="st0" d="M56.797,88.285c-1.743-2.387-5.521-2.945-7.879-1.164c-0.746,0.563-1.364,1.357-1.509,2.28
		s0.282,1.965,1.133,2.35c0.474,0.215,1.013,0.213,1.533,0.227c1.497,0.042,2.99,0.252,4.441,0.626
		c0.946,0.244,1.947,0.61,2.482,1.428c0.428,0.654,0.477,1.481,0.467,2.262c-0.013,0.932-0.11,1.916-0.654,2.673
		c-0.52,0.724-1.377,1.133-2.238,1.367c-2.953,0.802-6.532-0.475-7.755-3.28"/>
	<path class="st0" d="M63.331,85.806c-0.084,4.778-0.039,9.557,0.135,14.333"/>
	<path class="st0" d="M74.538,85.609c0,4.843,0,9.686,0,14.53"/>
	<path class="st0" d="M63.47,92.501c3.074-0.211,6.148-0.422,9.223-0.633c0.559-0.038,1.164-0.065,1.629,0.247"/>
	<path class="st1" d="M80.204,99.546c0.366-4.586-0.474-9.282,0.588-13.759c2.338,4.165,4.426,8.78,6.095,13.255
		c2.075-4.528,4.362-8.96,6.851-13.274c0.217,4.33,0.499,9.645,0.716,13.975"/>
	<path class="st1" d="M99.314,84.87c3.558,4.962,6.914,10.069,10.056,15.304"/>
	<path class="st1" d="M98.254,100.135c3.656-5.131,7.311-10.263,10.967-15.394"/>
</g>
</svg>