<!-- Generator: Adobe Illustrator 24.1.0, SVG Export Plug-In  -->
<svg version="1.1" xmlns="http://www.w3.org/2000/svg" xmlns:xlink="http://www.w3.org/1999/xlink" x="0px" y="0px"
	 width="167.339px" height="182.522px" viewBox="0 0 167.339 182.522" style="enable-background:new 0 0 167.339 182.522;"
	 xml:space="preserve">
<style type="text/css">
	.st0{fill:none;stroke:#231F20;stroke-linecap:round;stroke-linejoin:round;stroke-miterlimit:10;}
	.st1{fill:#010101;stroke:#231F20;stroke-linecap:round;stroke-linejoin:round;stroke-miterlimit:10;}
	.st2{fill:none;stroke:#FFFFFF;stroke-linecap:round;stroke-linejoin:round;stroke-miterlimit:10;}
	.st3{fill:none;stroke:#231F20;stroke-width:2;stroke-linecap:round;stroke-linejoin:round;stroke-miterlimit:10;}
	.st4{fill:#231F20;}
	.st5{fill:#EDF0F1;}
	.st6{fill:#FFFFFF;}
	.st7{fill:#010101;}
</style>
<defs>
</defs>
<g>
	<path class="st0" d="M101.611,65.934c-0.329-0.014-0.631,0.171-0.892,0.372c-1.364,1.053-2.198,2.76-2.19,4.484"/>
	<path class="st0" d="M103.053,69.895c0.115-0.071,0.249,0.053,0.327,0.164c0.207,0.296,0.414,0.592,0.622,0.887
		c0.257,0.367,0.525,0.764,0.534,1.212c0.005,0.228-0.063,0.462-0.211,0.636"/>
	<path class="st0" d="M53.778,94.884c0.099-0.52,0.007-1.055-0.018-1.584c-0.025-0.529,0.035-1.101,0.378-1.504
		c0.196-0.23,0.468-0.383,0.686-0.592c0.104-0.099,0.197-0.213,0.32-0.286c0.114-0.068,0.245-0.098,0.375-0.126
		c1.497-0.331,3.078-0.634,4.54-0.172"/>
	<path class="st0" d="M73.447,108.971c0.569,0.047,1.16,0.092,1.693-0.114c0.154-0.06,0.3-0.139,0.456-0.195
		c0.186-0.066,0.383-0.098,0.571-0.16c0.29-0.096,0.551-0.263,0.804-0.435c0.452-0.306,0.89-0.632,1.313-0.976"/>
	<path class="st0" d="M101.274,97.84c0.066,0.84-0.221,1.678-0.662,2.395c-0.441,0.718-1.031,1.33-1.626,1.926"/>
	<path class="st0" d="M73.593,124.785c-0.191,1.556,0.071,3.165,0.745,4.581c0.167,0.351,0.361,0.694,0.465,1.068
		c0.09,0.32,0.112,0.655,0.134,0.986c0.031,0.463,0.061,0.926,0.092,1.39c0.06,0.903,0.121,1.818,0.4,2.679s0.804,1.677,1.592,2.122
		c0.73,0.412,1.6,0.467,2.436,0.514c0.377,0.021,0.757,0.041,1.129-0.02c0.557-0.092,1.066-0.364,1.563-0.631
		c0.356-0.191,0.718-0.387,1.006-0.67c0.656-0.646,0.825-1.63,0.895-2.548c0.03-0.401,0.048-0.803,0.023-1.204
		c-0.108-1.73-1.012-3.389-0.82-5.112c0.069-0.621,0.281-1.227,0.27-1.852c-0.005-0.269-0.055-0.545-0.203-0.769
		c-0.22-0.333-0.614-0.497-0.936-0.733c-1.041-0.762-1.307-2.245-2.281-3.09"/>
	<path class="st0" d="M104.254,108.213c-0.199,0.749,0.322,1.489,0.423,2.257c0.036,0.276,0.018,0.559,0.076,0.832
		c0.125,0.591,0.598,1.06,1.138,1.331s1.145,0.375,1.741,0.475c0.89,0.15,1.783,0.3,2.685,0.32c0.66,0.015,1.325-0.04,1.978,0.052
		c0.388,0.054,0.767,0.159,1.156,0.207c0.33,0.041,0.664,0.04,0.997,0.039c0.887-0.003,1.774-0.006,2.661-0.009
		c0.852-0.003,1.768-0.026,2.453-0.533c0.891-0.659,1.084-1.896,1.139-3.003c0.032-0.655,0.041-1.319-0.101-1.96
		c-0.141-0.641-0.445-1.263-0.948-1.684c-0.358-0.3-0.796-0.483-1.228-0.662c-0.485-0.202-0.972-0.404-1.48-0.535
		c-1.326-0.344-2.786-0.208-4.006-0.831c-0.523-0.267-1.108-0.415-1.688-0.509c-0.131-0.021-0.264-0.032-0.393-0.063
		c-0.226-0.054-0.433-0.167-0.648-0.256c-0.34-0.141-0.703-0.224-1.071-0.245"/>
	<path class="st1" d="M63.587,54.666c-1.81,1.47-3.201,3.45-3.973,5.651c-0.182,0.519-0.331,1.058-0.322,1.608
		c0.021,1.211,0.797,2.271,1.614,3.165c0.759,0.83,1.585,1.598,2.466,2.296c0.501,0.397,1.033,0.777,1.643,0.968
		c1.126,0.353,2.34,0.017,3.47-0.322c0.417-0.126,0.835-0.252,1.24-0.415c1.758-0.706,3.171-2.046,4.539-3.356
		c0.385-0.369,0.783-0.758,0.958-1.262c0.098-0.282,0.119-0.585,0.198-0.873c0.086-0.317,0.241-0.612,0.317-0.931
		c0.149-0.627-0.017-1.286-0.255-1.885c-0.424-1.063-1.071-2.019-1.714-2.966c-0.263-0.388-0.526-0.776-0.789-1.163
		c-0.327-0.481-0.654-0.964-1.027-1.41c-0.236-0.282-0.489-0.549-0.743-0.816c-0.346-0.365-0.702-0.736-1.151-0.962
		c-0.707-0.354-1.564-0.295-2.306-0.021s-1.392,0.744-2.032,1.209c-0.795,0.577-1.591,1.154-2.386,1.731"/>
	<path class="st2" d="M70.911,57.718c0.219,1.243-0.303,2.486-0.855,3.621c-0.138,0.284-0.28,0.568-0.462,0.827"/>
	<path class="st2" d="M72.467,58.034c-0.072,2.659-1.282,5.137-2.466,7.518"/>
	<path class="st0" d="M54.905,67.151c1.656,2.418,3.127,4.981,4.281,7.675c0.159,0.37,0.312,0.743,0.466,1.115
		c0.16,0.389,0.321,0.778,0.481,1.167c0.316,0.765,0.696,1.354,0.916,2.152c0.142-2.181-0.144-4.386-0.807-6.468
		c-0.548-1.72-1.352-3.357-2.379-4.842c-0.352-0.51-0.731-1.002-1.139-1.468c-0.258-0.294-0.689-0.633-1.048-0.476
		c-1.007-1.66-1.962-3.322-2.337-5.226c-0.183-0.926-0.206-1.876-0.196-2.82c0.018-1.763,0.174-3.601,1.081-5.113
		c0.282-0.471,0.631-0.898,1.002-1.303c1.941-2.118,4.569-3.648,7.412-4.058c2.843-0.409,5.883,0.364,8.04,2.262
		c0.778,0.685,1.432,1.497,2.081,2.305c0.719,0.894,1.387,1.875,2.105,2.769c1.025-0.854,2.463-0.985,3.797-0.944
		c1.169,0.036,2.334,0.174,3.485,0.386c2.14,0.394,4.248,1.049,6.148,2.109c0.548,0.306,1.086,0.648,1.689,0.817
		c0.335,0.094,0.689,0.134,1.002,0.288c0.26,0.128,0.479,0.33,0.744,0.447c0.399,0.177,0.871,0.148,1.259,0.349
		c0.389,0.202,0.761,0.539,1.153,0.735c2.378,1.191,4.827,2.437,6.534,4.477c0.413,0.494,0.786,1.049,0.908,1.682
		c0.033,0.171,0.049,0.352,0.14,0.5c0.142,0.231,0.424,0.325,0.671,0.437c0.448,0.202,0.839,0.511,1.205,0.839
		c0.48,0.431,0.925,0.901,1.368,1.371c0.373,0.394,0.745,0.789,1.102,1.197c0.474,0.543,0.918,1.112,1.331,1.703
		c0.611,0.874,1.174,1.888,1.045,2.946c-0.039,0.323-0.149,0.646-0.366,0.889c-0.217,0.243-0.553,0.392-0.873,0.332
		c-0.38-0.072-0.648-0.401-0.896-0.698c-0.48-0.574-1.013-1.105-1.589-1.583c-0.084-0.07-0.172-0.14-0.275-0.175
		c-0.181-0.062-0.378-0.009-0.567,0.022c-1.298,0.216-2.526-0.593-3.569-1.395c-0.413-0.317-0.903-0.524-1.42-0.586
		c-0.945,0.49-2.064,0.634-3.102,0.398c-0.95-0.215-1.801-0.727-2.641-1.22c-1.101-0.647-2.246-1.286-3.508-1.481
		c-0.944-0.146-1.907-0.036-2.863-0.061c-1.878-0.049-3.739-0.634-5.308-1.668c-0.199-0.131-0.431-0.277-0.66-0.208
		c-0.325,0.097-0.382,0.525-0.379,0.865c0.007,0.602,0.016,1.218,0.226,1.782c0.121,0.324,0.304,0.621,0.493,0.91
		c0.87,1.332,2.122,2.648,2.345,4.223c0.152,1.078,0.581,2.116,1.233,2.988c0.751,1.003,1.771,1.766,2.776,2.513
		c1.363,1.014,2.726,2.028,4.089,3.041c0.615,0.457,1.23,0.915,1.852,1.362c0.956,0.688,1.929,1.352,2.918,1.992
		c0.286,0.185,0.573,0.368,0.853,0.561c0.284,0.196,0.561,0.403,0.84,0.607c0.517,0.377,1.04,0.745,1.564,1.112
		c0.17,0.119,0.346,0.217,0.552,0.239c0.336,0.422,0.799,0.72,1.239,1.032c1.309,0.925,2.488,2.033,3.493,3.281
		c0.134,0.166,0.266,0.338,0.342,0.538c0.113,0.3,0.086,0.634,0.153,0.948c0.128,0.604,0.582,1.074,0.964,1.559
		c1.277,1.627,1.851,3.682,2.395,5.678c0.164,0.602,0.328,1.204,0.493,1.807c0.088,0.323,0.177,0.659,0.119,0.989
		c-0.058,0.33-0.446,0.688-0.762,0.799c-1.082,0.381-1.512,1.763-2.551,2.249c-0.329,0.154-0.696,0.205-1.057,0.249
		c-1.255,0.153-2.596,0.229-3.715-0.359c-0.397-0.209-0.748-0.493-1.096-0.775c-0.839-0.68-1.677-1.359-2.516-2.039
		c-0.564-0.458-1.2-0.94-1.926-0.908c-0.212,0.009-0.429,0.063-0.632,0.001c-0.21-0.064-0.364-0.239-0.505-0.408
		c-0.882-1.056-1.724-2.169-2.819-3.003c-0.533-0.406-1.118-0.739-1.701-1.07c-1.695-0.963-3.389-1.926-5.084-2.889
		c-0.395-0.225-0.802-0.595-1.148-0.89c-0.992-0.846-2.207-1.428-3.488-1.671c-0.491-0.093-1.051-0.12-1.434,0.2
		c-0.547,0.457-0.425,1.313-0.264,2.008c0.517,2.235,0.921,4.497,1.209,6.773c0.135,1.07,0.247,2.153,0.583,3.178
		c0.258,0.787,0.645,1.532,0.823,2.34c0.171,0.777,0.142,1.583,0.113,2.378c-0.015,0.393-0.029,0.786-0.044,1.178
		c-0.068,1.832-0.136,3.664-0.205,5.496c-0.028,0.765-0.059,1.543-0.305,2.269c-0.183,0.538-0.478,1.029-0.771,1.516
		c-0.185,0.307-0.37,0.615-0.556,0.922c-0.716,1.189-1.595,2.494-2.963,2.73c-0.623,0.108-1.26-0.031-1.877-0.169
		c-1.167-0.261-2.379-0.542-3.312-1.292c-0.787-0.632-1.298-1.538-1.77-2.431c-1.387-2.621-2.734-5.573-2.408-8.521
		c0.762-1.035,0.362-2.483-0.067-3.695c-0.464-1.31-0.928-2.619-1.392-3.929c-0.701-1.98-1.406-3.974-1.729-6.05
		c-0.214-1.378-0.257-2.777-0.414-4.162c-0.583-5.161-2.736-10.142-2.538-15.332c-1.6,2.729-2.285,5.984-1.92,9.126
		c0.089,0.764,0.296,1.61,0.951,2.014c0.402,0.248,0.899,0.278,1.338,0.452c0.439,0.174,0.856,0.618,0.714,1.069
		c-0.184,0.586-1.031,0.553-1.598,0.32c-0.568-0.233-1.271-0.529-1.736-0.129c0.738,0.715,1.662,1.2,2.497,1.797
		s1.622,1.37,1.868,2.367c0.246,0.997-0.252,2.227-1.247,2.478c-0.726,0.183-1.467-0.172-2.131-0.517
		c-1.798-0.934-3.596-1.869-5.394-2.803c-1.78-0.925-3.649-1.931-4.687-3.648c-0.336-0.556-0.571-1.167-0.803-1.774
		c-0.562-1.467-1.124-2.933-1.686-4.4c-0.217-0.567-0.438-1.155-0.401-1.761c0.049-0.817,0.553-1.525,0.871-2.279
		c0.479-1.136,0.539-2.399,0.828-3.597c0.494-2.048,1.645-3.866,2.778-5.642C52.439,70.718,53.723,68.941,54.905,67.151z"/>
	<path class="st0" d="M89.342,60.363c0.247,2.026-0.254,4.135-1.384,5.834"/>
	<path class="st0" d="M54.833,85.56c1.057,0.146,2.14,0.105,3.182-0.121"/>
	<path class="st0" d="M56.655,83.421c0.429,0.323,0.858,0.647,1.287,0.97"/>
	<path class="st0" d="M74.89,54.919c0.919,1.574,1.596,3.288,2.001,5.065c0.066,0.288,0.124,0.58,0.143,0.875
		c0.028,0.446,0.127,0.781,0.062,1.224c0.257,0.402,0.514,0.803,0.77,1.205c0.149,0.232,0.297,0.465,0.454,0.692
		c0.233,0.337,0.484,0.66,0.735,0.983c0.482,0.621,0.965,1.242,1.447,1.864c-0.194,0.023-0.37-0.103-0.525-0.222
		c-0.798-0.615-1.6-1.233-2.291-1.965c-0.379-0.401-0.66-0.836-1.159-1.074c-0.123,0.164-0.167,0.239-0.269,0.369
		c-1.417,1.813-3.094,3.423-4.963,4.766c-0.367,0.263-0.742,0.517-1.142,0.726c-1.145,0.598-2.46,0.81-3.752,0.802
		c-1.292-0.008-2.572-0.225-3.846-0.442c-0.596-0.101-1.192-0.203-1.788-0.304c-0.347-0.059-0.696-0.119-1.027-0.236
		c-0.682-0.242-1.255-0.715-1.793-1.198"/>
	<path class="st0" d="M77.117,61.757c0.049,0.238-0.083,0.53-0.178,0.754c-0.11,0.258-0.15,0.469-0.26,0.726
		c-0.092,0.216-0.254,0.555-0.398,0.74"/>
	<path class="st0" d="M71.499,50.059c0.651-0.33,1.095-1.037,1.108-1.767c-0.856-0.143-1.712-0.286-2.568-0.43
		c-0.302-0.051-0.609-0.102-0.889-0.227c-0.268-0.12-0.503-0.303-0.761-0.443c-0.725-0.395-1.585-0.436-2.375-0.676
		c-0.625-0.189-1.203-0.503-1.777-0.814c-0.61-0.331-1.22-0.662-1.83-0.993c-0.651-0.353-1.369-0.718-2.097-0.581
		c-6.241-0.049-12.002,2.748-16.995,6.492c-0.351,0.263-0.702,0.534-0.974,0.878c-0.373,0.472-0.581,1.062-0.979,1.514
		c-0.164,0.186-0.36,0.349-0.48,0.567c-0.128,0.233-0.157,0.506-0.176,0.771c-0.176,2.425,0.202,4.859,0.761,7.226
		c0.247,1.048,0.531,2.089,0.918,3.094c0.314,0.816,0.695,1.604,1.075,2.391c0.117,0.242,0.252,0.503,0.495,0.617
		c0.212,0.099,0.46,0.064,0.693,0.04c0.657-0.069,1.325-0.038,1.973,0.092c0.614,0.123,1.213,0.335,1.837,0.384
		c1.358,0.106,2.644-0.56,3.843-1.206c0.867-0.467,1.754-0.951,2.395-1.699"/>
	<path class="st0" d="M47.121,67.709c-0.197,1.429,0.245,2.934,1.183,4.03c0.634,0.763,1.08,1.68,1.29,2.649
		c0.039,0.181,0.07,0.363,0.101,0.545"/>
	<path class="st3" d="M46.947,70.204c-3.346,0.809-6.64-1.163-9.852-2.4c-5.152-1.984-10.802-2.126-16.321-2.243
		c-1.771-0.038-3.586-0.069-5.262,0.506c-3.547,1.217-5.673,4.844-6.887,8.392c-2.031,5.934-2.359,12.506-0.508,18.498
		c0.647,2.095,1.55,4.103,2.57,6.044c3.647,6.945,8.826,13.079,15.061,17.839c2.862,2.185,5.935,4.078,8.876,6.155
		c1.529,1.08,3.023,2.21,4.503,3.356c6.544,5.07,12.828,10.474,18.82,16.185c5.481,5.224,11.111,11.748,10.401,19.286
		c-0.446,4.732-3.352,8.822-6.159,12.659c-1.717,2.347-3.434,4.694-5.151,7.041"/>
	<g>
		<g>
			<path class="st4" d="M1.318,119.95c1.756,0,1.759-2.729,0-2.729C-0.438,117.222-0.441,119.95,1.318,119.95L1.318,119.95z"/>
		</g>
	</g>
	<g>
		<g>
			<path class="st4" d="M3.292,141.553c1.756,0,1.759-2.729,0-2.729C1.536,138.824,1.533,141.553,3.292,141.553L3.292,141.553z"/>
		</g>
	</g>
	<g>
		<g>
			<path class="st4" d="M17.766,153.395c1.756,0,1.759-2.729,0-2.729C16.011,150.667,16.008,153.395,17.766,153.395L17.766,153.395z
				"/>
		</g>
	</g>
	<g>
		<g>
			<path class="st4" d="M41.013,158.659c1.756,0,1.759-2.729,0-2.729C39.258,155.93,39.255,158.659,41.013,158.659L41.013,158.659z"
				/>
		</g>
	</g>
	<g>
		<g>
			<path class="st4" d="M93.429,156.734c3.511,0,3.517-5.457,0-5.457C89.917,151.276,89.911,156.734,93.429,156.734L93.429,156.734z
				"/>
		</g>
	</g>
	<g>
		<g>
			<path class="st4" d="M77.2,171.379c1.756,0,1.759-2.729,0-2.729C75.444,168.65,75.441,171.379,77.2,171.379L77.2,171.379z"/>
		</g>
	</g>
	<g>
		<g>
			<path class="st4" d="M119.088,150.325c1.756,0,1.759-2.729,0-2.729C117.332,147.597,117.329,150.325,119.088,150.325
				L119.088,150.325z"/>
		</g>
	</g>
	<g>
		<g>
			<path class="st4" d="M129.176,170.721c1.756,0,1.759-2.729,0-2.729C127.421,167.993,127.418,170.721,129.176,170.721
				L129.176,170.721z"/>
		</g>
	</g>
	<g>
		<g>
			<path class="st4" d="M159.661,155.589c1.756,0,1.759-2.729,0-2.729C157.905,152.86,157.902,155.589,159.661,155.589
				L159.661,155.589z"/>
		</g>
	</g>
	<g>
		<g>
			<path class="st4" d="M154.617,138.702c1.756,0,1.759-2.729,0-2.729C152.861,135.973,152.858,138.702,154.617,138.702
				L154.617,138.702z"/>
		</g>
	</g>
	<g>
		<g>
			<path class="st4" d="M164.047,107.779c1.756,0,1.759-2.729,0-2.729C162.291,105.05,162.288,107.779,164.047,107.779
				L164.047,107.779z"/>
		</g>
	</g>
	<g>
		<g>
			<path class="st4" d="M164.705,93.962c1.756,0,1.759-2.729,0-2.729C162.949,91.234,162.946,93.962,164.705,93.962L164.705,93.962z
				"/>
		</g>
	</g>
	<g>
		<g>
			<path class="st4" d="M151.108,86.067c1.756,0,1.759-2.729,0-2.729C149.352,83.338,149.349,86.067,151.108,86.067L151.108,86.067z
				"/>
		</g>
	</g>
	<g>
		<g>
			<path class="st4" d="M166.021,52.512c1.756,0,1.759-2.729,0-2.729C164.265,49.784,164.262,52.512,166.021,52.512L166.021,52.512z
				"/>
		</g>
	</g>
	<g>
		<g>
			<path class="st4" d="M142.993,36.332c3.511,0,3.517-5.457,0-5.457C139.482,30.875,139.476,36.332,142.993,36.332L142.993,36.332z
				"/>
		</g>
	</g>
	<g>
		<g>
			<path class="st4" d="M130.492,52.951c1.756,0,1.759-2.729,0-2.729C128.737,50.222,128.734,52.951,130.492,52.951L130.492,52.951z
				"/>
		</g>
	</g>
	<g>
		<g>
			<path class="st4" d="M88.165,47.249c1.756,0,1.759-2.729,0-2.729C86.41,44.52,86.407,47.249,88.165,47.249L88.165,47.249z"/>
		</g>
	</g>
	<g>
		<g>
			<path class="st4" d="M109.219,31.239c1.756,0,1.759-2.729,0-2.729C107.463,28.51,107.46,31.239,109.219,31.239L109.219,31.239z"
				/>
		</g>
	</g>
	<g>
		<g>
			<path class="st4" d="M146.941,15.668c1.756,0,1.759-2.729,0-2.729C145.185,12.939,145.182,15.668,146.941,15.668L146.941,15.668z
				"/>
		</g>
	</g>
	<g>
		<g>
			<path class="st4" d="M166.021,28.607c1.756,0,1.759-2.729,0-2.729C164.265,25.879,164.262,28.607,166.021,28.607L166.021,28.607z
				"/>
		</g>
	</g>
	<g>
		<g>
			<path class="st4" d="M89.481,2.729c1.756,0,1.759-2.729,0-2.729C87.725,0,87.722,2.729,89.481,2.729L89.481,2.729z"/>
		</g>
	</g>
	<g>
		<g>
			<path class="st4" d="M75.006,25.976c1.756,0,1.759-2.729,0-2.729C73.251,23.247,73.248,25.976,75.006,25.976L75.006,25.976z"/>
		</g>
	</g>
	<g>
		<g>
			<path class="st4" d="M50.882,21.809c1.756,0,1.759-2.729,0-2.729C49.127,19.08,49.124,21.809,50.882,21.809L50.882,21.809z"/>
		</g>
	</g>
	<g>
		<g>
			<path class="st4" d="M37.943,6.286c3.511,0,3.517-5.457,0-5.457C34.432,0.829,34.426,6.286,37.943,6.286L37.943,6.286z"/>
		</g>
	</g>
	<g>
		<g>
			<path class="st4" d="M13.161,21.151c1.756,0,1.759-2.729,0-2.729C11.405,18.422,11.402,21.151,13.161,21.151L13.161,21.151z"/>
		</g>
	</g>
	<g>
		<g>
			<path class="st4" d="M7.459,45.275c1.756,0,1.759-2.729,0-2.729C5.703,42.546,5.7,45.275,7.459,45.275L7.459,45.275z"/>
		</g>
	</g>
	<g>
		<g>
			<path class="st4" d="M132.905,97.032c1.756,0,1.759-2.729,0-2.729C131.149,94.304,131.146,97.032,132.905,97.032L132.905,97.032z
				"/>
		</g>
	</g>
	<g>
		<g>
			<path class="st4" d="M41.671,39.573c1.756,0,1.759-2.729,0-2.729C39.915,36.844,39.913,39.573,41.671,39.573L41.671,39.573z"/>
		</g>
	</g>
	<g>
		<g>
			<path class="st4" d="M125.448,4.483c1.756,0,1.759-2.729,0-2.729C123.692,1.754,123.69,4.483,125.448,4.483L125.448,4.483z"/>
		</g>
	</g>
	<g>
		<g>
			<path class="st4" d="M101.105,85.628c1.756,0,1.759-2.729,0-2.729C99.349,82.9,99.346,85.628,101.105,85.628L101.105,85.628z"/>
		</g>
	</g>
	<g>
		<g>
			<path class="st4" d="M102.859,140.237c1.756,0,1.759-2.729,0-2.729C101.103,137.508,101.1,140.237,102.859,140.237
				L102.859,140.237z"/>
		</g>
	</g>
	<g>
		<g>
			<path class="st4" d="M85.972,122.034c1.756,0,1.759-2.729,0-2.729C84.216,119.305,84.213,122.034,85.972,122.034L85.972,122.034z
				"/>
		</g>
	</g>
	<g>
		<g>
			<path class="st4" d="M51.102,101.199c1.756,0,1.759-2.729,0-2.729C49.346,98.471,49.343,101.199,51.102,101.199L51.102,101.199z"
				/>
		</g>
	</g>
	<g>
		<g>
			<path class="st4" d="M43.206,107.559c1.756,0,1.759-2.729,0-2.729C41.451,104.831,41.448,107.559,43.206,107.559L43.206,107.559z
				"/>
		</g>
	</g>
	<g>
		<g>
			<path class="st4" d="M26.539,86.725c1.756,0,1.759-2.729,0-2.729C24.783,83.996,24.78,86.725,26.539,86.725L26.539,86.725z"/>
		</g>
	</g>
	<g>
		
			<ellipse transform="matrix(0.8896 -0.4568 0.4568 0.8896 -27.5408 38.5839)" class="st5" cx="66.041" cy="76.261" rx="3.401" ry="3.327"/>
		<g>
			<polygon class="st6" points="67.79,74.745 66.683,74.823 65.73,74.516 64.449,75.066 63.995,75.996 63.994,77.201 63.854,77.98 
				63.693,78.381 64.601,79.25 66.074,79.545 67.492,79.208 68.689,78.388 68.571,77.71 67.626,76.712 67.05,75.878 67.263,75.374 
							"/>
			<g>
				<g>
					<path class="st7" d="M68.835,78.314c0,0-0.001,0-0.001,0.001c-0.098,0.049-0.218,0.01-0.267-0.088
						c-0.133-0.264-0.333-0.662-0.532-0.87c-0.107-0.112-0.231-0.209-0.361-0.313c-0.11-0.087-0.223-0.176-0.33-0.278
						c-0.31-0.295-0.47-0.635-0.449-0.957c0.02-0.321,0.216-0.624,0.547-0.855c-0.091,0.01-0.183,0.02-0.275,0.029
						C67.01,75,66.855,75.016,66.7,75.034c-0.043,0.005-0.086-0.004-0.123-0.026c-0.273-0.159-0.557-0.303-0.786-0.284
						c-0.426,0.035-0.986,0.221-1.282,0.636c-0.107,0.151-0.152,0.324-0.204,0.524l-0.035,0.131
						c-0.065,0.236-0.078,0.506-0.09,0.767l-0.001,0.027c-0.005,0.099-0.001,0.198,0.002,0.297c0.006,0.169,0.012,0.344-0.018,0.522
						c-0.048,0.289-0.161,0.509-0.281,0.743l-0.063,0.124c-0.049,0.099-0.169,0.138-0.267,0.089
						c-0.098-0.049-0.138-0.169-0.089-0.267l0.065-0.128c0.11-0.214,0.204-0.398,0.242-0.626c0.023-0.14,0.018-0.287,0.012-0.444
						c-0.004-0.107-0.008-0.218-0.002-0.33l0.001-0.027c0.013-0.269,0.027-0.574,0.104-0.853l0.033-0.125
						c0.056-0.219,0.115-0.444,0.265-0.655c0.318-0.447,0.906-0.746,1.573-0.802c0.333-0.028,0.668,0.136,0.962,0.303
						c0.134-0.015,0.269-0.029,0.404-0.044c0.156-0.017,0.311-0.033,0.466-0.051c0.125-0.014,0.295,0.007,0.399,0.109
						c0.065,0.064,0.096,0.149,0.087,0.24c-0.017,0.176-0.172,0.257-0.238,0.292c-0.327,0.171-0.531,0.417-0.546,0.657
						c-0.017,0.273,0.197,0.52,0.326,0.643c0.093,0.088,0.194,0.168,0.302,0.253c0.136,0.107,0.276,0.218,0.403,0.35
						c0.239,0.251,0.456,0.681,0.599,0.966C68.971,78.145,68.932,78.264,68.835,78.314z"/>
					<path class="st7" d="M65.026,75.635c-0.006-0.083,0.026-0.174,0.098-0.218l0.091-0.06c0.118-0.095,0.217-0.072,0.354-0.008
						c0.076,0.036,0.122,0.113,0.164,0.187c0.017,0.029,0.034,0.061,0.03,0.095c-0.003,0.026-0.018,0.048-0.034,0.069
						c-0.081,0.107-0.185,0.196-0.303,0.26c-0.066,0.036-0.148,0.064-0.215,0.03c-0.048-0.024-0.077-0.072-0.103-0.119
						C65.068,75.796,65.031,75.718,65.026,75.635z"/>
				</g>
				<path class="st4" d="M67.91,79.226c-0.401,0.206-0.736,0.289-1.136,0.389c-0.631,0.157-1.312,0.125-1.921-0.089
					c-1.299-0.457-2.253-1.802-2.269-3.198c-0.015-1.375,0.864-2.734,2.136-3.304c0.35-0.157,0.699-0.247,1.037-0.267
					c0.474-0.029,0.981,0.073,1.55,0.311c0.572,0.239,1.047,0.547,1.41,0.917c0.676,0.686,1.032,1.669,0.953,2.629
					c-0.077,0.935-0.584,1.809-1.392,2.398l-0.01,0.007C68.143,79.1,68.024,79.168,67.91,79.226z M64.741,73.456
					c-1.055,0.542-1.771,1.698-1.758,2.867c0.014,1.235,0.856,2.424,2.003,2.827c0.537,0.189,1.137,0.217,1.689,0.079
					c0.499-0.124,0.857-0.213,1.376-0.544c0.711-0.521,1.157-1.288,1.224-2.105c0.069-0.846-0.245-1.712-0.84-2.317
					c-0.326-0.331-0.757-0.61-1.28-0.829c-0.512-0.214-0.961-0.306-1.373-0.281c-0.29,0.018-0.593,0.096-0.899,0.233
					C64.836,73.409,64.788,73.432,64.741,73.456z"/>
			</g>
		</g>
	</g>
</g>
</svg>