<!-- Generator: Adobe Illustrator 20.1.0, SVG Export Plug-In  -->
<svg version="1.1"
	 xmlns="http://www.w3.org/2000/svg" xmlns:xlink="http://www.w3.org/1999/xlink" xmlns:a="http://ns.adobe.com/AdobeSVGViewerExtensions/3.0/"
	 x="0px" y="0px" width="26.877px" height="23.73px" viewBox="0 0 26.877 23.73" style="enable-background:new 0 0 26.877 23.73;"
	 xml:space="preserve">
<style type="text/css">
	.st0{fill:none;stroke:#000000;stroke-linecap:round;stroke-linejoin:round;stroke-miterlimit:10;}
</style>
<defs>
</defs>
<path class="st0" d="M3.773,17.218c-0.407-0.687-0.438-1.525-0.452-2.323C3.251,10.99,3.315,7.082,3.513,3.181"/>
<path class="st0" d="M15.982,23.23c-0.891-0.327-1.609-0.992-2.297-1.646c-1.065-1.013-2.126-2.052-2.914-3.293
	s-1.288-2.716-1.118-4.176c0.017-0.142,0.044-0.293,0.142-0.397c0.094-0.099,0.234-0.136,0.368-0.163
	c0.788-0.154,1.621-0.071,2.363,0.236c0.062-0.483-0.182-0.942-0.391-1.383c-1.352-2.855-2.517-5.799-3.483-8.807
	C8.364,2.708,8.15,1.581,8.848,0.95c0.439-0.396,1.085-0.433,1.676-0.448c0.349-0.009,0.737-0.004,0.993,0.233
	c0.149,0.138,0.228,0.334,0.302,0.523c0.414,1.055,0.829,2.117,1.05,3.229c0.119,0.601,0.374,1.264,0.569,1.844
	c0.238,0.712,0.473,1.296,0.794,1.975c0.536,1.132,0.772,2.38,1.003,3.611c-0.081-0.847,0.011-1.763,0.052-2.613
	c0.008-0.173,0.025-0.36,0.14-0.489c0.099-0.111,0.251-0.155,0.396-0.191c0.473-0.117,0.955-0.192,1.441-0.226
	c0.34-0.024,0.708-0.018,0.982,0.183c0.155,0.114,0.264,0.28,0.345,0.454c0.159,0.341,0.222,0.717,0.283,1.087
	c0.079,0.475,0.157,0.951,0.236,1.426c-0.165-0.803-0.111-1.701-0.094-2.52c0.002-0.101,0.005-0.206,0.045-0.299
	c0.112-0.26,0.446-0.322,0.728-0.342c0.53-0.037,1.062-0.05,1.594-0.038c0.119,0.003,0.242,0.007,0.351,0.056
	c0.101,0.045,0.182,0.126,0.255,0.21c0.641,0.737,0.772,1.774,0.875,2.745c-0.202-0.58,0.203-1.403,0.695-1.771
	c0.492-0.368,1.223-0.376,1.723-0.019c0.726,0.519,0.822,1.542,0.852,2.435c0.081,2.462,0.162,4.923,0.243,7.385"/>
<path class="st0" d="M0.5,4.948c1.102-0.72,1.798-2.018,3.021-2.506c0.056-0.022,0.117-0.043,0.175-0.03
	c0.061,0.014,0.108,0.062,0.15,0.108C4.248,2.962,4.58,3.461,4.911,3.958c0.378,0.57,0.757,1.139,1.135,1.709"/>
</svg>