<!-- Generator: Adobe Illustrator 24.1.0, SVG Export Plug-In  -->
<svg version="1.1" xmlns="http://www.w3.org/2000/svg" xmlns:xlink="http://www.w3.org/1999/xlink" x="0px" y="0px"
	 width="104.543px" height="66.884px" viewBox="0 0 104.543 66.884" style="enable-background:new 0 0 104.543 66.884;"
	 xml:space="preserve">
<style type="text/css">
	.st0{fill:#FFFFFF;}
</style>
<defs>
</defs>
<g>
	<g>
		<path class="st0" d="M0,18.148c0-1.789,0.511-3.493,1.96-6.561L7.498,0h6.135l-3.493,13.036c1.704,1.278,2.726,2.897,2.726,5.112
			c0,3.493-2.897,6.22-6.475,6.22S0,21.642,0,18.148z"/>
		<path class="st0" d="M60.153,28.628c0,23.601-10.395,32.803-33.4,38.256l-2.3-7.753c14.314-3.749,22.494-9.287,24.027-20.619
			c-2.726,3.493-6.731,5.964-12.269,5.964c-8.861,0-16.103-7.072-16.103-18.659c0-12.014,8.861-19.426,19.938-19.426
			C53.336,6.39,60.153,15.422,60.153,28.628z M48.991,30.673c0.17-11.843-2.556-16.189-8.946-16.189
			c-5.538,0-9.032,3.834-9.032,11.162c0,7.839,3.579,10.906,8.179,10.906C43.112,36.552,46.435,34.422,48.991,30.673z"/>
		<path class="st0" d="M79.408,15.507v14.229c2.897-1.448,5.879-2.13,8.691-2.13c9.543,0,16.444,6.816,16.444,18.489
			c0,11.758-8.435,19.938-21.386,19.938c-8.009,0-13.632-3.238-18.063-8.094l6.305-5.879c3.067,3.579,6.731,5.538,11.502,5.538
			c6.39,0,10.395-4.09,10.395-11.502c0-7.924-3.919-10.65-9.202-10.65c-2.641,0-4.771,0.596-7.413,1.96h-7.753V7.413h33.229
			l-1.278,8.094H79.408z"/>
	</g>
</g>
</svg>