<!-- Generator: Adobe Illustrator 24.1.0, SVG Export Plug-In  -->
<svg version="1.1" xmlns="http://www.w3.org/2000/svg" xmlns:xlink="http://www.w3.org/1999/xlink" x="0px" y="0px"
	 width="195.651px" height="117.832px" viewBox="0 0 195.651 117.832" style="enable-background:new 0 0 195.651 117.832;"
	 xml:space="preserve">
<style type="text/css">
	.st0{fill:none;stroke:#010101;stroke-linecap:round;stroke-linejoin:round;stroke-miterlimit:10;}
	.st1{fill:#F7D83E;stroke:#000000;stroke-miterlimit:10;}
	.st2{fill:none;stroke:#231F20;stroke-linejoin:round;stroke-miterlimit:10;}
	.st3{fill:#FFFFFF;}
	.st4{fill:none;stroke:#221F1F;stroke-linecap:round;stroke-linejoin:round;stroke-miterlimit:10;}
	.st5{fill:#221F1F;}
	.st6{font-family:'FiraSans-Bold';}
	.st7{font-size:14px;}
</style>
<defs>
</defs>
<g>
	<path class="st0" d="M73.442,21.445c0.127,1.634,1.174,9.371,2.151,13.989c0.194,0.918,0.401,1.839,0.764,2.704
		c0.532,1.267,1.383,2.37,2.254,3.433c1.525,1.862,3.139,3.65,4.837,5.356c0.625,0.628,1.288,1.292,1.501,2.152
		c0.274,1.108-0.264,2.238-0.786,3.252c-0.644,1.25-1.724,2.714-3.087,2.367c-0.702-0.178-1.181-0.8-1.688-1.317
		c-2.142-2.187-5.404-2.868-7.811-4.759c-1.307-1.027-2.317-2.376-3.312-3.709c-2.008-2.691-4.03-5.404-5.475-8.435
		c-0.273-0.573-0.57-1.202-1.146-1.468c-0.868-0.399-1.839,0.227-2.587,0.82c-1.443,1.144-2.893,2.294-4.131,3.657
		c-1.84,2.026-3.459,4.671-6.148,5.181c-0.598,0.113-1.221,0.11-1.796,0.31c-1.914,0.669-2.389,3.141-2.339,5.169
		c0.014,0.587,0.039,1.207-0.241,1.722c-0.301,0.553-0.909,0.882-1.526,1.006c-2.207,0.443-4.16-1.319-5.942-2.694
		c-1.782-1.375-4.541-2.394-6.093-0.764c-0.374,0.392-0.619,0.898-1.018,1.265c-1.385,1.274-3.566,0.276-5.446,0.2
		c-3.896-0.157-7.003,3.95-10.898,3.774c-1.093-0.049-2.168-0.444-3.258-0.341c-1.458,0.139-3.129,1.094-4.219,0.115
		c-0.399-0.358-0.58-0.895-0.715-1.414c-1.726-6.641,1.624-13.484,5.332-19.258c2.707-4.215,5.663-8.269,8.849-12.135
		c0.535-0.649,1.092-1.306,1.825-1.718c0.523-0.293,1.11-0.448,1.69-0.599c2.302-0.6,4.603-1.2,6.905-1.799
		c0.712-1.82,2.81-2.615,4.698-3.119c5.55-1.48,11.269-2.208,16.967-2.932c4.183-0.531,8.703-1.002,12.374,1.072
		c1.557,0.88,2.841,2.161,4.105,3.426c1.673,1.675,3.346,3.35,5.02,5.025L73.442,21.445z"/>
	<path class="st0" d="M42.918,52.901c0.391,3.867,2.67,4.424,4.318,7.944c0.732,1.564,1.191,3.253,2.037,4.759
		c1.401,2.494,3.797,4.364,4.941,6.985c0.515,1.181,0.752,2.467,0.865,3.751c0.348,3.951-0.437,7.905-1.248,11.788
		c-1.335,6.388-2.752,12.759-4.251,19.111c-0.217,0.921-0.446,1.864-0.977,2.647c-0.83,1.224-2.305,1.888-3.772,2.073
		s-2.952-0.047-4.413-0.279c-0.285-0.045-0.605-0.114-0.754-0.361c-0.08-0.133-0.093-0.294-0.104-0.449
		c-0.227-3.162-0.455-6.323-0.682-9.485c-0.187-2.604-0.373-5.237,0.052-7.813c0.507-3.071,1.871-5.976,2.13-9.078
		c0.118-1.405-0.015-2.889-0.755-4.09c-0.543-0.881-1.376-1.551-1.949-2.413c-0.561-0.844-0.859-1.854-1.501-2.638
		c-1.12-1.369-3.037-1.783-4.403-2.906c-0.821-0.675-1.461-1.618-2.448-2.012c-0.636-0.253-1.341-0.244-2.022-0.315
		c-3.544-0.37-6.681-3.243-7.361-6.741"/>
	<path class="st0" d="M39.22,107.633c-0.938,0.004-1.858,0.135-2.707,0.525c-0.643,0.295-1.212,0.726-1.816,1.096
		c-2.032,1.242-4.492,1.768-6.854,1.464c-0.736-1.648-0.545-3.537-0.455-5.34c0.157-3.155-0.069-6.428-1.486-9.25
		c-0.282-0.562-0.611-1.106-0.788-1.709c-0.184-0.628-0.193-1.293-0.201-1.947c-0.029-2.398-0.057-4.8,0.162-7.188
		c0.156-1.698,0.438-3.396,0.331-5.097c-0.139-2.204-0.922-4.309-1.697-6.377c-0.375-1-0.752-2.006-1.298-2.923
		c-0.67-1.125-1.575-2.088-2.472-3.041c-2.57-2.729-5.141-5.459-7.711-8.188c-1.042-1.107-2.798-3.499-3.47-4.862"/>
	<path class="st0" d="M37.711,76.333c0.787,6.492-0.636,9.875-1.463,16.362c-0.288,2.262-0.502,4.645,0.378,6.749
		s1.263,2.324,2.21,2.955"/>
	<path class="st0" d="M27.415,105.801c1.274,0.116,2.331,0.017,3.495-0.484c2.489-1.07,3.774-3.798,5.801-5.596"/>
	<path class="st0" d="M49.288,108.614c0.632,0.231,1.207,0.591,1.816,0.877c2.946,1.382,6.694,1.061,9.108,3.244
		c0.405,0.366,0.776,0.849,0.755,1.394c-0.026,0.672-0.644,1.183-1.283,1.392c-0.639,0.209-1.328,0.207-1.98,0.37
		c-0.67,0.167-1.286,0.503-1.937,0.733c-1.309,0.464-2.726,0.492-4.115,0.515c-3.795,0.064-7.589,0.128-11.384,0.192
		c-0.304,0.005-0.635,0.002-0.877-0.183c-0.3-0.229-0.357-0.649-0.391-1.025c-0.146-1.615-0.19-3.461,0.483-4.85"/>
	<path class="st0" d="M73.963,23.572c0.804-0.375,1.574-0.811,2.236-1.397c0.193-0.171,0.386-0.359,0.634-0.429
		c0.159-0.044,0.327-0.036,0.492-0.027c0.358,0.02,0.717,0.039,1.075,0.059c0.134-1.757,0.21-3.313,0.509-5.046"/>
	<path class="st0" d="M59.308,8.448c1.439-0.355,3.74,0.253,5.036,0.972c0.383,0.212,0.741,0.467,1.084,0.738
		c0.969,0.769,1.822,1.684,2.52,2.706c0.54,0.791,1.176,1.753,2.133,1.724c0.55-0.017,1.025-0.376,1.549-0.545
		c0.726-0.233,1.584-0.061,2.117,0.483c0.311,0.317,0.509,0.743,0.864,1.01c0.825,0.62,2.037,0.116,3.015,0.444
		c0.654,0.219,1.148,0.794,1.812,0.979c0.871,0.243,1.813-0.275,2.332-1.015c0.52-0.74,0.707-1.657,0.859-2.548
		c0.318-1.858,0.537-3.793,0.018-5.605c-0.212-0.742-0.544-1.443-0.901-2.127c-0.37-0.71-0.77-1.405-1.197-2.083
		c-0.112-0.177-0.228-0.356-0.392-0.486c-0.246-0.195-0.567-0.256-0.867-0.347c-1.149-0.346-2.108-1.175-3.261-1.507
		c-0.96-0.277-1.981-0.19-2.976-0.268c-1.26-0.099-2.495-0.464-3.759-0.473c-1.995-0.015-3.878,0.852-5.684,1.7
		c-0.397,0.187-0.8,0.377-1.128,0.667c-0.32,0.283-0.555,0.649-0.786,1.009c-0.516,0.806-1.032,1.612-1.547,2.418
		c-0.284,0.443-0.569,0.89-0.759,1.38c-0.223,0.575-0.614,2.845-0.499,3.451"/>
	<path class="st0" d="M54.453,19.589c0.081,0.357-0.109,0.761,0.065,1.083c0.054,0.101,0.14,0.181,0.214,0.268
		c0.226,0.263,0.359,0.594,0.574,0.866c0.433,0.548,1.163,0.821,1.526,1.418"/>
	<path class="st0" d="M49.96,29.04c1.423,0.017,2.847,0.034,4.27,0.052c0.147,0.002,0.298,0.003,0.436-0.048
		c0.169-0.062,0.301-0.195,0.436-0.314c0.285-0.25,0.61-0.454,0.96-0.6"/>
	<path class="st0" d="M84.523,49.457c1.622-0.233,3.302-0.046,4.833,0.539c0.451,0.172,0.91,0.395,1.185,0.792
		c0.177,0.255,0.263,0.563,0.434,0.822c0.142,0.214,0.337,0.387,0.541,0.542c1.109,0.844,2.81,1.338,4.188,1.134
		c0.313,0.56-0.168,1.284-0.769,1.507s-1.266,0.12-1.907,0.112c-0.184-0.002-0.373,0.004-0.546,0.067
		c-0.19,0.069-0.349,0.202-0.504,0.331c-0.438,0.367-0.876,0.734-1.313,1.101c-0.484,0.406-0.989,0.823-1.599,0.987
		c-1.192,0.321-2.406-0.404-3.341-1.21c-0.935-0.806-1.834-1.764-3.035-2.05"/>
	<path class="st1" d="M94.981,53.246c0.488-0.826,1.582-1.019,2.54-1.079c1.517-0.095,3.042-0.068,4.555,0.081
		c0.401,0.039,0.819,0.086,1.197-0.055c0.378-0.141,0.696-0.535,0.602-0.927c-0.056-0.236-0.242-0.415-0.418-0.58
		c-0.954-0.892-1.939-1.805-3.156-2.282c-0.953-0.374-1.994-0.457-3.017-0.484c-0.608-0.016-1.228-0.013-1.805,0.176
		c-0.527,0.172-0.993,0.489-1.495,0.726c-1.268,0.597-2.838,0.725-3.756,1.784"/>
	<path class="st2" d="M67.464,111.721c0.57,1.288,1.512,2.41,2.683,3.193c0.143,0.095,0.302,0.19,0.473,0.177
		c0.348-0.025,0.506-0.442,0.562-0.786c0.178-1.1,0.163-2.301,0.818-3.202c0.24,1.308,0.716,2.573,1.399,3.715"/>
	<path class="st2" d="M3.914,112.197c-1.437-0.897-2.629-2.183-3.414-3.684c3.854-1.044,8.239,0.197,10.974,3.106
		c0.117-1.558-0.003-3.135-0.357-4.657c1.105-0.317,2.241,0.368,3.097,1.135c0.856,0.767,1.666,1.685,2.777,1.981
		c0.017-1.089,0.084-2.178,0.201-3.261c0.024-0.225,0.069-0.48,0.261-0.6c0.267-0.167,0.605,0.042,0.848,0.242
		c2.177,1.79,4.349,3.586,6.516,5.388"/>
	<path class="st2" d="M100.406,97.58c-1.343-0.881-2.35-2.262-2.778-3.81c2.284-0.285,4.343,1.696,6.643,1.597
		c0.051-1.008,0.065-2.018,0.043-3.027c0.657-0.135,1.249,0.389,1.716,0.87c0.596,0.615,1.192,1.23,1.787,1.844
		c0.11,0.113,0.226,0.231,0.377,0.276c0.51,0.152,0.825-0.555,0.834-1.087s0.078-1.236,0.6-1.336c0.453-0.087,0.786,0.385,1.1,0.723
		c0.392,0.421,0.933,0.699,1.503,0.774"/>
	<g>
		<path class="st3" d="M139.818,85.265c-0.086-0.136-0.173-0.274-0.29-0.385c-0.135-0.127-0.305-0.212-0.472-0.293
			c-1.31-0.639-2.519-1.983-3.888-2.482l-0.665-0.613c-1.01-0.908-1.666-0.403-2.995-0.681c-0.178-0.037-0.357-0.068-0.531-0.12
			c-0.175-0.052-0.342-0.126-0.51-0.199c-0.885-0.387-1.795-0.776-2.76-0.83c-0.82-0.047-1.632,0.151-2.43,0.348
			c-0.784,0.194-1.577,0.393-2.291,0.77c-1.42,0.751-2.39,2.132-3.172,3.535c-0.256,0.459-0.502,0.937-0.583,1.457
			c-0.073,0.466-0.009,0.942,0.026,1.412c0.11,1.475-0.068,2.971-0.52,4.38c-0.057,0.176-0.117,0.371-0.04,0.539
			c0.128,0.279,0.517,0.283,0.82,0.239c1.297-0.189,2.62-0.496,3.685-1.26c0.373-0.267,0.706-0.585,1.071-0.862
			c1.139-0.865,2.555-1.307,3.974-1.483c1.42-0.176,2.857-0.103,4.285-0.029c1.152,0.06,2.332,0.126,3.392,0.582
			c0.62,0.267,1.221,0.672,1.896,0.653c0.577-0.016,1.098-0.345,1.544-0.712c0.595-0.489,1.145-1.129,1.204-1.897
			C140.629,86.589,140.216,85.898,139.818,85.265z"/>
		<path class="st4" d="M132.714,89.713c-0.335,0.223-0.981,0.639-1.316,0.862c-0.688,0.459-1.385,0.922-2.171,1.202
			c-0.786,0.28-1.682,0.362-2.453,0.05"/>
		<path class="st4" d="M127.33,89.063c0.143-0.185,0.288-0.372,0.476-0.515c0.188-0.143,0.426-0.24,0.667-0.218"/>
		<path class="st4" d="M123.946,87.11c-0.155,0.034-0.512,0.238-0.631,0.338c-0.37,0.312-0.703,0.663-0.991,1.045"/>
		<path class="st4" d="M122.335,90.351c0.437,0.074,1.162-0.142,1.562-0.327"/>
		<path class="st4" d="M129.433,78.725c-0.04,0.224-0.232,0.394-0.329,0.602c-0.079,0.168-0.134,0.414-0.083,0.591
			c0.324,1.134-0.053,2.333-0.426,3.455c-0.196,0.59-0.393,1.18-0.592,1.77c-0.109,0.324-0.22,0.648-0.317,0.976
			c-0.314,1.062-0.486,2.156-0.657,3.247c-0.065,0.413-0.129,0.826-0.194,1.239c-0.061,0.387-0.121,0.78-0.066,1.168
			c0.065,0.456,0.288,0.878,0.388,1.329c0.099,0.451,0.04,0.987-0.344,1.269c-0.098,0.072-0.211,0.122-0.323,0.172
			c-0.275,0.122-0.591,0.235-0.883,0.312c-0.493,0.131-1.015,0.098-1.524,0.064c-0.335-0.023-0.693-0.054-0.95-0.259
			c-0.276-0.221-0.366-0.598-0.326-0.941s0.191-0.663,0.324-0.984c1.117-2.695,1.061-5.712,0.526-8.56
			c-0.08-0.428-0.258-0.941-0.706-1.018c-0.343-0.059-0.678,0.197-0.811,0.506c-0.133,0.308-0.113,0.654-0.092,0.986
			c0.064,0.979,0.129,1.958,0.193,2.937c0.075,1.148,0.15,2.307-0.041,3.444c-0.061,0.361-0.157,0.734-0.407,1.012
			c-0.415,0.461-1.122,0.533-1.757,0.561c-0.479,0.021-1.008,0.02-1.37-0.278c-0.578-0.477-0.345-1.438,0.232-1.921
			c0.136-0.113,0.29-0.216,0.376-0.367c0.117-0.206,0.083-0.456,0.045-0.686c-0.427-2.607-0.958-5.198-1.51-7.783
			c-0.138-0.647-0.278-1.294-0.417-1.94c-0.116-0.538-0.232-1.076-0.32-1.618c-0.465-2.887-0.134-5.817,1.007-8.532
			c0.338-0.738,0.264-1.549-0.145-2.251c-0.084-0.145-0.183-0.282-0.243-0.437c-0.048-0.125-0.071-0.257-0.092-0.388
			c-0.158-0.976-0.246-1.994,0.115-2.922c0.294-0.756,0.588-1.512,0.882-2.268c0.615-1.581-0.294-3.513,0.506-5.017
			c0.048-0.09,0.101-0.18,0.182-0.244c0.124-0.097,0.297-0.117,0.455-0.097c0.594,0.076,0.974,0.624,1.275,1.118
			c0.27,0.444,0.541,0.889,0.811,1.333c0.163,0.268,0.336,0.546,0.606,0.717c0.305,0.193,0.69,0.222,1.056,0.246
			c0.707,0.046,1.583,0.262,2.12,0.137c0.537-0.125,0.963-1.292,1.445-1.939c0.29-0.389,0.595-0.791,1.035-1.016
			c0.44-0.225,1.057-0.211,1.367,0.16c0.157,0.188,0.212,0.433,0.249,0.67c0.245,1.575-0.137,3.179-0.091,4.771
			c0.03,1.015,0.234,2.019,0.285,3.033c0.051,1.014-0.065,2.076-0.62,2.945c-0.126,0.197-0.172,0.48-0.26,0.696
			c-0.056,0.138-0.06,0.436,0.073,0.661c0.615,1.696,2.457,2.468,3.573,3.911c0.359,0.464,0.643,0.976,0.925,1.487
			c0.581,1.051,1.162,2.102,1.744,3.153c0.297,0.536,0.595,1.076,0.787,1.655c0.184,0.553,0.269,1.131,0.35,1.707
			c0.052,0.367,0.104,0.737,0.081,1.107c-0.016,0.269-0.067,0.556-0.114,0.821c0.555,0.147,1.229,0.7,1.747,1.007
			c0.518,0.308,0.961,0.717,1.383,1.138c0.401,0.4,0.795,0.823,1.017,1.335c0.204,0.47,0.252,0.987,0.287,1.496
			c0.013,0.186,0.02,0.389-0.091,0.543c-0.054,0.075-0.133,0.131-0.211,0.184c-0.608,0.407-1.316,0.677-2.049,0.782
			c-0.315,0.045-0.633,0.06-0.951,0.073c-0.644,0.026-1.289,0.046-1.933,0.057c-0.341,0.006-0.683,0.01-1.021-0.034
			c-0.251-0.033-0.498-0.092-0.749-0.12c-1.702-0.184-2.746-2.201-2.795-3.912c-0.011-0.369,0.037-0.768,0.285-1.041
			c0.362-0.4,1.11-0.323,1.384,0.141c0.108,0.182,0.144,0.397,0.204,0.6c0.202,0.689,0.698,1.286,1.337,1.612
			c0.64,0.326,1.414,0.376,2.09,0.134"/>
		<path class="st5" d="M122.146,64.206c-0.125,0.158-0.142,0.092-0.258,0.2c-0.292,0.133-0.379,0.071-0.75,0.076
			c-0.09,0.001-0.184,0.002-0.265-0.038c-0.183-0.089-0.22-0.327-0.235-0.53c-0.023-0.323-0.034-0.684,0.179-0.928
			c0.067-0.077,0.154-0.136,0.246-0.18c0.35-0.164,0.8-0.083,1.068,0.195c0.268,0.278,0.331,0.734,0.146,1.073"/>
		<path class="st5" d="M126.859,63.315c0.092,0.185,0.023,0.171,0.073,0.326c-0.003,0.328-0.099,0.383-0.256,0.728
			c-0.038,0.084-0.079,0.171-0.15,0.23c-0.162,0.131-0.399,0.062-0.593-0.013c-0.31-0.119-0.649-0.265-0.782-0.569
			c-0.042-0.096-0.06-0.202-0.06-0.307c0-0.395,0.27-0.778,0.645-0.906s0.825,0.012,1.058,0.331"/>
	</g>
</g>
<g>
	<g>
		<path d="M148.165,57.866c0.334,2.273-0.531,4.1-2.347,4.366c-0.721,0.106-1.367-0.055-1.899-0.5l0.495,3.367l-2.156,0.558
			l-1.532-10.436l1.927-0.283l0.231,0.801c0.497-0.851,1.244-1.258,1.923-1.357C146.748,54.096,147.814,55.482,148.165,57.866z
			 M145.895,58.227c-0.269-1.829-0.783-2.25-1.545-2.137c-0.485,0.071-0.867,0.453-1.107,1.04l0.456,3.104
			c0.37,0.399,0.761,0.554,1.218,0.487C145.735,60.601,146.137,59.877,145.895,58.227z"/>
		<path d="M154.731,60.682l-0.232-0.915c-0.428,0.855-1.09,1.35-2.061,1.493c-1.372,0.202-2.182-0.586-2.391-2.014l-0.775-5.28
			l2.189-0.321l0.734,5.003c0.11,0.748,0.392,0.933,0.849,0.866c0.458-0.067,0.829-0.433,1.066-1.034l-0.751-5.114l2.189-0.322
			l1.08,7.359L154.731,60.682z"/>
		<path d="M162.32,51.936l-0.035,2.172c-0.245-0.021-0.431-0.036-0.681,0c-0.914,0.134-1.189,0.869-1.259,2.025l0.535,3.645
			l-2.19,0.322l-1.08-7.359l1.913-0.281l0.389,1.401c0.182-1.074,0.812-1.79,1.658-1.914
			C161.847,51.907,162.074,51.901,162.32,51.936z"/>
		<path d="M168.22,51.069l-0.035,2.172c-0.245-0.021-0.431-0.036-0.681,0c-0.914,0.134-1.189,0.868-1.259,2.025l0.535,3.645
			l-2.19,0.322l-1.08-7.359l1.913-0.281l0.389,1.401c0.182-1.074,0.812-1.79,1.658-1.914
			C167.748,51.04,167.975,51.035,168.22,51.069z"/>
		<path d="M174.121,50.203l-0.035,2.172c-0.243-0.021-0.43-0.036-0.681,0c-0.914,0.134-1.189,0.869-1.259,2.026l0.535,3.645
			l-2.19,0.322l-1.08-7.359l1.913-0.281l0.389,1.401c0.182-1.074,0.813-1.79,1.658-1.914
			C173.648,50.173,173.876,50.168,174.121,50.203z"/>
		<path d="M180.021,49.336l-0.035,2.171c-0.243-0.021-0.43-0.036-0.68,0c-0.914,0.134-1.189,0.869-1.26,2.025l0.535,3.646
			l-2.19,0.321l-1.08-7.359l1.913-0.281l0.389,1.401c0.183-1.074,0.813-1.79,1.658-1.914
			C179.548,49.307,179.776,49.301,180.021,49.336z"/>
		<path d="M185.922,48.47l-0.036,2.171c-0.243-0.021-0.43-0.036-0.68,0.001c-0.914,0.134-1.189,0.868-1.26,2.025l0.535,3.645
			l-2.189,0.322l-1.08-7.359l1.912-0.281l0.39,1.401c0.182-1.074,0.812-1.79,1.658-1.914C185.45,48.44,185.676,48.435,185.922,48.47
			z"/>
		<path d="M191.542,50.32c0.485-0.071,0.646-0.42,0.807-0.869l1.299,0.461c-0.303,0.922-0.799,1.887-1.963,2.058
			c-1.247,0.183-1.787-0.601-2.452-0.503c-0.499,0.073-0.653,0.463-0.815,0.912l-1.299-0.46c0.303-0.922,0.809-1.917,1.974-2.087
			C190.324,49.65,190.863,50.419,191.542,50.32z"/>
	</g>
</g>
</svg>