<svg id="_Layer_" data-name="&lt;Layer&gt;" xmlns="http://www.w3.org/2000/svg" viewBox="0 0 145.6 170.88"><defs><style>.cls-1,.cls-2,.cls-3{fill:none;}.cls-1,.cls-2,.cls-5,.cls-6{stroke:#231f20;}.cls-1,.cls-2,.cls-3,.cls-5,.cls-6{stroke-linecap:round;stroke-linejoin:round;}.cls-2{stroke-dasharray:1.96 2.95;}.cls-3{stroke:#010101;}.cls-4{fill:#010101;}.cls-5{fill:#fff;}.cls-6{fill:#e64c3c;}</style></defs><path class="cls-1" d="M770.77,262.06l-8.8.29a5.52,5.52,0,0,0-1.44.18,4.17,4.17,0,0,0-2.14,1.82c-.6.92-1,2.19-.34,3.07s1.71,1,1.83,2c-1.11.42-2.35.09-3.53,0a7.6,7.6,0,0,0-3.57.71c-1.14.54-2.25,1.67-1.93,2.89s1.68,1.6,2.86,1.66a18,18,0,0,0,5.45-.82q3.21-.85,6.39-1.83c.73-.23,1.56-.55,1.8-1.28.32-1-.6-1.86-1.41-2.46" transform="translate(-667.6 -147.16)"/><path class="cls-1" d="M766.33,271.93l4,3.77a1.29,1.29,0,1,0,.29,2.44,1.89,1.89,0,0,0,1.66,2,3.12,3.12,0,0,1,.88.08c.5.19.69.79.8,1.32,1.62,7.9-1.21,16-1.37,24.07a3.8,3.8,0,0,0,.46,2.27c.67,1,2,1.14,3.18,1.22.69,0,1.63-.09,1.71-.78a1.48,1.48,0,0,0-.19-.75,10.36,10.36,0,0,1-.84-4.87c.18-2.51,1.26-4.84,2.08-7.22a35.55,35.55,0,0,0,1.9-10.07,4.56,4.56,0,0,1,.54-2.46,1.46,1.46,0,0,1,2.18-.34,2.22,2.22,0,0,1,.32,1.46,17.54,17.54,0,0,0,3.37,10.35c.68.92,1.45,1.78,2.21,2.63,1.38,1.53,2.9,3.15,4.91,3.57a2.38,2.38,0,0,0,1.61-.14,1.2,1.2,0,0,0,.62-1.38,2,2,0,0,0-.62-.75c-3.23-2.93-4.24-7.53-5.08-11.82a8.83,8.83,0,0,1,0-4.84,13.24,13.24,0,0,1,1.38-2.31,13,13,0,0,0,1.49-3.2,2.25,2.25,0,0,1,.43-.92,2.07,2.07,0,0,1,.85-.46l2.45-.85a7,7,0,0,1,3.25-.57c3.39.5,4.74,5.55,8.16,5.83a1,1,0,0,0,.48,0,1.24,1.24,0,0,0,.53-.57,8.27,8.27,0,0,0,1.44-3.69,11.83,11.83,0,0,0-1-4,8,8,0,0,1-.4-2.09c0-.76.1-1.52.05-2.28-.18-3.23-3.45-5.58-6.67-5.88a18.92,18.92,0,0,0-3.75.14c-2.22.24-4.44.53-6.66.8-3.29.4-6.68.73-9.87-.14-2.45-.67-4.9-2-7.37-1.43-1.86.46-3.39,2-5.3,2.13" transform="translate(-667.6 -147.16)"/><path class="cls-1" d="M797.56,263.26a1.56,1.56,0,0,0-1.18,1,4.22,4.22,0,0,0-.23,1.59q0,1.3.07,2.59a7,7,0,0,0,.37,2.08.88.88,0,0,0,.49.58,1,1,0,0,0,.82-.29,4.11,4.11,0,0,0,.86-.78,16.58,16.58,0,0,0,1-2.5,5.48,5.48,0,0,1,1.29-1.47,6.63,6.63,0,0,1,1.52-1.12" transform="translate(-667.6 -147.16)"/><path class="cls-1" d="M805.8,267.8a2.06,2.06,0,0,1-1.76-.11" transform="translate(-667.6 -147.16)"/><path class="cls-1" d="M767.73,278.78s-.36-.05-1-.08" transform="translate(-667.6 -147.16)"/><path class="cls-2" d="M763.8,278.81a21.5,21.5,0,0,0-9.09,3.15c-4.86,3.05-7.61,11.49-8.71,15.68" transform="translate(-667.6 -147.16)"/><path class="cls-1" d="M745.65,299.08c-.14.62-.21,1-.21,1" transform="translate(-667.6 -147.16)"/><path class="cls-1" d="M805.66,295.1a9,9,0,0,0,3.19,3.79.93.93,0,0,0,.56.21c.41,0,.6-.52.67-.93.21-1.31.19-2.73,1-3.8a13.28,13.28,0,0,0,1.66,4.41" transform="translate(-667.6 -147.16)"/><path class="cls-3" d="M709,174.24l1.94,1.85c.05.05.11.12.08.19s-.35.17-.43.21a2.3,2.3,0,0,1-1.11.23,3.14,3.14,0,0,1-1.41-.72,10.39,10.39,0,0,1-1.42-1.16.6.6,0,0,0-.29-.19c-.14,0-.31,0-.41.11s-.36.26-.61.34c-.4.13-1-.27-1.4-.26s-.61.24-1,.36a1.16,1.16,0,0,1-1.12-.12,2.21,2.21,0,0,0-.17-.17,1,1,0,0,0-.29-.12,3.45,3.45,0,0,1-1.07-.6,4.92,4.92,0,0,1-1.72-2.72,7.79,7.79,0,0,1-.16-1.7,4.48,4.48,0,0,1,.13-1.31c.12-.41.35-.78.49-1.19a1.49,1.49,0,0,0,0-1.24,1.53,1.53,0,0,0-1.33-.6c-.09,0-.2,0-.25-.08s.1-.28.24-.33l1.23-.47a2.36,2.36,0,0,1,.92-1,2.75,2.75,0,0,1,2.23,0,3,3,0,0,1,.79.72,5.48,5.48,0,0,1,.66,1,9.63,9.63,0,0,0,.52,1,4.35,4.35,0,0,0,1,.84,7.14,7.14,0,0,1,1.57,1.57c.17.23.32.48.47.72a16.71,16.71,0,0,1,1.69,3.55A3,3,0,0,1,709,174.24Z" transform="translate(-667.6 -147.16)"/><path class="cls-3" d="M702.55,175.29a6.3,6.3,0,0,0-.39,1l-.82,2.24a1.66,1.66,0,0,1-.23.46c-.18.23-.5.3-.76.43a5.88,5.88,0,0,0-.81.45" transform="translate(-667.6 -147.16)"/><path class="cls-3" d="M705.33,175.22c-.17,1.5-.22,2.76-.49,4.25a1.08,1.08,0,0,1-.29.67c-.31.26-.66.16-1.08.5" transform="translate(-667.6 -147.16)"/><path class="cls-3" d="M701.11,179a.4.4,0,0,1,.28.07,1.92,1.92,0,0,0,.26.15c.21.09.56.1.77.17" transform="translate(-667.6 -147.16)"/><path class="cls-4" d="M702,164.89a.76.76,0,0,1-.21.55.6.6,0,0,1-.15.09.81.81,0,0,1-.58,0,.62.62,0,0,1-.4-.41,1.08,1.08,0,0,1,0-.22.61.61,0,0,1,0-.21.39.39,0,0,1,.2-.22.87.87,0,0,1,.29-.08.92.92,0,0,1,.58.08A.6.6,0,0,1,702,164.89Z" transform="translate(-667.6 -147.16)"/><path class="cls-5" d="M721.93,178.62c0-.13-.42-.27-.38-.4a2.22,2.22,0,0,0,2.35-.91c.35-.68.42-1.46.73-2.15.22-.49.56-.92.81-1.4a8.58,8.58,0,0,0,.68-3.73l.19-6.23a8.39,8.39,0,0,0-1.4-6.11,9,9,0,0,0-2-2.6,8,8,0,0,0-3.36-1.31c-1.82-.37-3.81-.57-5.44.32-.32.17-.62.39-1,.53a8.52,8.52,0,0,1-.92.3,8.53,8.53,0,0,0-5.26,5.73,20.82,20.82,0,0,0-.52,8,5.11,5.11,0,0,0,.38,1.82,14.56,14.56,0,0,0,.82,1.26,11.77,11.77,0,0,1,1.33,5.46" transform="translate(-667.6 -147.16)"/><path class="cls-1" d="M718.26,225.84c7.68-1,14.93-2,22.61-3,1.92-.25,3.95-.48,5.73.29,2.85,1.23,4.1,4.56,4.71,7.61a43.34,43.34,0,0,1,.69,4.86,2,2,0,0,1-.18,1.3,2.1,2.1,0,0,1-1.3.71c-6.15,1.63-12.35,3.27-18.7,3.68-1.92.12-4,.09-5.58-1a8.07,8.07,0,0,1-2.8-4.61,23.17,23.17,0,0,0-1.73-5.21c-.91-1.6-2.61-2.92-4.43-2.72-1.41.16-3.2,1.52-4.59,1.81.52,6.13,1.46,14.28,2,20.41.12,1.42.3,3,1.34,4a5.27,5.27,0,0,0,2.53,1.13c6.82,1.53,13.92.07,20.76-1.4a55,55,0,0,0,9.35-2.58,4.42,4.42,0,0,0,2.22-1.57,4.36,4.36,0,0,0,.49-2.12,30.68,30.68,0,0,0-1.34-9.25" transform="translate(-667.6 -147.16)"/><path class="cls-1" d="M723.88,237.37a23.38,23.38,0,0,1,1,2.62,66.85,66.85,0,0,1,1.31,15.46" transform="translate(-667.6 -147.16)"/><path class="cls-1" d="M713.48,240.27a28.92,28.92,0,0,1-6.77.26,8.2,8.2,0,0,1-4.24-1.18,6.31,6.31,0,0,1-2.34-4,20.43,20.43,0,0,1-.19-4.7,151.45,151.45,0,0,0-2-29.61,29.68,29.68,0,0,0-.92-4.16c-.37-1.16-.87-2.28-1.17-3.45a14,14,0,0,1-.37-4,20.13,20.13,0,0,1,2.21-8.43c1.24-2.42,5.66-.62,8.14-1.71a28.65,28.65,0,0,0,3.12-2.11,11.18,11.18,0,0,1,5.11-1.34,11.36,11.36,0,0,1,5.22.63,5.19,5.19,0,0,1,3.25,3.9" transform="translate(-667.6 -147.16)"/><path class="cls-1" d="M738.12,205.23c.11,1,.6,1,1.09,1.94a47.11,47.11,0,0,1,2.64,7.45,37.46,37.46,0,0,0,3.69,7.91" transform="translate(-667.6 -147.16)"/><path class="cls-1" d="M739.16,218.25a13.37,13.37,0,0,0,2.49,4.33" transform="translate(-667.6 -147.16)"/><path class="cls-1" d="M738.86,222.68a50.7,50.7,0,0,0-.83-16c-.2-.93-.27-2.18.6-2.55a2.23,2.23,0,0,1,1.32,0A12.67,12.67,0,0,0,748.5,203a3.72,3.72,0,0,0,1.69-1.53,3.53,3.53,0,0,0,.27-1.52c0-4.32-2.85-8.07-5.75-11.28a120,120,0,0,0-9.16-9.09,1.11,1.11,0,0,0-.52-.31,1,1,0,0,0-.59.13,6.11,6.11,0,0,0-2.61,2.29" transform="translate(-667.6 -147.16)"/><path class="cls-1" d="M726.51,181.91a10.25,10.25,0,0,0,3.59-.17,2.53,2.53,0,0,1,1.06-.19,2,2,0,0,1,.85.43c2.26,1.66,4.38,3.52,6.5,5.36l5.57,4.87" transform="translate(-667.6 -147.16)"/><path class="cls-1" d="M722.6,180.26c-3.39,3.77-4.1,9.16-4.66,14.2l-3.79,34" transform="translate(-667.6 -147.16)"/><path class="cls-1" d="M722.57,180.38a4.47,4.47,0,0,1,3.68,1.55c-2.37,3-3.36,6.82-4.08,10.57-.76,3.95-1.27,7.94-1.7,11.94-.83,7.58-1.41,15.21-2.74,22.72" transform="translate(-667.6 -147.16)"/><path class="cls-1" d="M734.94,178.71c.19-.86-.23-1.77,0-2.63a6.87,6.87,0,0,1,.49-1.17,5,5,0,0,0-1.06-5.25,7.29,7.29,0,0,0-5.08-2.16c-.27.7.46,1.34,1,1.9a3.81,3.81,0,0,1,.93,2.06c0,.33,0,.73-.3.88-.58.3-1-.72-1.68-.77a.85.85,0,0,0-.81.69,2.47,2.47,0,0,0,.1,1.14c.68,2.78,1.39,5.63,3,8" transform="translate(-667.6 -147.16)"/><path class="cls-1" d="M726.41,167.88a24.12,24.12,0,0,0,2.48,0" transform="translate(-667.6 -147.16)"/><path class="cls-1" d="M725.33,175.1h3.51" transform="translate(-667.6 -147.16)"/><path class="cls-1" d="M728.57,175.64a1.22,1.22,0,0,1-.23,1.26c-.56.61-1.58.5-2.25,1s-.83,1.83-1.54,2.53" transform="translate(-667.6 -147.16)"/><path class="cls-1" d="M726,164.74a2,2,0,0,0-2.25.53,4.85,4.85,0,0,0-.76,1.55,11.18,11.18,0,0,1-1.38,2.58,4.64,4.64,0,0,1-1.94,1.71,5.51,5.51,0,0,1-1.26.29,51.19,51.19,0,0,1-10.39.45" transform="translate(-667.6 -147.16)"/><path class="cls-1" d="M701.37,238.61a45.09,45.09,0,0,0-.85,8.7c.06,7.14,2.27,14.09,2.82,21.2.26,3.28.16,6.58.13,9.87-.09,9.27,1.25,16.82,1.67,26.08a16,16,0,0,0,1.12,3.79,7.07,7.07,0,0,0,2.58,2.81,5.22,5.22,0,0,0,2.9,1,7.84,7.84,0,0,0,3.84-1.31c1.52-1.06,1.12-1.17,1.5-4,1.22-9.27,2.15-18.91,2.64-28.25a160.07,160.07,0,0,1,2.3-20,1.49,1.49,0,0,1,.19-.58,1.13,1.13,0,0,1,.82-.43c1.86-.22,3.11,1.85,3.71,3.63,3.68,10.94,4.84,20.06,3.41,31.51-.2,1.64-.37,7.5.66,8.81.69.88,1.48.53,2.44,1.12,1.12.7,2.88.54,4.92.37s3.12-1.13,4.06-3a9,9,0,0,0,.74-2.6,118.28,118.28,0,0,0-.61-44.14" transform="translate(-667.6 -147.16)"/><path class="cls-1" d="M730.91,301.74a19,19,0,0,0-.72,4.6,2.87,2.87,0,0,0,.54,2.28,2.82,2.82,0,0,0,1.65.62,16.69,16.69,0,0,0,5.2,0,24.2,24.2,0,0,0,2.69-.71l4.37-1.33a3.76,3.76,0,0,0,3.1-3.13,2.19,2.19,0,0,0,.11-1.71c-.37-.7-1.32-.78-2.11-.85a7.88,7.88,0,0,1-3.68-1.06" transform="translate(-667.6 -147.16)"/><path class="cls-1" d="M716.39,310.26a7.51,7.51,0,0,1,.75,3.47,4.1,4.1,0,0,1-.89,2.48,3.65,3.65,0,0,1-4,1.15,10.7,10.7,0,0,1-3.77-2.38c-2.79-2.36-5.63-4.79-7.52-7.91-.43-.71-.75-1.76-.09-2.26a3.23,3.23,0,0,1,2.13-.46c.7,0,1.46.22,2.17.22" transform="translate(-667.6 -147.16)"/><path class="cls-1" d="M732.58,198.71c-1.73.48-3.41-.78-4.76-2l-1.21-1.06" transform="translate(-667.6 -147.16)"/><path class="cls-1" d="M732.79,204c-.93-.07-1.68.69-2.46,1.2a5.32,5.32,0,0,1-3.52.85" transform="translate(-667.6 -147.16)"/><path class="cls-1" d="M672.16,309.28a11.44,11.44,0,0,1-4.05-4.38,13.45,13.45,0,0,1,13,3.69,18.41,18.41,0,0,0-.42-5.53c1.31-.38,2.66.44,3.68,1.35a8.78,8.78,0,0,0,3.3,2.35q0-1.94.24-3.87a.91.91,0,0,1,.31-.71c.32-.2.72,0,1,.29q3.88,3.19,7.74,6.4" transform="translate(-667.6 -147.16)"/><path class="cls-6" d="M721.94,152.17a8.2,8.2,0,0,1,1.63-4.51,5,5,0,0,1,.82,2.81l4,0a17,17,0,0,1-1.18,2.3l3.86.31a3.25,3.25,0,0,1-1.49,2c-.27.16-.61.38-.52.68s.23.26.4.34l3.61,1.62a31.5,31.5,0,0,1-4.47,1.55" transform="translate(-667.6 -147.16)"/></svg>