<!-- Generator: Adobe Illustrator 24.2.3, SVG Export Plug-In  -->
<svg version="1.1" xmlns="http://www.w3.org/2000/svg" xmlns:xlink="http://www.w3.org/1999/xlink" x="0px" y="0px"
	 width="85.084px" height="83.162px" viewBox="0 0 85.084 83.162"
	 style="overflow:visible;enable-background:new 0 0 85.084 83.162;" xml:space="preserve">
<style type="text/css">
	.st0{fill:none;stroke:#383838;stroke-linecap:round;stroke-linejoin:round;stroke-miterlimit:10;}
</style>
<defs>
</defs>
<g>
	<path class="st0" d="M14.652,81.266c-0.676,0.185-1.354-0.221-1.969-0.559s-1.409-0.61-1.979-0.202
		c-0.639,0.457-0.625,1.532-1.314,1.909c-0.382,0.209-0.869,0.12-1.242-0.104c-0.373-0.224-0.659-0.564-0.95-0.887
		c-0.924-1.024-1.976-1.932-3.123-2.697c-0.083,1.103-0.077,2.212,0.018,3.313C2.94,82.442,1.721,82.653,0.5,82.662"/>
	<path class="st0" d="M82.156,69.639c1.174-0.77,2.054-1.977,2.428-3.33c-1.996-0.249-3.796,1.482-5.805,1.396
		c-0.044-0.881-0.057-1.764-0.038-2.646c-0.574-0.118-1.091,0.34-1.5,0.761c-0.521,0.537-1.041,1.075-1.562,1.612
		c-0.096,0.099-0.198,0.202-0.33,0.241c-0.445,0.133-0.721-0.485-0.729-0.95c-0.007-0.465-0.068-1.08-0.525-1.168
		c-0.396-0.076-0.687,0.337-0.962,0.632c-0.342,0.368-0.815,0.611-1.313,0.676"/>
	<path class="st0" d="M36.427,46.018c0.957,0.625,1.125,1.954,1.034,3.093c-0.091,1.139-0.336,2.341,0.128,3.385
		c0.228,0.514,0.611,0.941,0.936,1.399c0.44,0.622,0.782,1.315,0.986,2.049c0.278,0.999,0.361,2.168,1.171,2.815
		c1.144,0.912,1.959,2.141,3.225,2.876c0.739,0.428,1.585,0.796,2.424,0.635c0.971-0.186,1.669-1.025,2.207-1.854
		c1.399-2.156,2.282-4.995,1.077-7.266c-0.54-1.018-1.475-1.87-1.645-3.011c-0.187-1.25,0.594-2.62,0.002-3.737
		c-0.295-0.557-0.883-0.919-1.157-1.487c-0.336-0.696-0.125-1.521-0.197-2.29c-0.102-1.083-0.765-2.029-1.05-3.079
		c-0.213-0.782-0.211-1.602-0.252-2.411c-0.182-3.669-1.405-7.511-4.29-9.785c-0.74-0.583-1.566-1.045-2.388-1.505
		c-1.115-0.623-2.23-1.247-3.345-1.87c-1.038-0.58-2.077-1.161-3.073-1.809c-1.011-0.657-3.289-0.718-4.494-0.771
		c-3.668-0.586-6.409-1.767-9.896-0.489c-1.27,0.465-1.466,1.018-2.584,1.78c-3.193,2.176-4.196,4.411-6.025,8.607
		c-0.648,1.487-1.657,2.63-2.119,4.185c-0.116,0.391-0.214,0.789-0.248,1.194c-0.046,0.553,0.026,1.107,0.099,1.657
		c0.106,0.803-0.097,2.273,0.009,3.077c0.209,1.583-0.653,2.699-0.251,4.245c0.176,0.678,0.542,1.288,0.821,1.93
		c0.535,1.234-0.035,2.173-0.176,3.511c-0.137,1.295-0.595,2.583-0.393,3.87c0.192,1.227,0.219,2.707,0.646,3.873
		c0.626,1.709-0.202,3.223,0.279,4.979c0.53,1.936,1.8,3.797,1.439,5.772c1.353,2.306,3.577,3.968,6.205,4.463
		c0.622,0.117,1.26,0.171,1.89,0.109c0.573-0.057,1.131-0.208,1.696-0.318c1.327-0.258,2.686-0.288,4.036-0.354
		c1.479-0.072,2.955-0.189,4.427-0.351c0.926-0.102,1.873-0.228,2.696-0.665c0.272-0.144,0.525-0.32,0.778-0.495
		c0.317-0.22,0.633-0.439,0.95-0.659c0.382-0.265,0.764-0.531,1.119-0.831c0.604-0.513,1.12-1.12,1.632-1.725
		c0.564-0.666,1.127-1.333,1.689-2c1.248-1.484,2.543-3.097,2.743-5.026c0.099-0.957-0.138-2.022-0.896-2.615
		c-0.709-0.554-1.804-0.659-2.219-1.457c-0.44-0.847-0.059-1.79-0.47-2.765c0.552-2.08,0.622-4.152,0.702-6.303
		c0.088-2.356,0.209-5.159-0.291-7.347"/>
	<path class="st0" d="M49.565,52.399c-0.057-0.341-0.105-0.724,0.097-1.004c0.066-0.092,0.155-0.166,0.228-0.253
		c0.295-0.352,0.293-0.866,0.505-1.273c0.028-0.054,0.062-0.108,0.114-0.141c0.205-0.131,0.421,0.154,0.491,0.388
		c0.07,0.233,0.246,0.532,0.47,0.437c0.153-0.064,0.176-0.267,0.176-0.433c0-0.509-0.001-1.018-0.001-1.526
		c0-0.158-0.002-0.324-0.083-0.46c-0.06-0.102-0.158-0.174-0.253-0.245c-0.528-0.39-1.057-0.78-1.585-1.171
		c-0.207-0.153-0.423-0.309-0.675-0.357c-0.252-0.047-0.552,0.05-0.653,0.285"/>
	<path class="st0" d="M49.485,52.209c1.16-0.617,2.321-1.234,3.481-1.85c0.452-0.24,0.909-0.482,1.402-0.616
		c0.527-0.143,1.04-0.358,1.546-0.562c0.669-0.27,1.055-0.874,1.775-0.834c-0.006,0.452,0.111,1.112-0.122,1.5
		c-0.846,0.339-1.692,0.679-2.537,1.018c-0.436,0.175-0.872,0.35-1.3,0.544c-1.317,0.597-2.566,1.376-3.965,1.742"/>
	<path class="st0" d="M57.851,48.166c-1.99,0.024-3.981,0.048-5.971,0.071"/>
	<path class="st0" d="M57.77,48.185c1.103-3.712,2.182-7.42,3.396-11.119c0.38-1.157,0.827-2.293,1.34-3.398
		c0.241-0.519-0.049-0.703-0.62-0.707c-4.871-0.04-11.77-0.097-17.187-0.081"/>
	<path class="st0" d="M62.557,33.118c0.433,0.349,0.598,0.95,0.56,1.505s-0.25,1.082-0.454,1.6
		c-1.419,3.612-2.55,7.338-3.379,11.129c-0.232,1.063-0.573,1.976-1.567,2.419"/>
	<path class="st0" d="M17.375,14.984c1.135-0.278,2.293,0.242,3.447,0.421c0.922,0.143,1.862,0.067,2.794,0.112
		c0.93,0.045,1.898,0.205,2.766-0.13c1.073-0.414,1.727-1.47,2.396-2.406c0.57-0.797,1.203-1.55,1.893-2.247
		c0.291-0.294,0.637-0.598,1.051-0.595c0.293,0.002,0.559,0.159,0.836,0.256c0.435,0.152,0.907,0.157,1.368,0.145
		c0.926-0.024,1.975-0.174,2.503-0.935c0.171-0.247,0.269-0.539,0.336-0.832c0.468-2.053-0.547-4.245-2.151-5.609
		c-1.604-1.365-3.702-2.013-5.784-2.326C27.136,0.584,25.419,0.53,23.706,0.5c-1.036-0.018-2.159,0.449-3.056,0.967
		c-0.525,0.303-0.911,0.3-1.318,0.75c-0.501,0.554-0.917,1.128-1.27,1.788c-0.429,0.802-0.863,1.722-1.144,2.587
		c-0.644,1.982-0.597,3.93-0.317,6.246c0.047,0.393-0.019,0.795,0.068,1.181c0.163,0.723,0.64,1.331,0.923,2.016
		c0.493,1.194,1.148,2.942,0.315,4.442"/>
	<path class="st0" d="M35.158,10.707c-0.057,1.085-0.114,2.171-0.171,3.256c-0.035,0.665-0.071,1.337-0.268,1.973
		c-0.475,1.533-1.805,2.639-2.549,4.061c-0.222,0.424-0.393,0.879-0.678,1.265c-0.124,0.168-0.28,0.328-0.481,0.384
		c-0.149,0.041-0.721-0.075-0.874-0.095"/>
	<path class="st0" d="M39.61,57.159c-0.723,0.393-1.382,0.903-1.945,1.503"/>
	<path class="st0" d="M54.02,51.509c0.683,0.271,1.022,1.017,1.355,1.673c1.246,2.456,3.251,4.436,4.771,6.732
		c1.039,1.569,1.484,2.608,2.678,4.063c-0.04-0.09,0.54,0.798,0.5,0.708c0.542,0.708,1.033,1.262,0.897,2.236
		s-0.772,1.834-1.591,2.378s-1.802,0.798-2.782,0.876c-1.203,0.096-2.466-0.075-3.484-0.725c-0.367-0.234-0.694-0.526-1.047-0.78
		c-0.624-0.45-1.323-0.782-2.018-1.112c-1.115-0.529-2.209-1.048-3.324-1.577c-2.094,3.22-3.517,5.497-6.328,8.115
		c-0.355,0.331-0.754,0.666-1.237,0.713c-1.868,0.183-3.538,0.764-5.267,1.495c-0.522,0.22-1.039,0.464-1.594,0.579
		c-0.468,0.097-0.951,0.1-1.426,0.158c-0.728,0.09-1.433,0.312-2.155,0.44c-0.796,0.142-1.608,0.169-2.416,0.197
		c-1.614,0.054-3.227,0.109-4.841,0.163c-1.197,0.04-2.395,0.081-3.593,0.081c-1.487,0.001-3.015-0.068-4.376-0.668
		c-1.043-0.46-1.93-1.207-2.78-1.967c-0.669-0.597-1.325-1.209-1.969-1.833c-0.587-0.569-1.184-1.186-1.409-1.971"/>
	<path class="st0" d="M36.063,53.938c0.449,0.29,0.796,0.709,1.135,1.122c0.606,0.74,1.209,1.483,1.809,2.228"/>
	<path class="st0" d="M52.626,67.391c0.121,0.469-0.193,0.929-0.49,1.312c-0.379,0.489-0.803,1.009-1.404,1.156
		c-0.508,0.124-1.042-0.049-1.512-0.277c-0.471-0.228-0.638-0.312-1.146-0.439"/>
	<path class="st0" d="M63.29,64.282c1.153-0.465,2.324-0.887,3.51-1.265c0.651-0.207,1.411-0.387,1.975-0.001
		c0.485,0.332,0.642,0.965,0.762,1.541c0.11,0.526,0.217,1.086,0.031,1.59c-0.103,0.278-0.287,0.516-0.469,0.749
		c-0.479,0.614-0.958,1.228-1.437,1.843c-0.386,0.494-0.777,0.995-1.277,1.373c-0.394,0.298-0.844,0.512-1.274,0.755
		c-0.867,0.489-1.664,1.103-2.562,1.532s-1.95,0.664-2.891,0.34c-0.483-0.166-0.906-0.468-1.311-0.78
		c-0.29-0.223-0.58-0.46-0.768-0.774s-0.469-0.58-0.299-0.904c-0.593,0.356-1.19,0.714-1.711,1.17
		c-0.229,0.201-0.449,0.423-0.726,0.551c-0.335,0.154-0.718,0.152-1.087,0.146c-0.386-0.005-0.782-0.013-1.141-0.153
		c-0.604-0.235-1.008-0.8-1.339-1.358c-0.184-0.31-0.386-0.652-0.729-0.763"/>
	<path class="st0" d="M50.927,64.024c0.185-0.26,0.371-0.519,0.556-0.779c0.093-0.13,0.188-0.264,0.236-0.417
		c0.046-0.147,0.046-0.304,0.046-0.458c-0.002-0.833-0.003-1.666-0.005-2.498"/>
</g>
</svg>