<!-- Generator: Adobe Illustrator 24.1.0, SVG Export Plug-In  -->
<svg version="1.1" xmlns="http://www.w3.org/2000/svg" xmlns:xlink="http://www.w3.org/1999/xlink" x="0px" y="0px"
	 width="173.913px" height="142.667px" viewBox="0 0 173.913 142.667" style="enable-background:new 0 0 173.913 142.667;"
	 xml:space="preserve">
<style type="text/css">
	.st0{fill:none;stroke:#FFFFFF;stroke-miterlimit:10;}
	.st1{fill:none;stroke:#FFFFFF;stroke-linejoin:round;stroke-miterlimit:10;}
	.st2{fill:#FFFFFF;}
</style>
<defs>
</defs>
<g>
	<path class="st0" d="M1.527,92.015c-0.067,4.924-0.137,1.703-0.225,6.627c-0.035,1.976-0.124,4.748,0.487,6.627
		c0.611,1.879,1.993,3.627,3.904,4.13c0.848,0.223,1.738,0.191,2.614,0.158c5.037-0.192,9.899,0.281,15.126,0.207
		c11.062-0.157,22.169-0.095,33.232,0.03c12.219,0.139,24.438,0.277,36.657,0.268c5.218-0.004,10.436-0.035,15.654-0.066
		c13.809-0.082,11.006,0.118,24.816,0.036"/>
	<path class="st0" d="M158.379,68.711c0.054-19.47,0.112-41.415,0.14-60.816c0.003-1.996-0.512-3.797-1.692-5.407
		c-1.207-1.646-6.696-1.537-11.015-1.672c-12.584-0.443-26.337-0.234-38.928-0.084C91.296,0.917,76.912,0.945,61.327,0.576
		c-7.48-0.177-13.388,0.266-20.852,0.266c-3.95,0-8.781-0.329-13.41-0.335c-1.002-0.001-4.029,0.071-5.03,0.116
		c-1.036,0.046-5.11-0.11-6.147-0.11c-5.269,0-9.001-0.11-10.647,0.329C4.067,1.155,3.008,2.049,2.168,2.927S0.631,6,0.641,7.608
		c0.28,28.024,0.243,56.086-0.135,84.108c6.198,0.174,10.772,0.01,16.717-0.134c1.87-0.045,3.602-0.048,5.47,0.034
		c1.588,0.07,5.436-0.11,7.025-0.11c2.854,0,5.566,0.053,8.671,0c6.476-0.11,14.691,0.439,22.502,0.439
		c7.025,0,11.866,0.072,18.77-0.11c3.123-0.082,7.433,0.012,10.557-0.045c9.53-0.174,19.518-0.174,29.497-0.018
		c3.64,0.057,6.267,0.173,9.999,0.173c1.221,0,2.682-0.079,4.116-0.144"/>
	<polyline class="st0" points="133.879,85.711 7.668,85.69 7.668,6.879 152.997,6.879 152.997,68.465 	"/>
	<path class="st0" d="M60.051,110.352c-0.651,4.937-1.691,9.811-2.507,14.724c-0.304,1.831-0.345,3.436-0.589,5.36"/>
	<path class="st0" d="M100.528,110.032c0.232,3.07,1.071,6.035,1.668,9.077c0.378,1.926,0.503,3.883,0.93,5.798
		c0.256,1.148,0.833,4.304,1.252,5.533"/>
	<path class="st0" d="M110.689,130.693c-0.004,0.88,0.012,1.926,0.008,2.806c-5.18,0.007-10.361,0.014-15.541,0.021
		c-1.982,0.003-3.964,0.005-5.946,0.008c-4.069,0.005-8.137,0.011-12.206,0.016c-8.946,0.012-17.893,0.024-26.834-0.251
		c-0.023-0.95-0.046-1.899-0.07-2.849c5.825-0.029,11.755-0.093,17.58-0.122c1.416-0.007,2.834-0.014,4.245,0.095
		c1.592,0.123,3.147,0.164,4.744,0.193c1.672,0.03,3.362,0.023,5.03-0.088c1.244-0.083,2.492-0.097,3.74-0.111
		C93.807,130.317,102.321,130.787,110.689,130.693z"/>
	<path class="st0" d="M139.643,68.463c-2.038,0.215-4.056,1.896-4.964,3.713c-0.908,1.817-0.925,3.933-0.923,5.965
		c0.02,18.392,0.04,36.784,0.059,55.176c0.003,3.056,0.403,6.768,3.18,8.045c1.01,0.464,2.16,0.491,3.271,0.509
		c9.688,0.159,18.093,0.139,27.781,0.297c0.547,0.009,2.233-0.84,2.733-1.063c0.548-0.244,1.06-0.775,1.367-1.291
		c1.21-2.036,1.28-3.466,1.263-5.834c-0.136-18.449-0.273-36.898-0.409-55.347c-0.014-1.829-0.029-3.674-0.421-5.46
		c-0.347-1.581-1.078-3.199-2.477-4.013c-1.133-0.659-2.511-0.684-3.822-0.692C157.408,68.413,148.517,68.517,139.643,68.463z"/>
	<path class="st1" d="M169.263,129.716c0.003-16.376,0.171-32.911,0.23-49.082c-10.422-0.113-21.298-0.341-31.559-0.451
		c-0.474,13.063-0.309,25.928-0.33,38.999c-0.005,3.265-0.285,6.947-0.088,10.52c4.984,0.242,6.93,0.332,11.646,0.299
		c1.19-0.008,4.456-0.09,5.637,0.057c0.959,0.119,2.531-0.246,3.493-0.158c1.159,0.106,2.324-0.075,3.487-0.056
		C164.424,129.887,166.812,129.887,169.263,129.716z"/>
	<path class="st1" d="M154.193,132.829c-1.139-0.19-1.752-0.015-2.494,0.556c-0.712,0.548-1.131,1.464-1.055,2.359
		s0.658,1.736,1.479,2.1c0.413,0.183,0.872,0.249,1.323,0.237c0.689-0.017,1.397-0.226,1.895-0.704
		c0.552-0.53,0.78-1.326,0.791-2.091c0.009-0.625-0.129-1.285-0.553-1.744C155.224,133.156,154.877,132.981,154.193,132.829z"/>
	<path class="st2" d="M150.541,75.815c1.801-0.058,3.668-0.072,5.47-0.044c0.364,0.006,0.79,0.046,0.982,0.355
		c0.073,0.118,0.099,0.259,0.115,0.397c0.026,0.237,0.018,0.496-0.125,0.686c-0.257,0.343-0.825,0.204-1.251,0.247
		c-0.461,0.046-0.827-0.037-1.29-0.028c-0.43,0.008-0.949-0.021-1.481,0.006c-0.865,0.043-1.522-0.032-2.387,0.022
		c-0.183,0.012-0.451-0.1-0.55-0.253s-0.127-0.342-0.147-0.523c-0.019-0.168-0.029-0.352,0.069-0.489
		C150.074,76.014,150.275,75.881,150.541,75.815z"/>
	<path id="XMLID_13_" class="st2" d="M104.142,52.732c-0.03-0.3-0.3-3.778-6.476-3.628c-6.176,0.15-7.675,0.54-7.675,0.54
		s-4.617-4.677-6.296-8.305c0,0,2.039-5.966,1.949-9.714c-0.09-3.748-0.989-5.906-3.868-5.876c-2.878,0.03-3.298,2.548-2.919,6.297
		c0.34,3.363,2.08,7.314,2.08,7.314s-1.329,4.137-3.088,8.255s-2.958,6.276-2.958,6.276s-5.946,1.989-8.525,4.387
		c-2.578,2.398-3.626,4.241-2.269,6.086c1.169,1.589,5.267,1.949,8.924-2.848s5.307-7.795,5.307-7.795s5.582-1.529,7.318-1.949
		c1.736-0.42,3.835-0.75,3.835-0.75s5.097,5.127,10.014,4.947C104.412,55.79,104.172,53.032,104.142,52.732z M65.377,63.555
		c-3.058-1.829,6.416-7.465,8.125-7.645C73.502,55.91,68.579,65.47,65.377,63.555z M79.918,30.666c0-2.968,0.959-3.778,1.709-3.778
		c0.75,0,1.589,0.36,1.619,2.938c0.03,2.578-1.619,7.615-1.619,7.615C81.057,36.842,79.918,33.634,79.918,30.666z M83.865,50.993
		c-3.068,0.75-4.607,1.529-4.607,1.529s0,0,1.259-2.818s2.548-6.656,2.548-6.656c1.739,3.238,5.187,7.045,5.187,7.045
		S86.933,50.243,83.865,50.993z M91.241,50.733c0,0,9.974-1.808,9.974,1.599C101.214,55.739,95.038,54.351,91.241,50.733z"/>
	<path id="XMLID_1_" class="st2" d="M164.781,109.354c-0.014-0.145-0.145-1.823-3.125-1.751c-2.981,0.072-3.704,0.26-3.704,0.26
		s-2.228-2.257-3.039-4.008c0,0,0.984-2.879,0.941-4.688c-0.043-1.809-0.477-2.85-1.867-2.836c-1.389,0.014-1.592,1.23-1.409,3.039
		c0.164,1.623,1.004,3.53,1.004,3.53s-0.641,1.997-1.49,3.984c-0.849,1.987-1.428,3.029-1.428,3.029s-2.87,0.96-4.114,2.117
		c-1.244,1.158-1.75,2.047-1.095,2.937c0.564,0.767,2.542,0.941,4.307-1.375c1.765-2.315,2.561-3.762,2.561-3.762
		s2.694-0.738,3.532-0.941c0.838-0.203,1.851-0.362,1.851-0.362s2.46,2.474,4.833,2.387
		C164.911,110.83,164.795,109.499,164.781,109.354z M146.072,114.578c-1.476-0.883,3.096-3.603,3.921-3.69
		C149.993,110.888,147.617,115.502,146.072,114.578z M153.09,98.705c0-1.432,0.463-1.823,0.825-1.823
		c0.362,0,0.767,0.174,0.781,1.418c0.014,1.244-0.781,3.675-0.781,3.675C153.639,101.685,153.09,100.137,153.09,98.705z
		 M154.995,108.515c-1.481,0.362-2.224,0.738-2.224,0.738s0,0,0.608-1.36c0.608-1.36,1.23-3.212,1.23-3.212
		c0.839,1.563,2.503,3.4,2.503,3.4S156.475,108.153,154.995,108.515z M158.554,108.39c0,0,4.814-0.873,4.814,0.772
		C163.368,110.806,160.387,110.136,158.554,108.39z"/>
</g>
</svg>