<!-- Generator: Adobe Illustrator 24.1.0, SVG Export Plug-In  -->
<svg version="1.1" xmlns="http://www.w3.org/2000/svg" xmlns:xlink="http://www.w3.org/1999/xlink" x="0px" y="0px"
	 width="109.23px" height="66.032px" viewBox="0 0 109.23 66.032" style="enable-background:new 0 0 109.23 66.032;"
	 xml:space="preserve">
<style type="text/css">
	.st0{fill:#FFFFFF;}
</style>
<defs>
</defs>
<g>
	<g>
		<path class="st0" d="M0,18.148c0-1.789,0.511-3.493,1.96-6.561L7.498,0h6.135l-3.493,13.036c1.704,1.278,2.726,2.897,2.726,5.112
			c0,3.493-2.897,6.22-6.475,6.22S0,21.642,0,18.148z"/>
		<path class="st0" d="M61.176,36.126c0,19.171-6.987,29.906-20.534,29.906c-13.462,0-20.534-10.736-20.534-29.906
			c0-19.085,7.072-29.736,20.534-29.736C54.189,6.39,61.176,17.041,61.176,36.126z M31.355,36.126
			c0,16.018,2.982,21.642,9.287,21.642s9.287-5.453,9.287-21.642c0-16.103-2.982-21.471-9.287-21.471S31.355,20.278,31.355,36.126z"
			/>
		<path class="st0" d="M109.23,45.243c0,12.014-8.009,20.79-19.597,20.79c-14.655,0-20.704-11.332-20.704-27.776
			c0-19.171,8.946-31.866,23.516-31.866c5.027,0,9.202,1.448,12.525,3.664l-4.09,6.731c-2.471-1.448-5.197-2.3-8.265-2.3
			c-7.242,0-11.843,6.901-12.44,18.404c3.664-4.431,8.009-6.305,12.866-6.305C101.988,26.583,109.23,33.059,109.23,45.243z
			 M98.239,45.413c0-8.179-2.982-10.906-7.839-10.906c-3.919,0-7.498,2.3-10.139,5.879c0.17,12.269,2.812,17.552,9.372,17.552
			C95.427,57.938,98.239,52.911,98.239,45.413z"/>
	</g>
</g>
</svg>