<!-- Generator: Adobe Illustrator 24.1.0, SVG Export Plug-In  -->
<svg version="1.1" xmlns="http://www.w3.org/2000/svg" xmlns:xlink="http://www.w3.org/1999/xlink" x="0px" y="0px"
	 width="128.828px" height="136.973px" viewBox="0 0 128.828 136.973" style="enable-background:new 0 0 128.828 136.973;"
	 xml:space="preserve">
<style type="text/css">
	.st0{fill:none;stroke:#010101;stroke-linecap:round;stroke-linejoin:round;stroke-miterlimit:10;}
	.st1{fill:#010101;}
	.st2{fill:none;stroke:#231F20;stroke-linecap:round;stroke-linejoin:round;stroke-miterlimit:10;}
	.st3{font-family:'FiraSans-Bold';}
	.st4{font-size:24px;}
</style>
<defs>
</defs>
<g>
	<g>
		<path d="M73.925,23.554l-0.911,2.838c-1.113-0.375-2.143-0.418-3.209,0.019c-1.954,0.801-2.684,2.942-1.136,6.718
			c1.521,3.709,3.521,4.73,5.564,3.893c1.222-0.501,1.863-1.464,2.47-2.517l2.518,1.458c-0.581,1.431-1.877,3.078-4.01,3.953
			c-4.219,1.729-8.205,0.043-10.362-5.22c-2.112-5.152-0.321-9.26,3.632-10.88C70.569,22.958,72.223,23.006,73.925,23.554z"/>
		<path d="M79.24,19.118c0.464,1.132-0.046,2.354-1.268,2.854c-1.222,0.5-2.421-0.02-2.885-1.152
			c-0.464-1.133,0.024-2.345,1.246-2.846C77.555,17.474,78.776,17.985,79.24,19.118z M81.985,36.696l-4.834-11.792l3.508-1.438
			l4.835,11.792L81.985,36.696z"/>
		<path d="M98.162,27.755l0.206,2.587c-1.446,0.463-2.529,0.414-3.544-0.544c-0.307,1.656-1.427,2.661-2.825,3.234
			c-2.354,0.965-4.47,0.043-5.354-2.111c-1.056-2.576,0.324-4.776,3.899-6.242l1.199-0.492l-0.209-0.511
			c-0.574-1.399-1.302-1.593-2.746-1.001c-0.754,0.31-1.818,1.005-2.831,1.888l-1.747-1.982c1.262-1.165,2.755-2.141,4.087-2.687
			c3.42-1.402,5.478-0.559,6.598,2.172l1.876,4.575C97.145,27.55,97.526,27.783,98.162,27.755z M93.393,28.206l-0.856-2.088
			l-0.865,0.355c-1.6,0.656-2.149,1.529-1.667,2.707c0.383,0.932,1.121,1.278,1.987,0.923
			C92.813,29.766,93.262,29.089,93.393,28.206z"/>
		<path d="M109.995,18.338c1.549,3.775,0.392,7.155-3.206,8.63c-3.575,1.466-6.721,0.057-8.351-3.918
			c-1.548-3.775-0.392-7.155,3.206-8.63C105.242,12.946,108.366,14.363,109.995,18.338z M102.079,21.558
			c1.074,2.621,2.231,3.417,3.652,2.834c1.422-0.583,1.668-2.006,0.62-4.561c-1.074-2.621-2.23-3.417-3.652-2.834
			C101.28,17.58,101.033,19.004,102.079,21.558z"/>
		<path d="M118.147,12.791c0.778-0.319,0.902-0.966,0.984-1.778l2.351,0.229c-0.124,1.66-0.55,3.468-2.416,4.233
			c-1.998,0.819-3.22-0.263-4.286,0.174c-0.8,0.328-0.895,1.042-0.977,1.854l-2.352-0.229c0.123-1.659,0.553-3.521,2.418-4.286
			C115.848,12.178,117.059,13.237,118.147,12.791z"/>
	</g>
</g>
<g>
	<g>
		<path class="st0" d="M29.402,24.141c-0.728,0.705-1.455,1.41-2.183,2.116c-0.061,0.059-0.126,0.139-0.095,0.218
			c0.034,0.084,0.149,0.09,0.24,0.082c0.42-0.038,0.84-0.076,1.259-0.114c0.584-0.053,1.182-0.109,1.71-0.362
			c0.703-0.336,1.183-0.704,1.74-1.249c0.094-0.092,0.198-0.186,0.327-0.211c0.16-0.031,0.351-0.049,0.461,0.13
			c0.191,0.28,0.41,0.291,0.696,0.381c0.457,0.144,1.113-0.305,1.593-0.301c0.446,0.004,0.691,0.273,1.116,0.406
			s0.94,0.167,1.27-0.133c0.067-0.061,0.124-0.134,0.198-0.188c0.097-0.07,0.215-0.102,0.329-0.139
			c0.442-0.144,0.846-0.389,1.21-0.679c0.971-0.772,1.67-1.879,1.95-3.087c0.146-0.632,0.181-1.284,0.186-1.932
			c0.004-0.501-0.01-1.01-0.153-1.49c-0.138-0.466-0.392-0.889-0.552-1.348c-0.16-0.459-0.216-0.993,0.033-1.41
			c0.297-0.498,0.935-0.68,1.515-0.685c0.105-0.001,0.228-0.007,0.285-0.095c0.098-0.152-0.109-0.315-0.278-0.378
			c-0.463-0.174-0.93-0.359-1.393-0.533c-0.291-0.453-0.621-0.915-1.049-1.092c-0.788-0.325-1.778-0.412-2.535-0.02
			c-0.375,0.194-0.613,0.507-0.898,0.818c-0.296,0.323-0.527,0.73-0.745,1.11c-0.211,0.366-0.344,0.776-0.595,1.115
			c-0.293,0.395-0.722,0.662-1.119,0.952c-0.681,0.499-1.292,1.097-1.786,1.781c-0.191,0.264-0.364,0.541-0.531,0.82
			c-0.901,1.503-1.651,3.097-2.234,4.749c-0.094,0.266-0.162,0.613,0.06,0.787c0.175,0.137,0.429,0.077,0.638-0.002
			c1.682-0.638,3.036-2.086,3.559-3.807"/>
		<path class="st0" d="M36.774,25.343c0.215,0.391,0.287,0.692,0.441,1.112c0.312,0.848,0.624,1.696,0.936,2.544
			c0.067,0.183,0.136,0.369,0.256,0.522c0.204,0.262,0.57,0.338,0.864,0.494c0.294,0.156,0.556,0.255,0.917,0.511"/>
		<path class="st0" d="M33.619,25.266c0.188,1.705,0.247,3.14,0.556,4.827c0.051,0.278,0.117,0.579,0.335,0.758
			c0.356,0.293,0.748,0.186,1.226,0.564"/>
		<path class="st0" d="M38.418,29.556c-0.111-0.025-0.226,0.019-0.323,0.077s-0.187,0.132-0.292,0.174
			c-0.239,0.097-0.632,0.113-0.878,0.193"/>
		<path class="st0" d="M34.258,30.39c-0.14-0.023-0.268,0.075-0.4,0.127c-0.186,0.071-0.392,0.051-0.591,0.042
			c-0.092-0.004-0.28,0.013-0.43,0.103"/>
		<path class="st1" d="M37.414,13.536c0.008,0.233,0.071,0.485,0.238,0.628c0.05,0.043,0.108,0.075,0.168,0.102
			c0.207,0.092,0.448,0.117,0.663,0.045c0.215-0.073,0.397-0.249,0.455-0.468c0.021-0.08,0.026-0.164,0.03-0.247
			c0.004-0.082,0.008-0.165-0.016-0.244c-0.035-0.11-0.124-0.198-0.227-0.251c-0.103-0.053-0.219-0.076-0.334-0.09
			c-0.223-0.027-0.461-0.023-0.655,0.09C37.571,13.197,37.467,13.34,37.414,13.536z"/>
	</g>
	<g>
		<path class="st2" d="M18.888,134.659c-0.878,0.241-1.76-0.288-2.558-0.726c-0.799-0.438-1.831-0.793-2.572-0.263
			c-0.831,0.594-0.811,1.99-1.707,2.481c-0.496,0.272-1.129,0.156-1.614-0.135s-0.856-0.733-1.235-1.153
			c-1.201-1.33-2.567-2.51-4.058-3.504c-0.108,1.433-0.1,2.874,0.023,4.305c-1.498,0.522-3.081,0.797-4.667,0.809"/>
		<path class="st2" d="M106.595,119.553c1.525-1.001,2.668-2.569,3.155-4.327c-2.593-0.323-4.932,1.926-7.543,1.814
			c-0.058-1.145-0.074-2.292-0.049-3.437c-0.746-0.153-1.418,0.441-1.948,0.988c-0.677,0.698-1.353,1.396-2.03,2.094
			c-0.125,0.129-0.257,0.262-0.428,0.313c-0.579,0.173-0.937-0.631-0.947-1.235s-0.088-1.403-0.682-1.517
			c-0.514-0.099-0.893,0.438-1.249,0.821c-0.445,0.478-1.059,0.794-1.706,0.879"/>
		<path class="st2" d="M47.18,88.861c1.243,0.812,1.462,2.538,1.344,4.019s-0.436,3.041,0.167,4.398
			c0.297,0.668,0.794,1.222,1.216,1.818c0.572,0.808,1.016,1.709,1.281,2.662c0.361,1.298,0.469,2.817,1.522,3.657
			c1.487,1.185,2.545,2.782,4.19,3.736c0.96,0.557,2.06,1.034,3.149,0.825c1.261-0.242,2.169-1.332,2.868-2.409
			c1.818-2.801,2.965-6.49,1.399-9.44c-0.702-1.323-1.916-2.43-2.138-3.912c-0.243-1.625,0.772-3.404,0.003-4.855
			c-0.384-0.723-1.148-1.194-1.503-1.931c-0.436-0.905-0.162-1.976-0.257-2.975c-0.133-1.408-0.994-2.636-1.365-4
			c-0.276-1.016-0.275-2.082-0.327-3.133c-0.237-4.767-1.825-9.76-5.574-12.714c-0.961-0.757-2.035-1.358-3.103-1.955
			c-1.449-0.81-2.897-1.62-4.346-2.43c-1.348-0.754-2.698-1.508-3.993-2.351c-1.314-0.854-4.273-0.933-5.838-1.001
			c-4.766-0.761-8.327-2.296-12.858-0.635c-1.649,0.605-1.905,1.323-3.357,2.312c-4.149,2.828-5.452,5.731-7.828,11.183
			c-0.842,1.932-2.153,3.417-2.753,5.437c-0.151,0.507-0.278,1.025-0.322,1.552c-0.06,0.718,0.034,1.439,0.128,2.153
			c0.138,1.044-0.126,2.953,0.011,3.997c0.271,2.057-0.849,3.507-0.326,5.515c0.229,0.88,0.705,1.673,1.066,2.508
			c0.695,1.604-0.045,2.824-0.229,4.562c-0.177,1.683-0.773,3.356-0.511,5.028c0.25,1.594,0.284,3.517,0.839,5.032
			c0.813,2.221-0.263,4.188,0.362,6.469c0.689,2.516,2.339,4.934,1.87,7.5c1.758,2.996,4.648,5.156,8.062,5.799
			c0.809,0.152,1.637,0.223,2.456,0.142c0.744-0.074,1.47-0.27,2.204-0.413c1.724-0.336,3.49-0.374,5.244-0.46
			c1.921-0.094,3.84-0.246,5.752-0.456c1.203-0.132,2.434-0.296,3.503-0.864c0.353-0.187,0.682-0.416,1.01-0.644
			c0.411-0.285,0.822-0.571,1.234-0.856c0.496-0.344,0.993-0.69,1.454-1.08c0.785-0.666,1.455-1.455,2.12-2.241
			c0.733-0.866,1.465-1.732,2.195-2.599c1.622-1.928,3.304-4.024,3.563-6.53c0.129-1.244-0.179-2.628-1.164-3.397
			c-0.921-0.719-2.344-0.857-2.883-1.894c-0.572-1.1-0.076-2.326-0.61-3.593c0.717-2.703,0.808-5.395,0.912-8.189
			c0.114-3.061,0.272-6.703-0.378-9.545"/>
		<path class="st2" d="M64.25,97.153c-0.074-0.443-0.136-0.94,0.126-1.305c0.086-0.12,0.202-0.216,0.297-0.329
			c0.384-0.457,0.381-1.125,0.656-1.654c0.037-0.07,0.081-0.141,0.147-0.184c0.267-0.17,0.547,0.201,0.638,0.504
			c0.091,0.303,0.32,0.691,0.611,0.568c0.198-0.084,0.228-0.348,0.228-0.563c0-0.661-0.001-1.322-0.001-1.983
			c0-0.205-0.003-0.421-0.108-0.598c-0.078-0.132-0.205-0.227-0.328-0.318c-0.686-0.507-1.373-1.014-2.059-1.521
			c-0.268-0.198-0.549-0.402-0.877-0.464c-0.328-0.062-0.717,0.064-0.849,0.371"/>
		<path class="st2" d="M64.145,96.905c1.508-0.801,3.015-1.603,4.523-2.404c0.587-0.312,1.18-0.627,1.822-0.801
			c0.685-0.186,1.351-0.465,2.009-0.73c0.87-0.35,1.37-1.136,2.306-1.083c-0.008,0.588,0.145,1.445-0.158,1.949
			c-1.099,0.441-2.198,0.882-3.297,1.323c-0.567,0.227-1.134,0.455-1.69,0.707c-1.711,0.775-3.333,1.788-5.151,2.263"/>
		<path class="st2" d="M75.016,91.652c-2.586,0.031-5.172,0.062-7.758,0.093"/>
		<path class="st2" d="M74.911,91.677c1.433-4.823,2.835-9.641,4.412-14.446c0.493-1.504,1.075-2.979,1.741-4.414
			c0.313-0.674-0.063-0.913-0.806-0.919c-6.329-0.052-15.293-0.126-22.331-0.105"/>
		<path class="st2" d="M81.13,72.101c0.563,0.454,0.777,1.234,0.727,1.956c-0.05,0.722-0.325,1.406-0.59,2.079
			c-1.844,4.693-3.314,9.534-4.39,14.46c-0.302,1.382-0.744,2.568-2.036,3.143"/>
		<path class="st2" d="M22.426,48.539c1.474-0.362,2.979,0.315,4.479,0.548c1.198,0.186,2.42,0.087,3.631,0.145
			c1.208,0.058,2.466,0.266,3.594-0.169c1.394-0.537,2.244-1.91,3.113-3.125c0.741-1.036,1.563-2.014,2.459-2.92
			c0.378-0.383,0.828-0.777,1.366-0.773c0.381,0.003,0.727,0.207,1.087,0.333c0.565,0.198,1.178,0.204,1.777,0.188
			c1.203-0.031,2.567-0.226,3.252-1.215c0.223-0.321,0.35-0.7,0.437-1.081c0.609-2.667-0.711-5.515-2.794-7.288
			c-2.084-1.773-4.81-2.616-7.516-3.022c-2.201-0.331-4.433-0.402-6.659-0.44c-1.346-0.023-2.805,0.583-3.97,1.256
			c-0.682,0.394-1.183,0.39-1.712,0.974c-0.651,0.72-1.192,1.466-1.649,2.323c-0.557,1.042-1.122,2.237-1.487,3.361
			c-0.836,2.575-0.776,5.107-0.412,8.115c0.062,0.51-0.025,1.033,0.088,1.534c0.212,0.939,0.832,1.729,1.199,2.619
			c0.64,1.551,1.492,3.822,0.409,5.771"/>
		<path class="st2" d="M45.531,42.983c-0.074,1.41-0.148,2.821-0.222,4.231c-0.045,0.863-0.093,1.737-0.349,2.563
			c-0.617,1.992-2.345,3.429-3.312,5.277c-0.289,0.551-0.511,1.143-0.88,1.643c-0.161,0.219-0.363,0.426-0.625,0.499
			c-0.193,0.053-0.937-0.097-1.136-0.124"/>
		<path class="st2" d="M51.315,103.337c-0.939,0.511-1.796,1.173-2.527,1.953"/>
		<path class="st2" d="M70.038,95.996c0.888,0.352,1.328,1.322,1.76,2.173c1.619,3.191,4.223,5.763,6.199,8.746
			c1.35,2.039,1.928,3.389,3.48,5.278c-0.052-0.117,0.702,1.037,0.65,0.92c0.704,0.92,1.342,1.64,1.166,2.905
			c-0.176,1.265-1.004,2.383-2.067,3.09c-1.063,0.707-2.342,1.037-3.615,1.138c-1.564,0.125-3.204-0.098-4.526-0.942
			c-0.477-0.305-0.902-0.683-1.361-1.014c-0.811-0.584-1.719-1.016-2.622-1.445c-1.449-0.687-2.87-1.362-4.319-2.049
			c-2.72,4.184-4.569,7.142-8.221,10.543c-0.461,0.429-0.98,0.865-1.607,0.926c-2.428,0.238-4.597,0.993-6.844,1.942
			c-0.678,0.286-1.35,0.603-2.071,0.753c-0.609,0.126-1.236,0.13-1.852,0.206c-0.946,0.117-1.862,0.405-2.8,0.572
			c-1.035,0.184-2.089,0.22-3.139,0.255c-2.097,0.071-4.193,0.141-6.29,0.212c-1.556,0.052-3.112,0.105-4.669,0.106
			c-1.932,0.001-3.918-0.089-5.685-0.868c-1.356-0.597-2.508-1.569-3.613-2.555c-0.869-0.776-1.722-1.57-2.558-2.382
			c-0.762-0.74-1.538-1.54-1.831-2.561"/>
		<path class="st2" d="M46.707,99.152c0.584,0.376,1.035,0.921,1.475,1.458c0.788,0.961,1.571,1.926,2.351,2.895"/>
		<path class="st2" d="M68.227,116.631c0.157,0.61-0.251,1.207-0.636,1.705c-0.492,0.636-1.044,1.311-1.824,1.502
			c-0.66,0.161-1.353-0.063-1.965-0.359c-0.612-0.296-0.829-0.405-1.489-0.571"/>
		<path class="st2" d="M82.083,112.592c1.499-0.605,3.02-1.153,4.56-1.643c0.845-0.269,1.834-0.503,2.566-0.001
			c0.63,0.432,0.834,1.254,0.989,2.002c0.142,0.684,0.282,1.411,0.04,2.066c-0.133,0.361-0.373,0.67-0.61,0.973
			c-0.622,0.798-1.245,1.596-1.867,2.394c-0.501,0.642-1.01,1.292-1.659,1.784c-0.512,0.387-1.096,0.665-1.655,0.981
			c-1.126,0.636-2.161,1.433-3.328,1.991s-2.533,0.862-3.756,0.442c-0.628-0.216-1.178-0.608-1.703-1.013
			c-0.376-0.29-0.753-0.598-0.997-1.006c-0.244-0.408-0.61-0.754-0.389-1.175c-0.771,0.462-1.547,0.928-2.223,1.52
			c-0.298,0.261-0.583,0.55-0.943,0.715c-0.435,0.2-0.933,0.197-1.412,0.19c-0.502-0.007-1.016-0.017-1.483-0.198
			c-0.785-0.305-1.31-1.04-1.74-1.764c-0.239-0.403-0.502-0.848-0.948-0.991"/>
		<path class="st2" d="M66.02,112.257c0.241-0.337,0.482-0.675,0.723-1.012c0.121-0.169,0.244-0.343,0.306-0.541
			c0.06-0.191,0.06-0.395,0.059-0.595c-0.002-1.082-0.004-2.164-0.006-3.246"/>
	</g>
</g>
</svg>