<!-- Generator: Adobe Illustrator 24.1.0, SVG Export Plug-In  -->
<svg version="1.1" xmlns="http://www.w3.org/2000/svg" xmlns:xlink="http://www.w3.org/1999/xlink" x="0px" y="0px"
	 width="109.997px" height="66.032px" viewBox="0 0 109.997 66.032" style="enable-background:new 0 0 109.997 66.032;"
	 xml:space="preserve">
<style type="text/css">
	.st0{fill:#FFFFFF;}
</style>
<defs>
</defs>
<g>
	<g>
		<path class="st0" d="M0,18.148c0-1.789,0.511-3.493,1.96-6.561L7.498,0h6.135l-3.493,13.036c1.704,1.278,2.726,2.897,2.726,5.112
			c0,3.493-2.897,6.22-6.475,6.22S0,21.642,0,18.148z"/>
		<path class="st0" d="M61.176,36.126c0,19.171-6.987,29.906-20.534,29.906c-13.462,0-20.534-10.736-20.534-29.906
			c0-19.085,7.072-29.736,20.534-29.736C54.189,6.39,61.176,17.041,61.176,36.126z M31.355,36.126
			c0,16.018,2.982,21.642,9.287,21.642s9.287-5.453,9.287-21.642c0-16.103-2.982-21.471-9.287-21.471S31.355,20.278,31.355,36.126z"
			/>
		<path class="st0" d="M109.997,36.126c0,19.171-6.987,29.906-20.534,29.906c-13.462,0-20.534-10.736-20.534-29.906
			c0-19.085,7.072-29.736,20.534-29.736C103.01,6.39,109.997,17.041,109.997,36.126z M80.176,36.126
			c0,16.018,2.982,21.642,9.287,21.642c6.305,0,9.287-5.453,9.287-21.642c0-16.103-2.982-21.471-9.287-21.471
			C83.158,14.655,80.176,20.278,80.176,36.126z"/>
	</g>
</g>
</svg>