<!-- Generator: Adobe Illustrator 24.1.0, SVG Export Plug-In  -->
<svg version="1.1" xmlns="http://www.w3.org/2000/svg" xmlns:xlink="http://www.w3.org/1999/xlink" x="0px" y="0px"
	 width="85.954px" height="37.37px" viewBox="0 0 85.954 37.37" style="enable-background:new 0 0 85.954 37.37;"
	 xml:space="preserve">
<style type="text/css">
	.st0{fill:none;stroke:#383838;stroke-linejoin:round;stroke-miterlimit:10;}
	.st1{fill:none;stroke:#383838;stroke-linecap:round;stroke-linejoin:round;stroke-miterlimit:10;}
	.st2{fill:#383838;}
	.st3{font-family:'FiraSans-Bold';}
	.st4{font-size:14px;}
</style>
<defs>
</defs>
<g>
	<g>
		<path d="M46.253,13.896l0.753-3.724c0.261-1.336,0.572-2.702,0.93-3.854l-3.08,6.177l-2.107-0.524l0.076-6.924
			c-0.249,1.41-0.54,2.579-0.923,3.884l-1.072,3.616l-2.175-0.541l3.051-9.244l2.813,0.7l-0.176,6.74l2.908-6.061l2.827,0.703
			l-1.637,9.597L46.253,13.896z"/>
		<path d="M57.086,13.43l-4.472-1.112c-0.172,1.329,0.353,1.834,1.236,2.054c0.584,0.146,1.151,0.07,1.886-0.209l0.585,1.416
			c-0.861,0.392-1.896,0.597-3.063,0.306c-2.406-0.599-3.244-2.453-2.684-4.709c0.538-2.161,2.147-3.58,4.336-3.036
			c2.066,0.515,2.991,2.188,2.41,4.526C57.263,12.897,57.168,13.219,57.086,13.43z M55.365,11.53
			c0.23-0.982,0.101-1.736-0.756-1.949c-0.721-0.18-1.257,0.178-1.674,1.445l2.406,0.599L55.365,11.53z"/>
		<path d="M65.517,14.864c-0.574,2.311-2.285,3.502-4.488,2.954c-2.188-0.545-3.182-2.293-2.576-4.727
			c0.575-2.311,2.286-3.501,4.487-2.954C65.143,10.686,66.122,12.431,65.517,14.864z M60.681,13.646
			c-0.399,1.604-0.13,2.379,0.739,2.595c0.871,0.217,1.479-0.368,1.867-1.932c0.399-1.604,0.13-2.379-0.74-2.595
			C61.677,11.498,61.069,12.083,60.681,13.646z"/>
		<path d="M71.304,20.129l0.354-5.541l-2.271,5.063l-2.541-0.632l0.259-7.601l2.176,0.541l-0.65,5.8l2.526-5.333l2.094,0.521
			l-0.405,5.861l2.267-5.397l2.053,0.511l-3.291,6.846L71.304,20.129z"/>
		<path d="M81.644,17.649c0.477,0.119,0.757-0.143,1.075-0.496l1.027,0.919c-0.63,0.737-1.455,1.442-2.598,1.158
			c-1.223-0.304-1.425-1.235-2.077-1.397c-0.489-0.122-0.78,0.181-1.101,0.534l-1.025-0.919c0.631-0.738,1.476-1.466,2.618-1.182
			C80.773,16.567,80.978,17.484,81.644,17.649z"/>
	</g>
</g>
<g>
	<path class="st0" d="M2.927,36.952c-1.173-0.77-2.052-1.976-2.427-3.328c1.994-0.249,3.793,1.481,5.801,1.395
		c0.044-0.88,0.057-1.762,0.038-2.644c0.574-0.118,1.091,0.339,1.498,0.76c0.52,0.537,1.041,1.074,1.561,1.611
		c0.096,0.099,0.198,0.201,0.33,0.241c0.445,0.133,0.721-0.485,0.728-0.949c0.007-0.464,0.068-1.079,0.524-1.167
		c0.396-0.076,0.686,0.337,0.961,0.631c0.342,0.367,0.815,0.611,1.312,0.676"/>
	<g>
		<path class="st1" d="M31.143,30.081c-0.292,0.195-0.857,0.558-1.149,0.753c-0.601,0.401-1.21,0.805-1.896,1.05
			c-0.686,0.245-1.469,0.316-2.142,0.044"/>
		<path class="st1" d="M26.441,29.513c0.124-0.162,0.251-0.325,0.416-0.45c0.164-0.125,0.372-0.21,0.583-0.19"/>
		<path class="st1" d="M23.486,27.808c-0.135,0.029-0.447,0.207-0.551,0.295c-0.323,0.272-0.614,0.579-0.865,0.913"/>
		<path class="st1" d="M22.078,30.638c0.382,0.065,1.015-0.124,1.364-0.286"/>
		<path class="st1" d="M28.278,20.485c-0.035,0.196-0.202,0.344-0.287,0.526c-0.069,0.147-0.117,0.362-0.073,0.517
			c0.283,0.99-0.046,2.037-0.372,3.017c-0.172,0.515-0.343,1.031-0.517,1.546c-0.096,0.283-0.192,0.566-0.277,0.852
			c-0.274,0.927-0.424,1.883-0.574,2.836c-0.057,0.361-0.113,0.721-0.17,1.082c-0.053,0.338-0.106,0.682-0.058,1.02
			c0.057,0.399,0.252,0.767,0.339,1.161c0.087,0.394,0.035,0.862-0.3,1.108c-0.086,0.063-0.185,0.107-0.282,0.15
			c-0.24,0.106-0.516,0.205-0.771,0.273c-0.43,0.115-0.886,0.086-1.331,0.056c-0.292-0.02-0.605-0.047-0.83-0.226
			c-0.241-0.193-0.32-0.523-0.285-0.822c0.035-0.299,0.167-0.579,0.283-0.859c0.975-2.354,0.927-4.989,0.46-7.476
			c-0.07-0.374-0.225-0.822-0.617-0.89c-0.3-0.052-0.592,0.172-0.708,0.442c-0.116,0.269-0.099,0.571-0.08,0.861
			c0.056,0.855,0.112,1.71,0.169,2.565c0.066,1.003,0.131,2.015-0.036,3.008c-0.053,0.315-0.137,0.641-0.355,0.883
			c-0.362,0.403-0.98,0.466-1.535,0.49c-0.418,0.018-0.88,0.018-1.196-0.243c-0.505-0.416-0.301-1.256,0.202-1.677
			c0.118-0.099,0.253-0.188,0.328-0.32c0.102-0.18,0.073-0.398,0.04-0.599c-0.373-2.277-0.837-4.54-1.319-6.798
			c-0.121-0.565-0.242-1.13-0.364-1.695c-0.101-0.47-0.203-0.94-0.279-1.414c-0.407-2.521-0.117-5.081,0.88-7.452
			c0.295-0.645,0.23-1.353-0.127-1.966c-0.073-0.126-0.16-0.247-0.212-0.382c-0.042-0.109-0.062-0.224-0.08-0.339
			c-0.138-0.853-0.215-1.742,0.101-2.552c0.257-0.66,0.514-1.321,0.77-1.981c0.537-1.381-0.256-3.068,0.442-4.382
			c0.042-0.078,0.088-0.157,0.159-0.213c0.108-0.085,0.259-0.102,0.397-0.085c0.519,0.067,0.851,0.545,1.114,0.977
			c0.236,0.388,0.472,0.776,0.709,1.164c0.143,0.234,0.293,0.477,0.53,0.626c0.267,0.169,0.602,0.194,0.922,0.215
			c0.617,0.04,1.383,0.229,1.852,0.12s0.841-1.129,1.262-1.693c0.253-0.339,0.52-0.691,0.904-0.887
			c0.385-0.196,0.923-0.185,1.194,0.14c0.137,0.164,0.185,0.378,0.218,0.586c0.214,1.376-0.12,2.776-0.079,4.167
			c0.026,0.887,0.204,1.763,0.249,2.649c0.045,0.886-0.057,1.813-0.541,2.572c-0.11,0.172-0.15,0.419-0.227,0.608
			c-0.049,0.12-0.052,0.381,0.063,0.578c0.537,1.481,2.146,2.156,3.121,3.416c0.314,0.405,0.561,0.853,0.808,1.298
			c0.508,0.918,1.015,1.836,1.523,2.754c0.259,0.468,0.519,0.94,0.688,1.445c0.161,0.483,0.235,0.988,0.306,1.491
			c0.046,0.321,0.091,0.644,0.071,0.967c-0.014,0.235-0.058,0.485-0.099,0.717c0.485,0.128,1.074,0.611,1.526,0.88
			c0.453,0.269,0.839,0.626,1.208,0.993c0.35,0.349,0.694,0.719,0.888,1.166c0.178,0.411,0.22,0.862,0.251,1.306
			c0.011,0.163,0.018,0.34-0.08,0.474c-0.048,0.066-0.116,0.115-0.184,0.161c-0.531,0.356-1.149,0.591-1.79,0.683
			c-0.275,0.039-0.553,0.052-0.831,0.064c-0.563,0.023-1.125,0.04-1.688,0.05c-0.298,0.005-0.597,0.009-0.891-0.03
			c-0.219-0.029-0.435-0.081-0.654-0.104c-1.487-0.161-2.398-1.922-2.441-3.417c-0.009-0.322,0.032-0.67,0.248-0.909
			c0.316-0.349,0.97-0.282,1.209,0.123c0.094,0.159,0.126,0.346,0.178,0.524c0.176,0.602,0.609,1.123,1.168,1.408
			c0.559,0.285,1.235,0.328,1.825,0.117"/>
		<path class="st2" d="M21.913,7.804c-0.109,0.138-0.124,0.08-0.226,0.175c-0.255,0.116-0.331,0.062-0.655,0.066
			c-0.079,0.001-0.161,0.001-0.232-0.033c-0.159-0.077-0.192-0.286-0.205-0.463c-0.02-0.282-0.03-0.597,0.156-0.81
			c0.059-0.067,0.134-0.119,0.215-0.157c0.305-0.143,0.699-0.073,0.933,0.17s0.29,0.641,0.127,0.937"/>
		<path class="st2" d="M26.03,7.026c0.081,0.161,0.02,0.149,0.064,0.285c-0.003,0.287-0.087,0.334-0.223,0.636
			c-0.033,0.074-0.069,0.15-0.131,0.201c-0.141,0.114-0.349,0.054-0.518-0.011c-0.27-0.104-0.567-0.232-0.683-0.497
			c-0.037-0.084-0.052-0.176-0.052-0.268c0-0.345,0.236-0.679,0.563-0.791c0.327-0.112,0.72,0.01,0.924,0.289"/>
	</g>
</g>
</svg>