<!-- Generator: Adobe Illustrator 24.1.0, SVG Export Plug-In  -->
<svg version="1.1" xmlns="http://www.w3.org/2000/svg" xmlns:xlink="http://www.w3.org/1999/xlink" x="0px" y="0px"
	 width="106.163px" height="66.032px" viewBox="0 0 106.163 66.032" style="enable-background:new 0 0 106.163 66.032;"
	 xml:space="preserve">
<style type="text/css">
	.st0{fill:#FFFFFF;}
</style>
<defs>
</defs>
<g>
	<g>
		<path class="st0" d="M0,18.148c0-1.789,0.511-3.493,1.96-6.561L7.498,0h6.135l-3.493,13.036c1.704,1.278,2.726,2.897,2.726,5.112
			c0,3.493-2.897,6.22-6.475,6.22S0,21.642,0,18.148z"/>
		<path class="st0" d="M61.176,36.126c0,19.171-6.987,29.906-20.534,29.906c-13.462,0-20.534-10.736-20.534-29.906
			c0-19.085,7.072-29.736,20.534-29.736C54.189,6.39,61.176,17.041,61.176,36.126z M31.355,36.126
			c0,16.018,2.982,21.642,9.287,21.642s9.287-5.453,9.287-21.642c0-16.103-2.982-21.471-9.287-21.471S31.355,20.278,31.355,36.126z"
			/>
		<path class="st0" d="M81.028,15.507v14.229c2.897-1.448,5.879-2.13,8.691-2.13c9.543,0,16.444,6.816,16.444,18.489
			c0,11.758-8.435,19.938-21.386,19.938c-8.009,0-13.632-3.238-18.063-8.094l6.305-5.879c3.067,3.579,6.731,5.538,11.502,5.538
			c6.39,0,10.395-4.09,10.395-11.502c0-7.924-3.919-10.65-9.202-10.65c-2.641,0-4.771,0.596-7.413,1.96h-7.753V7.413h33.229
			l-1.278,8.094H81.028z"/>
	</g>
</g>
</svg>