<svg id="Isolation_Mode" data-name="Isolation Mode" xmlns="http://www.w3.org/2000/svg" viewBox="0 0 116.24 35.06"><defs><style>.cls-1,.cls-3{fill:none;stroke-width:2px;}.cls-1{stroke:#010101;stroke-linecap:round;stroke-linejoin:round;}.cls-2{fill:#010101;}.cls-3{stroke:#231f20;stroke-miterlimit:10;}.cls-4{fill:#231f20;}</style></defs><path class="cls-1" d="M300.33,57a21,21,0,0,0-.42-5.4c-.44-1.47-1.24-2.82-1.75-4.27a5.37,5.37,0,0,1,.1-4.47c.94-1.58,3-2.15,4.8-2.17.33,0,.72,0,.9-.3.31-.48-.35-1-.88-1.2-1.47-.55-2.95-1.14-4.41-1.69-.92-1.43-2-2.9-3.32-3.46a9.89,9.89,0,0,0-8-.06,10.68,10.68,0,0,0-2.84,2.59,19.73,19.73,0,0,0-2.36,3.51,34.67,34.67,0,0,1-1.89,3.53,13.91,13.91,0,0,1-3.31,2.87" transform="translate(-275.2 -24.93)"/><path class="cls-2" d="M289.46,37.32a1.18,1.18,0,0,1,.94-.75l.55-.06c.74-.15,1.14.18,1.6.78a2.06,2.06,0,0,1,.3,1.21.81.81,0,0,1-.08.49.75.75,0,0,1-.31.23,4.76,4.76,0,0,1-1.95.47,1.22,1.22,0,0,1-1-.36,1.31,1.31,0,0,1-.18-.77A3,3,0,0,1,289.46,37.32Z" transform="translate(-275.2 -24.93)"/><path class="cls-3" d="M296.1,58.89a21.08,21.08,0,0,1-7.75-.75,15.9,15.9,0,0,1-7.87-4.52,16.61,16.61,0,0,1-2.63-18.37A17.44,17.44,0,0,1,294,25.95a14,14,0,0,1,4.9,1.1,16.64,16.64,0,0,1,5.85,4.68,20.46,20.46,0,0,1,4,7,16.09,16.09,0,0,1-1.67,13.11A15.82,15.82,0,0,1,296.1,58.89Z" transform="translate(-275.2 -24.93)"/><path class="cls-4" d="M320.21,54.66l-1.27-2.76c1.63-.74,2.59-1.42,2.59-3.74V36.61h3.79v11.3C325.32,52.07,323.18,53.58,320.21,54.66Zm5.47-22.61a2.25,2.25,0,1,1-2.26-2.16A2.15,2.15,0,0,1,325.68,32.05Z" transform="translate(-275.2 -24.93)"/><path class="cls-4" d="M338.73,44.1h-7.9c.26,2.28,1.34,2.9,2.9,2.9a5.17,5.17,0,0,0,3-1.13L338.35,48a7.84,7.84,0,0,1-5,1.78C329.13,49.77,327,47,327,43c0-3.82,2.09-6.84,6-6.84,3.65,0,5.88,2.4,5.88,6.53A12.76,12.76,0,0,1,338.73,44.1Zm-3.65-2.45c0-1.73-.55-2.93-2.06-2.93-1.27,0-2,.82-2.18,3.1h4.25Z" transform="translate(-275.2 -24.93)"/><path class="cls-4" d="M344.69,35.63v1h3l-.41,2.64h-2.59V49.36h-3.79V39.25H339V36.61h1.92V35.48c0-2.45,1.61-4.34,4.87-4.34a7.75,7.75,0,0,1,3.48.82l-1,2.47a4.52,4.52,0,0,0-2-.48C345.12,33.95,344.69,34.43,344.69,35.63Z" transform="translate(-275.2 -24.93)"/><path class="cls-4" d="M352.63,35.63v1h3l-.41,2.64h-2.59V49.36h-3.79V39.25h-1.92V36.61h1.92V35.48c0-2.45,1.61-4.34,4.87-4.34a7.75,7.75,0,0,1,3.48.82l-1,2.47a4.52,4.52,0,0,0-2-.48C353.06,33.95,352.63,34.43,352.63,35.63Z" transform="translate(-275.2 -24.93)"/><path class="cls-4" d="M356.13,54.69,355.72,52c2.5-.31,3.41-1,4.1-2.66h-1.3l-3.89-12.75h4L361,46.93l2.5-10.32h3.91l-4.06,12.77C362.3,52.6,360.14,54.47,356.13,54.69Z" transform="translate(-275.2 -24.93)"/><path class="cls-4" d="M378.79,44.1h-7.9c.26,2.28,1.34,2.9,2.9,2.9a5.17,5.17,0,0,0,3-1.13L378.41,48a7.84,7.84,0,0,1-5,1.78C369.19,49.77,367,47,367,43c0-3.82,2.09-6.84,6-6.84,3.65,0,5.88,2.4,5.88,6.53A12.76,12.76,0,0,1,378.79,44.1Zm-3.65-2.45c0-1.73-.55-2.93-2.06-2.93-1.27,0-2,.82-2.18,3.1h4.25Z" transform="translate(-275.2 -24.93)"/><path class="cls-4" d="M391.44,40v9.31h-3.79V40.69c0-1.34-.46-1.7-1.2-1.7s-1.54.6-2.21,1.66v8.71h-3.79V36.61h3.31l.26,1.51a4.85,4.85,0,0,1,3.89-1.92C390.12,36.2,391.44,37.62,391.44,40Z" transform="translate(-275.2 -24.93)"/></svg>