<!-- Generator: Adobe Illustrator 24.1.0, SVG Export Plug-In  -->
<svg version="1.1" xmlns="http://www.w3.org/2000/svg" xmlns:xlink="http://www.w3.org/1999/xlink" x="0px" y="0px"
	 width="96.379px" height="164.973px" viewBox="0 0 96.379 164.973" style="enable-background:new 0 0 96.379 164.973;"
	 xml:space="preserve">
<style type="text/css">
	.st0{fill:none;stroke:#FFFFFF;stroke-linecap:round;stroke-linejoin:round;stroke-miterlimit:10;}
</style>
<defs>
</defs>
<g>
	<g>
		<g>
			<path class="st0" d="M36.426,159.347c1.901-0.319,3.379-1.036,5.271-1.409c1.736-0.343,3.523-0.289,5.29-0.387
				c1.767-0.098,3.581-0.366,5.099-1.276c0.255-0.153,0.5-0.323,0.764-0.458c0.931-0.478,2.039-0.497,3.069-0.309
				s2.013,0.569,3.019,0.86c1.252,0.362,2.787,0.516,3.688-0.426c0.495-0.517,1.091-0.957,1.788-1.121
				c0.513-0.121,1.054-0.115,1.551-0.29c0.497-0.175,0.964-0.616,0.924-1.141c-0.04-0.519-0.572-0.887-1.091-0.938
				c-0.519-0.05-1.027,0.133-1.523,0.293c-0.664,0.215-1.34,0.392-2.025,0.531"/>
			<path class="st0" d="M32.989,154.039c-0.902,1.127-0.632,1.831-0.593,3.274c0.022,0.806,0.046,1.629,0.323,2.386
				c0.308,0.844,0.906,1.546,1.505,2.215c0.852,0.951,1.783,1.913,2.995,2.314c0.709,0.235,1.47,0.261,2.217,0.238
				c1.097-0.033,2.224-0.177,3.182-0.713c0.309-0.173,0.6-0.388,0.823-0.664c0.336-0.415,0.5-0.943,0.598-1.467
				c0.132-0.708,0.148-1.476-0.194-2.111s-1.128-1.069-1.804-0.819c-0.101,0.037-0.199,0.09-0.271,0.17
				c-0.482,0.533,0.579,1.426,0.187,2.029c-0.13,0.201-0.38,0.28-0.61,0.346c-1.167,0.333-2.46,0.658-3.555,0.134
				c-0.842-0.403-1.405-1.266-1.606-2.178c-0.201-0.912-0.078-1.869,0.174-2.768c0.25-0.892,0.088-0.688,0.575-1.477"/>
			<path class="st0" d="M62.277,153.977c-0.11-1.206-0.22-2.412-0.331-3.618c-0.009-0.102-0.018-0.207,0.015-0.304
				c0.045-0.133,0.161-0.228,0.267-0.319c1.033-0.887,1.704-2.185,1.829-3.541c0.017-0.188,0.026-0.382,0.101-0.555
				c0.272-0.622,1.256-0.698,1.475-1.341c-0.652,0.03-1.307-0.001-1.953-0.094c-0.663-1.185-2.002-1.959-3.36-1.943
				c-0.3-0.811-0.722-1.577-1.248-2.263c-0.349,0.284-0.427,0.773-0.538,1.209c-0.405,1.578-1.987,2.388-3.066,3.551
				c-0.992,1.173-2.426,1.844-3.92,2.202c-1.494,0.358-3.037,0.46-4.545,0.753c-2.787,0.542-5.495,1.739-8.332,1.612
				c-1.262-0.057-2.503-0.377-3.767-0.413c-0.827-0.024-1.652,0.074-2.473,0.172c-3.686,0.439-7.372,0.879-11.058,1.318
				c-1.447,0.173-2.934,0.343-4.346-0.022c-0.155-0.04-0.312-0.087-0.471-0.07c-0.343,0.035-0.601,0.377-0.62,0.721
				c-0.019,0.345,0.156,0.676,0.394,0.927c0.68,0.719,1.77,0.838,2.759,0.839c1.811,0.001,3.618-0.248,5.429-0.192
				c1.81,0.055,3.684,0.451,5.101,1.579c0.118,0.094,0.242,0.209,0.253,0.36c0.015,0.194-0.159,0.345-0.316,0.459
				c-1.747,1.271-3.621,2.367-5.586,3.266c-2.069,0.947-4.384,1.424-6.434,2.412c-0.47,0.226-0.948,0.471-1.288,0.867
				c-0.34,0.395-0.511,0.98-0.283,1.449c0.272,0.56,1.006,0.751,1.616,0.628c0.61-0.124,1.14-0.483,1.691-0.774
				c1.605-0.848,3.44-1.129,5.235-1.397c2.79-0.418,5.58-0.835,8.371-1.253"/>
			<path class="st0" d="M62.072,150.66c1.079,0.017,2.116,0.406,3.1,0.849c0.417,0.188,0.894,0.486,0.878,0.943"/>
		</g>
	</g>
	<g>
		<path class="st0" d="M71.615,64.84c-3.351,9.931-4.617,20.341-3.966,30.802c0.239,3.847,2.237,7.43,3.265,11.144
			c1.002,3.62,1.589,5.25,1.576,9.006c-0.008,2.18-0.166,5.304,0.901,7.205c1.264,2.253,1.619,2.003,4.165,2.439
			c0.973,0.167,2.815,0.446,3.602-0.15c0.859-0.65,0.416-1.926,0.45-3.002c0.212-6.66,1.717-10.948,0.782-17.545
			c-0.325-2.293-0.787-4.57-0.943-6.881c-0.324-4.805,0.69-9.617,2.239-14.177c1.071-3.152,2.442-6.285,4.713-8.719"/>
		<path class="st0" d="M94.496,64.798c0.189,2.729,1.241,6.082,0.469,8.705c-2.172,7.379-6.018,13.868-4.803,21.463
			c0.424,2.65,1.444,6.195,1.801,8.856c0.758,5.651,0.035,8.578-0.45,14.259c-0.131,1.534-0.738,3.841-1.351,5.253
			c-0.795,1.833-2.219,1.193-3.752,1.051c-3.227-0.3-2.777-1.501-4.653-2.852"/>
		<path class="st0" d="M70.069,47.799c0.947,4.603,1.309,9.064,1.072,13.758c-0.061,1.214-0.059,2.657,0.936,3.353
			c0.989,0.692,2.336,0.212,3.542,0.279c1.657,0.092,3.051,1.244,4.634,1.743c1.699,0.536,3.534,0.298,5.299,0.055
			c1.723-0.237,3.447-0.474,5.17-0.712c0.938-0.129,1.904-0.267,2.723-0.743c1.811-1.053,2.378-3.464,2.094-5.54
			s-1.216-4.005-1.69-6.046c-1.724-7.433,2.786-15.068,1.917-22.649c-0.405-3.533-1.958-6.821-3.576-9.988
			c-0.395-0.773-0.829-1.555-1.512-2.091c-2.693-2.113-6.971-0.537-8.322-0.162c-0.544,0.151-1.313,0.263-1.951,0.6
			c-1.538,0.638-4.234,3.033-6.439,4.584c-0.771,0.542-1.546,1.088-2.204,1.763c-1.673,1.717-2.435,4.096-3.251,6.351
			c-1.125,3.111-2.488,6.213-4.717,8.658c-2.229,2.445-5.467,4.162-8.762,3.861c-0.889-0.081-1.831-0.297-2.642,0.076
			c-1.433,0.658-1.546,2.617-1.445,4.191c0.043,0.665,0.105,1.38,0.532,1.892c0.478,0.572,1.276,0.733,2.011,0.858
			c2.07,0.352,4.14,0.699,6.212,1.041c1.341,0.222,2.731,0.439,4.043,0.085c1.656-0.447,2.934-1.729,4.127-2.96
			c3.678-3.793,7.356-7.585,11.034-11.378"/>
		<path class="st0" d="M79.539,20.093c-0.366-0.211-0.483-0.38-0.933-0.586c-1.779,0.817-4.261-1.078-4.29-3.035
			c-0.007-0.49,0.078-1.064-0.284-1.396c-0.205-0.188-0.499-0.235-0.742-0.369c-0.757-0.417-0.799-1.515-0.486-2.321
			c0.313-0.806,0.875-1.524,1.012-2.377c0.203-1.257-0.704-2.536-0.595-3.805c0.185-2.154,1.229-3.734,3.015-4.602
			c1.786-0.868,3.832-0.98,5.816-1.069c1.265-0.057,2.579-0.102,3.744,0.394c1.346,0.573,2.302,1.788,3.085,3.024
			c0.867,1.367,1.616,2.896,1.584,4.515c-0.035,1.746-0.964,3.325-1.648,4.931c-0.684,1.606-1.1,3.342-0.193,4.833"/>
		<path class="st0" d="M73.952,9.244c0.372,0.477,0.709,0.426,1.304,0.535c0.841,0.154,1.717,0.307,2.541,0.077
			c0.647-0.181,1.27-0.595,1.932-0.484c0.577,0.097,1.019,0.582,1.269,1.111c0.25,0.529,0.352,1.113,0.535,1.669
			c0.921,2.787,3.639,4.719,6.489,4.016"/>
		<path class="st0" d="M51.741,45.231c-2.013-0.836-4.23-1.175-6.401-0.978c-0.217,0.02-0.438,0.046-0.637,0.135
			c-0.192,0.086-0.354,0.226-0.51,0.368c-0.558,0.507-1.077,1.057-1.551,1.643c-0.153,0.459-0.546,0.789-0.854,1.162
			s-0.545,0.9-0.324,1.331c0.245,0.478,0.892,0.555,1.427,0.507c0.591-0.054,1.176-0.185,1.733-0.391
			c0.324-0.12,0.654-0.267,0.999-0.247c0.469,0.027,0.858,0.351,1.254,0.605c1.27,0.817,2.832,0.99,4.288,1.392"/>
		<path class="st0" d="M57.887,44.418c-1.504,0.246-2.978-0.514-4.258-1.341c-0.231-0.15-0.463-0.303-0.718-0.406
			c-0.75-0.303-1.619-0.13-2.342,0.234c-0.722,0.364-1.339,0.902-1.994,1.377"/>
		<path class="st0" d="M49.121,50.464c-0.01,0.221-0.021,0.441-0.031,0.662c-3.863,0.116-7.357,0.117-11.197,0.111
			c0-0.4,0-0.823,0-1.223"/>
		<path class="st0" d="M47.761,44.085c-0.3-0.563-0.45-1.029-0.863-1.576c-0.227-0.301-0.316-0.616-0.563-0.901
			c-0.21-0.242-0.4-0.701-0.534-0.993c-0.651-1.417-1.36-2.807-2.125-4.165c-0.054-0.096-0.112-0.195-0.204-0.254
			c-0.131-0.084-0.3-0.058-0.455-0.049c-2.798,0.17-4.936,0.245-7.263,0.283c-0.376,0.006-1.202-0.008-1.576,0.038
			c-0.243,0.029-0.603,0.036-0.847,0.054c-1.292,0.096-3.168,0.021-3.333,0.321c-0.06,0.45,0.294,0.876,0.496,1.292
			c0.446,0.918,1.063,1.746,1.492,2.671c0.35,0.754,0.353,0.727,0.879,1.515c0.089,0.134,0.611,0.824,0.702,0.957
			c0.424,0.619,1.072,1.687,1.175,1.858c0.863,1.426,1.443,2.704,3.049,4.662c3.232-0.06,6.473,0.056,9.85-0.056"/>
		<path class="st0" d="M29.889,36.868c-0.414,0.352-0.853,0.675-1.311,0.967c0.734,1.332,1.468,2.665,2.202,3.997
			c0.121,0.219,0.243,0.441,0.411,0.627c0.138,0.153,0.306,0.281,0.415,0.455c0.103,0.163,0.147,0.355,0.211,0.536
			c0.112,0.319,0.287,0.611,0.461,0.9c1.297,2.159,2.595,4.318,3.892,6.477c0.087,0.145,0.182,0.298,0.333,0.375
			c0.104,0.053,0.224,0.064,0.341,0.072c0.349,0.022,0.7,0.021,1.05-0.003"/>
		<path class="st0" d="M41.493,48.089c-0.5,0.013-1,0.025-1.501,0.038c-0.405,0.01-0.826,0.017-1.193-0.153
			c-0.442-0.205-0.733-0.632-1.001-1.039c-0.557-0.845-1.113-1.691-1.67-2.536c-0.347-0.527-0.695-1.055-1.001-1.606
			c-0.39-0.7-0.715-1.442-1.192-2.086c-0.542-0.732-1.301-1.39-1.418-2.293c-0.019-0.144,0.067-0.413,0.21-0.44
			c0.143-0.026,0.29,0.009,0.436,0.004c0.172-0.006,0.337-0.068,0.505-0.104c0.219-0.048,0.444-0.053,0.667-0.059
			c0.393-0.009,0.785-0.019,1.178-0.028c0.209-0.005,0.413,0.05,0.622,0.052c1.833,0.018,3.683-0.389,5.519-0.185
			c0.446,0.05,0.916,0.166,1.217,0.498c0.287,0.317,0.364,0.765,0.488,1.174c0.125,0.412,0.309,0.805,0.53,1.175
			c0.17,0.285,0.363,0.558,0.499,0.86c0.105,0.232,0.174,0.479,0.264,0.717c0.27,0.716,0.718,1.349,1.16,1.973"/>
		<path class="st0" d="M33.381,46.551c-1.794,0.44-3.617,0.749-5.438,1.057c-0.803,0.136-1.607,0.272-2.41,0.408
			c-1.017,0.172-2.034,0.344-3.06,0.442c-0.654,0.062-1.312,0.094-1.964,0.172c-0.531,0.063-1.059,0.155-1.586,0.247
			c-3.403,0.596-6.546,1.174-10.209,1.781c-0.546,0.09-1.064,0.303-1.596,0.455c-0.261,0.074-0.522,0.149-0.79,0.19
			c-0.211,0.032-0.425,0.043-0.636,0.074c-0.763,0.111-1.496,0.479-2.264,0.418c6.078,0.733,8.386,0.958,14.071,1.409
			c1.031,0.082,4.423,0.447,5.456,0.483c0.982,0.034,2.625,0.089,3.606,0.136c3.49,0.169,8.713,0.502,13.419,0.586
			c4.565,0.082,9.092-0.735,13.584-1.549c0.755-0.137,1.509-0.273,2.264-0.41"/>
		<path class="st0" d="M3.75,51.723c-0.261,0.947-0.393,2.216,0.479,2.668c0.248,0.129,0.534,0.156,0.813,0.182
			c6.739,0.612,13.486,1.127,20.233,1.642c2.743,0.209,5.035,0.118,7.778,0.327c1.267,0.097,3.232,0.375,4.503,0.375
			c0.826,0,1.669,0.066,2.57,0.056c0.916-0.01,2.124,0.1,3.039,0.113c2.035,0.029,3.962-0.381,5.966-0.732
			c2.306-0.403,4.297-0.906,6.603-1.309c1.999-0.35,5.161-1.111,7.244-1.843"/>
		<path class="st0" d="M65.289,52.505c0.952-0.09,1.402-0.259,2.261-0.351c1.083-0.116,2.123-0.488,3.199-0.661"/>
		<path class="st0" d="M68.009,49.878c0.668-0.3,1.385-0.489,2.113-0.558c-0.032-0.074,0.03-0.17,0.111-0.172"/>
		<path class="st0" d="M11.606,55.191c0.036,6.104,0.073,12.208,0.109,18.312c0.03,5.04,0.441,10.079,0.448,15.12
			c0.002,1.259,0.004,2.518,0.005,3.776c0.005,3.709,0.01,7.42-0.126,11.127c-0.35,9.5,0.386,19.008,0.229,28.514
			c0.33,0.103,0.724,0.216,1.127,0.337c0.47,0.142,0.919,0.344,1.391,0.475c1.349,0.374,2.697,0.747,4.046,1.121
			c0.135,0.037,0.277,0.075,0.414,0.047c0.157-0.032,0.283-0.145,0.405-0.249c0.666-0.566,1.457-0.984,2.3-1.216
			c-0.118-16.935-0.058-33.861,0.199-50.795c0.13-8.56-0.095-17.163-0.302-25.745"/>
		<path class="st0" d="M19.188,55.901c0.032,0.949,0.065,1.899,0.003,2.847c-0.062,0.953-0.22,1.899-0.242,2.854
			c-0.021,0.912,0.083,1.821,0.155,2.73c0.428,5.37-0.226,10.765-0.175,16.151c0.065,6.881,0.185,13.836,0.23,20.717
			c0.012,1.846,0.024,3.691,0.036,5.537c0.026,4.008,0.052,8.019-0.163,12.021c-0.274,5.096-0.157,10.129-0.216,15.232"/>
		<path class="st0" d="M22.167,131.581c1.166,0.383,1.804,0.421,2.753,0.707c2.142,0.647,4.187,1.599,6.382,2.031
			c1.054,0.208,2.119,0.357,3.173,0.566c2.026,0.402,4.002,1.019,5.974,1.636c2.738,0.856,5.461,1.627,8.199,2.484
			c-0.216,0.367-0.668,0.507-1.02,0.746c-0.186,0.126-0.349,0.285-0.51,0.442c-0.503,0.491-0.996,0.981-1.5,1.472
			c-3.912-0.954-7.825-1.908-11.737-2.862c-1.195-0.291-2.39-0.583-3.584-0.874c-5.036-1.228-10.072-2.456-15.109-3.684
			c-0.835-0.204-1.67-0.407-2.505-0.611c-4.008-0.978-8.017-1.955-12.025-2.933c0.851-0.622,1.638-1.83,2.49-2.452
			c0.486,0.112,1.574,0.209,2.064,0.3c0.821,0.152,1.05,0.252,1.876,0.375c0.763,0.114,1.488,0.412,2.251,0.525
			c0.924,0.138,1.775,0.586,2.701,0.712"/>
		<path class="st0" d="M0.641,130.792c-0.014,0.83-0.127,1.478-0.141,2.308c3.374,0.572,7.085,1.183,10.458,1.755
			c0.655,0.111,1.309,0.222,1.963,0.338c1.678,0.298,3.35,0.63,5.016,0.986c7.197,1.536,13.913,2.804,21.681,4.042"/>
		<path class="st0" d="M61.645,53.616c-0.1,5.214-0.149,10.43-0.148,15.645c0.002,4.857-0.155,9.826-0.207,14.683
			c-0.013,1.243-0.027,2.486-0.04,3.729c-0.011,1.009-0.022,2.018-0.032,3.027c-0.053,4.973-0.136,10.06-0.189,15.033
			c2.251,0.394,2.847,0.556,5.084,0.901c0.212,0.033,0.842,0.2,1.051,0.15c0.119-0.029,0.606-0.074,0.717-0.126
			c0.283-0.135,0.556-0.247,0.807-0.444c0.424-0.253,0.388-0.473,0.381-0.79c-0.031-1.309-0.063-2.618-0.094-3.927"/>
		<path class="st0" d="M70.02,51.967c-0.269,6.224-0.314,12.793-0.233,19.022"/>
		<path class="st0" d="M67.586,52.189c-0.009,2.606-0.017,5.211-0.026,7.817c-0.003,0.854-0.006,1.708-0.008,2.563
			c-0.018,5.415-0.036,10.829-0.053,16.244c-0.006,1.745-0.019,3.437,0.121,5.176"/>
		<path class="st0" d="M67.327,106.786c0.111-6.491,0.199-13.546,0.152-20.037"/>
		<path class="st0" d="M60.894,104.422c-2.766-0.602-3.602-0.675-6.372-1.114c-0.256-0.041-0.577-0.111-0.833-0.068
			c-0.225,0.038-0.344,0.115-0.527,0.251c-0.642,0.474-1.476,1.189-2.118,1.663c1.054,0.193,1.929,0.257,2.983,0.45
			c1.932,0.355,3.978,0.771,5.91,1.126c3.829,0.703,7.597,1.192,11.426,1.895"/>
		<path class="st0" d="M51.044,105.323c-0.155,0.611,0.068,1.106,0.257,1.708c3.852,0.375,5.596,0.544,9.48,0.994
			c0.85,0.099,3.144,0.369,3.996,0.45c1.97,0.188,4.24,0.169,6.548,0.338"/>
		<path class="st0" d="M73.202,122.734c-0.862,0.022-3.401,0.635-4.234,0.86c-1.951,0.525-2.704,0.577-4.494,1.134
			c-0.606,0.189-1.213,0.521-1.502,1.086c-0.171,0.336-0.214,0.721-0.228,1.098c-0.013,0.368,0.005,0.759,0.212,1.063
			c0.182,0.267,0.482,0.426,0.776,0.559c1.869,0.846,3.95,1.072,5.99,1.287c0.558,0.059,1.115,0.118,1.673,0.176
			c0.749,0.079,1.499,0.158,2.252,0.157c0.703-0.001,1.404-0.072,2.104-0.143c0.8-0.081,1.599-0.162,2.399-0.243
			c0.91-0.092,1.826-0.185,2.707-0.431c0.262-0.073,0.531-0.166,0.72-0.361c0.214-0.221,0.292-0.537,0.342-0.84
			c0.212-1.285-0.124-2.561-0.199-3.762"/>
		<path class="st0" d="M90.613,122.209c0.016,0.776,0.144,2.891,0.075,3.665c-0.03,0.334-0.071,0.677-0.227,0.974
			c-0.354,0.674-1.19,0.931-1.949,0.99c-1.713,0.134-5.076-1.333-6.679-1.951"/>
		<path class="st0" d="M69.173,105.487c0.517,0.198,0.952,0.286,1.515,0.473"/>
	</g>
</g>
</svg>