<!-- Generator: Adobe Illustrator 24.1.0, SVG Export Plug-In  -->
<svg version="1.1" xmlns="http://www.w3.org/2000/svg" xmlns:xlink="http://www.w3.org/1999/xlink" x="0px" y="0px"
	 width="96.108px" height="64.754px" viewBox="0 0 96.108 64.754" style="enable-background:new 0 0 96.108 64.754;"
	 xml:space="preserve">
<style type="text/css">
	.st0{fill:#FFFFFF;}
</style>
<defs>
</defs>
<g>
	<g>
		<path class="st0" d="M0,18.148c0-1.789,0.511-3.493,1.96-6.561L7.498,0h6.135l-3.493,13.036c1.704,1.278,2.726,2.897,2.726,5.112
			c0,3.493-2.897,6.22-6.475,6.22S0,21.642,0,18.148z"/>
		<path class="st0" d="M37.488,64.754v-46.35l-12.78,7.753l-4.771-7.327L38.596,7.413h9.628v57.342H37.488z"/>
		<path class="st0" d="M94.83,22.494c0,9.713-5.538,16.785-23.26,33.655h24.538l-1.193,8.606h-35.7v-8.009
			c19.597-19.938,24.368-25.305,24.368-33.4c0-5.283-3.323-8.35-8.265-8.35c-4.516,0-7.498,1.874-10.991,6.049l-6.731-5.283
			C62.197,9.798,68.246,6.39,76.17,6.39C88.013,6.39,94.83,13.547,94.83,22.494z"/>
	</g>
</g>
</svg>