<!-- Generator: Adobe Illustrator 24.1.0, SVG Export Plug-In  -->
<svg version="1.1" xmlns="http://www.w3.org/2000/svg" xmlns:xlink="http://www.w3.org/1999/xlink" x="0px" y="0px"
	 width="115.876px" height="149.851px" viewBox="0 0 115.876 149.851" style="enable-background:new 0 0 115.876 149.851;"
	 xml:space="preserve">
<style type="text/css">
	.st0{fill:none;stroke:#FFFFFF;stroke-linecap:round;stroke-linejoin:round;stroke-miterlimit:10;}
	.st1{fill:none;stroke:#FFFFFF;stroke-miterlimit:10;}
	.st2{fill:#010101;stroke:#FFFFFF;stroke-linecap:round;stroke-linejoin:round;stroke-miterlimit:10;}
	.st3{enable-background:new    ;}
	.st4{clip-path:url(#SVGID_2_);}
	.st5{fill:#FFFFFF;}
	.st6{clip-path:url(#SVGID_4_);}
</style>
<defs>
</defs>
<g>
	<g>
		<path class="st0" d="M37.114,3.104C37.499,19.9,37.885,36.695,38.27,53.49c0.029,1.27,0.097,2.647,0.912,3.621
			c0.492,0.588,1.202,0.952,1.921,1.22c3.501,1.303,5.618,1.073,9.28,1.813c1.663,0.336,4.537,0.514,5.76,0.707
			c2.793,0.439,4.637,0.72,7.492,1.013c2.216,0.227,3.529,0.286,5.466,0.565c4.673,0.674,9.3,0.884,13.973,1.557
			c5.455,0.787,10.934,1.575,16.445,1.564c0.872-0.002,1.782-0.034,2.546-0.453c2.096-1.15,1.82-4.149,1.944-6.536
			c0.115-2.217,0.822-4.353,1.399-6.497c1.741-6.469,2.322-13.185,2.896-19.859c0.231-2.69,0.463-5.38,0.694-8.071
			c0.567-6.597,1.134-13.194,1.702-19.791c0.098-1.139,0.13-2.456-0.719-3.221c-0.696-0.627-1.733-0.64-2.67-0.618
			c-4.282,0.101-8.564,0.203-12.846,0.304c-1.153,0.027-2.305,0.055-3.458,0.082c-1.228,0.029-2.456,0.058-3.684,0.087
			C76.694,1.231,66.066,1.483,55.448,1.998C49.49,2.286,43.537,2.658,37.59,3.112"/>
		<path class="st0" d="M109.057,0.624c1.391,0.086,3.913,0.171,5.303,0.257c0.921,2.365,0.435,5.012,0.017,7.516
			c-0.395,2.369-0.719,4.75-1.042,7.13c-0.454,3.339-0.907,6.677-1.361,10.016c-0.267,1.962-0.534,3.927-0.648,5.904
			c-0.13,2.234-0.065,4.476-0.236,6.707c-0.377,4.938-1.895,9.737-2.233,14.678c-0.167,2.443-0.053,4.953-0.835,7.273
			c-0.783,2.32-2.778,4.468-5.227,4.467"/>
		<path class="st0" d="M43.074,59.339c-0.407,2.158-0.568,4.902,1.325,6.015c0.515,0.303,1.112,0.425,1.698,0.541
			c3.84,0.761,7.695,1.449,11.549,2.137c1.734,0.309,3.468,0.619,5.202,0.928c4.303,0.768,8.616,1.537,12.976,1.831
			c2.024,0.137,4.055,0.171,6.075,0.361c5.511,0.519,10.869,2.191,16.388,2.62c0.307,0.024,0.634,0.039,0.901-0.114
			c0.331-0.19,0.476-0.58,0.632-0.928c0.335-0.746,0.23-0.582,0.83-1.42c0.389-0.543,0.948-1.251,1.343-1.789
			c1.018-1.385,0.802-2.523,0.871-4.277"/>
		<path class="st0" d="M108.677,57.535c2.197-0.078,4.412,0.431,6.355,1.459c-0.528,7.047-1.614,14.051-3.244,20.927
			c-2.178,9.183-5.316,18.106-8.449,27.009c-0.118,0.334-0.242,0.68-0.488,0.935c-0.788,0.818-2.137,0.247-3.157-0.251
			c-4.675-2.281-10.142-1.991-15.24-3.022c-4.598-0.93-8.964-2.955-13.631-3.429c-1.862-0.189-3.751-0.128-5.592-0.469
			c-1.912-0.354-3.714-1.131-5.556-1.755c-8.134-2.759-17.035-2.552-25.193-5.24c-0.756-0.249-1.589-0.602-1.872-1.347
			c-0.119-0.314-0.122-0.658-0.122-0.994c-0.014-7.495-0.029-14.99-0.043-22.485c-0.001-0.495,0.002-1.007,0.207-1.457
			c0.232-0.509,0.691-0.872,1.142-1.203c2.586-1.899,5.448-3.424,8.466-4.512"/>
		<path class="st0" d="M33.103,67.249c15.417,2.646,30.834,5.292,46.251,7.938c4.234,0.727,8.4,1.762,12.592,2.703
			c2.75,0.618,4.112,0.806,5.99,1.172c2.643,0.514,4.33,0.661,7.578,0.763c1.28-2.601,2.561-5.202,3.841-7.803
			c0.616-1.252,1.233-2.504,1.819-3.771c1.36-2.94,2.555-5.956,3.578-9.03"/>
		<path class="st0" d="M105.907,79.254c-0.597,9.393-1.525,18.765-2.783,28.092"/>
		<path class="st0" d="M68.635,77.56c-0.43,4.95-0.69,9.352-0.845,14.318"/>
		<path class="st0" d="M74.494,87.018c3.295,0.77,4.218,0.807,6.67,1.32c6.385,1.334,12.248,2.038,18.562,3.54"/>
		<path class="st0" d="M72.614,83.267c-0.114,2.946-0.316,6.022-0.429,8.967c2.806-0.264,5.598,0.472,8.335,1.147
			c6.998,1.727,14.083,3.097,21.221,4.103c0.085-2.879,0.169-5.758,0.254-8.638c-6.405-2.237-13.158-3.264-19.865-4.281
			C78.987,84.089,75.756,83.744,72.614,83.267z"/>
		<path class="st0" d="M65.039,74.477c0.002,6.589-0.084,12.414-0.082,19.003c1.905,0.402,2.911,0.86,4.943,1.319
			c-0.078-2.541,0.267-5.714,0.254-8.256c-0.018-3.64,0.534-7.047,0.69-10.855C68.925,75.403,66.93,74.914,65.039,74.477z"/>
		<path class="st0" d="M111.074,84.553c1.44,0.87,2.941,1.801,3.777,3.261c0.836,1.46,0.722,3.611-0.696,4.518
			c-0.599,0.383-1.334,0.495-1.955,0.84c-1.274,0.708-1.821,2.223-2.267,3.611c-0.467,1.453-0.915,3.117-0.141,4.432
			c0.362,0.615,0.948,1.06,1.423,1.592c1.067,1.194,1.565,2.875,1.319,4.458c-0.165,1.061-0.639,2.046-1.106,3.012
			c-2.216,4.579-4.432,9.159-6.649,13.738c-0.973,2.011-1.601,3.736-3.359,5.114"/>
		<path class="st1" d="M103.263,133.057c0.123,1.285-0.386,2.385-0.949,3.546c-0.979,2.019-1.649,4.186-1.982,6.405
			c-0.231,1.543-0.339,3.211-1.31,4.432c-1.034,1.3-2.801,1.763-4.458,1.879c-3.633,0.256-7.621-1.022-9.544-4.114
			c-1.016-1.633-1.36-3.585-1.642-5.487c-0.119-0.803-0.23-1.627-0.06-2.421c0.181-0.844,0.664-1.587,1.147-2.302
			c1.996-2.957,4.327-5.963,7.674-7.199c2.51-0.927,5.421-0.701,7.758,0.601C101.656,129.375,103.335,131.046,103.263,133.057z"/>
		<path class="st2" d="M46.343,11.733c-1.48,8.887-1.564,17.571-1.46,26.579c0.052,4.5,0.119,9.089,1.574,13.347
			c16.684,1.921,33.368,3.842,50.052,5.763c0.508-8.706,1.016-17.412,1.525-26.119c0.123-2.109,0.248-4.23,0.73-6.286
			c0.396-1.689,1.031-3.324,1.292-5.04c0.429-2.828-0.165-5.832,0.873-8.497C82.808,10.448,64.434,10.279,46.343,11.733
			L46.343,11.733z"/>
		<path class="st0" d="M66.646,79.156c0.027,0.424,0.011,0.851-0.047,1.271"/>
		<path class="st0" d="M75.555,90.7c0.508-0.031,1.022,0.035,1.506,0.194"/>
		<path class="st0" d="M89.83,129.259c2.308-0.077,4.632,0.394,6.727,1.364c2.292,1.061,4.27,2.685,6.185,4.331"/>
		<path class="st0" d="M97.016,130.469c0.184-1.038,0.996-1.939,2.009-2.23"/>
	</g>
	<g>
		<g>
			<g class="st3">
				<defs>
					<polygon id="SVGID_1_" class="st3" points="49.096,39.828 49.936,17.195 86.042,18.427 85.201,41.06 					"/>
				</defs>
				<clipPath id="SVGID_2_">
					<use xlink:href="#SVGID_1_"  style="overflow:visible;"/>
				</clipPath>
				<g class="st4">
					<g>
						<g>
							<g>
								<polyline class="st5" points="52.748,17.291 50.408,17.212 50.39,17.688 49.919,17.672 49.883,18.625 50.355,18.641 
									50.337,19.109 50.809,19.125 50.791,19.601 51.726,19.633 51.708,20.11 52.179,20.126 52.127,21.547 50.721,21.499 
									50.756,20.546 49.813,20.513 49.778,21.467 50.249,21.483 50.232,21.95 52.572,22.03 52.589,21.562 53.061,21.579 
									53.114,20.158 52.642,20.142 52.66,19.665 52.197,19.649 52.215,19.173 51.272,19.141 51.289,18.673 50.826,18.657 
									50.862,17.704 52.267,17.752 52.232,18.705 53.167,18.737 53.202,17.784 52.73,17.768 52.748,17.291 								"/>
								<polyline class="st5" points="56.031,17.403 55.569,17.388 55.551,17.864 55.079,17.848 55.044,18.801 54.101,18.769 
									54.083,19.237 55.026,19.269 54.938,21.643 55.41,21.659 55.393,22.126 56.798,22.174 56.816,21.707 57.278,21.722 
									57.296,21.246 56.362,21.214 56.344,21.691 55.872,21.674 55.961,19.301 56.904,19.333 56.921,18.865 55.978,18.833 
									56.031,17.403 								"/>
								<path class="st5" d="M59.156,21.786l0.053-1.421l0.943,0.032l-0.052,1.412l0,0.009L59.156,21.786 M60.667,18.993
									l-1.877-0.064l-0.017,0.468l1.414,0.048l-0.018,0.477l-1.414-0.048l-0.018,0.477l-0.463-0.016l-0.053,1.421l0.463,0.016
									l-0.017,0.468l1.414,0.048l0.017-0.468l0.463,0.016l-0.017,0.468l0.943,0.032l0.017-0.468l-0.472-0.016l0.088-2.374
									l-0.472-0.016L60.667,18.993"/>
								<polyline class="st5" points="65.356,19.153 63.95,19.105 63.932,19.573 63.461,19.556 63.478,19.089 62.544,19.057 
									62.527,19.525 62.998,19.541 62.91,21.915 62.439,21.898 62.421,22.366 64.299,22.43 64.316,21.963 63.844,21.946 
									63.915,20.049 64.386,20.065 64.404,19.589 64.876,19.605 64.84,20.558 65.774,20.59 65.81,19.637 65.339,19.621 
									65.356,19.153 								"/>
								<polyline class="st5" points="68.692,17.835 68.22,17.819 68.203,18.296 67.74,18.28 67.705,19.233 66.762,19.201 
									66.744,19.668 67.688,19.701 67.599,22.075 68.062,22.09 68.044,22.558 69.45,22.606 69.467,22.138 69.939,22.154 
									69.957,21.678 69.023,21.646 69.005,22.122 68.533,22.106 68.622,19.733 69.556,19.764 69.573,19.297 68.639,19.265 
									68.692,17.835 								"/>
								<path class="st5" d="M73.328,19.425l-1.406-0.048l-0.017,0.468l0.472,0.016l-0.088,2.374l-0.472-0.016l-0.017,0.468
									l1.878,0.064l0.017-0.468l-0.472-0.016L73.328,19.425 M73.381,17.995l-0.935-0.032l-0.035,0.953l0.935,0.032L73.381,17.995"
									/>
								<polyline class="st5" points="78.017,19.585 76.611,19.537 76.594,20.004 76.122,19.988 76.139,19.521 75.205,19.489 
									75.188,19.957 75.65,19.972 75.545,22.814 76.488,22.846 76.594,20.004 77.528,20.036 77.422,22.878 78.365,22.91 
									78.471,20.068 77.999,20.052 78.017,19.585 								"/>
								<polyline class="st5" points="82.706,19.745 81.772,19.713 81.754,20.181 81.283,20.164 81.282,20.173 81.194,22.538 
									80.251,22.506 80.339,20.132 81.283,20.164 81.3,19.697 79.894,19.649 79.876,20.116 79.405,20.1 79.317,22.474 
									79.788,22.49 79.771,22.958 81.177,23.006 81.142,23.959 80.198,23.927 80.216,23.45 79.282,23.418 79.264,23.895 
									79.736,23.911 79.718,24.379 81.596,24.443 81.613,23.975 82.076,23.991 82.217,20.196 82.688,20.212 82.706,19.745 
																	"/>
								<polyline class="st5" points="52.968,24.087 52.033,24.055 52.016,24.532 51.545,24.516 51.527,24.993 51.055,24.976 
									51.073,24.5 50.61,24.484 50.628,24.008 49.684,23.975 49.508,28.714 50.452,28.746 50.557,25.905 51.02,25.921 
									51.002,26.397 51.474,26.413 51.492,25.937 51.963,25.953 51.857,28.794 52.792,28.826 52.968,24.087 								"/>
								<polyline class="st5" points="56.722,24.215 54.374,24.135 54.356,24.612 53.884,24.596 53.849,25.54 54.321,25.556 
									54.303,26.033 54.775,26.049 54.757,26.525 55.691,26.557 55.674,27.025 56.145,27.041 56.092,28.47 54.686,28.423 
									54.722,27.469 53.779,27.437 53.743,28.39 54.215,28.406 54.198,28.874 56.546,28.954 56.564,28.487 57.027,28.502 
									57.08,27.073 56.617,27.057 56.634,26.589 56.163,26.573 56.18,26.097 55.246,26.065 55.264,25.588 54.792,25.572 
									54.827,24.628 56.233,24.676 56.198,25.62 57.133,25.652 57.168,24.708 56.705,24.692 56.722,24.215 								"/>
								<polyline class="st5" points="61.323,26.749 58.04,26.637 58.023,27.105 61.306,27.217 61.323,26.749 								"/>
								<path class="st5" d="M63.593,28.726l0.141-3.795l0.472,0.016l-0.018,0.477l0.472,0.016l-0.106,2.841l-0.472-0.016
									l-0.018,0.477L63.593,28.726 M64.694,24.487l-2.349-0.08l-0.018,0.477l0.472,0.016l-0.141,3.795l-0.472-0.016l-0.017,0.468
									l2.349,0.08l0.017-0.468l0.463,0.016l0.018-0.477l0.471,0.016l0.106-2.841l-0.471-0.016l0.018-0.477l-0.463-0.016
									L64.694,24.487"/>
								<path class="st5" d="M67.348,28.854l0.141-3.795l1.406,0.048l-0.141,3.795L67.348,28.854 M69.374,24.647l-2.34-0.08
									l-0.018,0.477l-0.472-0.016l-0.141,3.795l0.472,0.016l-0.017,0.468l2.34,0.08l0.017-0.468l0.472,0.016l0.141-3.795
									l-0.472-0.016L69.374,24.647"/>
								<polyline class="st5" points="73.601,24.791 71.252,24.711 71.234,25.188 70.771,25.172 70.736,26.116 71.199,26.132 
									71.182,26.608 71.653,26.624 71.635,27.101 72.569,27.133 72.552,27.6 73.024,27.617 72.971,29.046 71.564,28.998 
									71.6,28.045 70.666,28.013 70.63,28.966 71.093,28.982 71.076,29.45 73.425,29.53 73.442,29.062 73.905,29.078 
									73.958,27.648 73.495,27.633 73.513,27.165 73.041,27.149 73.059,26.672 72.124,26.64 72.142,26.164 71.67,26.148 
									71.705,25.204 73.112,25.252 73.076,26.196 74.011,26.228 74.046,25.284 73.583,25.268 73.601,24.791 								"/>
								<polyline class="st5" points="77.205,28.714 76.271,28.682 76.236,29.626 77.17,29.658 77.205,28.714 								"/>
								<polyline class="st5" points="81.432,28.858 80.489,28.826 80.454,29.77 81.397,29.802 81.432,28.858 								"/>
								<polyline class="st5" points="85.649,29.002 84.706,28.969 84.671,29.914 85.614,29.946 85.649,29.002 								"/>
								<polyline class="st5" points="52.119,34.241 50.25,34.177 50.232,34.654 49.761,34.638 49.743,35.105 49.272,35.089 
									49.166,37.94 49.637,37.956 49.62,38.423 50.092,38.44 50.074,38.916 51.943,38.98 51.96,38.503 52.432,38.519 
									52.467,37.575 51.995,37.559 51.978,38.036 51.515,38.02 51.497,38.488 50.555,38.455 50.572,37.988 50.109,37.972 
									50.215,35.122 50.678,35.137 50.695,34.67 51.638,34.702 51.621,35.169 52.083,35.185 52.066,35.662 52.537,35.678 
									52.572,34.734 52.101,34.718 52.119,34.241 								"/>
								<path class="st5" d="M55.75,37.687l-0.934-0.032L54.781,38.6l0.934,0.032L55.75,37.687 M55.838,35.313l-0.934-0.032
									l-0.035,0.953l0.934,0.032L55.838,35.313"/>
								<polyline class="st5" points="58.196,34.926 57.733,34.91 57.68,36.331 58.143,36.346 58.125,36.823 58.597,36.839 
									58.579,37.307 59.051,37.323 59.033,37.799 59.504,37.815 59.487,38.292 59.95,38.308 59.932,38.775 60.404,38.791 
									60.386,39.268 60.858,39.284 60.91,37.863 60.439,37.847 60.457,37.371 59.985,37.354 60.002,36.887 59.539,36.871 
									59.557,36.395 59.086,36.379 59.104,35.902 58.632,35.886 58.65,35.409 58.178,35.393 58.196,34.926 								"/>
								<polyline class="st5" points="63.356,35.102 62.422,35.07 62.404,35.537 62.867,35.553 62.849,36.03 63.321,36.046 
									63.303,36.522 63.775,36.538 63.757,37.015 64.228,37.031 64.211,37.499 63.739,37.483 63.722,37.959 63.25,37.943 
									63.232,38.42 62.761,38.404 62.743,38.871 62.281,38.855 62.263,39.332 63.197,39.364 63.215,38.887 63.687,38.903 
									63.704,38.436 64.176,38.452 64.193,37.975 64.656,37.991 64.674,37.514 65.145,37.531 65.163,37.063 64.691,37.047 
									64.709,36.57 64.246,36.555 64.264,36.078 63.792,36.062 63.81,35.585 63.338,35.569 63.356,35.102 								"/>
								<polyline class="st5" points="69.746,40.064 65.992,39.936 65.974,40.404 69.729,40.532 69.746,40.064 								"/>
							</g>
						</g>
					</g>
				</g>
			</g>
		</g>
	</g>
	<g>
		<path class="st1" d="M17.227,136.818c7.597-5.396,14.882-11.233,21.804-17.472c-1.442-2.953-3.327-5.689-5.572-8.088
			c-0.206-0.22-0.524-0.454-0.777-0.291c-0.406-1.979-2.706-2.977-3.576-4.801c-0.276,0.043-0.552,0.087-0.828,0.13
			c-0.055-0.705-0.54-1.292-1.002-1.828c-1.935-2.242-3.87-4.485-5.806-6.727c-2.107,1.703-4.121,3.327-6.228,5.03
			c-0.815,0.659-1.63,1.318-2.445,1.976c-1.001,0.809-2.003,1.619-3.004,2.428c-1.268,1.025-2.546,2.059-3.579,3.321
			c0.157,0.166,0.315,0.333,0.472,0.499c-0.557,0.365-1.051,0.827-1.451,1.36c-0.168-0.054-0.288-0.23-0.276-0.406
			c-0.49,0.387-1.083,0.471-1.574,0.857c-0.945,0.745-1.908,1.51-2.563,2.52c-0.031,0.048-0.059,0.116-0.018,0.155
			c0.041,0.039,0.098-0.072,0.042-0.06c0.919,1.313,1.804,2.662,2.723,3.974c0.244,0.349,0.489,0.698,0.733,1.047
			c1.135,1.622,2.27,3.243,3.405,4.866c0.43,0.615,0.862,1.233,1.361,1.793c0.343,0.385,0.717,0.742,1.052,1.133
			c0.35,0.408,0.656,0.851,0.965,1.29c1.881,2.665,3.925,5.215,6.118,7.63"/>
		<path class="st1" d="M17.267,114.175c-0.421,0.071-0.683,0.482-0.891,0.854c-0.212,0.378-0.426,0.763-0.53,1.184
			c-0.081,0.328-0.092,0.671-0.056,1.006c0.144,1.346,1.104,2.572,2.376,3.035c1.272,0.463,2.795,0.14,3.771-0.799
			c0.213-0.205,0.403-0.44,0.511-0.714c0.112-0.286,0.131-0.598,0.147-0.905c0.021-0.381,0.042-0.762,0.063-1.144
			c0.041-0.749,0.067-1.556-0.346-2.182c-0.59-0.894-1.812-1.062-2.881-1.128c-0.487-0.03-0.986-0.055-1.453,0.088
			c-0.467,0.143-0.901,0.49-1.01,0.965"/>
		<path class="st1" d="M25.222,110.077c-0.4,0.204-0.669,0.59-0.922,0.961c-0.418,0.614-0.856,1.308-0.746,2.043
			c0.018,0.118,0.054,0.241,0.141,0.323c0.049,0.046,0.111,0.076,0.174,0.102c0.623,0.255,1.351,0.123,1.946-0.192
			c0.595-0.315,1.083-0.795,1.562-1.268c0.225-0.223,0.451-0.445,0.676-0.668c0.6-0.593,1.229-1.238,1.394-2.065
			c0.054-0.27,0.048-0.573-0.116-0.795c-0.143-0.194-0.384-0.293-0.622-0.333c-0.989-0.166-1.895,0.527-2.658,1.177
			c-0.299,0.255-0.599,0.51-0.898,0.766"/>
	</g>
</g>
</svg>