<svg id="_Layer_" data-name="&lt;Layer&gt;" xmlns="http://www.w3.org/2000/svg" viewBox="0 0 27.57 27.39"><defs><style>.cls-1,.cls-3{fill:none;stroke-width:2px;}.cls-1{stroke:#010101;stroke-linecap:round;stroke-linejoin:round;}.cls-2{fill:#010101;}.cls-3{stroke:#231f20;stroke-miterlimit:10;}</style></defs><path class="cls-1" d="M5769.73-66.74a16.13,16.13,0,0,0-.32-4.15c-.34-1.13-1-2.16-1.34-3.28a4.12,4.12,0,0,1,.08-3.43,4.22,4.22,0,0,1,3.68-1.67c.25,0,.56,0,.69-.23.24-.37-.27-.77-.68-.92l-3.39-1.3a6.51,6.51,0,0,0-2.55-2.66,7.59,7.59,0,0,0-6.17,0,8.2,8.2,0,0,0-2.18,2,15.15,15.15,0,0,0-1.81,2.7,26.62,26.62,0,0,1-1.45,2.71,10.68,10.68,0,0,1-2.54,2.21" transform="translate(-5750.2 91.63)"/><path class="cls-2" d="M5761.38-81.88a.91.91,0,0,1,.72-.57l.42,0c.57-.12.87.14,1.23.6a1.58,1.58,0,0,1,.23.93.62.62,0,0,1-.06.38.57.57,0,0,1-.24.18,3.65,3.65,0,0,1-1.5.36.93.93,0,0,1-.79-.27,1,1,0,0,1-.14-.59A2.27,2.27,0,0,1,5761.38-81.88Z" transform="translate(-5750.2 91.63)"/><path class="cls-3" d="M5766.48-65.32a16.19,16.19,0,0,1-6-.57,12.21,12.21,0,0,1-6-3.47,12.75,12.75,0,0,1-2-14.1,13.39,13.39,0,0,1,12.43-7.15,10.78,10.78,0,0,1,3.76.85,12.78,12.78,0,0,1,4.49,3.59,15.71,15.71,0,0,1,3.08,5.37,12.36,12.36,0,0,1-1.28,10.07A12.15,12.15,0,0,1,5766.48-65.32Z" transform="translate(-5750.2 91.63)"/></svg>