<!-- Generator: Adobe Illustrator 24.1.0, SVG Export Plug-In  -->
<svg version="1.1" xmlns="http://www.w3.org/2000/svg" xmlns:xlink="http://www.w3.org/1999/xlink" x="0px" y="0px"
	 width="108.122px" height="66.884px" viewBox="0 0 108.122 66.884" style="enable-background:new 0 0 108.122 66.884;"
	 xml:space="preserve">
<style type="text/css">
	.st0{fill:#FFFFFF;}
</style>
<defs>
</defs>
<g>
	<g>
		<path class="st0" d="M0,18.148c0-1.789,0.511-3.493,1.96-6.561L7.498,0h6.135l-3.493,13.036c1.704,1.278,2.726,2.897,2.726,5.112
			c0,3.493-2.897,6.22-6.475,6.22S0,21.642,0,18.148z"/>
		<path class="st0" d="M61.176,36.126c0,19.171-6.987,29.906-20.534,29.906c-13.462,0-20.534-10.736-20.534-29.906
			c0-19.085,7.072-29.736,20.534-29.736C54.189,6.39,61.176,17.041,61.176,36.126z M31.355,36.126
			c0,16.018,2.982,21.642,9.287,21.642s9.287-5.453,9.287-21.642c0-16.103-2.982-21.471-9.287-21.471S31.355,20.278,31.355,36.126z"
			/>
		<path class="st0" d="M108.122,28.628c0,23.601-10.395,32.803-33.4,38.256l-2.3-7.753c14.314-3.749,22.494-9.287,24.027-20.619
			c-2.727,3.493-6.731,5.964-12.269,5.964c-8.861,0-16.103-7.072-16.103-18.659c0-12.014,8.861-19.426,19.938-19.426
			C101.306,6.39,108.122,15.422,108.122,28.628z M96.961,30.673c0.17-11.843-2.556-16.189-8.946-16.189
			c-5.538,0-9.032,3.834-9.032,11.162c0,7.839,3.579,10.906,8.179,10.906C91.082,36.552,94.405,34.422,96.961,30.673z"/>
	</g>
</g>
</svg>