<!-- Generator: Adobe Illustrator 24.1.0, SVG Export Plug-In  -->
<svg version="1.1" xmlns="http://www.w3.org/2000/svg" xmlns:xlink="http://www.w3.org/1999/xlink" x="0px" y="0px"
	 width="308.745px" height="193.75px" viewBox="0 0 308.745 193.75" style="enable-background:new 0 0 308.745 193.75;"
	 xml:space="preserve">
<defs>
</defs>
<g>
	<g>
		<path d="M0,53.25C0,48,1.5,43,5.75,34L22,0h18L29.75,38.25c5,3.75,8,8.5,8,15c0,10.25-8.5,18.25-19,18.25S0,63.5,0,53.25z"/>
		<path d="M163.248,66c0,28.5-16.25,49.25-68.25,98.75h72l-3.5,25.25H58.748v-23.5c57.5-58.5,71.5-74.25,71.5-98
			c0-15.5-9.75-24.5-24.25-24.5c-13.25,0-22,5.5-32.25,17.75l-19.75-15.5c13.5-17.5,31.25-27.5,54.5-27.5
			C143.248,18.75,163.248,39.75,163.248,66z"/>
		<path d="M308.745,106c0,56.25-20.5,87.75-60.25,87.75c-39.5,0-60.25-31.5-60.25-87.75c0-56,20.75-87.25,60.25-87.25
			C288.245,18.75,308.745,50,308.745,106z M221.245,106c0,47,8.75,63.5,27.25,63.5s27.25-16,27.25-63.5c0-47.25-8.75-63-27.25-63
			S221.245,59.5,221.245,106z"/>
	</g>
</g>
</svg>