<!-- Generator: Adobe Illustrator 24.1.0, SVG Export Plug-In  -->
<svg version="1.1" xmlns="http://www.w3.org/2000/svg" xmlns:xlink="http://www.w3.org/1999/xlink" x="0px" y="0px" width="87px"
	 height="92.722px" viewBox="0 0 87 92.722" style="enable-background:new 0 0 87 92.722;" xml:space="preserve">
<style type="text/css">
	.st0{fill:none;stroke:#FFFFFF;stroke-linecap:round;stroke-linejoin:round;stroke-miterlimit:10;}
	.st1{fill:none;stroke:#FFFFFF;stroke-miterlimit:10;}
</style>
<defs>
</defs>
<g>
	<path class="st0" d="M34.012,81.886c0.917,0.223,1.201,0.065,2.633,0.326c-2.918,3.106-5.731,3.925-10.096,5.929
		c-4.027,1.848-8.165,3.72-12.584,4.04s-9.249-1.229-11.659-4.946c-2.089-3.221-2.004-7.364-1.518-11.172
		C3.464,55.077,16.05,36.317,31.971,22.386c6.44-5.635,13.458-10.61,20.908-14.819c7.111-4.018,14.968-7.411,23.127-7.038
		c3.214,0.147,6.643,1.032,8.671,3.529c1.839,2.265,2.157,5.471,1.528,8.32s-2.154,5.509-3.596,8.045
		c1.528-3.874,2.837-8.254,1.012-11.997c-1.84-3.775-6.495-5.489-10.679-5.131s-8.024,2.365-11.726,4.349
		c-2.422,1.298-4.846,2.607-7.099,4.18c-1.849,1.291-3.572,2.752-5.292,4.21c-3.613,3.063-7.24,6.141-10.356,9.709
		c-1.314,1.504-2.532,3.089-3.748,4.674c-7.084,9.229-14.188,18.533-19.541,28.863c-2.576,4.971-5.308,9.892-7.23,15.151
		c-1.083,2.965-1.954,6.384-0.47,9.17c1.453,2.729,4.763,3.957,7.851,4.121c5.31,0.282,10.415-1.859,15.301-3.959
		C32.536,82.943,32.478,83.307,34.012,81.886z"/>
	<g>
		<path class="st1" d="M31.971,22.386c5.194-4.545,10.769-8.651,16.638-12.282c-0.315-0.012-0.629-0.04-0.944-0.044
			c-3.084-0.038-6.158,0.328-9.222,0.692c-2.797,0.333-5.611,0.67-8.313,1.467c-2.294,0.677-4.478,1.677-6.651,2.676
			c-2.495,1.147-5.016,2.313-7.16,4.029c-3.364,2.691-5.568,6.538-7.639,10.316c-2.616,4.772-3.7,10.044-3.758,15.486
			c-0.042,3.833,0.499,7.658,1.54,11.344C12.158,43.2,21.315,31.71,31.971,22.386z"/>
		<path class="st1" d="M40.231,50.066c14.403,0.254,28.661,1.633,43.05,0.949c-0.099-10.354-3.824-20.903-10.19-29.069
			c-1.082-1.387-2.243-2.718-3.557-3.887c-1.127-1.004-2.361-1.884-3.644-2.68c-3.25-2.018-6.834-3.48-10.557-4.359
			c-0.409,0.264-0.818,0.525-1.218,0.803c-1.849,1.291-3.572,2.752-5.292,4.21c-3.613,3.063-7.24,6.141-10.356,9.708
			c-1.314,1.504-2.532,3.089-3.748,4.673c-7.084,9.229-14.188,18.533-19.541,28.863c-1.311,2.531-2.662,5.05-3.927,7.606
			c2.076,3.323,4.609,6.358,7.557,8.944c1.306,1.146,2.697,2.216,4.257,2.982c1.617,0.794,3.378,1.245,5.132,1.658
			c4.534,1.07,9.118,1.933,13.731,2.583c2.966,0.418,6.009,0.747,8.938,0.116c2.753-0.593,5.294-2.015,8.078-2.442
			c1.012-0.156,2.049-0.178,3.035-0.455c1.25-0.349,2.35-1.085,3.426-1.811c3.272-2.205,6.581-4.44,9.214-7.378
			c2.144-2.393,3.782-5.187,5.404-7.959c1.032-1.764,2.107-3.977,1.626-5.963c-4.626,0.208-9.252,0.415-13.879,0.623
			c-3.673,0.165-7.463,0.048-10.936-0.217c-0.138,2.485-0.166,3.9-1.85,5.848c-0.773,0.894-1.819,1.646-2.846,2.231
			c-0.917,0.523-2.037,0.484-3.092,0.432c-1.906-0.096-3.812-0.192-5.719-0.289c-1.134-0.057-2.292-0.119-3.346-0.54
			c-1.871-0.747-3.126-2.487-4.267-4.148c-2.124-3.09-4.313-6.576-3.833-10.295C34.578,50.026,37.427,50.017,40.231,50.066z
			 M38.63,30.257c1.911-0.913,4.087-1.044,6.202-1.16c1.017-0.056,2.033-0.111,3.05-0.167c1.097-0.061,2.25-0.11,3.236,0.374
			c1.209,0.593,1.916,1.856,2.548,3.046c0.769,1.446,1.538,2.893,2.306,4.339c0.431,0.81,0.744,1.709,0.693,2.625
			c-7.833,0.637-15.838,0.778-23.685,0.354C33.407,35.862,35.175,31.907,38.63,30.257z"/>
	</g>
</g>
</svg>