<svg xmlns="http://www.w3.org/2000/svg" xmlns:xlink="http://www.w3.org/1999/xlink" width="129.209" height="125.943" viewBox="0 0 129.209 125.943">
  <defs>
    <clipPath id="clip-path">
      <path id="Path_2" data-name="Path 2" d="M4.129-83.83v25.743l25.644-5V-78.827Zm21.956,0v25.742l-25.644-5V-78.827Zm-.667.8L1.107-78.277V-63.64l24.31,4.748ZM15.136-62.8a8.162,8.162,0,0,1-8.162-8.162,8.162,8.162,0,0,1,8.162-8.162A8.162,8.162,0,0,1,23.3-70.959a8.156,8.156,0,0,1-2.389,5.774A8.156,8.156,0,0,1,15.136-62.8Z" transform="translate(-0.44 83.83)" fill="#fff"/>
    </clipPath>
    <clipPath id="clip-path-2">
      <path id="Path_4" data-name="Path 4" d="M34.207-49.773a6.22,6.22,0,0,1-6.22-6.22,6.22,6.22,0,0,1,6.22-6.22,6.22,6.22,0,0,1,6.22,6.22A6.222,6.222,0,0,1,34.207-49.773Zm0-11.773a5.553,5.553,0,0,0-5.553,5.553,5.553,5.553,0,0,0,5.553,5.553,5.553,5.553,0,0,0,5.553-5.553A5.56,5.56,0,0,0,34.207-61.546Z" transform="translate(-27.987 62.213)" fill="#fff"/>
    </clipPath>
  </defs>
  <g id="Group_131" data-name="Group 131" transform="translate(-3109.204 -117.419)">
    <path id="Subtraction_2" data-name="Subtraction 2" d="M6.282,101.563h0c-1.954-.263-4.009-.609-6.282-1.057.133-1.68.268-3.4.4-5.1V95.4l.087-1.1,0-.022,0-.055c1.188-15.109,2.416-30.729,4-46.482.244,18.611,1.1,38.12,1.782,53.8v.033ZM42.154,8.127A6.071,6.071,0,0,1,40.984,8l-.048-.009a6.881,6.881,0,0,0-1.34-.137H39.56c-5.7.029-11.452.076-17.018.121l-.2,0c-4.342.036-8.592.07-12.854.1.441-2.777.9-5.493,1.356-8.072,5.9.694,11.856,1.376,17.115,1.978h.008l.532.061C33.918,2.66,39.515,3.3,45.049,3.953a7.006,7.006,0,0,1,1.393.318,5.519,5.519,0,0,0,1.645.308c.275.009.5.014.7.014.182,0,.32,0,.467-.008H49.3c.154,0,.331-.008.581-.008.135,0,.28,0,.443,0a15.016,15.016,0,0,1,1.946.193h.008c.467.068.95.137,1.457.174.934.068,1.871.111,2.777.152h.029a43.12,43.12,0,0,1,6.34.6c.665.128,1.642.265,2.9.406-.109.207-.214.42-.311.636-.082.183-.163.372-.238.564-1.377.074-3.675.16-5.624.16-.894,0-1.614-.018-2.14-.054-.568-.039-1.148-.058-1.773-.058-1.551,0-3.1.12-4.592.235l-.058,0c-.9.069-1.822.139-2.746.185-.206.01-.43.015-.685.015-.277,0-.555-.006-.779-.011s-.5-.011-.762-.011a11.2,11.2,0,0,0-1.205.057c-.52.055-.792.1-1.033.133l-.013,0h-.006c-.3.044-.554.083-1.175.138C42.476,8.119,42.313,8.127,42.154,8.127Z" transform="translate(3109.737 117.971)" fill="none" stroke="#fff" stroke-miterlimit="10" stroke-width="1"/>
    <path id="Subtraction_4" data-name="Subtraction 4" d="M9.526,102.16c-2.26,0-4.661-.1-7.34-.29-.089-2.06-.179-4.127-.272-6.239v-.014C.588,65.289-.915,30.916.7.791,6.39.763,12.137.716,17.695.671h.011l.2,0h.2C23.668.622,29.428.575,35.132.546h.042a6.937,6.937,0,0,1,1.334.137l.045.008a6.091,6.091,0,0,0,1.173.129c.158,0,.321-.007.5-.023C38.843.742,39.1.7,39.4.659H39.4c.241-.036.515-.077,1.048-.134a10.964,10.964,0,0,1,1.2-.057c.232,0,.465,0,.692.009h.077c.224,0,.5.011.779.011.254,0,.478,0,.684-.015C44.8.428,45.726.357,46.618.289l.061,0c1.5-.116,3.052-.236,4.6-.236.619,0,1.2.019,1.774.058.526.036,1.244.054,2.136.054,1.953,0,4.253-.086,5.629-.16A19.016,19.016,0,0,0,59.65,5.858c-1.128.059-2.272.168-3.379.272-.911.086-1.853.175-2.795.239-.41.027-.808.031-1.144.031h-.661a12.916,12.916,0,0,0-1.625.081c-.528.066-.8.112-1.043.152-.3.05-.554.093-1.179.16a5.494,5.494,0,0,1-.584.032,6.293,6.293,0,0,1-1.091-.11l-.037-.006a7.041,7.041,0,0,0-1.228-.116l-.155,0c-5.736.129-11.531.278-17.135.421h-.006c-5.65.145-11.492.294-17.277.424-1.094,30.15,1,64.411,2.855,94.639-1.27.054-2.46.08-3.64.08h0Z" transform="translate(3114.165 125.277)" fill="none" stroke="#fff" stroke-miterlimit="10" stroke-width="1"/>
    <path id="Subtraction_5" data-name="Subtraction 5" d="M9.418,102.793h0c-1.822,0-3.743-.057-5.87-.174-.127-2.083-.257-4.2-.382-6.257C1.31,66.066-.793,31.728.3,1.582c5.785-.13,11.626-.28,17.276-.424h.005c5.605-.144,11.4-.292,17.137-.421l.155,0A7.041,7.041,0,0,1,36.1.85l.037.006a6.3,6.3,0,0,0,1.091.11,5.491,5.491,0,0,0,.584-.032c.627-.067.883-.11,1.181-.16.241-.041.515-.087,1.041-.152A12.758,12.758,0,0,1,41.672.54h.646c.337,0,.736,0,1.147-.031C44.408.448,45.35.359,46.26.272,47.368.168,48.513.059,49.642,0c-.088,1.381-.094,2.755-.093,4.28.016,16.586.032,31.429.048,45.783V50.5c.015,14.264.031,29.014.047,45.348a45.41,45.41,0,0,0,.213,4.636c-1.8.085-4.2.214-6.735.473-2.442.25-5.5.429-9.08.533-1.063.031-2.26.1-3.418.168s-2.378.139-3.449.169c-3.526.1-6.141.314-8.671.518C15.65,102.575,12.954,102.793,9.418,102.793Z" transform="translate(3124.175 131.135)" fill="none" stroke="#fff" stroke-miterlimit="10" stroke-width="1"/>
    <path id="Path_1315" data-name="Path 1315" d="M1658.493,889.044c-3.3.386-6.565,3.4-8.035,6.663s-1.5,7.057-1.493,10.7c.032,33,.064,58.564.1,91.565.006,5.483.652,12.144,5.147,14.434a11.921,11.921,0,0,0,5.3.913c15.683.285,29.286.249,44.97.534.885.016,3.615-1.508,4.423-1.907a5.635,5.635,0,0,0,2.213-2.317c1.959-3.652,2.072-6.218,2.044-10.468-.221-33.1-.441-58.769-.663-91.871a52.048,52.048,0,0,0-.682-9.8c-.562-2.837-1.744-5.739-4.01-7.2-1.833-1.182-4.065-1.228-6.186-1.243C1687.248,888.955,1672.857,889.142,1658.493,889.044Z" transform="translate(1524.758 -770.994)" fill="none" stroke="#fff" stroke-miterlimit="10" stroke-width="1"/>
    <path id="Path_1316" data-name="Path 1316" d="M1705.779,991.637c.005-30.893.277-54.269.372-84.778-16.87-.214-34.474-.644-51.083-.85-.5,26.052-.448,40.592-.482,65.252-.008,6.16-.132,13.567.187,20.308,8.068.456,10.069.388,17.7.326a47.058,47.058,0,0,1,6.429,0c1.552.224,7.562-.077,9.118.089,1.877.2,3.761-.141,5.645-.106A119.333,119.333,0,0,0,1705.779,991.637Z" transform="translate(1525.419 -768.988)" fill="none" stroke="#fff" stroke-linejoin="round" stroke-width="1"/>
    <path id="Path_1317" data-name="Path 1317" d="M1679.16,976.239a4.633,4.633,0,0,0-5.744,4.717,4.168,4.168,0,0,0,2.393,3.4,4.993,4.993,0,0,0,2.142.385,4.582,4.582,0,0,0,3.067-1.139,4.756,4.756,0,0,0,1.28-3.385,4.053,4.053,0,0,0-.9-2.823A3.738,3.738,0,0,0,1679.16,976.239Z" transform="translate(1527.644 -748.492)" fill="none" stroke="#fff" stroke-linejoin="round" stroke-width="1"/>
    <path id="Path_1318" data-name="Path 1318" d="M1673.8,896.673c2.915-.094,5.937-.116,8.853-.07.589.009,1.279.075,1.59.576a1.5,1.5,0,0,1,.186.643,1.553,1.553,0,0,1-.2,1.11c-.417.554-1.335.331-2.026.4-.746.075-1.338-.06-2.089-.046-.7.013-1.535-.034-2.4.009-1.4.069-2.464-.051-3.863.037a1.128,1.128,0,0,1-.89-.41,1.9,1.9,0,0,1-.238-.846,1.128,1.128,0,0,1,.112-.792A1.633,1.633,0,0,1,1673.8,896.673Z" transform="translate(1526.444 -772.338)" fill="none" stroke="#fff" stroke-linejoin="round" stroke-width="1"/>
    <g id="Group_129" data-name="Group 129" transform="translate(3191.31 167.173)">
      <g id="Group_3" data-name="Group 3" transform="translate(0 0)" clip-path="url(#clip-path)">
        <path id="Path_1" data-name="Path 1" d="M-4.56-88.83H27.85v28.82H-4.56Z" transform="translate(3.021 87.292)" fill="#fff"/>
      </g>
      <g id="Group_4" data-name="Group 4" transform="translate(8.476 6.652)" clip-path="url(#clip-path-2)">
        <path id="Path_3" data-name="Path 3" d="M22.987-67.213H38.5V-51.7H22.987Z" transform="translate(-24.526 65.674)" fill="#fff"/>
      </g>
    </g>
  </g>
</svg>
