<svg xmlns="http://www.w3.org/2000/svg" width="145.788" height="170.944" viewBox="0 0 145.788 170.944">
  <g id="Group_71" data-name="Group 71" transform="translate(-667.602 -147.159)">
    <g id="Group_69" data-name="Group 69">
      <path id="Path_946" data-name="Path 946" d="M770.773,262.056l-8.8.3a5.506,5.506,0,0,0-1.438.176,4.169,4.169,0,0,0-2.145,1.817c-.6.92-.991,2.189-.338,3.071.543.733,1.706,1.046,1.826,1.95-1.111.422-2.346.093-3.534.037a7.585,7.585,0,0,0-3.572.71c-1.14.535-2.255,1.672-1.928,2.888.306,1.14,1.676,1.605,2.855,1.664a17.968,17.968,0,0,0,5.452-.822q3.211-.848,6.387-1.831c.731-.226,1.557-.549,1.8-1.275.32-.964-.6-1.859-1.411-2.465" fill="none" stroke="#1a1718" stroke-linecap="round" stroke-linejoin="round" stroke-width="1"/>
      <path id="Path_947" data-name="Path 947" d="M766.334,271.931l3.988,3.766a1.29,1.29,0,1,0,.287,2.436,1.886,1.886,0,0,0,1.656,1.989,3.109,3.109,0,0,1,.876.084c.5.192.693.792.8,1.318,1.621,7.9-1.212,16-1.371,24.067a3.8,3.8,0,0,0,.46,2.273c.673.967,2.01,1.137,3.185,1.221.694.049,1.628-.086,1.712-.776a1.474,1.474,0,0,0-.19-.748,10.364,10.364,0,0,1-.838-4.872c.18-2.506,1.26-4.843,2.078-7.219a35.561,35.561,0,0,0,1.9-10.068,4.56,4.56,0,0,1,.542-2.458,1.456,1.456,0,0,1,2.179-.344,2.215,2.215,0,0,1,.318,1.462,17.546,17.546,0,0,0,3.372,10.351c.679.924,1.447,1.779,2.213,2.632,1.377,1.533,2.9,3.15,4.915,3.565a2.383,2.383,0,0,0,1.612-.141,1.2,1.2,0,0,0,.62-1.383,2.053,2.053,0,0,0-.616-.746c-3.234-2.935-4.241-7.534-5.078-11.82a8.829,8.829,0,0,1-.03-4.845,13.249,13.249,0,0,1,1.379-2.3,12.985,12.985,0,0,0,1.49-3.2,2.257,2.257,0,0,1,.435-.923,2.063,2.063,0,0,1,.851-.457l2.447-.849a6.988,6.988,0,0,1,3.252-.573c3.393.5,4.74,5.547,8.157,5.829a1.033,1.033,0,0,0,.479-.047,1.236,1.236,0,0,0,.529-.569,8.275,8.275,0,0,0,1.441-3.694,11.819,11.819,0,0,0-.976-4,8,8,0,0,1-.4-2.092c-.028-.76.1-1.521.055-2.28-.183-3.226-3.453-5.584-6.671-5.881a18.793,18.793,0,0,0-3.754.136c-2.223.238-4.44.531-6.659.8-3.289.4-6.676.734-9.872-.138-2.448-.667-4.905-2.04-7.367-1.43-1.86.461-3.386,2.011-5.3,2.132" fill="none" stroke="#1a1718" stroke-linecap="round" stroke-linejoin="round" stroke-width="1"/>
      <path id="Path_948" data-name="Path 948" d="M797.555,263.262a1.556,1.556,0,0,0-1.18,1,4.242,4.242,0,0,0-.232,1.594q-.011,1.3.074,2.592a6.978,6.978,0,0,0,.369,2.077.881.881,0,0,0,.492.578.994.994,0,0,0,.825-.285,4.1,4.1,0,0,0,.86-.781,16.417,16.417,0,0,0,.97-2.5,5.479,5.479,0,0,1,1.286-1.467,6.633,6.633,0,0,1,1.515-1.12" fill="none" stroke="#1a1718" stroke-linecap="round" stroke-linejoin="round" stroke-width="1"/>
      <path id="Path_949" data-name="Path 949" d="M805.8,267.8a2.057,2.057,0,0,1-1.757-.114" fill="none" stroke="#1a1718" stroke-linecap="round" stroke-linejoin="round" stroke-width="1"/>
      <path id="Path_950" data-name="Path 950" d="M767.734,278.781a20.994,20.994,0,0,0-13.024,3.186c-6.559,4.123-9.277,18.084-9.277,18.084" fill="none" stroke="#1a1718" stroke-linecap="round" stroke-linejoin="round" stroke-width="1" stroke-dasharray="2 3"/>
      <path id="Path_951" data-name="Path 951" d="M805.655,295.1a8.957,8.957,0,0,0,3.186,3.793.937.937,0,0,0,.562.21c.413-.03.6-.524.668-.933.211-1.306.194-2.733.971-3.8a13.281,13.281,0,0,0,1.662,4.412" fill="none" stroke="#1a1718" stroke-linecap="round" stroke-linejoin="round" stroke-width="1"/>
    </g>
    <g id="Group_70" data-name="Group 70" transform="translate(-2 1)">
      <path id="Path_952" data-name="Path 952" d="M709.028,174.237c.64.621,1.295,1.232,1.935,1.853.053.052.111.123.084.192s-.353.174-.427.205a2.293,2.293,0,0,1-1.106.229,3.14,3.14,0,0,1-1.406-.721,10.38,10.38,0,0,1-1.418-1.159.6.6,0,0,0-.288-.186c-.141-.027-.309-.044-.406.114-.168.246-.362.256-.613.336-.4.127-.98-.268-1.4-.265-.393,0-.608.24-.983.357a1.156,1.156,0,0,1-1.117-.117,2.262,2.262,0,0,0-.175-.165,1.014,1.014,0,0,0-.289-.122,3.469,3.469,0,0,1-1.066-.6,4.931,4.931,0,0,1-1.716-2.717,7.757,7.757,0,0,1-.163-1.7,4.48,4.48,0,0,1,.134-1.312c.122-.409.345-.782.486-1.186a1.491,1.491,0,0,0-.029-1.241,1.524,1.524,0,0,0-1.333-.6c-.092,0-.2-.007-.251-.084-.086-.134.1-.277.245-.333.408-.153.819-.316,1.227-.47a2.357,2.357,0,0,1,.923-.961,2.748,2.748,0,0,1,2.231-.017,2.973,2.973,0,0,1,.791.72,5.543,5.543,0,0,1,.656.977,9.511,9.511,0,0,0,.524.982,4.364,4.364,0,0,0,.984.838,7.108,7.108,0,0,1,1.572,1.568c.168.232.32.476.468.722a16.691,16.691,0,0,1,1.693,3.547A3,3,0,0,1,709.028,174.237Z" fill="none" stroke="#040505" stroke-linecap="round" stroke-linejoin="round" stroke-width="1"/>
      <path id="Path_953" data-name="Path 953" d="M702.554,175.287a6.127,6.127,0,0,0-.388.978l-.824,2.239a1.667,1.667,0,0,1-.225.46c-.18.231-.5.3-.761.435a5.946,5.946,0,0,0-.807.45" fill="none" stroke="#040505" stroke-linecap="round" stroke-linejoin="round" stroke-width="1"/>
      <path id="Path_954" data-name="Path 954" d="M705.33,175.219c-.165,1.5-.217,2.763-.489,4.249a1.073,1.073,0,0,1-.294.667c-.314.257-.659.163-1.079.5" fill="none" stroke="#040505" stroke-linecap="round" stroke-linejoin="round" stroke-width="1"/>
      <path id="Path_955" data-name="Path 955" d="M701.106,178.994a.4.4,0,0,1,.284.068,1.88,1.88,0,0,0,.257.154c.211.085.557.1.773.17" fill="none" stroke="#040505" stroke-linecap="round" stroke-linejoin="round" stroke-width="1"/>
      <path id="Path_956" data-name="Path 956" d="M701.99,164.894a.763.763,0,0,1-.209.553.6.6,0,0,1-.148.089.806.806,0,0,1-.583.04.615.615,0,0,1-.4-.412,1.065,1.065,0,0,1-.027-.218.616.616,0,0,1,.015-.214.391.391,0,0,1,.2-.221.89.89,0,0,1,.293-.079.919.919,0,0,1,.577.08A.6.6,0,0,1,701.99,164.894Z" fill="#040505"/>
    </g>
    <path id="Path_957" data-name="Path 957" d="M721.927,178.624c.041-.128-.421-.269-.38-.4a2.221,2.221,0,0,0,2.346-.915c.347-.676.418-1.463.731-2.154.224-.494.565-.924.815-1.4a8.584,8.584,0,0,0,.682-3.735l.194-6.226a8.395,8.395,0,0,0-1.4-6.107,9.015,9.015,0,0,0-2.037-2.6,8,8,0,0,0-3.359-1.307c-1.819-.372-3.814-.575-5.442.318-.319.175-.618.389-.951.535a8.658,8.658,0,0,1-.925.3,8.528,8.528,0,0,0-5.256,5.731,20.811,20.811,0,0,0-.522,8.02,5.114,5.114,0,0,0,.384,1.817,14.851,14.851,0,0,0,.821,1.256,11.752,11.752,0,0,1,1.328,5.461" fill="none" stroke="#1a1718" stroke-linecap="round" stroke-linejoin="round" stroke-width="1"/>
    <path id="Path_958" data-name="Path 958" d="M718.26,225.84c7.679-.988,14.929-2.025,22.608-3.013,1.92-.247,3.949-.48,5.727.286,2.853,1.229,4.1,4.565,4.708,7.612a43.257,43.257,0,0,1,.692,4.86,2.044,2.044,0,0,1-.183,1.3,2.1,2.1,0,0,1-1.3.715c-6.15,1.633-12.348,3.275-18.7,3.675-1.922.122-3.99.089-5.578-1a8.072,8.072,0,0,1-2.8-4.614,23.111,23.111,0,0,0-1.728-5.214c-.907-1.6-2.608-2.923-4.432-2.715-1.411.161-3.2,1.517-4.591,1.812.523,6.133,1.457,14.279,1.98,20.412.121,1.42.3,2.974,1.34,3.952a5.265,5.265,0,0,0,2.535,1.126c6.824,1.527,13.92.065,20.759-1.4a55.029,55.029,0,0,0,9.348-2.58,4.419,4.419,0,0,0,2.224-1.568,4.365,4.365,0,0,0,.489-2.123,30.67,30.67,0,0,0-1.335-9.25" fill="none" stroke="#1a1718" stroke-linecap="round" stroke-linejoin="round" stroke-width="1"/>
    <path id="Path_959" data-name="Path 959" d="M723.882,237.365a23.1,23.1,0,0,1,1.028,2.623,66.872,66.872,0,0,1,1.315,15.462" fill="none" stroke="#1a1718" stroke-linecap="round" stroke-linejoin="round" stroke-width="1"/>
    <path id="Path_960" data-name="Path 960" d="M713.481,240.27a28.919,28.919,0,0,1-6.767.261,8.2,8.2,0,0,1-4.239-1.182,6.31,6.31,0,0,1-2.341-3.96,20.47,20.47,0,0,1-.193-4.7,151.447,151.447,0,0,0-2.006-29.612,29.555,29.555,0,0,0-.923-4.158c-.37-1.159-.87-2.277-1.171-3.455a14,14,0,0,1-.371-3.994,20.12,20.12,0,0,1,2.205-8.431c1.241-2.415,5.657-.616,8.142-1.71a28.512,28.512,0,0,0,3.119-2.106,11.184,11.184,0,0,1,5.111-1.344,11.359,11.359,0,0,1,5.224.631,5.193,5.193,0,0,1,3.247,3.9" fill="none" stroke="#1a1718" stroke-linecap="round" stroke-linejoin="round" stroke-width="1"/>
    <path id="Path_961" data-name="Path 961" d="M738.125,205.226c.107,1.038.595,1.017,1.085,1.939a47.148,47.148,0,0,1,2.641,7.446,37.515,37.515,0,0,0,3.693,7.908" fill="none" stroke="#1a1718" stroke-linecap="round" stroke-linejoin="round" stroke-width="1"/>
    <path id="Path_962" data-name="Path 962" d="M739.155,218.25a13.375,13.375,0,0,0,2.493,4.33" fill="none" stroke="#1a1718" stroke-linecap="round" stroke-linejoin="round" stroke-width="1"/>
    <path id="Path_963" data-name="Path 963" d="M738.863,222.683a50.7,50.7,0,0,0-.831-15.958c-.2-.931-.275-2.177.6-2.55a2.231,2.231,0,0,1,1.32.03,12.68,12.68,0,0,0,8.55-1.249,3.724,3.724,0,0,0,1.686-1.528,3.535,3.535,0,0,0,.274-1.516c.018-4.323-2.854-8.072-5.753-11.277a119.621,119.621,0,0,0-9.16-9.093,1.111,1.111,0,0,0-.519-.313,1.024,1.024,0,0,0-.588.127,6.116,6.116,0,0,0-2.613,2.293" fill="none" stroke="#1a1718" stroke-linecap="round" stroke-linejoin="round" stroke-width="1"/>
    <path id="Path_964" data-name="Path 964" d="M726.514,181.906a10.255,10.255,0,0,0,3.588-.173,2.508,2.508,0,0,1,1.059-.188,1.986,1.986,0,0,1,.849.43c2.263,1.663,4.38,3.515,6.495,5.364l5.565,4.866" fill="none" stroke="#1a1718" stroke-linecap="round" stroke-linejoin="round" stroke-width="1"/>
    <path id="Path_965" data-name="Path 965" d="M722.6,180.256c-3.387,3.771-4.1,9.165-4.663,14.2l-3.786,33.965" fill="none" stroke="#1a1718" stroke-linecap="round" stroke-linejoin="round" stroke-width="1"/>
    <path id="Path_966" data-name="Path 966" d="M722.569,180.384a4.47,4.47,0,0,1,3.684,1.55c-2.367,2.991-3.365,6.822-4.082,10.569-.756,3.949-1.265,7.94-1.7,11.937-.832,7.585-1.407,15.208-2.74,22.721" fill="none" stroke="#1a1718" stroke-linecap="round" stroke-linejoin="round" stroke-width="1"/>
    <path id="Path_967" data-name="Path 967" d="M734.936,178.707c.186-.862-.23-1.771-.036-2.631a6.881,6.881,0,0,1,.487-1.167,5.041,5.041,0,0,0-1.063-5.252,7.3,7.3,0,0,0-5.079-2.163c-.274.7.458,1.34.96,1.9a3.808,3.808,0,0,1,.93,2.061c.04.327,0,.727-.295.877-.576.3-1.033-.715-1.679-.767a.847.847,0,0,0-.806.7,2.463,2.463,0,0,0,.1,1.143c.681,2.778,1.394,5.628,3.035,7.97" fill="none" stroke="#1a1718" stroke-linecap="round" stroke-linejoin="round" stroke-width="1"/>
    <path id="Path_968" data-name="Path 968" d="M726.412,167.881a23.912,23.912,0,0,0,2.483-.048" fill="none" stroke="#1a1718" stroke-linecap="round" stroke-linejoin="round" stroke-width="1"/>
    <path id="Path_969" data-name="Path 969" d="M725.335,175.1h3.513" fill="none" stroke="#1a1718" stroke-linecap="round" stroke-linejoin="round" stroke-width="1"/>
    <path id="Path_970" data-name="Path 970" d="M728.568,175.635a1.222,1.222,0,0,1-.225,1.256c-.56.612-1.58.5-2.247,1-.8.592-.829,1.825-1.536,2.527" fill="none" stroke="#1a1718" stroke-linecap="round" stroke-linejoin="round" stroke-width="1"/>
    <path id="Path_971" data-name="Path 971" d="M726.042,164.735a2.039,2.039,0,0,0-2.251.528,4.827,4.827,0,0,0-.755,1.554,11.24,11.24,0,0,1-1.377,2.582,4.638,4.638,0,0,1-1.941,1.705,5.433,5.433,0,0,1-1.263.293,51.189,51.189,0,0,1-10.394.446" fill="none" stroke="#1a1718" stroke-linecap="round" stroke-linejoin="round" stroke-width="1"/>
    <path id="Path_972" data-name="Path 972" d="M701.372,238.609a45.11,45.11,0,0,0-.849,8.7c.062,7.137,2.265,14.087,2.82,21.2.256,3.28.16,6.577.128,9.867-.089,9.266,1.246,16.819,1.671,26.075a15.968,15.968,0,0,0,1.124,3.8,7.074,7.074,0,0,0,2.577,2.811,5.225,5.225,0,0,0,2.9,1.031,7.843,7.843,0,0,0,3.842-1.312c1.515-1.064,1.124-1.171,1.5-4.029,1.215-9.268,2.152-18.91,2.636-28.245a160.15,160.15,0,0,1,2.3-19.988,1.482,1.482,0,0,1,.189-.577,1.126,1.126,0,0,1,.824-.426c1.865-.22,3.109,1.846,3.707,3.626,3.678,10.935,4.836,20.059,3.411,31.508-.2,1.645-.365,7.5.656,8.808.692.884,1.484.529,2.436,1.124,1.125.7,2.875.54,4.92.375s3.121-1.132,4.06-2.955a9.054,9.054,0,0,0,.744-2.6,118.3,118.3,0,0,0-.606-44.14" fill="none" stroke="#1a1718" stroke-linecap="round" stroke-linejoin="round" stroke-width="1"/>
    <path id="Path_973" data-name="Path 973" d="M730.91,301.738a18.957,18.957,0,0,0-.724,4.6,2.872,2.872,0,0,0,.539,2.278,2.818,2.818,0,0,0,1.653.619,16.682,16.682,0,0,0,5.2-.022,24,24,0,0,0,2.694-.709l4.368-1.33a3.76,3.76,0,0,0,3.1-3.129,2.194,2.194,0,0,0,.113-1.711c-.369-.7-1.32-.78-2.112-.848a7.871,7.871,0,0,1-3.677-1.059" fill="none" stroke="#1a1718" stroke-linecap="round" stroke-linejoin="round" stroke-width="1"/>
    <path id="Path_974" data-name="Path 974" d="M716.386,310.265a7.523,7.523,0,0,1,.75,3.467,4.106,4.106,0,0,1-.889,2.483,3.654,3.654,0,0,1-4.034,1.154,10.687,10.687,0,0,1-3.768-2.379c-2.788-2.364-5.626-4.787-7.519-7.914-.43-.711-.75-1.763-.086-2.262a3.236,3.236,0,0,1,2.135-.459c.7,0,1.464.217,2.167.217" fill="none" stroke="#1a1718" stroke-linecap="round" stroke-linejoin="round" stroke-width="1"/>
    <path id="Path_975" data-name="Path 975" d="M732.58,198.712c-1.728.483-3.412-.783-4.762-1.966l-1.212-1.062" fill="none" stroke="#1a1718" stroke-linecap="round" stroke-linejoin="round" stroke-width="1"/>
    <path id="Path_976" data-name="Path 976" d="M732.789,204c-.93-.073-1.68.686-2.457,1.2a5.318,5.318,0,0,1-3.517.847" fill="none" stroke="#1a1718" stroke-linecap="round" stroke-linejoin="round" stroke-width="1"/>
    <path id="Path_977" data-name="Path 977" d="M672.157,309.284a11.441,11.441,0,0,1-4.055-4.375,13.449,13.449,0,0,1,13.034,3.689,18.431,18.431,0,0,0-.423-5.531c1.312-.377,2.661.437,3.677,1.348s1.979,2,3.3,2.354q.03-1.941.239-3.873a.911.911,0,0,1,.31-.713c.317-.2.718.05,1.007.288q3.879,3.188,7.739,6.4" fill="none" stroke="#1a1718" stroke-linecap="round" stroke-linejoin="round" stroke-width="1"/>
    <path id="Path_978" data-name="Path 978" d="M721.941,152.169a8.2,8.2,0,0,1,1.631-4.51,4.962,4.962,0,0,1,.817,2.808l3.968.04a16.936,16.936,0,0,1-1.184,2.3l3.865.307a3.254,3.254,0,0,1-1.489,1.963c-.268.156-.612.383-.522.68.052.172.233.264.4.338l3.607,1.616a31.444,31.444,0,0,1-4.466,1.548" fill="#dd342c" stroke="#1a1718" stroke-linecap="round" stroke-linejoin="round" stroke-width="1"/>
  </g>
</svg>
